<mxfile host="app.diagrams.net" modified="2022-01-30T19:51:40.970Z" agent="5.0 (X11; Linux x86_64) AppleWebKit/537.36 (KHTML, like Gecko) Chrome/96.0.4664.110 Safari/537.36" etag="WlFFmcXIG-rrZtNKXmuO" version="16.5.2" type="github">
  <diagram id="NfZnx23fm513d9H5mu_y" name="Page-1">
    <mxGraphModel dx="1102" dy="581" grid="1" gridSize="10" guides="1" tooltips="1" connect="1" arrows="1" fold="1" page="1" pageScale="1" pageWidth="827" pageHeight="1169" math="0" shadow="0">
      <root>
        <mxCell id="0" />
        <mxCell id="1" parent="0" />
        <mxCell id="6NrCRAWB-HUcKBT-atEr-7" value="" style="shape=image;verticalLabelPosition=bottom;labelBackgroundColor=default;verticalAlign=top;aspect=fixed;imageAspect=0;image=data:image/png,iVBORw0KGgoAAAANSUhEUgAAAaQAAAEeCAIAAABKf/ZxAAAAA3NCSVQICAjb4U/gAAAgAElEQVR4Xuy9B5wdR5Xvf/vmeyfnkUbSaJRzlhVsSca2HHEi2AYbTPjAvmVZ0lvYfQ/YhX2wf1jSEmzAgWxjAw5gnOUgWbYs2ZIlK+ecJqebQ/+/p+reyVEzkmakbo1m7u2urq4+depXJ9UpY9TocltXx9Ejh7o6bZ2zKGBRwKLAsKSAfVi22mq0RQGLAhYF+kkBC+z6STCruEUBiwLDkwIW2A3PfrNabVHAokA/KWCBXT8JZhW3KGBRYHhSwAK74dlvVqstClgU6CcFLLDrJ8Gs4hYFLAoMTwpYYDc8+81qtUUBiwL9pIAFdv0kmFXcooBFgeFJAQvshme/Wa22KGBRoJ8UsMCunwSzilsUsCgwPClggd3w7Der1RYFLAr0kwIW2PWTYFZxiwIWBYYnBSywG579ZrXaooBFgX5SwAK7fhLMKm5RwKLA8KSABXbDs9+sVlsUsCjQTwpYYNdPglnFLQpYFBieFLDAbnj2m9VqiwIWBfpJAQvs+kkwq7hFAYsCw5MCFxDYmcOzB4ZjqwdI6u5u57z+OUs00c/t7uln6aFWtWePAj13ZSd2cp55S5Jyq6n+2Qw+yv8zO7iTWsxum24ahiFP6XS03GWaqjU0wrDbKTwcD8Nm2A1b0paUd+n4Cvp7C617fT9oEI/HnU6XvjHZPXF7raqlgOpk+QW1pUfkU+pM3ytJlezcm9L/cpY/1E0/qpLS9ekrQhU+qwLq+Z0r6bEdENZu2IOhkM/nTdff4w2DeVG/Wj9bPJgNGNZ1dZDJzDRXp/mwi5dTDKrZFKqrCgYAdorbYtEY3CNYZNIC+acOvqc+ddGMVi6FlYXDw5Ewvz1eT8v9be+KxWMul7tL5tYAybuoD9QGWqResMvnDuWTvObevXvHjCnPyPCnwY6Xku4KBIKHDx+aMnmKIrAgQS8vYponTpx46OGHPv/5z3s9XgUQAx1mtKM50HzkyBHdJI/bU1BYmJeXm0yaiURCMVa7RqWZQZ1t93Tpok7tT3IuEonu37dv0qRJTqcTtgCYIpHI0WNHJ06YqHGQ/q2qqgyHI6NGlZ3JG5m2puamH/3ofz73uc/l5uZ0asPZPCEvMNAuOJvtG9p1mx3BDm6x2+3xWEyGRyfmEw6zGw6Hw+v1Oh3OFnYbANhBH8SHRLypqdHj8bhcLt2has6UUdqJfvq67vJUA5NJWyQaoeXUYCb51gVDGDZHY2NThj9DQVm7o4XjGW/c6nCqajuW6tSQIXjCNKuraj//+S9+8pOfvPPOO+OxuGqjvInd4Vi16qUHHrj/17/+VV5enqCAnqfSc4Z+3bYUh5BNzc3vvPMOwl3SzTcNdinatswo/Rp+sM6O7Tu+9e1vTZw4iZ6KxqIcy5ctv/mWmzMyMuQByda+0xMqv5PJBAg+qmyU3+/vomvbdAStam4K/Mc3vvmNb3xj2rSp1Jcwk9u2b/vO//edn//i57m5edRmmvHf/va3RYXFd33kI7xU/7sxGQqF3tqwgZaLeNj/+/tyh3QEVbchrv424OmmLw+/UMu05W41LmCPRNKwO8LhMPNuB2SgNNqRXakE6bEilBmozY4xkJmRSa2BQIApV0BH+lkYUQZAmwPuZNAxXfPD1WgkAudFYzHa6vF6pS00uc1BMf2NeR6kY5JPAyjM0+6Hp1GYlnQ4P5y+GnaIA+K/8ca6GPMVsK4x2zCCwdDLL7+sqOPQBBE9V65LCdAkRWM+JRN2h9DB4eS/0FlIrUa1yymnuCg3MR05hLp2VZYZUh+U5IPb5eakEpTbycjcmEgmZ86Y+b3vfe873/3OD37wg6/+368eOXrkhz/8IZAqXUvnqoP+krapmQl+uOeeeyqrKjmvwVmu2A2mRv0u0u9qhqOG3Ly8cRXjtmzeogR5GubYunU7THXs6HE+c19TU2DDhrenTZ8ueEI1dod6ln5HqU9ziEzmaQ6hjAtdXgrTINogjCKGDtOESoJIis58gKrCcVKrvQUI5bzAaiuwQuTWL8zDTiGgsLbN5JJoyiJTOPmgjlTvqNe0jkGkQAoBtOJC/zCBKVbvAA7tnjgwyU4QTfjOrQ7wCPyCWfiM8UmYWj9L8RYfGQ+ReAyWQC6gjM/ng7G4AmPoy5rzUncJw8pHgUiGimEwqBi0raymK0ekSCZkbGl0GER6nsOq1IAzwfTMzIxXXn5l5cqViMwMGIxuL77wAuiTmZnJi+vx3NzcuG3btvq6+uzs7GnTpxUWFtLTkAiTwtatW6uqqjgPbkI8TSuIfPjI4V27djMuJ0+ePGLECIY9xQLBAI89fPjw/PnzQ6EweNjc3Lxr1y4QBFArLilWAiZNayG5SVUeOlc6xhhTPuazn/3sl770pbVr1y5fvtwwjUNyHA6HQ2PHjp0+bXowFAS5GuobduzY0dDQMGPGDLpp//69gFcsHi8fMwaNlTcSoFAIyCtctXLlm+vW6deET/bu3XflVSs3vbN5wYKF8ExlZRWl0GqhFQo1LWfKHD169JQpU3gRVIRjR4/l5OYggdK2cePG8dBt27Y31NeXlpZOnTrV5XbJ7G6aNGzfhn319fXFxcW0SrErOJg8ePDgYdofCY8YMXL69OnQAdbct39fSWkJJNUszEPHjxsPz0bCkZ27dkJGdKV58+bRQTS7srJyz549TPxjx1ZMmDBecFC9XQtLn0OeGr6PauG33skGaZm9mFMx9dizZJbXGKJeXgNfKx0GKtnpbgTFqJIBRpd7PR5aAELFYrAiLBEJA4GIm5hkYjFKutzurKwsxDnuUXNhyrcgrRTDHyY8uYt5knrkZVRtDFQ0p44dKMqTmYgnmK07Xhpe3xUdGa7LLlv2x0f+2NjUpNDfhongueeeu+rKq7Skx+9DBw9+6Uv/GxDxZ2RseXfL17/+dcxzYCLizC9+8YvHHnuMyQbN8Q9/+ANzg4gzhvHiiy9+//vfj4TDlVVV//qv/7p7z26YYu3raxHKHn30T3V1dcFA8I3XX7/33nv/9Kc/IQdt3779y1/5cmNDowiAncio+5rfDGO6m3G+9rW1wPH2HTt++tOfNjY2UMNPfvITlGggeM/evaFwCMzasWNnNBLdtm3rb37zG16zqanp2//1X4CFTIhpKKDORZdcAnzQ/ZwDqpjbrr3mmr179gD9vBc4Mmv27PyCgoOHDj1w//1NjY2c/8EPfwDEw3vV1dU//dlP77335xAEhK2tqf3GN765betWNIc//flPv/3d72SysNlo6h//+Eewksfdf//9L77wohIPbc8/9/x3v/vdmtoaKPbnP//pv//7u9FohDIPPPjAgQMHpDdkWrY99NBDjU2NfEW5fvbZZ6mNWWTf3n1cZZ5ABz969CgV3nfffcwBXO1EP+tEXyjQVqQRebyHe0KhIMiQm5tLF9B3PZQcgGTXplr1DPklzxMlQZQQm+GClWXebnOkvqTVJGEgfUhtRjyRAB9hcSoLi6zhZNYFuRlYKHfYfTq/CQ8DPZUM2O5BnUsO/TOg9uw5c5555pnt27ctWrQIhRDIGFlWNnPWLEa1oL/dePzxx69eufK2227j8+WXr3jyiScZfl/+8ldWr15dVVX99a9/ze8XCxqkQwaBONU11U8++eQ/f/afZ82ahR6ak5O96sVVM2bMBBxPn678t3/7tzFjxtBzzI3Hjx3HJIews2zZss9/4Qs7d+5ctHiRsku0Hqn+UsKKOKEMA8Hq4MFDKGzjx4//5je/iQSEEgeA/vWvf/36v3/99ttvQ1K7+eabx42r4N7y8rFf/epXc3Py+EyHvvXW24iQCTzQWn632TBKFhQU7Nm7h/MbN26sGFdRXl5eU1PDIyaMH79n9+4Vy5cn4vGS4mJaTmFuhIPWr18/Z+5ceODkiZOf/tSnZ8ycCePdf9/9U6dO+eQnPslEMHfOHNpWU1NNuxEBpk2ddsuttzATjBk9BjfOe2987/Hjx59++mnqnDB+ApC2cOEl/+f//BsNWLx4iRpCeiqVD4jPvHVTYxO2hR/96EfTpk1nUo/FpH+eePyJD3/4zhUrVrhcTtr2wx/8cOGChSkTzdBnviHUQo0sAik9w5z0vshY3qRIdgEwB/OIMEQa8jog3+AIRHS/UiNbK6cRcImYxsUa0vrDSTlUK1s/CKHlXkRBP3EBPi/iIZILZ5BxOPADwjSizLY/pIakKLmCc/L8VjGhQ8lh8ZW3ASw+8tGPvPLKK+hrfAX4Vl51FYiPORZbUDJhO37i5I033gQFGWBAzJKlS3bt3IUAiLaLNopUBYig18+dO8/txudjnjx5EoIyFre8+y4YikyNoY2OocPGjh07onQEApcgmmFbunRpUVERIjj0nzhxAiipadol6VQfCuSh6jK2+ZydleX1+hCCXnjhhe07toN3VEspbcZFhKcM0y92QyTHp595etfOnYiB7eZsbB/J5MRJk1DkOQ98T50yFSWRdm7ftg0J8dSpU7Nnzwb0mfYQ5Xbv3o1s9e6WLVXV1VpCRN+cNm0ar0/TEPfQNymDJovREPkOKIRVUGbnL5gPNiH5jho9ikHCu2zYsKGgsADc5ylMt/n5edddd92WLVtELWp/iHRn2vwZ/oqKiqf//nRdXS11oljQhgMHD2b4/Tt2bEfuhiz1DfW1dbWdqNcyhq0PvVKgE/G6OgH9nS4X9h+f3yfX00jXuewAJLvOlSnuV6dxhMgfPSQ6FJQSuljLZQXGwCWTMB9EGFQFaD1n4vEECIhGIMiZPrhOMTHzdP9uHZ47DL4qCQvMevyxx9GJkHPRqmbOnNnY2KgJq21zPp+fSzLokiY4yN9gMFhVXVVcXKRsoHIoe6nQBzMc8RZvvPEGEw+kAnQWLlwoVnbTZEhTrbg7xPthZwBTp5xJmoCmuB2kJ9I0b6W9EJJvABMfQK5JEycBPWhtCEcjR44syC/Iz8uXNmt20Bwh5c2XX161+tU1ZWWjsDNiR0sbldPPUEAyffq0//qv/7r22msPHzkytqIC1Ju/YMFrr60pHTECEZ4H0dR169YBqdTAo4qKi0+fPsWdTO8YPXkvnstn3hoa7t6zR2wjdjsmPB4qLCmzo5PJw2kg/rrE7WOz19c3gNQqXgoiiZ+iqKjkyJGjyu9Co+Tl5YNdhDtOQp///OZ/PvLoI+itWAPvuOMO3qWhoX79hg1KdZUJ+Prrr2ea4cY2HKqH9zDgxKHRxDTr9NgaYXQpoAvzsdu7Bhns0nAntvH2o6NNexU3CROlmynsIF9lmLUVEEWcEXeHzK5tkU6+KklBzNo66LRHcgyXi7wNoxQFEx324YcfZmRjrUOkNRsaIA/jh1BEaIIwgm9HeWRtGKcQ47OysnNycrB2UQaZBejiPB+Q4BAVAYVPf/rTjGwZrgp0ADLqEYBIGUwBOfUvdcj4Tl9Kn2u5qD7QY6gMmPOJg/vUpz8lStwTT+CvqBhbwb1PPfXUgYMHFHa10h4suPeee3/wwx9NnIiHwfbSyy9t3rxZrqvebymHIknbXn7l5RGlpXm5uZyfP28eMLpm9eopkyfzaliAMa59+9vfnjNnDlzx+utrT58+LeyUNtnwVNy02VnZN918U0VFBc9Cf9eKBC4OmEaeaZe5U/wSSNA2Y+SIst279+hoBppCceyMeXn5isUcWJDlRSTcIYHkq9gW33HuP/7jP2Js+drXv/bkk38FnQHTj33sbp7LXMIj6AslZbe8Gvd1Ow5byWR9Egr0g1DtcaanGzsqhgMhNX0cxNYdQM4I4m7rQuaCHwnRikQpAMu2HU60GJ5vYQc+dHF7a+OEs2V0XkBIx8vJO4F3prls+XJA5NixY++54gpBnfQwZvyMHzcO4zceQ0xjoWD4qb8/vWLF5VlZOVdffe2bb77Z0NAIUUDDV159RVw/ZhJR6/Sp02vWvIboQU24C48ePaL8OQoeOk1JSC4c+lpbZpC2KREFLY/Ora6uQYn73ve/d/vttxcXl9D14B2OBbRDZLoN6zcg+wjPqthOkFc/iPbgrQJpebVnnn5Gz1htkY4+RUXFTfHii6uuve465Q+1YUYsyM9HOMXsiBYMcnEAOrxRVWXls88+J4ykplfFRfKJjxg6f/Pr31RXVePGpc14SIAe0d9VGbEmi5CniZRceMnCUDD0zubNXKXB+/ftwyS3ZPESXmrM6PL1b24gYJGXWb16zYnjx3kQZjpeAexDy0b5BccRk0eNGoXZAeJzHu8K9lbxvyE4tx+OAxli1r0DocCgSXawDsyHVsWEzwzJiAglEh6PuwWk4TAKwHkMA5QRhgeoB69oToDJFKuKBOdI2YO7ey9T3yiF23s/urthWJwHFzJVdC4oX1xUhM2IkYidm0gOiIMlU8ZlInnHhz703e9+hxi3MeXlx44exTWJDR5J7fLLL3/33c1f/vKXy8vHYC+bMGECsh4okJ9fcPfH7r7vl/e9+uqrdM7BgwcJWmZ8giMQX8tzKIaMcHAkBUmJJH0kCnIbgUujAErrP//z5zB3sd4DQeafPvNPU6dN4xuRcUsvXUr8Hdoi+FI2qowm0Z3YXhcvXnzvz3+ONHf33XffcvMtOE9nzpyNr2DqtKkiJSloaj0E7u1ISVgY582dqxuAbo4TFvTHnEenZ2VlUtUvfvkLIk5qa+sqKsbieJWWmrYWdoLRbr311m9/+1v/8R//gYvj1OlThCV/6UtfhMiAqZo+ZK7kFoRlpFxUb0ylP/vZPaNHSfzz8RMn7rrzznHjx1Hs+htuoBLUVaxC2dlZFRV4WsRT/B///h/lY8uhEo4dPBtQ76677vrWt76F+Q/TJx6PeXPnEb9CbLRJVA7Pso7zTQFj1OjyLttw9MihLs93OMlkzpTIXKn4Pw7rwEDwK/MZEh62NhHY1MEfAlDkTPqIIGsAiKwSk7hQ4XnkPfiVcafv6aC6UoDxDmtiEaeMWL4FHy8QNmIE1tbUEN3GwGCQK00T4ngVxCVra2uKi4qFjHY78HfixEmcEuhZ6HqMNxFtbCyGjRJRgdCHQxNXAPJUUXGRSDGGHYEOox7kYhxi5+IkvUYISG5Orih9CImhIA/FbsXjoC0eIdGaWdaSxjsqQaCjGbpCLrFwwu1xI+NQA22mkcePHUOwz+fIy+cDzaBVyFP4hamtfEw5eH3s2PFgIIQBDuwA7LKzBZE1R6RkebFmJPHAFtBOjRGykiyCF5Uz0h4R4UzcLIHmQElJCZiOlsBvHgQG8XAtgorCG4RQJxC1UPJLS0sIQIWqKPvFJSVCSaVp8jUvPx+kh051tbXAIlP1yBEjCouKCGigCyiD+Q/fCEEC5WPHoLhkZWdzLw4cZTdwjBw5AtVVcyLONDxCtIRmIPCKsiLKh3CustpcILyq+2uI/wYjEBGcygimjwGDXSgChFEXhnC4XyoVnQsjrg2FhbGqdR9Ow8GwmhibcNIpjEJykbVihgwqXYBYMJ/fr+BL/reRLMSWx6CX38kkcoh+kPy+UMBO3qXNwZvqkaGJwNCVQU6BFFHUlzShxAYq3xWV0NSUdo/spkQY0YNlYOvpQQgmNUN2RrJU2/6hrTRPw1z6ukIezHyySEBMpZzXOKVaQfOkdap2aQP1AJqpxqetDfounbQB1NYNa+lBfVU/rk3Xi0FDS7XyXOWRp6TAULrr5Ub9fNFMhQhyhvbIL6lJXl9c9vKPV5ZCLW+tLqdRVegm9cuLpg5FKyFvurXK4qxPKhNzy6sLNRQ5pbxGcH1Z1ZSuOF2v9fcsU6Az2A1UjRUuTErMlMspGqtwjlJCZW2OyHdJbDb6pcA44aG05il9bxg4Fpneg8TIOHGQJXR0vmKLVm5Mc60+RRB/GqrTvH6WiXZ+qtejroUKjM/27UgNzxRtU4NXCxGyKAXiiplJDgac8vAwEtUHDk1gBRxqdKaPdgOy3ZV0CeVc0h3NqZYK5XK6vOIBVne1Du+WatPNlOK8oOBEm6MtwLU9r6BJlrip56q2q3tbicPJ9BddZ6oqRQf1kFZ860hJfVk/L9W+tswnn1MIqD0bCrbUSamcT+mbpI2t1bSQuqWVbV/J+nw+KDBQBwV8AFrRckkEoAeksIb8CDtyaJOwWiaZml3Ve8JjegIE4BABOIOthHiZtkRoGQqUxU7EeiaNpOeDUOfhmWd1mKjKu8SzXt/0zO7qtdpeCwzkuQO5t13DBObanNBfO5zs9U2sAueFAgOV7MAvlFCNQSl04z0UOzAVq+UQLkIogDw8Ek7DhWDXbj5X82prlHlqRk6RQkGlHNyilLKzOvzPC/2th1oUsChwjigwULBTIpr6r8SEtkAGPCGRYdXGnIcBGNFP1pC1KdcZutqckZgmLDSUl0hj9JdzRBDrMRYFLApcmBQYKNgJ0nUy/aRJZWCJA+Ow64msp40jKLjaUsPvVmtHO+Ji3eOgGPnptEH6wqS99VYWBSwKnEMKDBTstB+rB7ELVVQENGUzSXnK0q8nS5rUndpNhgyIYIjHllA9kQqVVe8cksJ6lEUBiwIXMgUGDHa9EQc0A+/a2+k0QqZMexTAGCeWuURCS4Iqs5BybvRWuXXdooBFAYsCfaTAWQc7IhUQ2UiDw7KH7Jxs7WQAxxDfCFjBvyFbTDjFnGdXWSHFPKclvT6+gVXMooBFAYsCfaDAQENPen0EuEbeDdJVILXhkQX3VFyKySJKrahi1msjwVl6a68UtQpYFLAocCYUOPtgRxaznFxUVEQ7gtfZ4gAllsBgkK4lGl6jXjtV90zexbrHooBFAYsC3VLgrKuxKjBFNljJyclVy3JAPBXHL6ujtW+i28ZZFywKWBSwKDBYFDjrkl1LQzt5V7vRWJWSKxA5WK9o1WNRwKKARYEBbZLdPfna4lT6M/jFcnT9TX6rz3r5unxSTlvZsF1n9AQZ++mMlUA+1SIjYXOw5EKtX2x7tDaKT3ZbgkXqqeem7rR8v933qHXFosDwp8DgqLEKSCRcGGuczXCyNwywlbLBiXFOrkqqOolCEVSSAwdFKksEgSn2+ro6UlpTjrIslWUnAVIhqtJSXgNf9/CXwikpb9irA4mTNTXxJPnU9GYxVKl/dHfZWWI7ojC32OeRMD/+02qpIJVoqPunDP/ett7AosBFTIHBATstmYF0TXHXtn2nQnFkq1SKOhUYrJP6kFhcMMW0xW3x5OLJI7MBRkFIcdFW19Swc4psOaxy/B87fmzxosU69ZPuHTCoc3q7dMexvbSXtGKAJjnyjlQ2x+wu9utxmC07Y7WCnWk4wvHkW/tPLKooLczKAkwTBjCXJHGlguyOAuFFzBvWq1sUuKAoMAhgJ2AmcpEjZjpfXr/N48spKyuRHZ5k4YQIeBpBVBaUhAtkSUTe2rg5Wp5nZEiSTkBGbxFAelu9GFZqSyY2bdoEwOl0/tTQkkOtLfnBP0JYiN0jbXdp6Q0kT4km4k3hYEF+YUFGBroq0cpKUhOwU8+SbZ6bYsm3dtY2VJ2+ZsmC/AwPmxGkVnJcUD1rvYxFAYsC7SgwCGBHfdoAFwiEdx2trmk67dh8EBQSmFH6pZKZZE0E+7+6E+E5E8vUWjBOc5kfkeaItiNXOClzxTuhc0NpnVchFUjXInGpKlMLyQjck1Tv0SjpoeQudQmEZN9sgl3YccCJz5ftVtUd6i7gzrDH46W5WezbuHnr9hUL5rhVM6yVaYp41mFR4IKlwOCAnQCXYWOdRDjpPIbgZCQR4gwzpkxuYAlAY8cwhvfBEYmOjyRJqS4GPKGqAI3IX2zEE42xAZYCJsG5lt9UzR7ZbXuAZ4GPyIMkQ9YpA/itb5RiiIXssZJI7D12siAnqyg7g0x7mAhl6xNylyeTgeamsflZiWR25dFDYj0Uz4kyOFqHRQGLAhcuBQYJ7ERwAqfiakUrMBadOb5k4sh8NhvBMQrGAHUnaps3bNyRiMUi0ZhHLGSyhV0LwKSwTe23kBIIRRDrBEBKPgMbw/GI3iIgJQaKZ0KASw5wFIkvljzZFNp8/OSkkuLxBfk5TsOBsKn2wbBFY3YjEUFDZrNBQTlMe+cuBOfC5SXrzSwKDGkKDBrY8ZYiP5kgSdRjTy6dXLZkYhEJ21UUiCzs33Cw4a31m2VvOSXJCTqK0CeQJ19Vnk7RM9Pbr0iFWg1uT0CKsqiWfV4kc5QUEslQ5Lu0aEYNGPKibFiTdNRFHZsOnjh17NTSSePy/I5AJMyePtwGMEfibGpDe0W0VE9IyZTtn2Z9syhgUeACocDAwQ6MUD+igLINSjIWTzodtmDEbEq4RHxToh77P1XXNcVE0jMpwE5V4hUw2LYZkEpJdSR3kt0TWgCuvVhH7Qh9solfLJaS/lpLpuBKYxYgGI1H7PFwPBq0J6LZXteo0iLD5agF58JhgVky5WEDlE09dbiJBjvubvlwgfSu9Rr9oQA78WhWlt+kYFQmFRKUMRszKTqYiuEP4XLNsHpyTDFN+ovFQv2h+DkuO3hgp/AOCQs1NGQ6Hl+1fvVbPjaQIt6N/ZNJeVLTmAhFTacqEsfLKrAGi8BLEiDCN8DOIbwi+mgK/xScaT4CMnFESFZPRL/2YSjCmjh/lU2OYuKeiEdBPK8Rqyj0TxhdFm9s2rj1XQBX8a7D5XCMHlHo8vh4Yht4s5DuHPPeUHmc7ngJHdA/CvIwdNjNmMeMO6PBQF2VL7co4ckMG06lQaiyijlTNuah8ipWO3qiwMDBrrV2Ol+wCGyzu08EjRNBNuJJRCJh2X9M9FVcqg57UvaKTUeEtGkZdja1sx8M1xIdp7kQ/EKeUzWrirSs2OZWTotCmhL0lLMD0IzHxxTlhZORWHMdF73ZOe7MPFogDwANlWgXjeNCSW1/1xORrGsXAQUwoBAYIECHB980/UbCEWkMHtpZuXNzuK7amVdUMGVuZsXUkMefwNNmaiOvTMRqMm7RMi4CSg3bVxxMsFN9LgIaIXeSmxiZDS8q2IPeKjAmmdZBJXDLIU6Ljkc0xnbLcrRwkNxCV3sAACAASURBVP6I4srGPWLRU0ca1EQY5J84KAgMTrBeIpUJWdAubmKzq66rr24KAmjhUBjZj2qpH3RzOUwkO48LPIxLK63j4qYAuAW+CXqJb8vmNJP+aKOt+mDDu6+Hju31xGM+XFvhmoaqo8E9m3OmzvGOHh/xZsUND5O2Iagn6KiYyzqGNAUGE+wANBHiRM8U2U0dMRRM4AnsA/BgC9npGkVTLHbtDhHXlElOWE72YJa5UqAzFhP1s7W0hqzWe2UiFgeFDmWRclQfS0R97NBo2Jx2dygWYLtcsulJzQKISQcTM01kX9VEF5g7pLvLatxgU0Abm5Hz+fFimUuEbZVHmresbTy6zxFt8tmTeNAIGsW67Iwlwsd2VJ3abysqK5m71Fc+PWzLiBJkxXyb0mctvBvs7hnU+gYB7OhhgSZ63C6xb2JPE10WMCGmDWFNUE7nAJDwOK3nmmIsUzcKBAnQyWIJHBdayxSsFNMetrdoVMrocvzRH9Tv1CHinQhs+hq/1fbxACeBfoloJIREKRqKuISxD3IZJYR2RRMmezO2LJ6VKlSFbatueYb14YKhQKqXW7pZvFXJpI/1gvGorfpE465Ndfu2ZIRqMtUiQvgUfUQxWALG8jOdR0OBY82Hqk5ljt1dNGW+t3RcxOkLC2eqQaDopFlSfbTYaQhxziCAnUYaGEJC6oAtAS0xoom0pViLRQwK1xD2k6yQAAVNOyG+mu0UR7AeVnsYZItYOwUi0YiqAbjkTIpj0h8klk6vQtOEpCqKwmGcVkqFYG0yFjt17NjJ6vr0FvbSTMV9pstuz3GXGR4vpeThEmTHI1rbM4T6x2rKYFKALlacqFhB4p6MJDsZ+xIxW1PtqbfXBfZs9kfrs+0RCWOXiZBpGBQj/aKsaJRlPHLS9Nni3nB9dNeGQ/u3GeUzyxcszyksCZosl6RmAufTiGch3WD23SDUNShgl8IJOzCStIswJssVxJSmeEtYQPuuBAnNaCIWsbkAQD0bKg8qzgJCUmIxl82FPMe6CIBO0FDBUwsstk6YIiqqWtUhLhHRf1NfsdclYvFQY7zA68samWGQiIVDJV2Rv0qy89odOshOGN6UAjICUhWoSq3jgqWAIJjYLwwzIxlwVR9p2LE5sm+nq6E+DwuIQ8zMcIgEBgjDpDiXP4pPNZPFQUmfGXOFA7G9606d2Jk5bnLWtDmOoolRu0fgUIx4Vpj6kGOggYMdHKEtX8BI3GViIqtL2n06w4mWxRTmpSBPhDYzcfmSxdl+rzCQOmRPRcVX4XCYtCWyT0W7oxcQUu5dVb+aVKk0EI1EqNXldtnxr6nn42lL14kJMSKKM+1WyaO0bRr8bCtttm+B9e1CogAdjc8hI1DXsG3twU1vesPNqLFwr7wj1mTJoa1kfmEmWUqoOCuFehJIIEKhQkuYKhk2mqvqtlYf3/VO0YwlRfMuj/jzgjK/yux5IRHtAniXQQE7YQp4gbCShROK7eGmmOEioZ1wg0If3e04Ywkv8biyls2ZdMmMCYYJ4MT1REkxdopFTUDo8njcHrc7RdkWBbZHSqPDZmT4pYgqn+l2Ha6uhB/Z50KtmOV/azN0TQr/HHmZGGEkfDRVwmLPHul8oVw0YfqMRHzPXx61V+/LNcMuib6EXzSEwRoSyKnmQfgCAY0zEhuvPkhUCtfEtZ9mLKdpyzaNzHiwaf3ru9/Zu+BDH7cXl1qeryHILQMHO/1SAmhej3HNkulXL50jxjvBD8EeLS0J16Ah2JJejyvT73YmWMmA5U5sfNzPZJmbm3vllVfqFE8tZJIpVfFUzwEipL3LzMwUH67KoDJ78sQZkybJfWJyEU5NVaPES3meXKKwPScr0yPxdqICi5air+oSLY2wPlxwFCA8ytYYCO/e4wpUOvP9LreTHaBgApHtWfEoSWUlNkDYRNCN99c8Ib85IzOoLMWGdSjAB4cd70UoZtY1NEbrXKFQTDnJJCxKVaHv7pmthM9VwXTxC47oQ+CFBgvspKf8fubIlndqsVmICqDxRlICywKHsBjqZHFO6nC53QUFBeKLgINUhk/qASVlbhV20pzQkVqKk9IwqDiL8m6Xs5DVaopr2t3WvhLFthxRZYfhmyQs6PgA6/uFSAGYpKmxKSMcMRLOZMBsDDc4PQ5/TpbH7xU/hCCYOO+VWCfQpthULfKRuVCwSEQ7jiSeC7eBhTgWDzSFooGYPe5wkQVbQlUUfzHLmubp06cLi4qcmifTLJ1mbPUYmZM1yilyKz6+EAl//t9pcM2oCpg6/kiP6ogUtQBC5Dj+po5U/xoSCedyKclOgRiYp4LjUpsuCnPJubaHiHISkSeLF+Wh6UO+cKh6FKTpYupk+uA2fYOFcOefB89xC4iMiuGEkDBzdj1JRI1IIFlzqrHqZG0sEHewm3Ec4U1cZvyHd5WM1jInasxDJUGacyaaE01VzXUnaiMNESPOOnBJRpsyQCtY3LFzx1e+8pV9e/fChPjQdHCVBjjt3uUzRhi4WgUvUKmERVk8eZY4YhAlu+5aqHBFTVfS/4pbOOSDQiP5nJ7KwCVdrE1dOmYzdW/HZ+iJMYVcHefD1GkFfh1upKg2xnS8p+MDrO8XGgVgPzz9JPlqthn+hM1lOMXZwMrr5nhtqN7jd/pzfHaPEwu0hGsKk/JfwlAIyFPCGuquPRaONzQ2JkPEDuD4Ihetg/RhEbu9KWkSFypwRnmnffPmzddee+3mLZtJTPvoo48ePXb0koWXNDY13XHHHU/85c+Xr7j893/4PTbq8RMmbN++3ef13v2xu90YrPU4udAIf/7fZ3Alu67fR+Oa4B3X1W8NMQoDUz9p0V2hUjtoav2ipLjWH7lXoZiupPXZ6UKdLqSKWADXdT9dHGfhICxsTTYzZ87sYGFRo8MVA69wWiTtyZg92BCtPl5ff7opFkjaYg7JBqAsefwmrMqRxPtqa64O1J1qiDbHyN/owBKdtIdNe43hqM7NHrt8uS03V+ZntZpox44d6LDvbHrH6XKCen6ff8GCBUePHiFW6vix4wQe1FTX3HzLLatXrx49evSRI0cOHTqEGmJpsWeJE8+eZAektAMtjWKdgYZCqeDjfr5iZ3lNV9ACpi31dYnonVvSz+dbxYcpBQzig5tsjuIrLi+fM73u7Y1HXl/nCjR7DJL4M+c6EPTCjbFwMOr1uX2ZHqfPIdsCmEY0FIsEAqHmmNyvog0EBG1GyOFo8PqK5s+dtPIaR+nIkNun7Ci2rZvfxW+Wm5PDngEvv/wykDd//vyMjAzU4pMnT9bW1qK5eryewsICIhA4f9ttt40eNVpoKtpNp7EzTIk9lJrtyM7J7bI9X/riF7o83+EkyX7jMQlQIrJNuli5F7SolTakiUgv/aeCUVpkOuXst504cSIQCGCtIO0wMyFBJ9oLphZISFmFaCnclM+aB7SQmGqKWP+qqqu56nK55Horo+gbZabkqnJEUIFRW1fLZ7QJVAZphtaF9TVxy1rHhUwBuANDHFHvIbsj6vdljK8onTzBiARDVVUsg5U1hcrNaksYLCkMBUNEDeCLCDWEArWBmEI6p+mCj+AT1OFmkHDalDE331p8+UqjuCxiJwcULCYusv37D86bN3fB/PlFxUWnT52GzQi3h8nLRo16++23R44YOX36NB6HDltaWsrWeqwamjplqowgxcQXch+ck3djhnK5MPq3ijrGqNHlXT766JFDXZ7vcDISjghD2Gz33ffLFctXTJ1Kbwno0eHYXOEb3AxMZWKOFSSUxbPEAFMJjTh29Nj//PjHl156aUN9fU5uTkFB4eWXXy72OyXHcyfAJ0sj0uDFen7BLG3Vgy+pjaoU8/7snp8tXLBw4SWXUD3FuFdXQmH9aKfTGSP/SdJ0ezy//e1vsaHs2bPn5ptuyi/IxxUiHhSJJhU+PTMxsy+0ssoMAQoIa8GBMFlzKGA01xUkmz2nj9Rv3BDcdyBQ20C2f+V2hc8IDIbVJKsFyCYIJA57SVMmIVO2eMIW9/hczoIs1+hxFVfcYJswM+j0kEZRxXeChnIIr3KQkMIhYaQsY5SZlWgVIqTUXqMxEtaqRZa6VVoktJBOU2+Av8EBn8/rdLcsJrANjhqLBwoXeygs6Un4sGbNa0DasmXL8DC98cY6r8c7fvx4VoMdOHAARBpVViZ4ljSZ3wCZMaNHN+TkNDU20jj8Vpve2VRWVjZjxszVr76KFnDZssuIY6I4CaBWrV6NVfiySy89fORIXW1tY1Pjddddd2D/AWBr3779C+YvgJNCweAzzzwDM+Vk5zQ3N+fl5S1ZuvS1115rbGi49LJLa2vrdu7ceejgwXEVFWzCjST4wvMv1NXXr1i+fMSIEZZMN0D2GvK3i8oBkzAZeg2zwGsPnjx55O01TYd2e0OBHLc9pzgzGiJXZzgaiku8naAeMKfX94hekJDFsZK0x+1zZWVmun3OGC7Z0wfffvx32eOmlSxcnDF6XMSVGbMBdhSX2Z0/jA7mUuZ+AU+RA2gCjC/LhPjWMrkqGSEl0OkPKayUiuSSBDMoUYDPFq+eAbN1ac7qdz26b/iNqPXHPz6SnZ0Fyjxw/wMP3H9/SUlxfX3dhrc2PPirBwuLCvmqQkjYH9sA1EAcvrz11gYeyYcn//rXSRMnvfDCi6tefBFlc87cOVozpWvdLteY8jHNTU1PPvnkyy+9xBlUg5deevmBBx+YPWc2nizhAEKompr+9re/VYytePRPj46fMP6ll19es3o1dmKP1/v3p/7+4x//z4zp09FeUb5fW7MmEAxUVFRUVVW9+OKLigut4wKmgCCdghdhPm88uuuvf9n+x19Fdmz0BeqcCfAtHDZjNq/dn+vPzMtMSuB7OCY5ykAmBDy2U4lFzUjSlcgpzs4pyXZmuYisIzbekwxnhWqi297Y9IdfvP3Yn+zNAWFmtQbxxMmTVZWV2HmYfQkrUYKbiHVaIxE4xI/rcBw5enTLli2wOmcURgonbt22TZUmR0YSAeLVV18V7UOEBDmUncc6+keBwQE7RX+TxHNigEvECwsL8/Pz0UDZ9aGgID8jMwP/+j995p/eeuutVateCjQ3U5i+wijr8/t9Ph/TlXBAMlldXYXtdsnixUuWLMnwZzz4wIO1NbVh1rnabEhkDz/0MOIh8iP8UT5mTG5ebjgcYsNZgBVvF1Oe5gCqRUtFKeY3RkBahZqMDXjK1Klo3Ll5eV6vF56Cjfbt3ffU35+CC9kkKG1O7B/5Bla64/QserT6sY6zSAGQAvQKBBrXrnMdPeGPRFyyJ4nTsLsQvbB0xHDBeg0QLbMgw+7HdRuLkdPaiNl9hj/fl1uabfea4WQozC4DyQgpGPmxxyO+SDCzsmbf8y/Za+v1oKpvqL/33ntXr1n9ve9//zV0HTPJTIxtur6u/ic//QkOCkYBMzo+2QP7969fv762rk6gLJkMBoIsEkdHgc8pz12nTp5a+9patQFLFMmOMyIPah35LFLqQqt6ENRY6I6wjpH1z3/684svvLjy6pV8YHa67bbb62rrfvfb3wMrkydNfuWVV4hcz87Kevjhhz/+iY8bDicwByx6fd6iwkKgjfWtSxYvef311ydPnnzi5Ildu3cVFRY98uijyy67bPr06RSrB7O8ntGjxwCjPr8vLzePk9OmTf3x//wYSc3n9QEeTI/lY8disysuLnI5XSWlpbjA3t367ro31t10000rV66852c/czgd3D5yxIisrKyqqmr8ZZga4Tz6Vqx25+BQD1NPSkURwtZwcE1tLb45n491vh1x8Bw06kJ/hIhNSnQCLBr9wWA0GIkCNcFgRh6c6DOc+BYkqavsLcyM4zDcGYbb70fka2xoysjK8LLEwm5GbRGbzrAjqU2IE0EhcYWbIs217CfFlO0XE7XuVtOG4vLRj979xhtv/OEPf4C8r65ejSiw7LJlf/vbU+Xl5Uh7CHQFhQX4JTZu2njs2DF0kfHjxv/5z3+GUfG5TZ8xHd4G/7BHw/OPPPJISWkJtyDh3XXnnSPLyi70Lhvk9xso2MmwlR/j4x//uAjnNgOj4Ny5czmHzPbu1m1z5szd8u4W0GrGzBkiTxkGljgEPToPVEKPJQXAh+/8sMsljtFZM2ctX7ECnZS1E5j5EMGAyHHjxwNe48aN+853vsMHiiEDej2eUaNGI5Q5rnIEg0GSB7DegomxoLDwi1/8AsD3mX/8DIj2kY/chcXwy//yZRK7EwEwc9ZMCvN0qDhjxgy3yz1p0iS1ckP5d8+ZTCVDyWBKRytH0mS4oKEQbAUfjxo9+s4Pf/jctWSQ2Wk4VGc3EOQxoYnDwXTEQ4nGaCjsTXgzfO4MN44E0RNlT1A9+9ldfkeeN1ucpHbYW5ZViBVPAowlcWIsGG9uaIpFSBCLUwzPn5jTYHIIIb+RA+wGFhjs0XwH4J599tlbb33fuHEVRBQDgmPKy/k9duzYmTNm3vWRu37y458UFhROmz79yquu+vnP79206Z2Jkya+79b37dm7F69aVnbWBz7wgXe3vIvilJ2dDfMzEIYDxYdKGwdBjRW2IGm10+n1AnReepmV+V6vh/NFRUXMReDg4sWLASCkNxAHUYuxLdYKu10SnBgGoMbiQc0imZkZoA/kycrKBgGvueYaQFNZKmz+DD/aKAtpdVoUUBIZjQuIe2Ii0YZb4lc8Xk6iINMq+ZxMkuoJIQ5MgUEJ7NSr0JD7KIBsiFQlrJwStc5FxzAK2NTxiSeeuO+++5BkGxsb9uzds2vXLubwmupq5gyxaopN2gK9Qe4OQAg9EQojuxFSwlJY0nfaEq5oMFlX1VRzoi7cwCacbAsl6Q8l+6Kk1I7aDHb+ZGc79opiKZnaYSBuRJviVcdrq0/WxgMJV9JtN53UxlYplBBE5Egk0FXXr9/wt6eeuvLKK1984YX8vDw3WcfUzLp//36My7jFJMbAZlTXVLOIAk7mPlQNRhAsTXYMNI9jx4+j1GLgbmxsOnjw4Pve9z703E2bNg0yaS6C6gYaZ4eAhh1Nq2SMTjWjSVo6ziOlI7aMRNoeORI1Uw1cSSIsiw2J85CVYbKCDKbgn/Y3yd3qEP0utReFyHHyXUWHtPkjip5UILne7fBKU1Mz053wInumOJ0HDhwA6STQRoBMrMJagFKaqjizYCDQueWJuu1S59nvdbHLhEKvv74WD8nhw4d37dy5ZfMWiEY7GYf4TxgVJ46f2Lp164hSGQxnv0UXxRNgDHGOmokI0n0iWbVzV+PpSpjDJUtS0UmJvkuEg5FIMMIJFzKeJNBWmbflf4Icd8h0ZsIeaY41VjcF6oI21l4YbHXiQtqLJs1G6q8on3TFexLZ2Yp7nQAmKsXSJUvQdYpLiqls9uw5M2bOHDlyJILBrFmz6Nx58+ZNnjIFgKMkmFg2qqy4uBjzTmZW5swZM6gBFwemm4kTJly6dCm2Dli9pKTkkkWXIAooc4h1dE0Bxvsgx9mxcRdOiRTKCWLZtm3dtnv3blycBNDNnTf/3nvu/ejdd/NUOgbuQRYT55TdjgFu2/Zty5YthwVVRB46gAOeUqBkR8VDtCGsBFV0VNkokQSVrieohyNC1ktLAB28Qm9zHncq+Y3f//73y6QN6xn2n91zz6233FI6YgRX0XkxiFRWVsJYQDO3YOt97PHHbrj+BuL7OsCbyJBn8wDpYNlAMPjSS6sOHjioSUcjeaa8l1oZjqjb0NAA/N16663LVyw/h0Ln2Xzz8103zMMsF0vE6+pq3Mm4u762ct2646+/blSe8iWj2EdUthw1AzuSHq/Tn+13ep0shCWqTiZRdN6I2dwYSYTiODIAPrlD5Dx7Mxme8vMKly+bcMUVZl5BEnO0J4OeRUdRPUu1EoMAk7fs8cTVNJ/JVZH21KGYXJyw0lp+qUIa1KScOkkT1dQvSajON1GH7vPPUpyddIHqETG3v7Z27bXXXvPII38KhcKADoMW2e/hhx9C9h4xcuQ111z9u9/9HjdFOBJ+9ZVXEdQJxOOuoqLCq1dejSchKzOLQPPnX3h+2tRpGzZsgF2uvOIKFFicFW9v3FhSXMzi6kWLFxGQfODgAdCKwqtWrQI65y9YIIxiGM8/+/y+ffsOHT4ENzz99N+Jwlu+bPma19YcPHjoa1/76ksvvQzq3XXXnfhqd+7ademlS1kEcs56DDIBprAydhzB5bTNRcu5mqc5W1dXR5P4wGyvRso5a+AF/SCBDmhMhycaCBBJJDLnzZ00dkz9jh3HN7xlVFZlGQmMGkKCuEEK2mBzvSfD48/2eHyZ7ObZ3BAMh+LJGCXYSUUJe3Zbg93VlJVRsmDuzMWL/GMrwk5PLIy9LxQKRsEvhC8MO+gZKBaiFatdWWSopPGLASn8IAibgjUYWHQPxQpqGz6Vi0DOKn1HnRQbucK9C7q3Bv/lBuqgUC1qpTvTDWsqRo8uV3FGejZjr9g4ytrnPvf5X/7iF/gZgoHA8uXLYJaTJ0+xGHDf3t/973/5l8cfewwJ8ciRowX5+ZhsP3r3R0tLSllAg8ROlPmpU6fwMxByjD8ewx/JclavWYPt77nnnjt56uRtH7wNBBReMGysrMYU8rWvf+3Xv/o1aII6gN3ktbWv4frAe4v1lxhmwG7Xzl14yrjrHHMMbHr06FGwmDYcOnRYwE6xsN/rJ3oGMRl0Y25Q542ZM2dc/p73wORqdreOM6SAIrCWhEz0kAjhdLCpYYuwBjZp8+Tk5Sy9rHDqzFMbN53evCnYUI+t1y2OCBHEIs3xUCDscodQR8T2IrkAxKCHGS/ocCHEZUydMX7JJf6xo43MrAD7lElIlRL31DSWJFIPHUV51bDHaUucmrxSXnglnWmY6/rtlNFFCX5tDrHDpODRwruu6dbl2UEBO2rWeCcTDtMmSJdfUIDFHV9nQ2MDHgCsaaNxvLrdxPQywYFEd3/sY/gZmPSIkqsYO5Yy9Q0NrKMgLg8dNjuL+dQjzgQUX48TaEB2gzPAzSmTJ8vCab9/3ty5MNDPf/5zrBvAqnQ/SoralIxIAkoSsrfqxVW4d8G7nJwcIjOJLj50+PCoUWVaqhLNokuqnLWTtOqJJ5+sqqokPFDP3tiJEG9vuOEGQhCqKqu4ysIPxgPDg0wYvCZLR85acy6KiulrOAorB+sFxcMAj9qNTPF2eYOBZqaXsM10FxTmXLWybOElJ95cf2Tdm9nRkDMZd7I0DONJzC7rvsUbK0sqCMRrtpkhvz9/5qyRly73jBtnZmWS3AknFxJdB3aCJUFN0udxXqkddrhay+89kL49snVEOn2jTIHWHNgDEbu6NCgOChIeSi/DRWAWYgtTGUiESY5MD0uXLh03flygOTBp8iTC7rDZbd26jWiSOXNm79u/r7i4BIlmwsSJnGdJAwtXCVLB8bRmzRp4YmTZSJaUEQQHSKH2VlRUlI0sKy4pmTBhYk1NDSJSaemIsWPLN27cBLpNnDCxdEQpH2jJ9u3b8vLz586ZW11TwzReVjZq2rRpO3bupAYS6cBwfEALHls+lvDADsx31ljIjEaiBJru2rWzuYmwatFoRN5IJi+77DJWgyM7gMjNzU37DxxAFKBViLokcGaewOLZ0+zfVb9ezOeUHiiKIlMLNGTyUEiHaCY7LKWkJOxyhBFjmXM7gROWvzLDNPszfOMnlUyZQVQKu/HYIlFtxaMuJUwZEfytvmzH9OnlN9404j1XGWXldl+WyUpYiTQVXz+TlPrp6lBhKExyIjH2eIiumv6R9+jmp8c6rItiAT8bDgo2ok6FbjBnVlZWvfbamltvuZXwEzQyqC7spVaSAYWIdZKeUJwSApEy3SmZHHyklLJiiRcCGZCSKY+tcsvyT9ZRAxEKnFSVKRsM1VK5CGvKNcF5HkEprUoApmKkSSSQIuF+vlKmrr7uueeeJ8yY+JWOfJECP+ExBXzd8G7H23r5TmsIkddL0Ne/uf6dd95B3KCFnP/Qhz40c+ZMxE++vLXhLXRznchAuUpM0j3eeeedQoLeBkkvLbg4LiuuEJhram5GY4VnQItW0knYSAprIKjGEQgDhzCbhsNRM86G2Y4cwpWqT+1Z9WzNlk35IF8iib+sznD4Jk6acu21BVOmxvwZCQe7SknuOc2QirrCmOpDRzjTAAfvEQIFu1pC2Tlgxs4OikGV7FQUCAukWS8BrOLx1J5NQQ/dveo3MCdxTjqWRC4pNkmZb+ULnEJAiwICuRWcAhEkPkW+En4ixeWzBj5Vj0CkHCo9DreILViwT2u+VCJ1qr1oOaiQILup06aqfCfiL4jYvWGbRDU7CKC3uwM2dptlxpdwhLgzI2zzGnanna2USUjrykqYdjdGGBps55KP8kRqISbEXFkRUxRzFxt021xRm5eCLhWGSstoNi+Bks1TCKXG1FhdXSONNc1gKIjwy9xw6pQsgWxqbuK8filMeJgdFy1axJmOA+gc8MvweQRkVN5OGw6rRgIXGxpQTxWzKL5oeZEWyU74TE4rwqKR0FVuwIiThE0F4aHMjJFTpxZUVDQkEqeCEffESROuu2HidTf4xo2LeP3MmZIkR3OrnndTlekn6QfqTtO/RXeGP3mKxHW2P1q6lqIagocP4YduS8+yZDd4oge8q7hRmEbgSH1SMDfQg4qUuqG0A/WUhN31+u7qZ19e+7GbL59SmhFMeO5/ZnOmPfLhaxZnOhPbTsceeurllUtmrZg+MpowH3vzwOnD+/7hg9dkOpPHw74HHntx6tjS9106wW23v7Cz/tU31n/sfSsnZsdqEhm/f2q1x2F+7PpFbhdIJ8MO/AK8WKsUi8Yee/xxomF0Y8BlMVD6/adPVzJEtTmPN8ZfjM5+ySULp0+bDtK3HbMDpcIFeb9S/BHomFJ4vxZytaNbG8kuzQjtaaHMvsFAKEpHGDa/zcyiexoavUVFZm5OVMLdNfsI9yguSmGZZk4Ncpq72uoEUkgw0UYvITz/dAAAIABJREFUE8eu3Heth8y4wovw+eCoERdk9/b3pTpLdp2UuP5WeXbKt2XQFOQN9oOEL8XKi57jPB3N2lVrP94Yn1hia47Zd9V5/Ilgc9KVYdoqQ+buGseMAJsSuGIJc0+961S12RR1ZTviVTFjR13Sl0cQllhqDja6dte5aqKeiSyQMJ37Ghw+UnZjzUECUEiF0MeB0Pn8a89jOuSUllMBMhaHk/KAMzrUjjIsEP7whz+MM1o1UsSIwYL7wSbkEKhPZQAjepGkD0p+GoDfyZD8Os5sAoMygqFAczSa8GW684tZhaOBSCBLYu7aTJmKAC0wlxYWW8nSdpIGSb18b1Na3WwgkKJw8Ghxmqn1PNYx6BQYaPJOFVScttkpQWyIHxrjWhsJ2hmOsD2DJGY5bsNnssrRXZNw44zLIlmZmQga/uaYmekx/GYI6Sro8CdjkWwXSX8IgfM2xVBpbdnOGMHN9baMcDSey2q0KNuEe4IJVkqaWfYoSygxhpOJD58y4IV899BDD5HERRRet5vQBLg8bT6XdjFYWS5OJtQP3nabpP1REoR1dEMBMVWAcawyhoaCdD0zYa+SXeoxIoqJtCVR7pgo2AmRelM2F7kml6WoGJg7HnKx7fmU0AdM2m3YTzDbaThreysGXFwpdD1xeSyHpKzV6x3p2s/vw0ay6+d79V5ccWeau9rxERyY9CYDXrcIWsrIGM11kL8Cgx2r2Ai5CuWnLknsmy9JNJWYEHmk0xbJc4uxWcyLNqx3AR8rfUn4Lba/aBaRC4h0LC+SkC3XHx56CD/szJmzbrrpxksvu4xwExYMEVyyaeNGwv3kuSJkqmVzKmKVWGhwsCWdX+9veFGWwCCA3oqzVYy2A5DnOhFPWESkaYyzco1MnhI9p8RrtcJBLqduastN6pzwWvqi+q6Ne6i8yprMGh4mOVVDayliXKiWSQ4DLpI+/a6C8ywRL0XkQfkzRNXYQXm3lkpaWLCrahVbI3ypQ6mbScl3lj5wEafMe8Ka4KUqKaqlfCWISgaALBvnlyopxhzRUFVlsgQMhwgczPo5LNPgHYscWRpJBos1q9fsLSwkRcLGjRtxpLB05MabbiLrwaqXXjpy+DDzPxKfsgxRVdux09K0i/aDkES5nhJ4ImSRiVL/NTkGQCzVoa1H6rPuUpnoxJbAH5kT+ZRCIvnUepv0kzBGK4zxSSZQqVu5NEgCGo+DZW2RTp6pXkHHG/BG5K0jih4Rr23Xd2jfRdv9Z/ziFwXYKXDqAS/aXhPebls09bmVexWpU+Gj6YIdokkF6eQG4kjQW3E+vL3xbfKSigHPMMjGjIBN1hMKHDt+jOwsOAHr6uoJMZEdPGy2u+66C0P7+HH4Zz1KlGg3BM+4py+gG0llniRVV3NzAK99eoKRGUb3nQTFncn0oGFNup+KNNQJtPFJid30Kua0uI21X5guJFiYx8kKGF1C0IxJUuvRcre2P6SwUOGdAJrs/E6iUJ6QZh7VMTAGuXlSqdvlVjKAyQ5WnFQl5X7dpAuoH8/1q1wkYNcDWXvGwR5u7PmSuWH9hl/9+tcenzszM6u+rk742Ca7H8DIuFzhfGzq5LcYUVp6x+13EGQ3b/58Mv1huCF2hzVtajWlxd5dE5mIOIzFaH46ZlOAQAUnpTBOSVMKXvp36JsIXyJ3MV0lsZ2iXRKPgt1OZsSk4dnX4Nq4ff+y2eNKfREUWkcCswUiOL81HqldZhEz5TtzoMibdCWiHG4PKgTpVJ3tmqa7mRKEnVOXlhmZGnlL1HMxZUhYzRm8UP9e/4IvbYHd4Hcx446hSBgdyghbxisXoZrK1fYrCvUIB4tgmgHvGBLzF8wneZ8KrMOpISuKKI6+04utffAbPkxqJFkhaWHUriPpFoM3Qj4tkMVi5BZu6AHpwCHBw9RyehG5dAYwASS8RvzDQmc4yeekwAobLcXFspGw+3ZtO/rnp1eNH/XB8dNK5BES6C5BnciYEaBKR72ovuZwUJVIcpJ6Ucln6YjL9ptISMiokt0EJRV76ANLrqyVTsR5WVmQpjUGETatWbCFSP34MLhBxT0wWD/aNOhFRYHo9zR/Zq0QliWMgCVKpaUlhLaeOn2aZytzjKSvYBEbczRaqo5wxodI3jrKEAbLpmtgnEScquhYC+m67QDRFOXQvlf9GcuACuyRAyxgjVjXBFRBxZq8FIPapK0m9g2ZOiMjE0whM6zh8jaYmRv31nl8rJ/VBjn5LVmIbXZvdvbIgqx5U8qz8DEoMxzdxWJHnktVWB4kgy0ZnsSpyhpuApUlmkS9S2rNP7cIrqk/bQ9OIM3hvtDdn7okQCiOM/FgWP6KDiTr8Stk77BcbChLdudLbj/zaVO1WIkNyAMOx8SJEzdv2SweWTNBzgtCSYieY1XSr379q927dmOOocz2HWSo3c4CWBLXS1CCAuVzBc09MstQvQiBOiOF7rMUfiiA6NqRKfY8QUkwiGXUSmLq6MSNJY13Dlb9508f/eT7V3xo5XQjEZUnoo2KZTY2Ps8x6YpZskZG2etS6qo8Xuply+wOZBNjXxrXOjdbF1ZinXQ6iCZ1ymukmVB9RmwMq6zasi2fdZwpBYYs2NHZ7Rj4TF+wv/cpQ/QADm5mbbkv0793z543178pa91ko+7E7DlzyPiC1Zn5fsWKywE7Wc9mFyseTyPlAdO3PFYNDBUBYx19ooAwSppcmmpdUA+qKh858h8eISYeWRmmyC3arPqUoriaqipG5t90/ZJpU8qpivXb6blH1F8z4SLUxedxigNegLKXDJptBLgUFOu34nEt36lfXCCEKIl8SiR6qyarC4OjKOmotAiPaNzSnk6CoS5p/e6BAkMW7DQnpLp04ENfzZeapXqgxuBcYn4mWcsjf/wjq1yx1xAwBafmZGezGRCbOqLhEl8Cy3JSlCq7nfxOH/zgBxmBOovy4DTi4q5FNMH0ARTyBTWT6DY0Vgn7EHzUl7UfvR0MOc34KL/tMzcudLF1WDIC2gkASnl2nvC9uqf5d088+YWP3TJzBIupVWbNMzpoldyqfqsZUUCT/AU9SH+E2phmWDZCs5ZYnBHNhyzYwaCaj9ox4hm9o+IpuXNgMlufn41Fec+e3RjsUJGYpTVXE0x32bJlbHfLVqGvvPpqOBxh7xWEu4rycrLJY3Ky8tZ1JHA6XrHjeQ0R3aCCkuFSlgR9I+iGAsgGlRgNRBSTGL1uIQpuEzcHOwSgMZL3H++D4Kb4YvEYoRub8YA9yc47xIV4DJPhgz7bbW2dWy5nNMqpZBaSl0Vl61ElVVS7Ds/seGcKG8mhgcdWYpIs+11HEvX+fSiCHfyofuBJ1jH0l5W6eGc1K6MlaJaSL10UGqRTJOQmeR855aurqhvF/3BcvISmSbLlr3/96xrsVICxyg7Evj+hEKkByKIszkGLg9O9QA+lIURZ4NT5tLim1DjJi6nPdOhNuVVOgYbY5hwOpDkJZpTESlIN3tMeupoSSZvzWF3sN0+sumbJ9KVTijTbcF6cEbbkpbPKpk/4eC7SlRkhuWdPdXXzGJohCalV+JG8mcY+9VsAvCfelDKkIDXDps7beFY5uZvmD+PTQxHsMGIpY7Bdp+htw/dnTmjFrIqfUirJmVfVw53SVAmRj5GOtKKiApj7+9N/Z6WEDjohNoytiNQglDgsyW1nmiSs/+1vfvvZz34Wj14PNV90l9SYb2bddSioACGlMCIs66WjkJRl8xhAu0AHKS9xcuweB9JRDIqLaKTRrhdSIsQ5qpvjG3ZVlY+qWzil1JFkNwmNQDIBk7+rxJtwyMoZ9tKW9Cr9QhzdBHRq4udI15pSOXppUstlNT9Ktj5+RC/v631WOUWBIQd2ghcOVzieYNmjFzMw/dvG/jL0e43hl5GRwQBAQ8E9Ry5lgk7AttS2PoK1eg0uO9v6UGPZZqy6uhpjjU5fOvRf8Ny0kHkiEAhiCtA5XBXZUjIPkT3SBtYpE+EB2LU/QBMmG4KNWZDHbxWe1lZY0jJiDy9hsq55xkjPf//TdSOK/XYjrLLK6hUP7JJtPx5y7jpwct6kUfmusFIXOjoTeqg6dQl5EzeEwxF3xggbVjFJvbaKW1vL8I4IhhLy7Bhy47f31z9/JYYWsYQrDcfx2sQzr2yormmYMWHMVUune1yDuwkDpqC+8NaZ9An1gllsoMFQDDodJB1ClBOrs4pEYQAj9zF4YNbx48ezuzsfkOzmzpvHLkJqJax1pCiAIYsgRLEApKEKWrWDre4BAvMcB4DSFiJFtO8bdekety0yfUyBw2DDCbJJE00idjxxJDicr207+LuH//Lv//jhyyYVSABcn6vt8HDeRZaCGYaEDROK3P3rpG9s13ymSdxZHgvs+tanutTQAjv6HkHutbd3vLO/3ubwNL5zdMbEMRVlmUnZmF2OlDrRnzfsULaPHH9mT0iJEGqQEUWgd8hlFh9VNuq9730vsV2PPfbY8WPHGMMkHx5TXo6Pgg+S4ikWkxgr61AUAEOICibuugXddK+1VUN7sG5pf6vUw08aROgaURqkZ3qhctJmD9q8JyojpbmuHNLY4XIVB4VSpm3JyeVF161YWD6ykHqUm1fV2rdDSmu/bqq8LHfDehsMhlhs0+dqFIlYhBNDv5aFaHp5Tt+acFGXGlpgB2tKNoukLcImUKSZMwPReCqks4Wh+sFc57xnpZFqMMmLkArN4bjjjjsuu/RS2QFeLW+6+uqr7/vlLzE8EV3MtmoAnASgsGRSou2sZUDSYdCvkSX+gUDPvafMGz2b89tV0FdAQn4zHFuP1H/rJ4/eef2SO1fOMhJB6RqFU2TtnzPCNfOWZVgi1P49jrT/rE/Vd1mISZHVG4EgKwj7p8FAAZ3xRfCuNwTvmZgXydWhBXaK182FsycdO1XXGAiNLgwUFYVNI2AzO5pmhnz3mKhRgBpLkBYuXEhrSbvGhrnkNfnEJz5RVFTE/moYzlNuRjE7c3Q5Fob8iw5qA5kkGPOEIsqq/vPhmxah3GbkZmZOnzRhRGEeS1VTXSNwR3AA3lBJSce+ZAnDiY6tPBUD6jhgCtNHhj/DZgbI/tQvNuDBrMaVTaMstOsDHw65TMUyXTu8cdMZS4QPH3raFo9On7zITOQ6bB61ulTWIppsfac4rIeAqT68+1kvohdF6BBQFFVyn/BI1oThwaDlOo70rDdiuD2gtqYGpw2t7lXhJD1Mbl7uWZCIYTA2tyMdQJzwRxUEJ0gHKsVtnnX7m5947pVP3XH9hELiTtgWG4PsGRvupG+0TMZ8h4yP6xk+6Yx3bUmhPuub5APfJJDQ47XwrgOnd85UPOTsRGKHjoddiWa/ERlXNp6gtUMnTjRGHc1Rp8OVwdrezqwwZIezLOlPW+KYftFb8/PzWSKuo6uUEajdMWRf5Fw1jKRGIRKU9+VxIoCdFXFGcA3vueEwSOIab7Nyi4mWZa61dfVHjh6pb2DDEDwXAxXr2r4pr4OtQ3TSLqJpuiUJXIRpWFy61tEbBc6nGpuW/8kIIhYYxj6OSnHyi+FXjHde98iy8kV/e2HD0ZN7/d6MW65aNm1CiR1FYmCKQ280OTvX1eJzXbUAOocyO52dhw3LWvEwYqzTWZJ6fgEl26DmCuINSIfs6jGm4awKO599491Fs8ZOLHbZk6iW0k08iNi6KxdMmFbxiZGFWTYzzHIyLfR1VU0/zqV4QVJ4OogNjIjzoQv5rrsaYSf8G3Z725xX3ZW9qM+fZ8mOJA8OrPPOzMMnGw8cr4F1nA7W6sTtzphhj8JlB07539hu7K7ybT6R+MWjzx2vbhhGkl0PnAWDWkjXlj7gFuZ20vzpk71OAthDdQ6FHoh8RpeMmM2xszL0mxe3r916gmyd6UqkRSybzUvWT8oz/MmgXeVmHzg3iiQJM3AoYZXXIlGU2ru9VxqkmsbNBK+oDekHHfnPiIRD9abzKdkx3OMSrmnfuP3U/Y88E0k0feiG8ukVZixaG44E49F4KOZ+/d2MZlYi0vdm8nRNfU1dw6jCoqFKTKtdZ0wBGe9kWlfBhmqQdy/zaoBRJgIpOQh4077VDjM+syzzi++fO3tCmSOhwVdaI+nmbEaVmXm8sm7siHwf+2WqFHUDP1ogSol47PbtcHvYcDEk8Xd9O4jgJNZaFv86rHU43ZLs/Ep2wkLYZbdt31XXGApEzF17jgab2YGwMMs/rrR4VkX5wksWzHHam5LxWiNane2PFxawlav2WMmM2O1rDcMLQguJzpNNpdKvdkG9YA99AtJhmCelsyj4PQFdax3QClA4GwRyGskcR/iahRPL8jxtFkjwKAMP7KrNB7/6kz+8e+gUm2lyooeXOrNLGuRFvnP3Ty1lHMlUoSzBZ/boC/6u8ynZSVSmyb6cxmVLZh88cSISD119+aVTxxUosV52YBArcUb9wun+U9VJpy08c2JhYYHCuFSsBr0jLDg8O0kt+5eXZCZnKbBsZHD0yFEypowcMdKf4Zd3U+vZL/hDQbvJyjCiiMF61Z89vbjucgJ3+BFO6V4GPAPSSX+Q2cRunG5K5PgcmeyHKQvCUvjBw3JzMseOLs3O9KWV2EHnQKEHlctCN1kj3pJNr+VtuiWOhKbrTNdn8OYXwS3nK/RE9agwteIVh7cpGKVfsyWZBDHFzJjErWMUia176y9eX960qe8Jho+98fpfFs1bOaJodjLp5ma9thur7rDrJliZpbL1DQ1vrltHDP1VK1cSlHfs6NGHHn4oEo6wpoIzenxdDHM0MhrWOrLCEHxB7sq+9CbTQ2FBAXnPFTAOZjA2WJewu7adav7Ogy984KoFty4d51KarMyxyqMUsXmi0bjfabixwahE6n1pcL/KCN6qaRA3K/lR5F51Sh+Qq8vaZDQZBlkSmAW6K9PljRfqyc6hJ33irbNADuk7JZ+JgJNMRDM86gwdjBUYec/uOny6csferc21sRuunOs3PBlZo2dNmX5g346RRVPsduI5NQN03fFnocGDWSWeZobr5s3vbHhrA7kriKEdWVa2e9cutumBCo2NjagkFJB3a8Plg9mCIVOXTHrJZFNjI3/7aG9iJJO0iUnibPQ9a1oII2YfkAyP0+dCtuIhsjZW9YXAjM8W9bvoFqXAdpP7fYDUVWYM3lLvo8jKCmL9eofUFEBeJOrAGZH4fIFdqrFaCZHUdenW09GIdTXN8e//8q/7jp6aWOK59ooi2VEg7h81Zsm2A68/v27npNGzRo/Kt9lCUnZ4HUrtwvDMttns7SL+RNPcsXMHO1EwrhjtKLPHjh+vr68jw119YyP2O7an6J3ThxcR2rSWV9PWur4aJFil73HnZOdoTZfbBxfymFyw2U0dkfn9z93iJ+ItFmJ9g25v+kFK7hrs57bvwHSkHXwvOzraxTXS+yETI9mM3S7ZnvgC5pneKdFNifMLdimJXGYx1T7NQ3QUsaX19awS89fXR5pD8Uy/k6h20z5y677Y6xtfznSs/8j7ll93xQI7W9l0sQnAGfJ/m9tkbm1LscFlHURama5VmhOxKyPHQQFEOUJYTbOmuvrBBx7kRF19fXl5+d0f/Sj6WjfdN7inWzqhw+ueIT371DjTxAnLMO2j5gWVWC3AbxnZaUzo04P6VkjenG0mkok8yS4me3ql7cOtNNGf5PHtmaRvT+hHKd6P6RB1TFilD8IdDaIkZl+n4Tw3i+10nkFNCOESxnELXQaTa7odf/qhwgjyaFWse7PG+QU7RZ02h/7itBtlhTnXL5+/dt3m61YuLynJS8SbsFxjKtm6qy5oK24Oh9/YuPXqy+fLOmzFnp04qE+UbrmN0vqni5pEpeiar/UzOj+7fWO43toYbFJsaYp96tDhQ5s2bUKoQZoTjiEjAKkc1cHkXFlZKRp9Ik6KFJbEnwWw061ubZgwC/aElNRCK7QokaJKJ/IO2gkkWQE7ZW/qS6UEoJEOS8BRd9lZEWHEOKeQVLafSJOiQ+tUmbN9iBQgmVEIsGcz3N6elsJ+0I6dHdswXW/3nel1ZmgYl36TnlMh3roLZXlAnzqz7w/uQrBVk1DKXCt+TsNJLtxUE4Qruuie8w12Xb6vafPYox+5ecn7rpnn9bkNM0jjjUTE68yaPnnc0bXbMvzeuXOngw+kxGRhQhev1WW1PZ6U3kl1EfW1VMlpSX/XufNksHV1vv1DdFWtPc/ygFWrVrEfBZ5Hxi0MooQaOzk+8/JyK09XgoMouYh71JOfX3DHHbfnF+SfhXEljNKBHiIrabBL6UCUwVzVsViPVOz3RSRcML2PtzGc8FMraUtGVx/vGu7FEGPZtxsI65vlTrayQ1cgC8VZenEtQrGEWVKrSs4endlU5gbdJ2LjHORntx2SumoRIPFkasEbU09hAQn01bDtnjGGItgx+nWuiQyvW5ovS8hc7MtOjP1nP/rexbMnFBTkTx9f4rCFJSmA2pbpzMakZgdNIT2A+CyufmVKlI1Z1OyBBi35zOQp4hfhL/9NHCkSZqWfTgvTV1Vj1LzPJZ7AD3gmIgKW+JramkOHDyPOwCGaNVgYNGHChGuvvYY9YQg0+8tf/sLSS1GgHI7p06bNmD5D9hwYbLTTb5B+USaNmAoZS0iEN83neWzyCM3lbWV3VPzlLW1Q5BqsQ3a8V96YPoTCYk1zucjKqZ+tqHyx4J1kNmaLxd6FO2hjAHWspuCWweqktvVAc9h40zvvbN+2IxaV9GsyHFr2H23TK4PCJ6qDuwRPLXyLhxz+8fozLrlkEWnTen7oWaHIIFFZhl1KyBCKQuZ4tsd5xaIpMvySMQXkmt3PkOnTN2twY5iDSlKn2lAKnwiBcPhNmUEk45xEWykcIPJKbWXMeiHZ+VXwQRRd/mLm0aUIdhW4lkJqSCLts+UEXlektltuufnttze+8847zMCKUOaMGTPYkZ6gEzbBGlsxdu/evawG5yqoV1VdnZ+f13kj0QFQWF5CQTqWb3LBN0VjNZFYfSTSYMbZiFmph3anw+71+wu9nlLTzEomxWLYgiyDhbyQJRaNo8NqNaiXN1JPlZyA6dRyFw/SCYvAdUpN7BPxJTF93NNnM2gvlG9/mUYcOnb03S3vEjARd2bEbO6EIRKJaAXCV+q/HEo2OONDa1JSg/Bja62pCuUhanCZPrPZLSuJY2+99VYhYbgFhYK8SlTRd0qD0i05X2CntOv2BJEzclKUKT0iQYr0ihy5Jm8KxqlPlJC+V3LTmZNUE9JwhAx/OJTM8drcZpBI5pq4x2FL5rptrmSk2eZpCiUzvS6fM4aoVh/3spwtHxN5MhYxPPURw+d05jhYlmg0JJ2RSIJ9p1wESDl8jVEalyxwxSWcRjVSEoUbdmQT0nnu37+/tpbMGbKAhAWh2dk5zUYTUMjGC/p1oMGe3Xvuvece0n9WjBunaXLGb9r2RsVC4uNLmHUnjr9WW78nFm8wk2EBcSWhCuSbqEEI1mNHjVySnTkumUjNrl2aQs60VQY8ipCrV331XIlwrCFgxx+xEl1kB52FVIu+zx5NfXl1pB2EO/bJ7UvhvpfRdK+pqREzi2k0JlynE5nNtqyEsvTIIWOaQxfsS1Nboaj9PS1d3GVfS81cYIeRkQ5HsaORpXuhcOT06UoSC+lZsMvbzhfYGYxk8pITMCXglkyy6cz27dvpUVo5a/aszIxMAQi7Y++e/cRhSP5L6JhQOxKoPYsZJK+++uqixYvZcBpIVG+oRoRCyz4eumDS7l717qnHnnrpf33gPUsnFdSH4z/486tMF5+//ZpCl+vtA02/+csL710x58Yl4yIJ271/fbv2+OH/+6mb832J/TXGz/7w3MyxIz91/TwUsb+tO7juzfVf/OhNk4scp6PGD37/gs9p/Nsdl/mI81c2ONn+zjCIKUNdjUbYeFSay7F27ev5efnkudu1a9emTRvhGcmhxo5+RBofP/7mm2+OHz++L/aant9azxaKRvYYVkFbzOEJ1TbtCUVPskYZWUDET6EITZUcyw4jEos6GwKn/Rlj0aTd0jMiwQ4W3kETImYVs3fJme3eBoCDek5SzKmymqF7ft8L6qpIdun5vtcXU2NAWEhJBL0W72MBWYyGqzceRwVRtqN4wFF4PJFX7SiR5Iwa7FKiB1OjqEgSQCEcpTq5q6PtBT2A25cSlUuXaXs/z+IrbINtBd0+yx5xJ0NicupSmG1z5/kBOxj9d7///T98+tMjRoyoq69jhxS2WcKY9eab665eeTX7iiX90vaauup9+/bV1dYumL+gpq7WIwn7HQAiHU/iX0hMtDjbLDU1NxYVFmH9IRy3gAVlplFbU5uVne3zspq6W0K3kBW2wP+b5TE8RFhx1uHN9zhcbHVnxJHy3HZXrtee5TQcCZsz6cj1emMuF+Y6I8GuU65sjz3XS7ZuyavrdTuzPE6P5P2hj80sN/fS0fJf7WMgTcnw+7F0sL8iYSU4KLDl8ZrV1VX33X8/bEnWD+ZMVsfCUtikMbuyJGrK1KndsEpX7NP9OT0L0PWhYLCuOb6/sn5ERUlxxUfrqnbX1RwLxhpiiTgeH0ESm93n9hVmFOXlT/DmTd1+LJDrSYwqyGTdR/fV9++KcLaasfoyGEWUk0Bi9vpKj6K+T2j9a1fn0rSUh7Y5UqOXeVc+dTeMO1c0oDOKTLL/XJ9EO5n7CWga0BM73Kz2ug0GA6wYUelFyeXHtrlsKRnPRJ0VbIUaEjkVUyuW+aJT/Tm50Aav2sxSLVRVI1TbT9L0lAqkQo2Yor23BbuE2Jc56UB3SpIrQdbU8YMKpcCd+1TPtL1Fv835ATveGbzD9H7PvfcyvE+ePPmVr3zl9ttvr6qs/MAHP6CSPRjPPPPMli1b2KALQe+FF17Ys3dPXV39hPHj0WVGjxm9aeMmoA0T/oMPPpifn3vjTTc+//zzDIbCosJIJIZAu2LF8lmzZvdFDnGYsctnllw66YMZzjjxLbkex+duW2Hi/HW9GZhHAAAgAElEQVTEaeWc0RlTP/1+H678ZMxt2D9x3QwzOiXLTbcmx+XavvbJG9ygG2mBbOHrFo6+el6Zn9y1tmiOO/bPty/D25rhoLfhEFkyoVgwgVh35MhRPsM0ei7iN1Om4k7pJbUCyVy8aP6VV16ZnZPNIMfkPHDGVQwgLBSJhKIJx4HKxlf2nRpVlj+2bFZR+SWlXux0Jr4Y2gnPRmNmUyC2pyF8bN+JWHPo6nnTFRsJRg28JboGyUnELjN9OcS+SDZAxLoUwPTlpn6X6VoO4pXVqElZkaRrxCAr2dg5aJHgb/tnySjt99N7u4EnsT0TQ0NrCT0Wp6yYRwaxHejPbIGkJicdY0JPsGzYkWOEPrBi8hhPEvIk4W5D6IIrEfqIuIc1xJaQVFiiEghNBI/kgGjiCVNMpS1a6rwCubSZQpBLzuoy6jZ98BTlEfFuPdG8Z/1OSY8vgmxq+Eg1Uqf0jX5oy43nB+w0M1RVVp0+fer//b9v/fCHP2Sx1Lz58zQtZMfBZGLt62v/4R/+F9b6o0eOPP7qEwvmz2d4FBQUrFmz5tTp05dcsvDJJ57cuWtncUnxZz/7mePHju/YseM9l7+nsqpyxIgy4jCxgkE1uLINlbr+iGXNl2jMkC5KiA6XMP1qooGAUDrDCGW48VdKN0DkTAxwgKCayLxmUBZnygWZg/zcKcvGxbnIXnweJx1CLQJyTc2BXbt3Qf0J4yfwe/bs2SdPnACXA82Brdu2RaIReZbiBjWh2bw+3+IlSzC4Kp/a4IycNCEI14nBC2GH63TEefJAw8b9NRlOu59d+ZyGx00Umx8dJZ6whaPCsEnDmUVwjwxpKuidmF2TuNNZKpLg15hsGqffu1OR1hOyuk424VI5AgatCR0fKGODQ8YXvnL4gIyKJCbg4Vqe5aoMUVqABZNRjIUeM6yAXfsmieYluaAGp9fatlLsrGqHpo5N7+Y7M2sf1xp3U0Gb0zJjK8O/oBRtEFBisGTYolMLHCPMxtIRxexBTYp6pn1W82J59jlsmU7OyV4iaYxrC3bibKmtrWNQo63JFhwsIfD5xN+n3GfSFVpK60xIO4sOkpVVgYYsc1+cp8kw6wt7nh+wUzhiI0F5KBh66aWXWANfeOONvB2CuvQomY6w+ufkrlv3BolA0EzZnQud7rrrrp8zezZBatVVVeDF3/76t9yc3P379q97Y11JaWlWVnZZWRlKHz4+bP9PPvHEF774xd57UZUg8EGmIQUrimyCPeL9kC/YhAWBFEtDf+Fj+SpCoxjLRRGFDwSTVB/xXyYWpb6q+3ihDRveevzxx+CVj33846NGlS1dugTIrqqqXrBgQVV11b59+7mJd0c/jkkm8ARb8yD2IMOK5UXqUa0cnEO9pWLKkATVEI7liiZt9WHeOenx2LNQyoV7gBb6gsLIeTGJTREiySHvN/CWpF+pL5gA3WQYkPrrbB68FJOj3R6x2Zsj0bpg4HQoVBONN8XYXUxeWKCNiDcw1+stzvAVZ2WVOuw5bEGBrVMIlqaKfOrLW53Bu8ju2g7MZn2kv5hEzuApXd0iTxTsEX5Rtju2CwfT2YIj4UyScrXB7SyyqT3O6mO2xzfUvvLyy1fNGXPDwvEFGZmsY2YhiAwkBV4cspMef5JGXeL/Z+894OSqrjz/Ct3VOarVCq1WB+WckBBIIMAIDNhgYxtMsD32eGdsj8c74wk7n53d9e5/P//9zziuZxzHNsZ4DJhgchI5I5SFkBBIauWs7lbnVFX/7+/cV9XVVdVB3S3ADE+t7qr37rvh3HPOPfek20HIZG5uqG7v7gnjx2cX5XiNG4oOcJESLBjp9HMQoWKoQCZVPChY3htmB8g+c91nZs6c8Y3//I23drwFC5g+fTrD43BVGISlPPJ96Ytf3Lx5c21tbXn5uMLCAngc00wswec//3kUfASWfuKTn5g7dx78Bglx5qzZ11332b1760pKx7S1tnN8F7q/IUp2AjttJ4RACn2NVcWWDK3tBkqTve2y6eeX3fa2V0J58UA4FHeY+oC/i5Wrow0B1uUveurJJ2fNnoXz8OYtm4mUUEJanSEgr6iPXHLJwoULd+/Z8+gjj6CaxIJBp4zXje7FioqIFEIvCntDeLHu0m2508ivxoQXBmFZZ4TeDB51iMajpzzktUHxavA+s523QqKQgauD2WUpYG7QgoM3mlrCJhSYqCM9YVx9NjU0be3uOkR2AuFFb6MGGQ4OUFkWCRTI48qKl40tXZQRJExbYTAQHl0dkEhT2z+zOxIkhwwGIbBZNgYG75B7IKxQ46ah4wOIAfaE/ZFO3A/8MNbgkXbf//nDjlvXN4basubMLuzu8W/auuXo4UPQdYc/87W3jnVHgxDEzEljZowLyaeLauAFaKazs0+3NLd3tldVTkqjGHBdpMmeyMlTp04cOzqmtAwDXjgaZOvWg7qOLRwIqg2wG2z6Eb9HzM7vW7yYTauvtqaWnZ2bFfZ/M2fMQJEH7tPvsrFjV1+22rYJAu5ll10uMSoaqZg0yUF88eIl7HZhELAGEG3+vHn8iEoj0UU2waNyCklfsJlEOtBlEqHxa9Y7TgXMCIWwRRwhf5FdBw8e3L9/P/iKgIBdq6i4CPbNVn327NkrL7iAipcsXlw5aVJ5efnEiok6Y1u0NaqCnXVeJCldgdQl8iWUjlfszZgd6mbQWM4FjgmFxQz1fKBxpzxjjhxVpn2NMUkza5whbYF4fZTAhcKOoRmkZEoXhnQDAGhjiI4r2nLw6Csn6zcGgo0kndKZ5WJtzkId24iZJsh2rh2d3QcPHm1pbwtWV64M+LLZ9g6pvZEVikUrDAwztQGE3YZ38KJD71JCXapfzE+qGi43kccOHj20bW1xeAIbFADY3tp27913HT5wdMb02ROqp+/dtYcEvd09XRNyZwXGjwOIGbi0QsOdrcV5IaRWwVabCaux95JKG1rKypbfBWhaMakiApPrlFbQ9EuO/wppB8aR94jZ0WvHNyA600HQYwXCO62qrZ4mVojRuVEzdfGoIsHcOIBj5E5/j2jt5gJQOVXdSFZZj9D7AH3wLzStiTJx/cEHH3z5lVdyc/PZkDY1E9srghF6yHkZRgwrjmDFv5LriisKCgug51On6lnnamprdOpKZxecbiRDSNddA5qQSf7QulgRtRy6DQaTgkXNOqn58ZgsHY19VJWJe7QYVtqEuLFbqzYRTCK4KaE59WLsZtQb0mVgGC3xJLlFjCRNTc0oEIqKs3OzCznBlTM8uzD4KZsquyTJsQ7ZbExSm6GZz+RUc1FnTk52Ifew+YRCmPTTDTW5wRF814SoDYfnA1Tk5oJZG1X8MUyJtQ5csEiYhKe9AH/43X788OpZ42rac9+qqw/X77v11y9jcuStut27p02fMa+mvFNBIJFw6/G2Vixv2UCXeS0uLiwuKTpy9PiBg4dKS8uysowpxVtCuRDx1e3d19XZxf4vOye3oaHBTFZ4rcHgpE+PsbxBIPPeMDuA5E1V0rz1mZzkmUqLSok345/TlkyLHLSfSMlpywz9phsNzLelqYm0Tc1Nza2taMYMIaSK9PHIKAIXAlzdwq+++mpObg4nLFZXV0+prS0uLuIRXM9R1+iiqkbhmJDjHI6EhUkSHh2zUipBXXK5s1GbRlKIZ50Wp1NBcUetBnKoUYgIifJjELdlSsMlKZwkRtVj7/TFQxMrXRPWzoAXiiqHCkN9YcDa+j6MckYtbkwvv/TyVR+7onzs/KzsgqPHd+87uq+hpb5H3gxyp0CPTNOKabOxo4IqyS+cUFZRVTkvL3taW1vH2zt3zZ49CwH0DFoeVlFwCN1lBPvRgJebjVFEbNeaUMPohUubTbvABKDj1qJIW1NR96mFOR0z5xbVvbP10P66LBaFTF9ba3O0u6PleF1PT1debs6ylSvIMGq1OTwTEiHzQC7v7KmrqZxMjHhtbZUEbpPW0OBPqqxGeYVa+/Tp5nHl42h//3H0DArD5LMEJws/EIY4dEsHn/eG2aXryQfhnslI/rb21o6OLvbdd/7+ruaWZk4b1VyGI5zoXFNdg5SH86C8Ljhipr39oQcfguxnzJj+D//wDyEwwMOgZEY/mtARfnjt8NfQRboTKQBM3uRGzL1Y8h2MidIOm/WiDDfypSKjb3M7O/WOsQWhmHJRWK9HvmB3NONE4+mxRdkIPMb++nAqa8eT2QcZmt+HfnaQMsN9TM9suL5tb7751s6dy889F+3KlMqFkyubO3raWttaOjrxVsU/RkAABrCaPESLzILC7NLMQBa+4bt2Hj54+DBw8/vNHbLPKIfbrQHfkwJkyA6PmllbXUfhii9O4lJxDNKgTZ2pVkrLSg8c3BeItGb72sfn+EjdY5GO0UmVk0CM4sLC7khPbnYuPisUNrTQUbx6O+IbN25CbmGRpLaMIE4XmGEOHzpUNqaMg3pz8nLYxhYU5LPraDjdOHZsKTlgUISYzG1Ia1Jm0hiTv6OgGQUofFhFDAK2sEgagpanTJu2aPEiwjxk8IxGxo4t/9M//RImZswsDzzwwPMvvOBypSnm0Y7CY98azO2dDq16o4SlKfNj6zPqdAhdWmJDPGnsjN2ZAstpBiS+OXxi2+3LRLCRpVYhw7JVHGvveX799prKirFFeQrjE6GLcRL/dToS2LpXXOCaFQs5bNq1kdiNoYt10Co62ZQhjMINkZq26+SK1ciPHzt23333rXlyzeTJk6ZOm4LRvKi4OCerlBUoKwtLUshgQ/FoW1Pb8YMHT5w4fvp0o6LdAgHEc36ncjqaSCU51/V+HlGcTrmJ1wpk05GAB5LskHOd6D8IEGxlMn3QiC9T/culRhCjNqtYHE+983rL7aqq6ro9dY2NjRTAh8my90SqJlfNnTsHE9yMmTMoXJCfL0VACly6erqIlULKpsb6Uw1Tpk47cPREXlHJwcMH83JyiouLjx09Vl1VVVExEdtupNsUyWJ4pldxbsXmjmo0qN8ytPUd+IfMbsSIkFiBEVBuTq7U3S0tRBE6hAMpZs2aNX78eBzrKL54yZKXXnpJeC3dWeSyy1Z/8pOfLCoqlNoxvn7anJ2Ny7UgiU3MTVasWCuS44TDwmnDE3DIFk3u48kJDydfOc86/cGDLR1Pb9h+/FTLxMlV4BXSHLth8m1FgqGWaOjFHXu37NpfVpAtZpo4olhL8l0Y6jUaxJquLdGD1c1vE9yimZlBtG+4B+zY8ZZidUiZnwFdkmurbNGiRbAzU+NhsMGT0qNx/mhLrnVD5siEdgCXL5hJ+sKmvPx8j+/wOMaoaJ2bWgjtg6fvU3/EUxD5aT0bVyAZ35wuQWzFDBTQrNF3rLYkko73gS5h7htduTiGzxqdw1W6F+N3vqLCwvPPP58kFyRkBHj4Tk2bPu1zN99cXFpMr4pDaGnsAtjGiryBMyZy7GRkjBs7dlJFBZY9hOo3t71RWVmZk52Fgy2KP8zx5Xl5wUx/QSaBpCIcN2vU4NhuImMzytKVBJk/XmYXH5GD3/vjt62jkAiOI7/7938n1tXkNvx4wy3NzQT8EgTWeJp/jWAhWXugkfJx466//rPECFPG4W/CSEab20mAUyPiZ/yneeQmEZgBE7QRzeqRSxkndLR/XPJE0d9AOJC1/ciJNZu313fgeCbbv1vckUS7A5nH2rpf3LJtx5GmHn9WCYM3DZ5rIHGGJBIM7dLrZ0/ElVgACzGTt0YuGIh6zG5GYB8/fCBbMKo9VIcAyqNTd2YhMLNVwd5MHg83EHO+/Z3v/M3ffBMPKoKP1ZSDNfBVtUrKD8TFRntw8YOViZ+yp/63n/8cp1GYxU033YTbPII2rBd5e+P6jfje4zOPeUcZ21ks060lvV1J6VVyLwf/brihy+ZSyKPLu2Uf6AKGV9LlU6S0uPj885afPFUP8FasWIEgRlBzV4czRllvYhIiwJCATyKMTg7bEp4xDT042Pf0FOXnlhYVIM1hzOjqCufl5RkqRTikxfWEXS0vaIHy+mP9Sp0DKx2//miYnYAbX+MdPvYdyfvkm+GBH69AYt3IMStzp9Hq+vXr77///uXLl7+zaxeRcMyMSQOR1tYWYmMnV042FhPT+tpgHD6N6rio0on/DmXhfDLLity5byutaMfo3luujRrVGTHCQLc/9MaeI09ve6chEiQ/FDRK2AnvYaEgr8Cxtsgjr7+172RzVzBbgUPy6JNPGq8nueZZM0O4JPuIHQ2h6JkXUR+8mjVgMXnRs/4JFKaphDIV+sQYeZzQDSN8kZc8d1g1BITEHlAJa97atWunTZsKMpCc9Y47bifbxZIl5xDNffXHr17zzNNLFi8hSppIcHymXn75ZRQd1157LYyso7192rRpX/nqV/CWJwhy3rx5zz73HCIP3qM//7ef/8XX/gK175bNm5edey5KRnXiLMGnL0Q92Hg3tVpJs+sNOtrY0CAuJkbG34h8hbCz+Tj4HH9KjgN2OOXQy/iaGeJQ6eCwfuTIUTPfeZtQ5gIJNhzuPnX8iDFBSb3MDkK2TRHvRjhUV8YNb2m2UvxLUdsl4UQf6jpzfHk33gCr+NG6F7+ktnhXZvhMx0fEa08P8bwkOODAMBKIUwGLMFPFlJP7ACvEj3/8owMHD4iviLwi5Cz46U9/RjYEvB/cSOO/z7TxIZZ3+CmscRevqS/uv+GPbWdF/WZG4KJA0BdoigSffWvfg5vfOdgV6oxmg34gcQQLc8DfkRnafqzx7hc37DrV0REIdPtIZ2JnANrcJTCJIfYxVkxsWPLLGb429OJuZygfCjdq+yMIuB8BgGVJBztIC+4Bx/7qCX/QPJiJI+kSfvr9bIgXzF9AOh/2aEQ6I8JMnly5c+dOqt2+fUdTc9Mbb7yx7Nxla55YUz62fN261/fv2weLZLisI/n5BWS7Id8fsYMzpk/HjWnc+HE11TU4lpLiEG4IJ1VumtGiA5snA7QnjccmTstNfAa4aaMVxHSZNys7/vETK8orK7tDxaf9+UUTJ0+srMAbrqKy4sjxo2uefBKheOKkiZMqKyonT6qsnDSZDerkSePHjwP6mB1I46jkpNIZEKACtw+SwkP5PrB/K2bFH8rgyPBMQspCVohDSCTrSdUilmvI6vqSPAtJ39+vzM5bMoREKC8Ihs8vyCssjP0U5JGZHaP2WaWDQSCX7jGoAPqTfwXP57/8y6///d//3dXXXI35zGiG5MMZbe0dsA5ctYQuhKCSV8kXqNuzt76+UQ5uaa90DSXc8xgBf5jLtFwh8ZGjDX7TI0xakLHEEn57tOtw2BDeHOrMyubvDGQc9+c8sXnXi9v3N0XRxIWwhEHjCDs9/oz2zIwNh5sfXPfmoaZ21HYYJjVtWoG1gKftvliHXUlPk77TA0kBo0XPabsiQoGZdcsoo2hgxezi2xG/6KNkcC6xPQUNoAdHkNOPglD0vg1X65e7+Aqh7tm9G70tuXxOnjhJLNCTTz51ztKlMCkAzspHXD18nNReM2fMBGEmTJz4uc99HrShHtvMRjh36b777x8/Yfw999xdWlpKvhx0wdA6XXv+uedxxjSZTnJl2mENehOnDw9hov7WQOG+9pwjHdlhZtYXaIgW7m4MNEdzsCOQtPFAe87BttxoBskEqVWcXlPbO3fySIQUm4O+b9/z8l/9dE1Dpw8zPaycItt37Hj4kUePnWroDvjanIUL3JfAb8gRDCjxpv7zi41vJ4Y6JoPLiQiaBRxs7StNMnaVsgwa3gJjsLdZsL1IX3RLQr736zbW8Bs2gWKSYBKNQkTXO4PMem4gBwbR0QF0MKilJ6pBp3x0CwBxMBXuDOtg8WGilp6z9Nlnn8PSZ+Si1Z6Oimx8vpkzZ1bX1ID0BPzX1k7R88F6Ex9k2pJpb7oqEx55sDSylCLOeSkJdUT0klNcvCHAF6tRZEDwWIdvw7odO+qOdAey2J1qb2eLKrvX02H/SzuPvbp1Z1OXTvtVNZono6OBBmQFdfWZuPSzGLsbs5oMBqYzfC5uB3uT+4haMkjE+25U5QZiW9lEeKqkbb6M3/UZLbXB5m688aZlS5eunT+fNBAoKxAE1762lsTUd9x+OwopPMnJJI70QjQViXbHlJXNmTOHLpSOIeSx9c4775wypXb1pavB8N17dlfXVHMayaRJk1AEEwmOCQV/Dhjz8FcCf7TVl3uqLVKSl3W4NfLPP759Ymnh33/+8lBG9MlXN9//2LNfvflTF88saY1k/eA39+Ix+s3PXliQacYcLtmX3Poou6ow16KtG6J5x8Nh0j6u37zx1NGDV33s4w4uPcGcp7fWr9lw4AurqmZXFxNbZ+jBLwEcf3u+2RLpfmTgRqajAY3O0Q0ohbBgkqxT9mgm3Dw5TB4C+bxfmZ3WRqUwy8iU7CnCktqnlxYAjo5QMvdbvA2NqRtcYivtGSL8KBXHAJeRUVikhCuYIE6e1KEkGNRZkegnMwiWmCdKFFaI7pkVGxRnCvvj10nEb9KWsg7EyT+GH739T3gUv2m4lXiZKkokapDVJVHOoGeXvGjhezQUxfYaePyVzWzFfUGL07YsICrp97eGI6/teKe9k8RiLEhKawbXsFmSX4sGNeSLl1xH7I1UkTA+BIcEsnxIrLHS6uaQG0ouaAuQDZrtuNvoyHkoDjEeACfJfYqs827Hm3OCFVBLqpZXLli5kp4htS3BoHjOOaCE2EKMXTo0+OS11wLJZcuWnb9iBQ9NjonA4/7H//gf3OcLfSNVtaE2a3/gK1/5Kr9XnH++RCEyXHexwnhK4eRxDfadDmzZc/KffnH3V274+MKFNRdfuKo0V5JFINq9cO6spvZoZdXkHl8L2HrusmUcbZqVlaOEhozcuJvDFDE5MSxDGx1UEMT7EjipZ7IhcBYl/ZWqd8exzrvXHrhk/vipk30knszPy1NGHwpkZLBp1SQa2rhe88jyvOmS6BCzh5DglhKIetQZQxh6ov64TiTiUCoA3p/MTrDMyjJOZ0RqSNiXXGNDycrGGds81w1QwMVwoAsQvAeXzRiXQ1PmCfRFxUBylyuuvHLlipV1dXt/c9tv6B6PSkpLOXqCF5SkTJp46UZSL0iE0RvxYTmVjsw+SnSCKME+9xa/edv4F5nGEC1FHtzSEuEkMar2gOKBxnE7M1l4mGaEbYXkwaQcRjxS56J+svVgoIBh84hahX+UC4ZOdnT7M3LwjyAZknBehg695/RacfRNGpcWJ7XaO2B1XwMS54HtBjRWchAgu5MSnp6wa2aDzAbI6B6iUpciqMi1hFhJx2+80I9UOKa9o8HCUbR71ZwJqBq96hRXonv8KM2THLqMtzpRLvbIzDpG6slkZmI8b/OqmD7pHtRtHCw4XcQ4Q5jAZ8dbFQvvzL4anDEvFg264fXAqQUUBa+QAjZ5NkkqIAbqnFfcFGoF0JoVg20ieDV+PYhdoFUwq6CgtCKUlTc+Grlp2URQJxAlxUvP9KKemo/gI93Jelfma/3s4vKucKS+/oSWWVdLrAnHu/kN2NvapJbp6u5pqG/WFiEaJeNkV1sbNtfONlJ/Brqigcb2jmMnTkXbTnd1dLLSUx2ww4jBHlao6qqPRjFDQyNACVAosy8mDqGkWyyiWCpIBKCZ0WItWOhJbBVJGGLyx/eU2Wn6e+fD4Kg7zgkjG0t24sO+BRPHkXg0FVQRxBTo8wtYNiXv4QVG4kDw9a9/nSx7CxYsBFcXl5SwncEai9sdSavsSFCHmuZmmTJGbjAWgNIdzD/aHAXnaovbUfSdjuQfrm+bWJJbltHU6cs63BZqaI/OGQPxE5lecLC+qzAvNC7UCrI0RXKO1PfUFkdyWF91GoYutWProaEQc+B94ot2sd6POsQCCjrC3nocpRhLUZcMweBLOvSNLO9mzTXB0/M1iy3G6cFvdG6Ds+74gzknwoWNze3jCgIF0ZaOjLwjLRGCxCqym2jhaLS0vr5r0phQQaShLVh0vCVAuFRVPsOJNgfy9p3sKSvJGJOByQ/TsA1siJcTtWRTxCaQqRhL8yhkILhCcIoIenFfV0cGzmrhbsi+G2EXbRo7Com8MF74uyM3x2iTJw8WhuE1K8TRN25lgBH56/bu5Ww8tG9a2wyMdNZgLmaLTkOquVCO8UPRceJ6oGEZO0PM5G1n7gTPccRF2+PycifSPKxQ82c8EUVXZ0cHFrN4hYFoz+LKrB/9zcfygji1tDPPRn78kV8M6fr4p6bUKp9Z+3SWmHFwdZuaNS7HYrjJPizkY8qImcsvLDhpEX5sX0iEwSTTu1BGhCTeedl5JYVjmCdci0lR6IFMi4JDB++Gao7RhRi6+6rhaHPrptdecvOtXidD3xXq+/s9YHYOZCg1GB8yrusl/dVyZ0NGfYt6QvJM/BpgKCmPoKPsbGEYAp5xzxhw0o3/LN1Tm6a8I3MJ0csLFy0CQU+fbiJM4tLVqy+77DLEOszzoHOs+/2QqNiHGA7k95Pb7jl0vP47f311cVHhprf2/fi2Bz65euXNH5nWHQjd/tAzr71Z989//tGp44r2Hjnx//z4zoVzZ3/zhgtg/Gte2HTHY6/9zQ0XrpxfS1oJh0OGQI6p8cnAbqjuCEwY7PwARMwe8zC0kgyov44oHHEIgnbD1i1Xv/uABGLikdeoCsYuY6Imclr9HeHAA89tfOvtXf/p2lUFZZlNnZm/vvuRvJzMr16zMDc754kXtz389Av/6dOXrF5QQcmf/e7hA4eOfvvr14wfU7jxneM/vPXeqy9bcfMlMwKkjtTVDyQTm7fPlAa2iIaRQE6geEJLQ1e0ByOyVHeRvKLiyTNCmRnH9+z0N570R0OtPog2tzMYaiffVJRDD7rwKgohn8FHJPNmdXMkjoOO9YAB4lJOtq4vfvGLxrf0C7CjrWP28SqHbLWKEJRiSgzcMP/vD3+ImbKqumrC+AncnDFzpkvCDokg6LHdo7wRO04YEjaxW5L59ZFHHrlVksQAACAASURBVBk3bhwJCT521cdIEMlmHJbA6MA9ysv5iSWhpYX1FTsJVtCrr77aLXPdpKQLRHNhSkpWyMx6qIhMzSsCjiaH/wZP8b6487DNtsxT4oeCpAHeplLpGGXV0hmntvQR7SDBvKuyJLSiNqu8IES4TSDb5DLjWvQW/gioY3QqHHJ5brQC2JmiObHzM60ZtSM0c1gITmpR0APQSRgV44Yq3Pd6D5idQUEZyhijpi2GnFjBZI/pkN8g0cLJPT2T7ySgBIKoNQyempozeXsUyqpJvw/ZDWanXGzmQ4eVHScqas8vYPeqLonTG07ZFKa/3AOOx/jIBee0dUWLUAj6wjNqKj511UcWzqgB5SCaFUvnTaicNKG8lEMKKsYWX3vFRVWVk5VnhRRYs6Z2RLNrqyoMK/XPVSh84ZLUBjHRvvJP8A9qMeGGUsgvoKzjYTYeeyFtLx2hJI5BRjToEkZnMkPSZd3oHTMwWDx36sQx+eNL8vzRjtzM4IVLFxQWkBcjmwODF0yvIafIzCmTaZ1j3y4+b1FDUzMBJ3StalL5J6+8aN70CnDceUfDp20caRpN7YRoFpt4ICtn0oz8jHHNp+vZMnMIaUZJWWdmAfvMwunFPScPwj9OZZRQrD2Q2SVmF8r294QiYeYVAa/Tl9njJ0+/XI6djOxB2uc73dRERzo6O+666y40GKS3ASTHT5zg0LjVq1dz2ADKXHzrcNJo7+iA31108UXVVdXf+p//E6f0mz/3uccffww32gtXXQhH2LBhPV4snDu8f99+eCUH1GHE+NnPfvYXX/va5MmTTSkcvf13v8Pt6Yorrnhz+5vNzS1HjhzGKY+wraLCohtvvHHd6+s2b9kidmAIR+ask91ZG7bvWTClclweQX2e1J8wWb1U4+GMQdDxGXlVa70ELSgmkQJeXxhoGxNsyQr4Fs6fF54+BQWO0EkicPtHz520cumlBFII/zw5hvcBLSlRySSojYGHmq6MEFCLq7PDJs6d2uURfFDRPXLnlDbfuiUW6qFsGpJ/95mdWDVLkJfIRQToXSHO0slQ7AHeNn3EusSBDvkztsRgBqK6VCXv/mUogNwaDJCjMMbOMCflF5DynUdxeVOdi0MgtadSjMGxEC0iLZfMLTdVXTfCR0V2+2dXVMkxLxLO8beurMk5vzY3EzkjHB6T2X79ymrsN4FwG6Q8uyw4/YLJQcL2Te1EZ2jcxAoxOqGJMT15AtBjoVv8Rx9TLJCqIM2V0nUjBSFrIlOLvygHsdi46RBx44vLg9GxJUEfOqNIYeTE6ll5lt62JxgNTy/uWMyIZDGJ5kXaLptbiqO+QsijkcrcyA0ra7SBNVp1vTDYiyhTOpXccUkCnBET9Z+KZrUUVfYUTYZcOKwTCEm6ZddKDoIJBdnB4KGMUuQTnvKrnTweMg4SLUxJLTa4UHNfJCwQJ7Riggm9KcgvwAyFyZWVBT/hT3/6U4RJHD16FB+6p5566k/+5E/I03vTzTfBE0nvOH/+/DGlpe+8/TZRpYSp/cu//IvZNwIouX7/+99z0t5LL714/nnnwQVaW1tJ7v/MM8/gt3zppZfu2bMHX7wXX3wRT96PXn4598kFS3JvpmDDug1PPvkkNjEbsQDDrufV3Sf/v18/9bc3XvGJZRNRVAwCrti4NLPwGqWAgeOwlTc08UWL/b4/v3LR6fbImGxfQUGRL6rgsIqJFYsXLR5TkFPA6XpKEuGxWo85yaJFKEg2dEL1hn3qBUDT7PktiaE+9ME5FAiSXqNMAzoI5cjnR5Jz/zKdm5J3j9k5KGNNQNKBDSXjnX1nCPBBMTvIJH2RtO+luQk9E6eC2R75ztA+LY2meXGUbsVWKfZEfYhOdKj5HJwSvY6YIcCwyfLCCkoIrsae4CauOqpUqlw9ku5PLUDCqkCsTJzOkEZQMM8sMSDDDz6IxxnaGluVT5NYnqL39d06IdDZ26rZiXp2f6DL7dx4gZpducQJUKhTHwymenEryY26r9ZRoNE1dPLESnIsh6n53SKuQnTcem0AMfg4mdNrbKCuJT6TstFYI3YYyyXSS1nU5DyGfUhznB4o7STWhtjE0Rx6TDorPyMn4dgj1wHRfzTa1t528MBBHEdeX7eO/KwY5hk1Mik5XAlZLSktWbZ0GXIZyhzYFpb5iy66+A/33kuUFb7EvI+4h0rHNqfKWIlQz4aOQ4Thd8gF+QUFBFdw8tSixYs3bNxIzRgrFy1azF6YwAzCLfLy87AFc5/I/Hv/cO/VV1+DEs2wUX2EYc+cMOYTFyyYNbkEljEwwNzsC9Q2i8I3bVdhVJntcsDL3nekAQFtfI6/LBSoP3a03uctZjXT5/DDJO7dd9xe9H74zEabFN1t7TA7g6rMUx5wo6TpVkmbmZSLe+zmO/2ZjuMKT0zIZDPhdhgpb3g33j1mh9KK4WFnCUog6ffKy8vWSj9QkX7f7fNA+oIgrpjt7X5Z6M+QCIbWxtkt5WAQI57ethKHkjQs99WhlH32OErq6D1mJz2zOItJJV7EhOyhtgDb7sD+nfklWu/L5hPrkMsUxynETk0TL479eMWsTTUtdby8TPW9F/ldcXcv8Y3ERob42RudrQFomxw/t5GbqOEgoMXBVhH7rcvxVkXLuVUjxuZcqxRDaiPzGnvVKVOnEgKB2gYxDZmL1B2bNm+eM2c2+9C9+/Zyagp8HB3O8889h7Xh81/4PDyLmIpLV19KjARc8mtf+yraXmBQXV1NplckvlKixKQW8//nb3zjiTUkalmzcuXK884/73TT6bq6PVOnTmXDiy1i9qzZY8vH0l14JcEYO7Zvb2lp5lAqG4MOsqwq9H3tk+dl4zEScSnyB4eYGz6IEsAAHuhp7Mq9Z+2+HImJTQ4AWo8STtjpu6QxzwBPsOW+0y2aONZsOJaetaXtk5nrs/edbO/wZ4WjrSAaP4Oi6bvB7BxyEEdFXMjAnM4b2Mhkul7oGNFnZWfJHx5teVqwvZc31SPmnInqxQmxGckLg0/dgD1PHGzSwCXJxWvXJz2XbCKFnW1ujdnZrLlNR29LopKh9czQz2V1NMYB30hYduV8pfMvHMewHiReBgKRhclvsmUZfSaVGq2vBgGadANTy3E+bQ88NxrgZp4k3jB4JNYohbhJyPYgJs+LponywTqhIj753Inzu1FEo9NnTAc8M2bMpHqTC30Eh33+C1+wcaOZiHz5y1/mvVpczW1rZi3o9+rVlwYvv5wPZt8Tbl9zzTWUFKyi0U9+8lr+8JRoRW4h8QFnVhRO2vvSl/4UWZpXIEMPkrzFGSntXSF2kGeEb5L8FUASjKBQ8z+z9k3tyNwUGvZqolUkPqsxXBJUbI+hpcLg7JifrSo2iKFd6i9vsIMOVgUysBNrwXHz4rWZvqp3g9kxDmYHVxrEuqGNZjRLsWNiP9va2qaV+312QfAs0LiSaaptCnGQZtsizDWcGN41lBcdeVobQjywxTE78xDUZ9lLjS0aRsaxZ6g4Kbbp+JsoXBSbyK5QXzLMbpKX2ZXc4Rjeu3YRe9BPof1ILjY86PR9izr5gVTgAtJg2imKiRfdF3PBLU7Q6MUhg4jIlXcdsRnlepeqlc6yn+1hym3AHHejVRU2Mc4aK0YWq5ZDmsjcaeDhv9YduhRv1LnAuNddV5hN9zReeXz+2APuONj4yzse+OxVq1bMmqg4uKFctIfogEjOeaGRniJ/t58j460zfYcvl0BNueqkD4zAOmw3sOrwE7/6vDmUPqg2VUi8aCEdwAIsO5PmTqtF/zWcdWZnbUc5bAHbq/wfDQS9Fw5NPXhUxf0r++/pCJ4ozDiY0RlG9zIAKEbQwLBeZXXetGUTp+2ggpk6jfNkA3V1ex5/7HFUM5dffjm/DTHOVodFipIXAInUfU4kMR5Lm5Lr5AhrFGcI5OGQzd7gXVIJ3lZ2914pvc9ruBe47PNDmBF6ytG6MLsk3BkW1JNfgp/KYxkfZRklxJ8ScLR3AsTuYP/J66W0p+gNRWrJFY/Cd1dnvGaTIdU/3FAGrX3Q/oBv9Z2hPU2h4x2KfBh0N+WWY5m2bG7huAWR07WBFlwKsuSDmOaKzS0PHb+jjPrPWprI7NK8Ocgtx8GZD+VRlK1N0oExa2ZMAmvC6pxQ1eBQG6TdwR4LCjqFXg7TwogUqOBIWVBYeFZy0Sb0TdsmGve2R4N1+uw/pzNoEsljjJ7l2PHjH7vqKuiMDMZIdrgmkAERtxXmTZ1OA7OR9A+RDQkG6pSDEoSDwkYYIh4mAU/ynCcNcFskYF3w5s3N5qDN8wp+vz3RgCQLb0fc5yXqwTpptSVs4furlxWxCxupoXF8h9lf4TO5Dz4A4Qx/NBNjgzZCBGgo+AQCljzqYAIjhHqYHpkrHfqankGEqzUis7sz2x/KlNXV3jmbF4Id0R1y1xpskRgU1QPh9hVTCqf//afKC7Iyoh3enPftvNxgtdkUAAz82ooIW2w9xICbwVHiCqzxmJ090mVQcN/c7jkOFrUDVqXlrVprxay0vvbtSNI3YSzYGvGbJpeywgy5HgEc3qabtu8XdiW+edaZHd0yCUIH4qUOgSgSZOLBl5UBhz6Uh1qXBsOPodQzSmUwtHWSyQ6Y4J7S1HSaqG+tTfKMZ+WMYmtjyy/nKTdpqYAbVj88XBR/MX6nyhFpPLFET1kmOcqST54kx5aWlgy11GK/KKgSCZfQT9PeDQOAf2iD3LcA3zAfSaPU112AO+gclNyCzBbxR7iDkCYrbBnNRgkUdACKpZ/0ApeIy5fMe+y1LYda2rqDeAorMM4xVpEln8zf0ChQ7IzhOGEC7Waop7WyOOeqlUuyJGTYKM8mmllkoY4BGij/sK0Hzh7oOpOK+cwX48qKdEwqDPl6sE6IfSTOLk85DWr9hg3MiDibtIRyigZqxD4KFEoioVNP+RTXvRpUdVlV7iMwEcBAbMzN8CJNq9WTeqlWaTAjnEQhCPdLskyHV4FXja0yZP9et269GJwajJJg5hOf+ERiK2eR2dGe0NkCCUhYipO0iZte6w4l8CLub+SpsBjRHaAiCA+6aIyokaG9LFQhFpKMxfwGJChi3ObA8Tt+P/fscxddfDGOB6AYrgYgWb9sZmhNJpTSqgwnygh3hLqbtTKyEhIwhXMnXmX+zCwOz9aViIz6LKzu/0pCXRognjzYk0Oot3aymuxkdodzP7lt8Q1ypEgJsZ6MDGyRLNO4XOB+gUs20ADvUWu2d7TjOTFQJ/rvXn9PqFraw0D3BTOqqieUr1n/xuY9Bxvb28OcIGZniZlrHYPJJIZRy4M8YfBBCcudNRzOCWXNnzLu6guWVhTl+Xs6BLOEbXt/jQ77vnitnRzCYU0ohZK4qhDciKpbOjXWCwVdJM1LYtOEErZEsg4ebZ48tiA30OFE7Dh4qYrX6+tPsRg73T+iLbSs6TCY6EPMYQWVc3+DUo/0ijL0VdVWs5LBzVTa0X/KazxqaW1tbNxsYd9JklliaWvRatYFDvsDpGZpklFYcABK8NbEF/h8Fpkd3UGqxHsYhRlDU7disOSRgGCJLXvvJnVtVL9qwbArdZUb1XYGqYxlrb6+/oUXXmC7St5a9rBu2lmH4x0DVUl/RqJj7sAQ/vIbf4nPlBa6EV+iFiohgj7cc8mSmfNmk1fKdgTMlBz35AWdGVJUo7uZtkFVkvLYdny6eMrb6OM4PSAnk7w0Wme1Odbj5CEgvRIh4F7hMUXy80nADW9XWCUBpKAHdgN0ILiak94hJzuHp2l7NYybJiT6M3NyQuxQO5qqcgKfu3Du6iXT9p5qOXyi5WQj/h7NrUjgLEX+7rwAuRu0i87Pyy0ryBlfXFCWl1M1dszksbl52cSttBvhjVrf0g0nChAQfIASfAcXPHxZoK94SSG3eQ+R+42hSQoT7FOmyl5g5OyHX3278Xu/fOjr133kSly62chzX6/wV/85sZ78yaTtsRc0dyRL0Ge9njyV7n7qb08Rgw9zZxfJqcjfx67FECx9x5hw1DhkDEqtaqA7Jmh6NELFwlHH+vv086wwOwcu1kbCP+U+at10fUjsMSOGyNUdYd1AYxnpM4nHWije84tZhou53YEzHgEeUBNAQfmtba1YciBvnKqEpsaaJfyOxuUQX3gGqCOdNaXZUzLyzG04pkZxK5Ixm14iEfprcpxsaSq9NFd89lTY74fRkW2VvCTYy0QYaXaxqlQ2K3egjKFAFqJelh2cjO5MCR0IN83guw4x6BKda61K0/iIbhHsj2tnB04YnV2ZPV0Ts6NVVaWRqnJUQICGMKYupkNHiSu9iBR8nDNG8lW/j8B7GDr7dPiL4KWuwexGvYPe6JgGZ1HV/KF9oFdoCUmsZZGwQEYmFOVhxRNDEYA64GLAC73+hILQkpqyyWPwPVHcK1OgPaSdhUKcMWAnrHvd66+r/gGrGuihe9OwCN9mgtiscPr6xK3N1mPr0HAvvSrOb1jcZzpGn9lRPS2hUSZ/EZjhsfC+awH9sWLSwHcrIVNPKBshYLjDG/g9E4bBjeShD/zWWXgKPhK6CA6RzMsS80udAQZzSubqy1YTwIjQ9/jjjx89dsxxG04oJa6IM8lGRawzNiXFLfkxMrPIsim4sE3TB01GfMDpyTX93UQoWQmHpVgLCeYN+2WlczaONK8TnclxXtK2O80g6RsIG3J7Xq9eN3BuwgS5laaSEU8TdSLPkvI7PzePRUaiZJfLWiylURQdkwZAr0x5F/Djps5fmDhSlSDokaU4hSTYvtQ14t71VgB3U1taq2Qx4IGU3W7PxH4yltrXlQmhOsKjdUApmDV2xri8//rlj4XIWKhEE7rgmPXoy4xTMCByix46dOjAgQOxYZ35DMTYlrEgX7eO3DQGMSC195H7hgNSNZDq4XEWmB2+1aQ+IEw6m7ONBR3H2twHDdUuB1zWcjYy7ObKQmOGM6h4df1/YNzI/J5atP9iQ3ySOtu9XGKQKtQNLvSm4Osjjz4KjNy0k9wRV3twt3JyJehFyKRb2SonTTpv+Xls4ka00PXplcjFckhImouPxZug1LGljIgi3oz2fZQk8QmXjSa5D8+AXcRxIPE9tELsxSTGWv4bshs5aTel2bO6TtnOw2TZDHzGWJ5zciUcaXHgCR2PgccbvOwQ8DsnZTqm4IA5BPiljmxId8ANpfBxUpx1ltcQdaWaswgTfXaxbeo3GTHFjQeu2gnQJItIHCWYyfIjVbIBBV0CR2e8/vra3bt2kyTKmKBHpkPEyUTqSPgcWyP66WIfVhhjl/2UTb7tZgFnhqrq6qRmRpnZadmJRFEtk3OGKXGYkpaJU4ynaPQ4oq6lpZWFqKTEeZYl93443x1cGXdECaN6upUfOBXAcey04olbJO+JAd377P7ElVPWq5hMYp+TSiZ02x5pc5eFEEuOs+qaarKWkdqQu6wKSDSEc8sChUt4MAgCO0cZDt/ct39/eXl5QlUj/9iLcr2f3NqT+L2fdtwg43CLl0pZqZ0cybC1xXPFegFk3/WV/XsoC70yAj4SE2eseJJh39Zj9KWXzhDz+xlGn9uue/Gabb8u37ukLTPFTJLjofbm6r1j4kNpY4Rl3AY1AQ6qDwYHAzLhUt1xPVO/VE4sT/y7/8sfyNp/2n/nw09fcdH8+RUFQXMfQVx1JlfXFvWAqKsuXDVv3vzDhw61tLbE+6DmzsJk9N/fIT/x+4uLiohEJp9VnCTdyyNndoJtHAQOGzhnBE2zZiCOngb21O0YsMWTHuGFZDjMKAnNM00y15X4224M9TKcZHuIFiam6aSu9BNv2w9VbHxN2zpw2MQet1kgnwZs0ryhtenjcj4+KieCRntCghqcRdhKqB4lsyTlmK3BEty4ozBlNeBHaigsKDgdiby5fTumWF6WpB31kXtnSu0UTpVn/dyydQuLtO3s/CdOnLjlV7+68aYba2tqtW4PdfxDKdfvsu9BneH3MpbElo0XpFwOikmPlLt4wIvy6OkAC6WwSAxAPbHJ60W0eMVU0tvTAZvr52HygAxX4rJFIuboc6wnsbeMq5+9i+aQCthdpw5TXUlw3BGTMoTDgZHFcmBOR0nW/7r68GMbDk2dPnXOpGKs59wEvmifuurJ02mCuTimcuRgIisnzFaQcXShZ/HPZ2/4Z16z8DY3J8fcVJOvkTI7m/8YAhisyTJizK/3Jm3G1p4kxNDbsEXmCXszP7gXoJ2hrxJtvGoVd5JUmyq0Ss3hvc/6JczQSVGYqzj0CnMgrNMtwPEKe0EQ6yJBmjJB2hGgHGECc2MDjv8ZWlo4WGYEfbQU+XIqDQeI5WJfpkS1XXLAwrQEP0PrgVRGOicyjHRzWrSM8QE8/rE+dCsYwfoorXFGxsFDhx5/7DF0Qxoj/qw+3549e773/e8zauxQdJ4RuU03XI9HdXvqYHbJ8zaE74xITJPenYkuif4IUo5ybPkWpF30LiCyJC7Js8g41Ypk9disJfZPe5/kd2LPUdvB5sj4xrJ3dtnGECD2PiwCsFm2EeKG2DcmCAu+AD7YC5kRMhVn/5+vXj6zegxinWbZXiGRZlFxUdNpzgbTDY/rxToQJ7ZELEhHoIM1P9znKdiXXBFWL1s4Zc8hqWXi45EyO8eHkiCrGbKEPNaS+22MpW85rZ6iDx9aJLYwbW2tqLQIqCDdTZxT9rrzJzBPo0FxOnQWxu/6XJwtyXxjB4DZ9TaY1MWEN3p8wTdP+N5+e+eKebXjC0PtvtBLO44Fw13nz56cF20/1Bpau2XngqmTZk3IIyv6a3vbGk8eu/ScadnRzmNdWS9veWdyefHi6kLcrrYfi+7dv2/F/NqyzJ6maO7LW/ZlZwZXzhhHNmo3clAWeyuf5XBjCyZ+ZFJ6k+GnpaX+1CkRfGyRGFtWNqZsDM4WnBM66AQnQcB95S282Ha9886s2bO9cIXecvFlWfudJNrATsJpWGRe5CwrzCOSjkFnLqxJJOUJEgvpXcwJo9i/fz85i9iMz5s/37FJCmgdM9UB9mWlL3XOWXY/8XXqRaSVkGuuhkmXqyf57ln/7u1gjWH07RRLnGdxkZPxWe+I0JwzVeSMOXhbBllQKC0kU19nDS4O9iyfRpLEjnjmTiuGviXbX+xHme4dBJEoTriOCB9k3NKlVzRRXqn0fY33P4GMU/s02B17uY9w49p2bAQ2BxKyU5TVy/Atqb4RM7vU/pnGE86FJAlHcjIaH3q7ZVPY+559RDOMObKwoNB5GCQUoKjxxITLgZjf0mX0XfQAOcwOiKiGmEKXVwcIXgz7gy/v2HfXXQ9nZ1x11fLZDa3dv37gmaxw55yaz5Nu6o09x39+95OfvGjxtE+u7AhHf/f42uMHds+pnVQzJuPAqbaf371m8fTKBV++gr48+MLmF15eW1J43YXTC053BH79wPMFocCSb1ybk6sgFnL7IGbCzUmiTaYKuoRL7VNPPsXxFLBtBgKgHKej59XV1TfeeMO4cePh2oLbsOiK3czGjRu+993v/dM//RNn9NEBiWymjgctyMvA8Qg6IzWC4iyEmtW1xVM8Y5566sklS5bc8utfc/rtrJmzQHoOaSAdG9kl//wrf84agyyGHxwdQ1Z95tln2WdxqgZiGnI9lbsJkmmzu/uXv/oVySlLioth9BRAuEVvCcdEDmSFQ69OuieMoeKSpmiKXxQAXE5UMeAYHvRBhN7Co/cJFtdLJPbJa5LPcLq2QB4hBEXZwcxoB5w+mRuOXj9cTQqZAMMHHHWMzQh95HmXTOPp+4RSBmtuU1sknyOYI1qDe8uxAqF0z85hNukA1uoUDsNMOGVPgj7E5I+0Up7dVLfcW+k7NPhdt5L2Ww59iLiN0YsGkwKHYGERqZLTXN/8679KczfllhJxdcuaFn8Cduq8206QnkSdSh/jIajrQRLb4jVxpd56tVPSJXnHfkxpGmAY/NaPoozkh6XZsa9ILQk/Ou3U4Gr/4xWnxRb3FBKbOLZoyazKJTMnZfl7cJ6aUTt5xcLpk0pJ0N9dUlwwb+qEFQunFpCNO+CbXj3p/LlV0yqKybVQkJczb9qkCxdPLcsn80O4snLCuXNrF0yZmOPrwf9qZlXFqoUzqkpzmk7X337H7ZhfcTFRovZwD6LrK6++ir0Cy+yO7TswtDmnYjqps6PCYZgdGRzdKg08UqA+tBvR6P33P7B8+fLDhw/X1NQ8+OCDBKWhkXn66acXLFz4m1tvJVr5X//lX4nMJdMZ7qNE28ATYXm7d+8G/F/4wp/Q2+1vvslsKhfu+g3YUh566CF8r7ZufYPDcI8dO0YuNqYPF2iUrfR5b10d2dUefuSR6uqqn//853V1de70A9Q9L77wIkemPrnmSRr9vz/8v0eOHMHr6tDBg1io39i6tXbKlF6KjQ2OZayhob61rU3GQcRPyYlx+WFoEBhOKaDtAbz3k92CrEm//uDW49/9xd1TqidPLM1W8sgEVtj72nDaTX6HIbNasMyo7XToC1444SWB2cmoDUmkAjO5dtRNwYyX9rb+93+7v6ikrLo8H/1LYpkYEUnRTI0SF/te3De663Pppne/L1X2lkq6fwZfXWPGANJf8VE7aEE4trj2suMExpwKjzO/I5yw8EYWYXyv3TZNS5N3pUya433cdj8Ui3/wXukldTFslRcvTMO3+/bWm60Bh6CmFLwZmZjrP3/GpDFZ+IsGs6PtCybkzZ2Yl+VrQ1VXlhU+b8akCXmhIL6jkZ7pYzIXV4/NinSRqbXQ335u7Zja0uwA+VR8kcmFgaVTy/L8bZFod5a/a0F10fSK3LC/u7GledOWLYePHL7tttv27t2LdfjRRx9jdwl/AZURXmBwefn5H//4xzHzgz90GRZA1JSJqGnxfMBR2UMgRAgAiR5p4tnnnmU6lp93Hqcvk2Hl2LHjgA8eh1oT6YmDEchHAMPd+sYbdNK1iHQGQsGOATXSGfrUHW/tIGO4EkMuWEj+XBJPKe/2pgAAIABJREFU7tixg3rQVyBdHzxwgBMPEB4ZzqaNG2FtY8aUffFLXzpv+XJyVc6aNXvjpk3kaFNm3U2bYL4koURy3LZtG5nKK0nV2zc62s0uCyZOb7A8qsVUfeL48caGBo4okexvEZRu9RwcFmdWQhgWDua0BfK7AtloSdxlTSqauCTkz8+MZpFMe2h4eGaNJ5RmzQPyGmMK0STVGYeD40lDbJHMYtkBDGutwWjHWbayDLFHgxRLZgz9FB8AWqO8jXUtYWTIzCTGv5PFn5UclRy0Z2hjclzKJc226cVdkb7PY+slHkAoucIKHkLgSzXsptTae6M/fKFVWzWR6HvcEW3qB0e3+DrN70C/ApGugB0P6PodEGa4bwTNe594xs2MaJfi622EYE9Qp4j0nG5uaWputr22H4Hu1ltvZfVDVmIBZM2B+/BD/tgbbrjBpedmjG/t3HnuuefaK57eQWAbYHjpHtEJ9rAL4EyLFsFhH37o4ZdfeRn+cujwYTr47LPPHsd1WdoZXSZyFnzq2msnV05mCugDwt3dd921ffv2666//re33QaTwlBCz9FbI+uRPnfe3Ll76uoYLDNLeXJSTZ027e//7u9ojjCIsrKyp55+6rnnnq2trUU0q6vbgy7liTVPbN6y+ZxzlsIdkT9KSkpgjWAIjtMwEhPwvbnmCyYmbPqOjOOirYsaQxWLdx55gJEhTN7i8l5MB4kzvhf2Z759ovPnv3/qqhXzLl04MRDtsirYoEVD0Z5VM8cv+OYXinIhHJ2ddOYzM7T+oBbRUTVDnXYAhZDhBBkn7g3aDBG+8yoKvvvXNxVnc7w5ZrQ+g6HCoYiHg7byviow+ttYhsdCbYcBS7PT3NKsU77k9GjszkW18N0uu+GtnvEPKtb3ok50B+iVMF7wxDbm3tw4RjDAb0goHYNNmQWqBJ2dxkYrnZqwv+ZjgrHRe8QdEEG/7bFX0kIR9Fm/DfNgK/UN+kf2CNgNd6hQRhWcSLg4Obizk+0k56RwIHxNdbUJMt1TpkxZfelqtoRKB0Jd6sVQMb7PkMyKhxwHu6mdUovwj4RFqm5svrggHT12dOmyZYhp5WPHktV27ry5J46fkB9mVRW7RQ43gJugQuVg79qamuKSYrQJnGjFZhMFMKdVoXakMJYTWDWTh66VSqgcawbD5OArsoTDQI8dPzZt2vQJE8aj6+Cgv4MHD3GUDNvziokTGS9r29tvv11TUzN3zlzgkaBy0IgRSFsILTL7r/cLnieWKA2nohy0tyUTIt6zNnOjd3Ey7P6Grgef21Q9oXRe7dgA6TLFdbT2sLzB5AjuzCAzlhcG781ObydGoy+EDMouMSDiAo9EvgaYWGYMzYbEpuTv4IvkZgUzfd1ELwmdDZ97L303L+J01+jB+2zVlLqN9U+qrErb2oH9e9PeT7qJra29jVjuPjMsGQ3CDofdvgYPb+MbBklbpuOlh07HoDW7Y6Iy2Ny5fTFT4ETCofTz3Skj/NMAo22t7f/87X+G08HB5Tpg7M/hoNPRssGHtbFXnTiRJLG+j33sY5wTilUH86tS8sbQ3KCVCLAzGAfNCZ+N+dIB17q9L6hz0xnU6KEemVjtJsd7y2tKxajFFVM9jpiMEjTLdpgpNbh9JbPDvFtVniKB+9YTpcZ0xOSecubpq6+8cvPNN+MokJToieoQ61DqeV1I6Lo6H9NQcBtYFRQUojwaLX7H6DhbocOfc7C+rTw/Y0x2mDy4Apdnoc2sO9WzdvO2i8+fX5ZjMbyxzB8Ci2Gzlkav38P8A8Ta2to9qum/DgHYURKAUNCuBF43p0PpACq6Qy2BlzbuWLFg+uQi7JcWANx/c390T9hw4BGdEeqNER7lbWwvROwQOYgZz3jZ8rzgFUfEZwxSJlPJhi22mSp4P84u329zQOcwzpDRBJsdO3nHE+iyUu4EsTgX4vWOo4nSa/t9hMru3LkTblhQWIDAhbhkTCEBPhrqcMcqtmqgMqEzoVYPfqwZHkuyFkQy1l3rQGwLZVxMJBxbWry6jOu53mlGrHZoD07n5ibeHk+oAXWX2rCWNcZIZDaavNmzscIj6iZOIl2gA1LMD3pFfagI2RhwcJ/yHo/GRQdxt8yNds4oziDu0RKjO/hLadHjz3hxz4lfPfja2EmTV83k7EBnjY2rpEehB4AKkR+UUKtDnHmW0mAw07KJaKKH1gtIcsvBpn95cL0vr3j8EkxzI0sePLRG39tSo7KNdWk5emfGIxsbGZ/NQGO8yjOlOLtKepNKP3fBPCPF2MUnvg5xXt81EDsExTIAuVZUVJBynaxsEDOcDlP+zTffxKaV3R+RN4cOHpKdiMRbPT3EhHIfnR1cIHVEiaMe9kAS9zsxGvIEJAOqB9g+UOVBb9u9kE+cAvvcZ1L4DrVxyw0k9kwV60cV2r3YZIoN9uXmPAYmxNL1suckEHgdV3VUJLVAhDPkM52iIN69YX8geWdzNHd93ekM9IKZLmxGHXZjLSzImViav3R2bT7Hd3srgQcFb7CxMQ+jAzJKwOdc3rO+YEmtzUDpXKzkS4Rkd0Yts1rl5BVUlhdjmisKkavOFqIP0JW6jR1la2xaWAkl7UECJbt7Q/+dtuL33U2EGPgao4LwcNGYO3eu6yKiDTr+ObPl2EHg3soLVrKvM6NiBCr90y9/+eJLLuGVVE6XDLbhjrifml11aVHcuznAi6mPuONuxh8NUMZjeCkkDY/DI0/+ZYPJKCZ8SsBEgYccbWBPO5YzgxoHMrxzuPF///SuJ17ZEg24rY/Zq2B40UhVkf9Tq+aXcfiPMhE5BD6z+vsrDTKYY6ISkHhLQn9FE+4joPVuevqQ2CAv4ztXkRe8ZvnMinxWXRnQBnnhvXnsID86bb8bzG50evrHUYuEEEICkF3xvDly+LA2eIh5HGWfl1dcUiKnHJ01E3Jcgc/5eflYNlMFnD+O4Z6FXkLqGDQQe4co0orhRX1yT2lULu8RkqxJjf6xpUUrlp0zrbbaNg9mdtJunH8I3/hQwl9svz96wwcBYHOwOpZAcdCkq/+G4O8ywnpqov7LpXvCpksZZxAJla4qURZJV3rAe8JzU1i4UvHup33JLREqP9ilIiOc0YQmRsrsXI8Zm7TU1DvAAHp3HwntJwDI7nrwig3QjEF2fyDAWF5W/dglC92AAOLpqIgACcPwPhoESOWSjaxx++23v/3O28DHHfGJ5+3Ot95iNOjpXnj+eXYrzvqsxMUvvqhUPW4IKb9Hc7ZTe9z3zkBAHuzd0XoOHLAqniHlAWZUXV2YNUwDOPxxgH+ERkzNavnvn5p/wdTCzKg70sXIxB/tDmQ+8dbpv/7B73cebQPfLLvv8NuKQ8w4nXidoybHNqzm+E966AIr/IG4klQB6Uv3vdvpi2483PrNn9z/8jtHiA0fCZpBUErhIwL3o49uaW4+deqkqIz/ptvVhxhpc4eLJBeNjQ1kysOq7gpgT3BU675SFd6cOFdKVnDUHzOOUWBA+u539KNgoGBCMjMC+H8SToRXndezvv2BD+ERishDSh/TYbveeiyst+u2MzFzlvJqASBw4OjRYxxhwZhZSJ3mLtaENypTBgYw3hF1hK9sUVGhIpn6wUJYzO7du/C6kN1qtC/120z6Rw4fIQk1Hzg8gd4yX4ziW9/6FpEGuMXiecfUopliRunPr2+5hXSeF154YSrd6M6AfH60RzCyJLGj1BuMaMw7fstDrs9BLtrS2szBHUVFxTp+wcOxIdcRKyhBLiMawrscX3HnciLdmIQ85J+OppY9u/dxDDH++egdRsRZrUVZJMx9Oo7VNulD6jY6cHmeD2ukWndbm+v27qk/DS2UDc0/K32v0Dn84hf/9plPf2ZSZeW//Ou/Llq0CCK48sqrzErvaRWDUc9Z1WQRP0lqcbTcU1f32euvn1xVJYUOZn0IWcdHhI8eOYrXGgL+6+te/+z1n3VyK/KBRJkMEgxZ6L2cM8/sGg0DRbhn06bNv/zlL/C/x55YOqYUU5rUpfTbHa3g9//4xz/etWvX8WPHp8+YAfUyKFgeBWREU9SXrFpcYnD6q2jNt3ciCe3EX+/O39+5dOkyjBygnPmpccqUsrDisUcNVPXOrnd+8uOfUD+ubZs3bYLlEcFO3jiKAW7giHFE2jEjACwG3/7Ot6mQ2L/hYckAANb6RZBTYyOmscOHjxCbhV2CbE60rjNQSATQ2krHtIjR/xjTZ1CrVq2aCEM3Dp34M0BbH+BHTBMk4Tma8SVpqLEtQvx2YgnWFdx6ADCarGHMr1Ymf/BQU+QX972SmZ07bgyZymy3auIE/yaUl606d1HthCIEQCgzZmN2z61Hyd0daKJADIZp5wqdidbM1j8YnQ54GSz9en/NQxljSkqWL5lHNGROFM/5M2UdXsUAH1CjM4X6cK5cv27dRRddBBhPnjxB6Dez9+KLL+Ks/tratYRCb9686fnnnucpuRqhDoZPJseHH374+eefJ8k9J6+89uqrOHL+4Q/3vfrKq3iIwkb4d+8f/rBl69YxpaWbNm0i5IbCpLmFzPsbmrvP7CSFi42U2cHUyXi+dcuWxtONX/rSl6BYYjDvuOMOSJrcIwRIbli/Hq/RJ554/PrPflaBAYp499ft3fuTn/yETk+fPuOF51988IEHYD0TJ0wgkOjHP/4REZT4rNx///1PrFmDdwKxRxs3bmS7h8ofpvbMM09XV9f87ne/IwyA3EccJn3bbb8l1uqaT3xi5syZ69avx30fNnnLLbds2/YGXO/22++YM2fuD77/fcydBGy98sor+/bt/+hHP4p/rBHJmeDmwNDlqWGhIt4zMnHoXb783KXnLD148CCZ1p3rtAo4PVAkQiKdz3/u84SInX/+ikWLF7vla9AW/oMUYJEnPw+MwC0JfSYpDbNLfC5hmRdZ4bQoCl5nMsVidpnbDzb+8g/Pl5UULJhewelvBnOPF2QGfMW5ZO/ilEitSnHPb2OGdg2hNahdFSolTIfZXof2mqufFlgMMknyzFFWw9+ZEQyLt05pHsf29CALDKHXseb7/nWbLdjcE088gZ/ZxIoKMBnS2717D9wK79Hf/va3EAIR2eXl46BWNrywv/yCfBININ9ddtllECZc4sorrqRiOCb0ggN8+bhxONVu2LABIQalNgyBU5WhIzgMEgORPNOmTUvfodjdVGY38q2cVt5VF62i7e9973sEGHGCWW1tzWtrX4OoZ8+eefTokdOnG667/jN33PG723/378Tp4wH/wAP3XXHFRy+88IKnn37q6NHDy887lxB0tqJPrlmDDHz9Z6+H0+HWv3jRovJx5awAsFHcOJ595llYakF+AbyPmPOPfvRy+BqCHr64gJiND4IkIwRdCTv9KxIZRH0wSqJQwf7tOwhzehOffnJhshiOqnI5AeaG8qw54CI9YW9CKgR8UEyMlaJQvjfggnFZ2Ny5y89dvHjxeectJ4flu7xdHRhR3vOnQAh3Cpxyzrwn4iNoSluam0AM9kRUNXRK1l7BF55XXf7f/uwTV66YRwR07F1NbcSfcbQt+sobu5rJEOwnigLyGXrdsaHI6VIBEsQmy+gc56NDHiqUQsaaYct0XjsRX1N38JVtB5pJqJbO52lo3dEaALjz8vPoz+NPPA5jAuDc4dz33bt2PfbYY+zSTp2qR/SDzf3ud7fziFG7OYEwUVb89re3IQwS1fPQww/zJspLFPDEXztbDeWRS7ykGAH/+PETCOlBJz4MQXTkzE6NoltlI0awEcLaM08/jZsFB9StXftqVihzYsWEnnD3hPETYFhvbn+TaUZZppxo7C6J5svAGTKTGCmEWAdcoiYBAase0wkioe4iemn8hPGsY2z3SJiKlwbxVYwf2Zilm80plT/26KOoPDm9wTY9iqzQRhHpICtEbceOHgXWzoPfMUSZAdTemWPqIChA+wFigYuxvJaUQKtsXsn8QR9QK1588cWfu/nmakLBLO0w9lnWKzoJv0YHMYzJG6Qvf8yPnaISEEFF0kWcmeJSsITNYQtCk6vtsHmoDOkSFUaKMsMrZ5aNzyX1g9Tn9kMNJKMOPvfm8f99yxOb9zYiAIZ9JEw8AwqiHrHhcBi3c37YEg1j0qnE4fZQR9TPsCOB0Ibdjd/6xSPPbN1HSsd+Sg162+sFhHjOkiWQ55iyMhZ74oI2btqIAn3SpAqU0ffeew/UR4ZGQqTJflhVXU18Ifr9mTNn7KnbQ6jiM88+s2PHW8i5xEpzDgEcDYEGCY5il1xy8d333I2gc91118Fh0G6T6HFs2dhhDH/E4WLtOhxs59s7X3rxJRjW6tWr2ScynURh1tTUrF+3HmQ977zzEVzh6+xJzzvvPJ6igGR4sLlLL129653d06ZPKy4qBiPR4j/37LOwBlgnC8Kjjz56wYUX7K3bixAEG0UOeuSRR0CRiy++aOPGTRdcsBJDBFyLAz6fePxxXHlnzJgOi0SSIuUvGTXGji1bteoiDmnFQISqjq3r0888jakUVkiqD5L8DTqTIykA11Xy5bY21IhoJUj39pnPfIYdCIaan/7spwR+/tmf/9mypcsYLHjgaDlVPTWSDnwA3gWhAQ8p+zHMxfaRveFi8QEODDeU2mAF003OMVbAQcFC4qbujLyjDd1jcoMFAdz3iKOS8y6/ugNZ2471vPDqumsuWVZZ5BigM8iav4ixLjHFlDbgcVyUQSSRLcKW8+GttWgzR7iBdb0LBkLvNPjvf3rt5efPmzk+y50bm9LxwW+4bQqjMxlFR026wbKbgTM42ZxQIoQS6F0xRTBrs1HwQTp9TjXg5D/8sUIhZDptfjIwUwR0MG5IiRERZ0gjimQHQ6BCZUKUI7o4fiqcE7ubGi42YmZHbGx7h4R/BmDHxyDCMAAZT+2fvGfDYQZKGan3PB8L+YjYOLmj4Eqbeom/+uwsOGavYLROvnMILVunEYAUHlSPrsHiwMEAhzv8FizMbuuAzuvSVRtkHYyEkc6gM/hUDrOE+hTwt7W2kQdBpmI7OovBwv0YpbI/Fhc7y7WH927ehAAfXgkQsBhbJg77NZFhwEp7vkF0dvHX48AUZYE4LI1Z2TmGqFKYxcolw5ykddsOd/7Tz+697rKl1144UwdgO7Yk+TAYDmbjBOgPd2ZwPIl4oGePdbVYzUnMTk1hm2L2EefiJsTYVCe3PsD0G1IFdGjBcI0SiZUHfYGejFwyZbNVD0Y45FtUMzD7SNs3R5iiU4OS6DF2xK3baMcJ04O6RhwftYf3WgnsfuyhWIH6w33J9WpZBkkKGL1bT+OVpO2XkvGchdhYuZJbV7QF8JN80vXSA5zYPSc9Oy0vT5SCEXcM531m49MdXfYnMSYcBFEBe6jnetwnjtLYop5glo6V8sr3fidY1Z1WaSUwWcdLnr0P6hQxTJnEZpOR3Kftqj9AsASfMV8gnHPfuZ7Y0AW4D680EDBjDmp4rPza/REw6+FKmrJJtxIWDuoQn2xta+no7CJaXpKRrX92Wc6Cvld2dn7x2Al57DZiTzRN+hwOkvEJHYkOIbGpi/GHPl9itdGqY3NwOpZ8W7m9Gt04UlpO6kifr/A4zK+jwuk0GlKZhTv9QaSQsKiIAaSTSQfqkBt/woxQBxoZ5gtnGrRITc1NJLZQogcj2xiZazbUWu/gNUEm+KqIZKZwT3NzE1Y+ZAJyHXEbCYb4ccTiGJdLnrJB+6khj2LWE8fsbNYdox9KBz7IZZgQZhQBlN9CJ5tt8B9JkyXayXSOzzlS+SDDYgRjE175Ayh0EJM5iFJY2xfVU7mVlUmlBzchsAtO3c6ClvRJGwydgS0qs4vWgv5QU3cklBnJ4OS4mKGSOeryh7Yejjz78uufuWxZTRE32JE4yS55Aplc8tqwa4HH8as/ekjXyTSQomdsDtBTj8T8mlQvw9xxyn/fcxuvWjlv3rgsUtrB9UcoCLh+Ygzc9c6utvY2XMfYYOEpgbMBBgf2oYAJtsVYgAvcUHZCZJHubpi44GTZ25gXdFZr1qxhR0yS1xMn5Z/MeZsrL7iA5GC2h02d2TRAOzuSXUJDDKa/eU3TnQ/6rRg0PDkczGaayPXHuG1H5hYySg1p8j7o0Op3fJKHMFjhKhQINDf7HL/rt/QQHkBWaBJao22I3tIl4eQi67l3/KBWJl+0IJMojk4q67OVwGvq4KGnn3vpggW1NUVlaWeOuUSOY6vhssknc8EhdC+pCP2BZWBqc1msz7yC9G+Qpe/A8YanXlw3Z3L5nPLJI+8nzVAJW9ctm7dcdPHFpPK//vrrcEAhnyOuFOjQOQBeefx9URxHGA62OzIkrnniCXL0X/upT23atHHP7j2f/vSnZ8ycgUfx7DlzoBG8L+CScL3qmhr08l/84heHyOnSjnn4fjppq/vw5sAQiO9XU3DL7SM+5Hrp4WcraBSexH62pcWvrU162S3966l3HfzxceOHlEpITDAUWB8MJRoIne7JfnXTrrnVY6ZOwBkT9bn3LxDuXrWwtmbMF6dNGgNP43wUm7beyWQxo6twOnFkbg9NBkntnkZn9fIbfbR1bNRJNbBgWuX/+sbnZ+pAlY7RWnDZx5yqP4XhFV6Pyy3+Q+effz7Hm3zzb77J2U94jWBvJVsftgg8FlBk41U3bfp0XJEPHT5Egoya2lrptSJRkv6z/0WYReJjNaqsnPT0U08ZoB1U0sJskJuDG6cGqeDDx6MBAaczGY2aPph1iKMYpkM8+fkF5FOQIWtkl8Rs+2H3BGXi9YYZhHCX+tMta3ce+MGdax5/9Y2OLrmJwA3lLNLVFe5oK46cWjw5pyijA52XfuKczvQUqOgQ6nhBe7IEJjiMnsr4ZoISql55R4/2OkjWk7LMruVTisZmd9vxxc6YPIye9nkFqGKRAw5wZ9JT/+3f/i2xAEAYfk25iokVb257E/cRJGscg9jYwtHOOecc0vrzFs5kDFXLRTSKjy0+K6++9hqg52vc6jiSbdBIIygSTxez+RjtORkp8N9f78d1NL3CQExCMeB9CL2B5ktAY0sbwKU2JFM+Phzy9IiLy8lUl1IX4DVVQurlOJ94n1ogk11JYeG5cypzfa1wOu1JcRvQ7rQbmpShSeZdafoS55GbchUmg6HxKbWUtq2E1tMWcP3jVXbYsHVaNMRwP6ldH+YdeE9nNGPvsYbcnOwMOUe71WSYtcVfQ1NGKBge/qWlJeVjy4n9wuuHgOW1a18nKT+HATBluGGR2b9i0qTFSxZz/BOHFhAvgRBXXVONrMccAGkCJ/A3/tSnP00m6rFjx+KfjEsZJz4NXUvmRHVljYxdo2ygMJj1QYCRAu+D9b5zSmJMzrPOwSotxn+wxj26o9GRQCz17IbIsIHvUlohLx1U4RfMQB9ml8pCJEUqOkJh29EeTjLk0ryhymOTy9HG0A8T5+qJmx4oAEfEhCKnSc+DSixx4JGn66RxNfbUoUwdVn3Wzh6IBnKeebvl//3Z7X998+VXLpoUjGikiVvygXve31M63FBf/9LLL3/8Yx/jM04XmGeQTNmMs8PFnGofLXBALhmk78a07TENc7DHjUJ+QrB4CrDGCPw+H4FlONviwTZ09jL6Bgo4G70W+tAlt/L2B4YP7ydAQNBSdjS7nCdR30XCYCmK0u7ow+WjD/Io7ynyF5EqUA6ZTvBfM2gZtfZ7OapJLqHvfcFrUg4pWDmLghPgMqBXVcxUBXx46plPaNwjJd4YQU5hJBE5jdqUOi2fiYnJLfbbQRPe+C/h0S4hhqW36xVgraujgg54/hXnB+dMnTBhDPnljX5H6SJ26MorrwAI3t7TVibO3HL4bNZpWVRpT4DSVArB+YrkbH8JMlESXBu3jd0fICLACGFEQx+xZNfe2aoksVr4RglWH+Rq4pKdUNZOvN+7by/RFJxAqNUvI4MEXkeOHkXNgfKClVBu4iOc4Q8yOIV0EA9cBo2bc+YyItIV/xAHgN1JFrV6vxvBwZwUxBXMISv8ycbG8qKikky0SHhL+HKyM3OyMj2jbQzZnWSHfwmeFuj1etu1ArAtKNuxP2bTOtWHTHp7a28ijCD1YHd28QjYiB21IzNa3vmgfDN1WLjbGMRHNswPnRn57ZFAQQYhI/iyObPzyLiJ64iGiLBm4+2na2fUDGBxRHBGwx59ya6fsXx4e3AIgOh76urI+EJRlBRkSSHxIRkQSP0C77v64x8nFd7gtfzHLiHpOBDEZIGjMKGUqIoSloZkvmZSg644BQJfJ1PoNzGxRFUHMtp8wV3HWredqK9vbc3LODZ/YunU8WPH5eWFssihEkFR597y5kaySYQgMEvT1OufDE/kwvJ4229/S0D0uPHjMwIZnqBi65zXE+MG/GdrzD9Co2B2R48c+e2//zufrr7mahRe99x9N55oVZMnc4Yv2MJuDh/1kU87u8SccIcO0lDAG5xOvGmE1Xqj0h8H1xHW573u1vuRdg679uh058NahggBw21LW4S/WCc+ROi9kerXPLkGRyTunDx1CiKR5sLm1mEPHz00GmIr/9GK4YYWkpMwLintZMsYQm64RMpxzIuQ2BZf5t6Gjq2Hjh5siXQSXxAtaOyMNOxte+vY/uWzaudMzC/294SI8eGUUDc9mhh5DSPTiZElXNAn80gWNmQxvCjGlo9dt34D3SMRG6ePzp4zm7j3qVOmvLF9O9bGqVOmcjL6hPHj5y+Yz5Zt25vbsFe6Qya/853vXLjqQjJr/PKXvyKR2r79+2T9kI/6SDGiJ5BxsDP3ide2rVpQU1tMuOUIHYrT49xIexmr1c3XCAkhdfVL3+kP744OBKTDsThiZZ1ux51S+xT0nuHIgYMHT5w8gZiA5gKMJ55Je574pmx0mv8g14IshR8DEcfkBJMHgwlrvT8pQzc6REzL6PblNPnyd5yOPrpt/xPb9u1q6GwJBzojPmy93b5AcyRzb2v0/g07f/PCplcONp6IZncjIihYAAAgAElEQVQGskwQcvzGCJBfzJlU7b3NMHe7d+/GXfatnW/xYNz4cWvXroUtPvfcc+jjyJfBzpcMESXFJffee2/9qVN33nnnvr37UNiT9QtXtV/88pfi3B0dHCteUlK6ePEi8oVIYHQmixEzOyrYue/wb/7w6Ia3dks9JmY3WqwpBdbvjxvvgmSXtIiO3rjjyl/mLcYUbIFNbHH0mhuNmuhce2vrAw8+CEfDawf0ZQPrmJrrNOpoGB8ZWcnLSrYcbtbU1OBUKUQUfr9/hzYa4BlxHbZKkGKI+Fd2tcBWUFMgZmKOJ4ERjGHT2u0PtkdCh0537Dhyau+p5rYwJ8OGsMMapDkXm/f8hPv3+DK6Iv5dDR0H176xrbx0xZzqytL87CDJ2yMkv8NBJD+/sI3kdN1dOnDMpog5xQNj3769zz//3DtvvwPXe/vtt2un1BJF8PQzz+DLjDcGoh9OtosWLyITL0p9HsGsEfPZpf6Xv/8vt9xyCzED+FHvfGtnVXUVuX/w2Kirq4P9ccSj4qssCGfYlz/aM7e6/C9v+vg5s6s4Xcy6/QFHsFHws2Pm+jdQeCtrkmIYwA78M4QplExKJfwx1NRkmWvk+5od0Dm2Ni+99OLJEyfJvey2JAwEFI8FSyu1Ico70qCuX7+OrF61U6aUjx1rqtn39dCGMGXvXhH4CNGvzssBfufCk8ERcyEJkEkD3VxXIHSwtefVXYfW7j2+rz3c4iOhUEYAtxb4ldgclwyzQi8To8QcfZlHWzt37t1/9GR9QWFJfm4ezv42Kzr4RgfYWrJPx2EJ8CRH97XXXkto1JYtWzhxiW2s+G8kgnCH0LZyxUrCBs5Zcg5Tv2HjRnK9EWyA5m79hg0cY8DpdJggZ86aeeutv3n8scfe2bXrxhtu2L5jB0GjOJ2ds/ScRBXhMCCb4Y/kZ0RmTiotDkWDnnXCEeUwKnuXXvGmZWitMddI0KPqZ9ePNdZ1S9sIpYhgFQVvwBZuy5QeQ6b0vWZJTdKAJJUzqVvHrIJqlthRvgDgN9VKMrLSZwSX9P04C3ebyNrc2PjQQw+RT5QdiaMivIfmzJ6NHMeulnzKkITbveJBRoqOG2+4Ed9L80s6Cx36IFfp4SB6AdKo4Q+MyMyqguzWGQ2eaO/ZcuTk9uOnGzvBITQGQQX8g0eGnhLrFArmyYO9GKUiUUIuMiNdxRmR+ZVjz58+oaI0LxM/FThWONrZ2U4wBpMFW+3o6FTMbUaGC5WV74qxYIytlMFlLzc3Dy0tZaCS5qYm0ID0TXJLs7NKeBFBj3dQ7CLNkeicrzNnztKiaJmBNZwRLO0Bf7grnNncEc7PxUkaI8UoGCjeV9iUao09W64nMcJkNuBBLoMYIn5aZmdrocedDNlsMe0fcP6O7sgzW/c3NDTm+Huyoh0gFgkaW3vQs0Srxhafv2g2ud9J/t5/De/NE2gAHgcS1zc0/OEPf8BhAqaG2+SSJUtWrbqQPrGqE064ectmeVQqVChAxoiLL7pY/g0fsroznzSAJj2aIRPSHaba1q7o0Y7oxrpDG/fsb/VlhIPk4SDHkc6TMBAblOMCtNPFGWq6ew599VU54HqyI90lWZHF0yYvnT2lNNuf1dMJAyJgTOFiXqYTbaJR0RIXJUurFwvROxLHrCgDH4RzQZ8YlN0HOgNegzN6RIuSSS1Xo/NstfXQ81EbHssLhF4/0PHdW+7+s09/5JK5EwNh+c18kK5UZne2dHa9CCNUQ7XB5XG0GD55X2Pw1W252bKaCsmY+6DW0BSexXL29r6jD6/b2+HPxhkghzxxmSQv9bWFoyyBY3cdnVI1acKYQU4eepcn1bFzsJY4dvLZ8ZtEGy3NIggMr1jlOFgDgQ5UJjIGXR77CoimZvr0Sy75iEy3H3K6YU2YwG4ewUKtYAZZm9YfOrb27f2Hm0m3lsVegPyb4iG2+1AsqwuZEibq4jX9GMtzl1BWmnxji/5ARyDrWHf46W37t9YdWTK9cnnt+OIccFGrlIWWdWN4lYCWn4/4BhvkNdqzSx2zBUx1W74VP/m0Ma3wCXGPk2tIz+v4o9NvUJAyseEotzthvGXoNywzkg1Rv4yxx/ur7roW7FGfy1JQ9mQSwIBt2dykkwr0Lf5B+HZWrLFCkdgPMCSxqyxIQJVEr4EMTi3hQ+wnwO4B7Shyv3605RX6Bcn14AsF7OzeRKFGUxL1n27tbgqWHA2Mq4tM3NFd8Ub7+G3t5bu7xx/zlTdE8jrff8whjkbgPdi/bt3r5N3XvscSNR8+ckRnLRQU8Ej2WcZoOnV4N8HSsMgPPBaeLUoyTmZMAAe54NY9++97bfO+lp72QE5PFO7jSXIgmJz62T2K//DL+7E7cAK4lPfDVyth9wlmivo7o5ktvpwDLdFH1765+e29DtdhdkR6snr913/8x2/9z2/94Ac/QD8rNYsRBW+/9tpr4lC6IT7FIxjcd7/3veMnjqPH+O53voOa7+677+b0YaiB7a2EOyGB2CTbYfIhHth/4PY77nCJ5lWtxaUJVYzx2Y95+hEZiou0nJU9nUkvqCM986tLf/Tf/vTChdPgd/8RcOysSXa2oELJW7e9ebyhgU+YtMJic6Jd8TfTymuxkuOSY47yU88gSIe0zu1deTm5556/NCM75bRjpDitmsRkk0wxM+pXQghuEdaT3QPTtPgabr0vZ491mAMxX375FTDeMJeIJD8eCQwIcW/Pnj2YL8TsTJTjwEnOz77pppuw2X0o2w2bIYIKLCstHW3Nre1YWgM9Po5DREfVjXrF1+XrxtFHYZhgDXxEkBe/EH/URJDPzvuor/H7YlnaRYZDOOUac0SeE1eBEcllRdq0zMzQwgULvvSlL3HGIH4keIm/vm5dSXExJ+H98z/98ze+8Y3cvLy3duzgtM9LL70Up+jCwoKtW9/Yt3cvWg4suSStZP+LPwp94GgXjukqLCjgsND1G9Zz3AyH+RFs86tf/YpgG452eeTRR+Ctqy5cRUwOpxo2NDTw7qlTpzBrrFy5gvxxHK03fsKEiy5aZaTmxhbN83fkMSRYt+TaD/51tpidI9i2lta1W96pa8lsjpaUF4YLstozsVXA7Cx5L2ZctBIssG4R0ipHRuZo4OjxU/6OlmJfS03VxKopVXLw7jMRYBapxFCa6MB2XxS/dva7GLlYgLswDJOMR0GFZ6Ky82R9teKa0tJoOwJ+4siuR95j6w8PXAn9VXGpJpM7ayVV2BQuRDXl5ObonGyIwvTerL6c+LfmySdJmOGCos2VispVPf6le/ftW1RSYp358BoOBMCu7p72jubWCTmBiyYXR3xZDeHMrYdOAO5xWeGp5UVZ5jOnufPWSMlusenVXe+/cUPp0fz+Dl/G3lMtB1uj7IQnl2ZXlZXm+Xqmlxez4rKFsalTnUwuJ6XOmTvn2eeexTI4qaLit//+27/6q78m2/jcuXM5Fop9KDEzK1euhPGdu+zc9evXt7S2LFu6dPOmzRxZhbxfWVl5z733cAoXB1H94z/+I4XJasmKyPFdONlwLtU999zDgURkvpp9zpy77roL3oeHCqevso9+Y+vW5eedRzXf//73ddrU009zABgbCAfEHn9mYyT3jT318yYXl2V2QEHDAe4f1Ttnj9lpF9Z4uqE9EjzRk38yWvqRBZMXVhXksrB6Gg//kSNHMUi1tLSynOI41NjYUFwypjur9NZ7H+2KdBT4Ix1dyoDocM39NbYCQwzn+1rmTZmYydk+Qaxd3f5IRtSf1dQS2F8XoV3HhoY6EcFQfVf2sfrTk8fm5/o7yN144DQnmnRNKA4Fw+0t4ZyDx1vGl+YVh7o4ZeNYV3ZnW3PVmLxQuKM1kLv/RFt+TmZ5Xk/UH24K59c3tFWMyc2NtHYEcg83dAai4aoS+K5OQRbJdXWx/M6cMTP3+lxc5w4c2I+Ip/2TXRCDCXTuc2ja1KnYLnComj5tWtxDZagj+rBcAgRMiFYW/IrSgoljSyOB7D0tvq2HDqNfmZCXvWp2TY6fo7i1qwjiX0zwFEtnOBCJYrvQAmOrjq0+xhD1Q6hGIPvJzbv3NTVl+iJTx5V9ZMGU4ix/NseE2n5QoqF5CTCDhMRweDEM6MGHHuI8ZaLK2FMy6TC1W3/9a9JVyhlFR6l2c3TyHXfeOWvWzLnz5v3whz+85uqrEetwRcaPD8kU6b6qupq3kCJXrDgfky4OSRxmQkM4KsFSiwoL3f6arHygGVo/zh588sknCT6DIrCQID/GDyzVuAKZW94++b1f3fWVT33k6mU18ibsb6H+oKDT2WJ2TLkUG1HFPXX6s9qiWUV5ub72xl273kQ9IWYkBamOXMrOzUYqapFlKRIqyCwaX9kd9XWCdHpX+GXim+k2bDKQ2Mjtn+drn57XltXTvPicxUeOHMaIO2XGzEOnfd/++Xane1EDsc3IwJMV8WU8t3HXHfc99NUbLr9wflVze/i7tz4cCrf+t699tjgU2LLryE9uu//qi8+97tIFneGeX977zMG6t/7XX9xYU5y973jr//np7+dOrfj69RegXbzv2c3PPf/q3/7p9Uuq8k+1R753y715mYH/9ZWPB8Kde+vqOEh2TOkYIALacaokrG3BgoU4Fe/ZU2ensjAsdZcBksT16quvPuecJairiYIiRtKZ9hL2UAMP6MOnfSFgx8tJ9w9TifScbm9nXxEOd/fA9vzBsQU52TJMhNs6GnbteT0axUSemZddXlO1kA8Gc/cT+8PpUWFYFitZN8IbOtf8UDCfMDIyTTG7sWOz+cgUnzx54kc/+lFNTc0N19xw3333kXa8uqaaGI/p06dtWL+BI9737z/AhhRdLdhaVFzEthfTPOXJ9Ev2N/q7e88etqV0ftrUaUj8l1xyCWqQSZWVU2qnINzB6Tg0meNJb/3NrXjqXXXVVeydUfYhEl6wciUH1ZPWnArpCQ6b1VXVTm/o9gj0tnp80UeWz5tSOUEn4nL3far7GTV8PlvM7v9v7z2g5DrOM9EbO3dP9/TknAczGACDRAQSYALFrKylqGBJlmWv1t5dS7tePWu969Xbc56963Os56eV15IVrFWOpMScRBIgkQgQcQAM8uTc0znd9L6/bk/qbpADYkAOBn05bHTfW7fCX3999aeqYvMhXabkAiTDQPZ53GVrV8OQB2yiCIxAABpcaXkpHRAJz5CmwE2foBUE5GFSDBb+Tn/zL3KOwZUvq0py5LISHfGubSyv9pGdPx6wpji7kXKCe6nnMhV4a1KZ9QQfIPijrrbaInKYM7ffeqtNi9lkKMhaWWXFrbdtX7WqCd8Rb4pVO001/iK3HWK/1+vcuWNHQ7mbRS4I7R2rIR9UlvqgTVtkftv2zW6LZJXlJ5987JVXXobF5LOf+xwOAD74xsEXXnwRTbz//vthYTHddhXlmMCloaEhYkeexz6FNpsdjAvLy6Kb8tYNvamfQuPDqXoU2JFKhhNREB+eIV3U4e502J1YM4GzxmLJkaOnXlG0gFV2VpZ1rVt3G6+BkRZMmQR7ghCKhLFjEUngNK9iBYVgsSLYKc0sd/SCSWsshPjqV78KtRcmC1yPfPwR7OaG/XsBPV/5yv9lJiI3BduOmPWyAA5h/c9/7Wv/N9ZINDQ04DQGIDXewfpZJNtx244NGzbiCyKQH3roIcSyYDkaUn7pz7+EgYadL1Gnxr/4CypDktavX0/ChM3W3d2NSD3cwfJhJDOrJxqpZo/0bz+wwQKeuwl0WLT6eoEdsja1ALZ7H3EGdnA9cuRsV3MVRniR24vgSuhxHZ0dkWjcWmKFmxIxaAIn63bqDvpjJuDcMYoAd6sI7cFobW1x6aUQ17G3BNZeeSrqoIRAKgQ75r515TuGpCc3lUkb7l8nCCoOyivSY5/a4Of4YpzKgjZ0eNJt93fACYK9LcAW97e75c5OCTsdGnqVNf35uxrhZNZVKM7SrdXC9ooOi6DgYCm/lHz01ho9pfHxaDpBuw8NDAx861v/hFn98uU+RNiBgaHjgI+xF1t9Xf2jjz4KguAM79dfex2WO3yHVpI5bZIh95XrX3jyNhSYmS0ZDUm/JAGGbbXAplEKFMAavngogkN+k4ao4Wxflx2HvFhVPeO4WMCHhH90bjambHMKh1cDWZIpGukyi8zwlSx3EMyZsA4UhAkEh+bQuZrAQ9Mxi7dMTjXnM2SMrqcEHIdgcho+BssBIEoblAqQJ/EI0IacwVFAcFQAwEeMxDY9x5RP77LT3/EIN837yB+Qh5sYiix7uiDZYYaGTGFQfjfFdR3BDvQDblHUGDEFfcRwTgrPQyYn7EtgkWgco93ptGNDepLsFAW+eDpdc8ZezBhlxlU72x3wPcAMpmsX+/rF2ChO4gAPCZqMlfOaQdxwtT2H8gQcBoqzZdmBtqgCp8dJfWYloqoU+kHTLUfKBpdAtDx+EltpKWyYjSQIrSE+15mtkGJsMI6QjRpNRJNpxWKzou34Gx0dGx0ZJZET54UrCrD+Ix/9CDZ0qqmphW0OsumuXfdAtQH2NTU1UbksnoDGUOFaOgowsGLBPcSVzC8BC1okgk2PE3EFZmJVFUucSU0B31K0+sxGb5kaUHpiCdjksKIUfjIyx8DhxmIMIOKb6uD86qI401lGcVTsbfL2slrMsSp+klFwYTMzj4m7lv7CSpLegPhPP3vqEw9u31zvkThs3LLCr+sIdjTyabYhuc7kKvQa5GrYUz2uImz6CobDkppwNIzt6jHzMDyhjkVyoCRbAsF4APcYK4A5WH9QEohPdhy8Yklh72oZd3UjkUoi2hwznilRXlW/MZan/DHxsyLm+p2wlty9ZsH0LwH3TKjqDIPSY7OW4GLUGOLsxUuXsAYIK2APHjpEwqqZhDUSaTGSDh58Y3hoGEiNefvRT3wCkQc4ZXHX3bvgrqXWM9/0VbWikPhtKTDTrwisozWqxDicIiH6U1BdDte6jtvSagIGhIrSSpLX6OywbN2CoEqnVRfwi9mVuFdWHGJcUaYg3UNQgq/B5FIW2AYrhIRVEehxbDOO90wwM3k4F8HmeG6mGbl33raBi0+Aho0Fpi8NjowHQka9B2Vd1+IWX7Hrl/K6gR3GKZu+aCIlUY2aANsFeh6qHKZNqG/MliFgvwfgIQQ9mjBJjmNiEJt6GTdSRugIcm6x0Q+5CRMu1lrAP+VGoIrAw4gLVbKt+5YAfBoqvBpXRy6aZlk1TTxlWEQfpghAX0wgZLmyvCn9FQ26DLERJ4VQUsTES1h3yF5DU02/G8EdqU6E5319fXgIu0zvmTOwPSMNjC0wJzHiZbCOqmeOElaBwvWOKcD6kUiJTzLywuNKUllC0acQqI6Y7i2b7sAhskVeu8HFYqkJSbCLvE3g7YwD6aJ3wZg4VMFQG0qs1fVNDSWirA6dPXdYjWNvY/LFgn2RP8KKPa5yh9Pr8ZRIkscieWQcRDt3ZTJ8x2259hcRa7ihtex//qc/rPBZeT1mMvm1Z7ucc7hmsKOhnd1zC9EGUk46pcVVLY1dpaGshsOq2+mULdglAtYGKA4pxP7gbJEY3KIIEzaStJ4a6SD+0FpCqBEUlAciZmZGphEnksrF8xcsiaHGhqq6uirIc+FINJGA4/JqsY5ADdxJDJ35WFh91nvmCDG/zTzOo7FQHWGxU5TBkRG0bRaxyALJceu6u5ubmrDGe/eePYizIR1JpLWQba1tGzdtIqsKNdPMlqGt2ZQ81VnOHHUD1I2ELCgBNOGkTp7Zc+TAryUxLUmWhpptG7q37n7tt5cGDkmYd0Tn5u572prvmnHLUp+wgGFdNpKdVero5LOTZ84klXGFi2H+hTUDMybCSMgSYsgTQQcv2J22ar93Q3lJt9tTYbXa53Fn9qh5lwknc1qxHvL7JEWnswrNaId3uQ7vcnHXDHam3JWtcJGYRLDDNhqkuc5IqZyGBaGqKBV5fNBQE2lsRW3nJJvT4cKAj6d1weEmmUewYoc3eIcoNgo2ERrqDIRmLnyDHKdZnBUdt7iEmOpvwWl3hiaogjXKpaGcXJUcNIMkJrjMSXNZ3ZA3z0zV5iUFXqJ4RJbAnfrAgw8+9dRTFD/MfG11dXXYogdaNkmzgvDLX/0KpyxhuEGd/8IXvlBRUUFrYCnAhoWksjbPGxhZ1Sn8vEYKZHQO3VCDkcmhscsOu4Q5udjbYXdYJyexTOuiBSd7afa1nQnGfOgSOvmB6QDk0DC4+ORUz/DIXl6I64IKNZjHWhgzGXUbrXtEEBFiqJKRRDCiWx2NmuD2y3aZ5YUUM4x3jQ15569DS49xjqm47sNaJfLFrfwVY0sAdrn0ZtIemIOwA+scrKmAIxUd7uM2d9SORZTxyCStVOQFT1VT32SUyS+AxShZSQw9oqS4ZMSqxWjdIWVN4JYpgpl/aaNBThsPp77//BHYAPVnT6AUgccaM1o9H0+m2Rz13vASakJGQ1y6vm3bVgQA7tu3H+oqlKamxkYEfobCIexVW1dfT4YckgLIm+YpKmK6r2mRzCVn4c4SUWAOY4ijQHyEfMZxXlQSQcVGMpaYngoFp4NRLCuLY8t8XUupKriJpHWcrcgUWPBnOHJ+aEqyGnZfY1G8a2K6L5aI4qwdsp4gWIoMzTRlYzkrYolwPliRu7qycrNhKbk8FrI6fF4sf1yi1lxjNooh7j8//vV/eexPPrbr/o1NOGfoGjNc/q8vPdgR0sCtqVC0HBkv0lFXMoCQpiO7T735EnZnJZoQatGMiU9mlsvYp/AVHno7LFdOEQ6vFJReExGQJaQhBmCEoJiF4ooxOJpI0aZjlAFUXhiEJTVezfJnt96byzzkHLpqOq0gkN0cImgm4ocR9YBTR0NGaKC/H0e0WGi3SAN7NP7spz/99Kc/jeOEGTEK1/WiAGMVusi4BuakyRFCmFU0vIkYVlrDPOdUKSLAJvJeQ0F8k53TEPFOXnG2VYWRTinxRHosqr1x8PTmjR3VNQ+7ysdC4cloLByNhZLJKCJamPNK8LjcRR4y2Hm8dSmt5GhfZKivr6GhmRgzhztNXp3X9+bXXBa+0v3FUmxBQYLk8RZjoS7cg9Awripca7HlLbN0Sw52pIgFpgNPP/UUttinuJPEdIWkcoIs2CGUUbAPKO73lyAA0ow2gpyGnXAQK8dWEdCFuA7iLsO677XXjh46DMcZwsE7O7FtIfERPaGtANLQizXmMGNQiAg7ICOJVayIDKPk8NX1JT+hNjZWdDqx0BWK6onjJyAM4A6GC1Zif/3vv46TUwaHBve+vhfhoPQIl2G8+OKLiPn8t3/2Z4icur71K+ROzEOEx//AO5zRvKptU0tNDaYoX5FXTdH+PHfc/sBt6k6Xzeu0e53OEuggEPvQX+RiN5KwsyZE+fR48uzL5yqK5MZSW5W/BUHmFWU27NIDyMAAYJY7Lp5ITUSUw32xkchAMJEsgy4DUY/YNdvDm69bsjiXRIjFT+I56GmWYGaSKQ2BxJ0l0v/44/vsEhao04rGFX8tOdjxWIePXsGOC7jMPZHBQRDLKPpsZmpNRMICndBEF/QEgB3bc3hmKiMUICAYHR2GsIO4PJ/PS9EbcxeW/eAsFIiBADvwLR1kDIMKVA0O+bLjdc2Oncnx3epHQjsK+IS6io24AXkoGESg5WCq+jqWwu7bB7ECCg5FrbNIUQGhhryEpT8IM4ag925V9GYsB13DbHVoO9kZ8AFnQig6NDF6VJQF15TLY68v85cFpvsj4UHZKlksnoaGNV5L3bGTr8CqDCATDLmibD1sDziSAlGhwYn46cmwwI1CXbXCj0ubDztsNosZX4qzFbElMkJ7mXuKtm+fFS3fjvq5bGsyRibuMvdxboYLgC3zeAF3QT6A6YcdDUnjJTeHlXdnycHOwC7ScDjcfscdWI4HbW5exwCAZmjK7FoUr0ZkxtIx0ectyiUuYAzx4nfccUdlJfytczYFLNuypIM2LEgUafE8UJQ2xeM4mUvLUtSK6fM9uiiehOOCoRAC3zs7OnEANnbj6R8YCAWDqD8t9aeKsX2bEXssijg4ChfWcGMZGeF+Aeyuc8cxCrMdFMF3GmYdy3RofPfe57FczCY7Nq1+3+pV7bv3nD3duwfAZrX63mf1ONxlr+59PhQct8myTXI9eG8Tx5dqnIijCBXS/iSABeIFYFIxkgacaz7BifwpjIomPtrEkdrETNizCgdrJQNdSoQPNk0TJ9MGZSQYMhshqQn4zjaIR/gye4vkA2wwQRFamdMOMtmyt2i3H3OUUe7EUhTGxExF5CWjtrMCcUyCxkl9MfnxF/bdu7VzVbkVO1Ox/FfyteRgx9vtdtjjsR/DAw88MIs6TOLBxfqPenHORAB0MNnBTGKmZFBInACxDhu9UYTabF6G0VBX+bE7uoYmw2QNJnYh8ZAYwlA7GjuwswVN3e9Vr1H7iME/9rGPoWo4VQD79nzve99jsfjmhdgFEum8RUUf/OAHoNFD7WW0ec+q/F6R6t0sFz3CGI8cXBSTrmI7HgjXYjwRi8YiVquYiCZwQAgWNYZCQXwVJEskFgyHozC8RmLhlIrDw5IRnGahQqrDLhUctgPA7MQO3DHxiGAIfUgOd0ImhE1hdwjy3QIRaVnNrOIy12zCP+BiinOOTIb9bnuxNamLjrGoEU3rdUXYM15J8PbB6aTdZqly4HBHLpSWJkLJuiLeKXNJzjY0rUiytdaDhqRjhq0vqFQ4hGI7SpNHQ6mkyrf6JQ7bxPOOy1Oqzyl6rQjoEqaT4lScry8R+4annnv1jaZKf3tFA8PeFX4tMdihR7Ecj63rZGu+mFlu4QWiEi6ZN80fLA3J+IRx7EI+JF+TM5/HcegZpMg8MypKvH/8oR14BQYUmqYYhiAT/NHyQ5q73ruuA8A5nEkhiV1kUXMo9TgNHjWD9IqNtusbGuB+xQaNGBJAcBxlb7fZIA7OuF/MFhY+l54CYAhiM4hJtJpBFTfO2oMAACAASURBVPS4jClSsyhJPZ3glaSCVaLRcCKOOKaEnkpqaYCaJkQjySRcTUktFknAOyELYGxYh3UVCzDSaSevumwWbEmb1Likotk4zSmIbiENo0qKF7GoVRalFDx1tOaCzXTE+VkDgswvB84Mf/N7v/nofbc/ckdj3JC+89s9b5y88D+++EBbVXHvUPS/fvMnG9d3/edHtyCE4RfPHPzdK0e+8vFbdq5vHppW//LrP6+oqv3bL9xjkW2vHe37+5/v/vSdqx+9pzuc5v/nD54KRNX/708fKi6y9Q7H/tu3nr+lzf+nj9yOofeDp/btPjb8//zxveua/V/5wsc7GysEI7n0FF9+OS4x2JloBQVtdvTmm9AWRQaaimcSzoKgeQOzpIQwKJY146GsK+dGdoLr9ptVCeHBtFobS7J1fToQAOphYT92i8WmPZ/+gz/Az988hn1QXvEVF6P2tJybTOYE1u9dva8bQZZTxpCjYOUFpd1WeXtnE0yljSXOcq9v5y0fxM7n2GSmtLhJMNydq7b4/G6LxSHylsrialGzbVl7ZywZxDwKR63L5eUnDF7VEZn3/ls6qsvcEc6679TFvoGh93U211eXYJYeC4b3Xhquc1hr6ptfO9KDgy5gSmYrvsmBMZ8k5o/K8rI7d9za2d5Mu4Py3Pq17eQnhSQmqGV+564dG1qa6kl1MbjO9taY4Wisr8TGyB638313bXO6iqxke1Mbqivu27G1q60UqixAdsvmzfGUhkPI8FqJz3PPretXVchWQ+E56+bVzS53eY3f5Re0uzqKsSc8AuGXU0ddr7pc8+liyVQiniRxPOuawaB3DHbZGc77TXoi7V5xJbB7i1ff1Ucw4U1OTcJhggOSL128+L73vQ+uCcTTgDaXLl3G5mXQ0MHuADuzLeQmLFzXjQIgMhYpBqYCCgKAbQ6P3Tk9OQxfK5ZKwBsLq0IYO5/E4+QS59N2h9vtcE+MB3TaFxZb1ym+YnjJ+OB04qVL4R89u8/rLvrX92z7/cHXe8cDnGzdsqp5bVPj83vfKHI5btu0/s1zl5TwVOuaDb/bfSApWqHX1lqVf//Ig1WIb2Ezm+msoC/U/Q7sdCMCQbUELNi6YIUqI6tJ+E8UTlLozAnsbYIVXXzakERaTR2j2Ble1ngLRp7DwGFmEFYtcIZIusJrKcUQNIH2B5PVKLJSDBlb0nIGljCRkkT70oMCWNFEKhCETry9AoPs3r3Txa4bx1LGCw2917Woa82cANkw1q1du3PnTnxRVCUYDAHytm3dis2KyZ9BAIe/nNniWksuvL+AAoy+FMKNHZCs2G1JBqKokrfItOOhRzhdstlgPKVJFHqJLEENtSAQAFBkOnFp/zFotjzOrgA8aJF44vLE1PZbthQPDJzoOVFT4h4ZHe6bCBYllfZAoNjlHA+OGVoaRjmEHaCfsSMGc8jhMvuaPimOHPs4cSkgFIWs4JGhCCo58VkICwLlsbNOmu11TbWwQzZVkiSdQrkxFAm79SDCnk68wEFWCS4dZ/lj2aUuQ1hjYZtYGYGfnE5LQSh/XZNx/AbNq/gg1weVQ79WPgcusRpr0vq6f94gHYNBQ9sc0Goi7MRNgTJWi7XY5wOnItDE3J04w4LXnWSFApgHXBCxjoXBDM2YsgXbF7Mf1EGqRca+DW7WI+Q8xc40VjtFhpoX7qgqM76xTXkSmvq7V19dX1N86223uiWEQqWx6SGcUIgqguiWosg1vJAWVBwtgKOmKLyPAQpDNHbhH+AM+V/ZDXZSFHPhzWfvhd8z3MJuZr6zXBlcUZaziMWULfrF7hCY0b/sQsqZnyb4zn9vNtUK/HIzBE6/l92GJUNQO+C0Ad4B4zC5A+ZgpyNT4zyHzHtZxZujbDbC6WKuL8b2JmjRIh4EGJtmUxMsgAvUW3kdqHgP0RyQlBxWac2aNk6WsU0Z3j7bN1jt8+/sbN7SUlvh9QyOjyJjt0Xoqq9sKvcIRgK7nZkbFObSm+HQHBjlJph/B60gxJ25lYE09pO+zz6YSTDb8LfO9mZ4emNKdjdOz8yYLk1WnP3MbgCDvsJ1fSnAbLy4sig9hwbsgZkm/8I9E1kQJWCG4hYVVXjKq06NRQ4c6wvFsd372a7WJo8MCx9Ja2NxdXA67ikpp+PuxrFASMUqjKwWUjpEwOSp1WJJMb8x9D27hLfP5+bhvALYvT03FFLcJBSYr+vlNjmDdCxsCvAUTitP7D0ALyt2b4evwBAc+y8Mnx4aK/U4qspKdckxnIiNHTurY5k4neuJJUTZWtRSTW/ZeJdb9cIdRoF3B+zQHflnVdQAPLRUvV7o0wIF3h0KQEik3Y2xfAK+WwGDiBZKGIYlBqOgIQbHpkSAHG8lvyvs/2wFAy1bYFa5wvVeUeD6gh0QjmI42aIu0/OYpa4hAfNXglHmId7s9zl763tFn0K5BQrkpQAcmbTcmzk0wbrmP0A1SHnMq4r1XjSR4yFimEkoxF3i9ryZFW6+KxS4vmCHPp6cmDx0+BBOBVzT1VVRWYH9sIkVZtqGUACcp4W9QLBkiuZABnM0G16h8SYimk9n0zC4zC8d5r97hcwLtwsUeFsKMO5lGyLRDE1zNQCOvUXBktj3hEekB3NiECPTYxP1oPwSV89n/rctq5BgaSmQbUdY2tyR26VLl06dOoXDA7/9z99GiBk2Akklk9jEDUupLly4kMDWN2VlWHEwFQjgQAZsHIDwTmxZbu7+hp+nT59GyomJiYs4aIKBIMIp+/r7hoaHAZTYWGVkZGR0dBRxUjj2Ad9wB/FrSH/u/HksWUP6K+Hmkre0kOGKpwBDMJyjI7GdaRGuhnVgWfxFHAdEM2dZ+sKeA+lYIK8AjqQjGDPPVzzBllcDsU2uN2+NvvylP897P+smO1WCttjMmxjoNDQ0uH/ffsAWTj7HmlCA0cTk5Esvvbh37+sDg4PVVVXPPf9cVVX1//v1ryOH5557rra29oc//OGly5fDodATTz4RDAZxhPbff/3rEP0aGxoQw4FNz/fs3v3sc89hr4FvffvbCNN94YUXsA/wP/7vf4Su/MQTT/iLi3/wgx/Y7Hacsmiem5m3boWbBQpcJQVoRzuceizYnJPTwangNE6PhVgHjRXcD6kBUhwO9LTigHSm4bIIFyyLVUUtiTNtHti6tr2mBMtyUShTZ/MPmausUiH5FSmAyCHsM2TuMmcmuu6SHWKLsPr97l27AGpALqx+xxJ47OK7bt06iHKRSAT7QUFg8/p8n/jEJ7AGBqLc0PAQpD9smY1dkk6eOImKtra0nDl9GuyBJSDj42M4fxWcEo5EsLr+Ax/4INYnAEC9XsqhobFxcnISRzocPXrUPKbrisQoPChQ4CooACal3QexC1ypjf/MQ7c/eveWJq/VpsRlJSYrcewoYFHTsppyGJpNV6xa2qIlrUrcL6nrG/x/8uG7b9/QLigJwsSrKLSQdCkpcL1tdhyW9Q0PDx158822tvbaurr9B/bb7Q46Q1EUa2tqINxh6zdMdGzjYsHucDQ2NWH3uqbmptVdq6G64uCx8xcutLS0HDt+bGpyylXvgtqKSF2scJYlKRqNPf3008DHzbfcMjY6+thvHkNZ27dvx8GMUG8hG7rdLETeNOpd0RK4lAQt5LWCKQBXG9bAqMmoVVDu66rd1lQ+GFLGQ5GxiUAknlY0FVyNTb2wxZMo8i6nvdrrqSvxVPvdPpcFxxVmnBYzSu4KJtTybNr13QgArlg4YSGJwRIH2xyMaP39fR5PkSxLMRx0Eo83NzdDLcUKnkAg4Pf7YWtDMghuoVC4oaF+dGQUBxICEy9cvODz+srLyyEYAhMHBgawhB74+LWvfQ37iOD1yoqKv/mbv/mjP/ojcJuv2Hf+/AWn01FeVk57TdBVmE2XJ/vdQLUiYxtmZaz6UnWcLkJnjMC/ygLoyLHGtmTHrIqLeWl17HXCQ6XFzsUS9BFsJzXPP4EX3zqm7waiy7Ktau5GANcN7OCqQhw5/FOY5oA1zM+K8BOslALw0DJk/Jn9bzpScZcZdfEBZZt5rtgvFpXCEmLBM7EbLhwIYCb4+c9+9qEPfQgeCei/zz7zDL7DAYLMMy+bvl2WETEhy3ymHHa3cBUosHgKkDMC7IMPMCXt/s8WmeET9hLayJNYjC0yk6Hs4jh4tkCQtlw051qTKWfm3QLYLZ7w7yzldQe7DKAwYEFvQxCj7mdLo6mvZ0JETOAxPVYZHpj31GxbNjYxcMQjtvsbdpkVoSAjR2SOjeDpVAfs/oXj4BjAgcmY8pqBTLxCdXhnNCu8VaCASQHwMGMucrEybmbLbOexFZuY6SnthkyMyt5DUjO5mcscvxfoel0pkAt2S+ygQHejM8fHxnpO9hw+fPib3/zmT378YxwUPQaXAu1ajAmP5juwBP3LhDigFi4EoyTiCfpGzzPCHX1hF26aMyJA7eiRI0ePHCXworXbOix3Tz711CQO96E9RSy4DykPgSzIiG0hSrsmvvLqq4R7pgh5XQlcyHzlU2Aeus1HujkoI75mkzsG13yHBKHeyifPMm7hEjsoAGdw9z7/wgubN29+7PHHHnrwocamxuPHjz//wvNf/tKXR8fGAHwArJra2tGpSZvVBg303LmzOIfh+eefx7kzO27bQduNIVBucsJus8Och+18IbiNjY+1tbZhv5Dz588jKgXBJSbbwFkB3+vAQD+mU3gz8B0BLvsPHECen/nMZxGspypKV1cXtgvG06bmJjbZFhhuGfPjMq4a8U0W7+QoC6TnIg27D5ybe57RMZZx826Cqi0x2EHWisai2JX3Ix/5yMaNG3/yk5989GMfBY8oiorY4P/1jW88/PDDBw4eeOSRR/bs2QMnw8mTPRs2bCgq8sLWhnfhq4UsBsB67LHHa2qqh4aG7rzzLkTVNTU1QVSEE6OxsXFocNDn9UKOg8v1O9/5zvvuuWdycgpsNRWYOnsOWwKfxRZyUJ+VdBrByW+88UY8kWhra4OYiUxugg4tNPG6UWAeYJko9jaxwcyKkoOH1616hYzfjgJLrMaifwloWOjcrl27vvjFLz7+2OMlJf4Sv7+0tBTu1PsfuB/6JSIzEWaMZJDFECmCMDq4U5ubmiH04awnHEwD7EO48pZbtuDOwOAANFNEpeCc6Vu2bGluaSGTnGHgxMJEIr5ly5aqykog2r69+1KpdDQWK68or6qsikSjiNFDuF5gago7yiGgj/FeYYZ9O44oPL8CBcgat+g/5GEmvkJmhdvvAQWWWrLjOIfd4XS5oIH+5te/CYaCdocdEhzih0+d6sGqBiWt1NfX/+AH/ycWjd5///0IoPuHf/iHTRs3utyuX/3qV/fee+8TTzyJZWQIK4E6DBdEe1tbsa94fGICoLZt+/bvfvc7wK+77roTk2pxMfa+dn3jG99AsB6CkAeHBqura/Ai5ETIcagDBEPY7bAWbXJyormlGUZDGI0LM+17wGWFIgsUWAYUWPLQE3LC7t27F6a3xoYGuB0g0Hm9XkTGIRoO8hpkvHQqPTwyDJMczoQFog0PD+MLVoMBrerq6uHcwLEhMOcBlbBAAnAG7TUwPV1TXY0zuoZHRtx4CyfH2eyQ1BCph0d4GcCHKGKIgVab1e129/cPQJyE2AikQ0FPPvnkAw8+iEIKWLcMWK5QhQIF3g0K5HpjlxzsmKJocFjsBZghT/y1iVJ4O69DwdRkF0Mz1CAeTwAQkZji+wpXgQIFCtwEFMgFuyVWY4mGDJ8gYZlId+3okicHFs60yAtJodtSpHFe1FxkLoVkBQoUKHCDU2DpwY5hHeHK1SDSVVLxanALMqCJclcBkFdZnULyAgUKFFj+FFgCsGNokkdqmgGZ5UKEPFVcLlUr1KNAgQIFlowCELNI5MoRia4d7OaiyHNzX7LqFzIqUKBAgQIFFk0BWqRFa0YXmLuuDexmVjMzJMVHQXhadG8UEhYoUKDA0lGAFpnOXPhGy5JnNhCZvX9tYIfoEFn2yBYA6OI9BkvXwEJOBQoUKFCgAFGATGnzZa18eHStYMeW8xeuAgUKFChQYDlRIB8sXRvYvR2ULqfWF+pSoECBAjcTBXLw7trAbj7pcrK+mehaaGuBAgUKLHcKLPFGAMu9uYX6FShQoMDNSoEC2N2sPV9od4ECNxkFCmB3k3V4obkFCtysFCiA3c3a84V2Fyhwk1GgAHY3WYcXmlugwM1KgQLY3aw9X2h3gQLXQoF8UbvXkt+78O7ShZ68C5VdfBFsRQf+gOVss5Nr7RmEZy+fRSKZyqBN73q4Dwq8VlIuphOv0LT3vheuULHFtGlFpplZtPCuM+I7oubKBDsAHP7DIbI4xRg7dpojdGbLqcxPOvQz34XjGbNusw0OcrvT3FthQdorpMwcJzqb9MrJsotmezfkFp2doZnzFVqUXc9FJkOeV6hndoZXTol6Zrcob+n5kuWled6G5ycRW6w9H5nzJzOXdV9Djy+Ki/K2GoUuuuFXRfMMh89wxZUomd01V2I2RvQFcxxIiaVTIm+hRag4vTnP6Mii6LL4uQLBDt2i6rpiCDGDVwxOUwnrgBgLWZ9RP+8Wd7ngkjcZdXEuDOWR/8AZCzhlhjVy62Mmy0a3xZeem5LllVt6btFEjdzm5GbIcsuuYQ4lKY3J3ovLc5FF569kTulmyYvNkyqa04/5Gp6/9NyU7DjFpaV5/qJpQs+0de6fnOYQA+RWkhqd0+q8Gc6Rh2XNPkSes0ucndclXhdwEMNcmpz6LKcbKw3sIEloup5Kq6eGgr/YdyapqhyPE4uxTTF1ehbl8zJB7kjOm4x1fDa7MKbKLiU3mVmN3GyzUpq54TOnnLyF5+PpK5SdW3TeHPMmW3zKvIUvkkR5k+UtmiiebzDnlp43Wb5uzJ9h3tLz5ZlbMnV4vpR5WSibf+jlfLVcPIkWWzSrpVnc/E+zPeYEZhYq6OrW9toHNra4JIMnrMN+R3n3tMzN7L28s4LAjnUT9AIc5QiwGwin90+qGvUCplmBoR1pHOgZE/aQfLFMkI8DKKs8IJQny3zJzKpmM1belHlyzF90nubkzZBRKbtoxqu52J2TjPFqbrZZGZoZIZn5hUjNXmRXvsJzKMnsEHPvzH7LLTp/jouopJnn4jNcLInyUZIqma9FuaXnoQ6raG7KvJRcbCXzZ5ivb8yUUIzwxewRw5B1wxtI3J5IupwiB9kOYGduCJLNQXl68D28tYLAzmQoMIumJ2JxHDwGYx31DoQ9mOfou8aSZK78g4lSLOyxGZFwYXoayLqhZQEEy3z+GGUv5xu0ZmVn6jIDCvlS5uQJvoesSpbILNbKahEpU/kyXFj0DMZdgRxZpbOB/PYNN4vlc/Y3zFvIIuuJaqPhOjMCvm3DqY05bc+lT55k1GHULXkS56v9IpOxDGc+qP6ZFmRX8krMlr85cxlS3iBPbr0XljuXLDdDvG2KbQsYmKpKtxfyAQzhOB46Fo8psoMXLTijFMPuCiDPylwe1woCO8Y/OCxR0zWc2RiNx1TOUHiYT/GAfKlZzJ+FU7PdkT21svfYvGry0kxCuk9ndS/ox5zxbZaSnYy9k2+uXpDZvB8LR/dModnZ5shHyIFGY1YdWdFZ1MiTbC43Kn2uBpmGa7M5EGnI2zMvyZXakQ1TM+kWknEeZfI0PLvVV0HJhbmxwrNzY62a7e7cdmQdUHelTpzN1iyS8RD7j12z9cgp3bS3zE8yV4XsxEvc8Cvw+TwSzKs2l1BUnEmvahY5e2DNe2GZfV1BYGdyCGQeHRysJdOphGZoAsQQc3KiPsGf2WH4ZKOTfhk0dZEQwgCAx9ssJzOhzvZ3FtkAJ2UYv80EZj8uBBJACMW6YIrE6zNi1UyBueM5h0sIkc3BNp/DMhM2qgUoNXQyCbNZOJMyg0lm63IEDcqIpWSpWfNn60YVZTdnPjNpzJSZz8yhbJi4DSrXtEbDww35jhEMeUCNmRWHaVahbDNtm8mRJWTFzw74+aUgBzyGzKbznEjvmGeZUzMzL86kpqKyKJmVYjZlDnmp/Jz5YD5xZl6lRKzmxBVmDczJAb8Z2Jl9SknMbzMvmv8SjXVOF81uYjmwr8Rp7BvegtaHX1A10FLcIQMLK3FGVWRfZ+6Z2ZrtMVNlCiI2MOsw73Y2JrICc+vJ3pifW6bE2VvmNuRmrTPlsTeoJZqeTisaDOI0uhiJcgsw31lOnysL7EzKApJ0XdW1lMGrCtsrnliV9B+TMxi3gd0YHrGnGiEIwxJwD/qN4JHxAm9IxN4CvWsA83iEs7A09Jj6N6uT2UAXeAPoKBHqcgr4OLNj9Bw7EDsSk8+xmlkxKpFemrvg4UdKQlCOg86socq8LnMiXqXhQ9WnWybDaQuBGO2jZJTZXNEzPwgV8R8KM99ldJhXQ2ovUW7mLs0ggiFi6iC6McDR0TQo1JwGeGLaJdUEt0i2xkMqnsEgZZWV9/wm0neJTD40iyAXaKpoiJbpDdwza0WfSMUyXNAcuj8nZc7lzNo3R2Gqz0xbFxRPFMzQIHOflcFAiJk/kAt1AX4Qv6Bh8+nJzAl0mVlQo+mrgDkJ9BN0wJmmCjLNv4wOmdoTkyBmg3oAbMXenWsUks2rN+PfTNfMu40iWdn4M9+cfZYzGaBGeeJjcnfdJXpRA82ciJNnmzZXOVYcCAH9SVcxbsB88x9mXlme/6xEsCMeIr5S0CkCzFvEEfTBOmWWJ/CbCXdIamiaSvgGFhTBl2xwsu7Cl7SmimSS4EVRjuuqwF6ahSnKbY5P8QssjrGhOHi+tMhucTh7R8NpSGPmEJhlAcqdVcsshX0z+TEztGdSQpJg4wdloiEMXDSNxh5Ql1R2VAQtxHARNNyXICKAh2dqxyrGeJYwZLZwVraJZJSzmXp2gOGOWS3WNGC9YaggpKqLkkrGTwmVICjHT4XcP6wATC6YVfBdFPGQMjBhlrWTPWDkpeRsOpgbH/SMqIanuixwXqul1OU4PzKhSTLhHeGpWR3Kiuo9S7U5Es1iwVwTzUIzvTh3+woDk2o4e7Em4QK26TRp2UUhaQC0UG+qyry5iCVjic13qG6UE90B/FoMo0jUy0v9A6FkLJWeKYP+JYTQdQvmDg0dTCIgWobX5upBP8xfrBR8nelV+onuZA+pTuwhuMRkQ2r4QvSZeR+UNF9ln6wW835nvlJDGAsil1m+ppszSc13kJcKrmY3M4+ohrn5La87KxDsiJGYAV8DimVmXpLFCCzQkWZXMq7F1Frpcdy7uavJYaQ5/ntPvzKsSRjIhA1IZuiCprb75X916wZDsPSGjd/uO5JKk5fD7FZ8M5lwlo+IUXTN53F+7q6NW5usb/RGzoweMaCZES6ZHQ/QyYwX3DAZGFwDGEFuhAOECMiVVRV3wLiMq2jGJZDVnQ77R7d2Nrl4q2BMqVJKB/qgIWpgeurYub4z48GkZFN5yWR5Ey3Mclj5lJ3FALRTHCLDYJ3Am8oCgcxRwnCP1Qwj6va1LVsaylx8eiDJ/W7fsf7ppEWSNlYUbdi47l8e/31MtPBc4s51HZvqfKogPL7/5NnhaQJDBq4CYURGUoB8a7aBBAfSiCl7ajErCeVbjNSHd27b1eUeGlb/2w+fUB3FwHBGYDMzVnuThOwdojQ9YlnMdir7SXdx0aszVDdvmCYNKthECUo7k88siGUK0XlN1tVKWf/cPbd889m9Yc2mcTLkNXOImx3HcicRkM1C1DCzjihZ5cSuau8f7uyqr+K++sM3T8cRAgUJjmgL9QCUqbUq/+kP795z4OyvD/eneVk0FIfIxzQJXUTTbaax83CLAf3shZIQ4Mb6DpK+ArETBZDgzxpuEoQ4hhKwmQblmvM+Op2meVLHzQyRCas5tYaJ4nPl4JuplmSIwiqGSyXJbsEUMa9qy/frggl/+VbzamqGTsMfVKGUoac5oJiR5jlgmQJZj4e4R3/4ib8EJ1wOxX/50h4Xpz3Yad/cXKWmEynDgJSS0o009Kl06uENq+/t8kUikd/teWM6pSc5Dn9xzohxaoqDpqwnDS5lCOZfkuOTgmUwnPjRE8+GwlwyGk4q0KR5RefTOp/QuTjS61yKfgopTcAnHimakNIhPvDIROFE1RDxSorHJ74jLhp/Aj7TqBVnBOLJJ3//qssqNtW4n9p39Ecv7v3Jy68/fehY1OC++Mitn79vm5dLIdKQFcpRQwwOOSc5NclpaSiISvKhroY7NqwF4iHiWkUzKQ2fNMQUykU1WAPxFm4iKvvlIyf6R0c3tTsPnTg5GAwnBVFLJnY0V9/ZKpY6kF5PaPzuIz0QTy4ODJ0Zn4wLUoyX4rwc56SEISY5IcGJcY6Pc3qc15PoFA7NRH1AXg0UTuhG3DBQw7AhPfnynvEpzsGlFV6Lc1qCA7VZ93F4i8NfglXMpAMyofrDUkFf0ArQh0cavIJkaAJ6WeXQHFCSbqLoNG5SSrSXPiFx4w89iJvIauaPel9BABOmyVR055qmuzuLNjRX63oaxE9z6DLUnyiWpk5HzUFe8ID5BZ9aktNRc5TV0z/y+9f2OwBfahq5QbRLggeQUkcyI6Lz/SFuNKbGddi+UtVu+dN3bhAktBGtJr5KG3KSQ6cIeBHFEd3m/hi/ceAKwsaHNna2V5QYKrrdQIfCiEB/IAsngZdABITVY9ZRdYHIhR5HEaz5aCa6gDUEBUlpXUTrkCdKnP2jgUCJwbQ0KIh0uqHMQeXVjMz3Ou0KlOzMyQfTGjhPo1mc9FM2d+GanbVo0sJSF40XU6nkxHQwOO2+c/3aZ46en5RsmA4xX1sNrbmipKWyQtW4qUhyPCUoUGUJRWG4Iz4RDUHjJV2QeUzaNGFi7oQVAzynRxWMZA7KCxiF1DfUQCeWw3fIeDqYmhORWDblNQ7qko7ZmcmTKJn0VEFX2DocARITWcfoZsZAMp5UQ/GEP20/H0xPQrHm9UuxcM/AwWRoyaMYbAAAHnxJREFU6t98cF0g3PWDPScVi1uGsUhXMafrPGpOKrqIDNLx929qfLp3ilPA+aSzo2ICtUXUODEtSGy9CZN9qLrCtGE5enHgkztrHU5nVAtogmbl1a7G8nIL11zpP31uSpHktCgIbsv+0xfDhsxruqgpIAfkiTQvwQRAlNHRcNLjYI+jnAUxzfMWEnaZnAc0EGSFk6fSiVCaK4XwBGFWBUYBvkRVQNwq0QESB5RKEtaZXdPgJU6QZBKbcUeBcKSxNOgdkiih1wvkiNd1zQrQIzUUziXqbnyBKU1EEjIMChr0cWZbnL0Yoxgip/kc0qbVzaEI976NXa+d7gvrNp3lSUISCIv+oHB1MAPUXao/z2uiBkrCNYEUFswfEQVlsy5V4wInoh91UdQg5RraeDTxd9/5FbRd1e6RNG1tQ/WuLt8/vZhU8DaIxoGxkC/stGirDhsCcTKVraPyvAY2AwUEThKLXM5H7qz51q9DPbjJ3DvskahSb1M98RoxAA9+g2CKed+0qpBRFffRCagMErLcIXMKzCqNbsF/jBJMUTJFRaIL9RfZow0uBzpmxT96bTleOTVejpW86jqB7Ogw8JmCrqWv6CDqqXkZEazQYMDwV7XppPKb5/c//KGtO9vqfn1pCgMAfGlXU/dtuXXv8VP1/k6kVDVMjfB4pErs0qY16yxWK6xWB0/0jEZTioxlM5hDUx6Z37Kuo9hdZA0N2QXIHUA4WHIVm5Yu9zpXtTRbLPbp6fFDZy5C6nFKXLVdrKip7btwcdum9edGJ/r7+yrLvE6nrW8keGtnh9sqH+k9d2YiHAMysKozlY90YgJPnUOsk6LLOux0vDUtC4+fHn1o+5o719c9vvuNsGLx8tqGVc01ZaXBYGhPz9lpRFjDkITBD/F1atKiaYDitKGWu6UtHatKi7z9IxP7zvVHdLSdDWSCAMhNwth0OJbiWvweCcihRDesa33zfH+Ju667o/mJHqhgHp+dC8S4/smwKjorbdLmrtYyrysQiuw+3juuSlZB8ohcrd/HS6IWi3St7gTRLgSjDkHubF9V7PUaaeX1k71TKYjdhBtAxiJDv727o9jl6O0bPNw3lhJg/uIkTa33l7SsakJnqopy5PjxyaQqc4LPwrfUVYxqQu/AKKYZn0VaXVk6nNYvTgZAqHKrvGHVarsM6DAOnzrbF0nBCum2CJvWdDptsqEor504PaUCAyTS6WcujG27rnR3tvVeGD6RTn90Z0OtzzUWUDQJgEV2AKegVpd7AbjpZLx73dr9R3v6QnGLFqsp9W9qb3HLwvh09PXj54BKBCKq1l7p6WppikaT+3rOjSgQvnSbxNdXVAKvj41MC0paSCalFGdRUjJvTYHOaGyZp6WlzSnxg/2Xey4PKiKIgL5J15Z5u1qai2TbyFTw4PETUGIdKicrcU6Jw53mtVhWNTcPBCIXp0OQOD2C3tXaenkieGY67uWVUhvXUFPTe+HyhnVdaVHac/go4uVaqsrqGlpsknD+0uXekYkUjMDEaDPUIEnBhL0MdYDw4ARiEppyaLYiKJxHvXmjbHl9FT1F3rw1+vKX/jzv/WV+E3KVpmqRaOLkROzVsRQUQFo+YX4yjJj5g+hB0g5NYGrqtsaSl4+daW9c3d1S/eqJCwmIS6rWVOzZ1FTz8ptH79nU0tM/vX9wGnP2Br/wkbtu6794+cL5S+1+9+fu7Q6OTQwEo7KevrXGt2vT2ng0hjC/bR2NnXX88UvB1wcC4Ie7miru6F59oudUcHrq07evLSlynT13cdfWW75yX9eGKn+9U9y1sUbk5Y5K3xfv62qxGNUVZS3lvtvqPfdvqr1w4fKFsAKRhM3DNGnLWuquznqv2/6bI5eiEGWASlDboRtqQqvbWNdevP/Ns1HZ/qcP7XSInFNIf2hL9YaasgOnzzgctoe2rN3ZVsxJnqq6BsA3Bu9n771NUtOVNv6Tt9eV2qwHz/QpgoWZESEq0FQhp+Nb29pdNvmFU5etgvCJ+7c/vfeYgAG8qvy1N04HdXFztWc6LRwfHLfI4p/dt10SxVKJ+8jW6laP55XeSxA9PnX75v9wX8Mqh+PWpvItnSW9Pb1Wmf/sA3eNjgz3njl1R1fLg90th0/3Qp27Y+2qWqtWVOzvqCnfVO398MbK8ZhybnjMwml3ttfcu6Hr0MmToyODOzsaP9bdcH5gxGV3fOJ92//4rrLBae3kxcGyktJP3L31P+4s7x0Mnh0c8lu4Lz2w/Vz/0Lnz51vrq1prSg+fH+pwG5+8d8fYUP+5Sxd3rare0d167MTxMGdn4zYj1ABtfKnIXVs3P/Pq62cm4w9vaEiq9qPnBxOiDbYqr4X/w7s3ffmB5kqO395Rf3e351xPfzAc+9CGuvrq+sD4lN8q7upu2HvkZIUDPduUjCobVre3OMSHuyu766r3nT5vEaTP3L3lSw+3JwLpg5fG1je3vL97VWeJYLhK6+rrQ0Pn713f1t1Ud/DNI850+PMPrJNjsVPDAS+v3rups6myeCoQKZekneurLp/u3bmle2ejixPdZTW1pcW+h7au/cxd5WcvBU9PhWsqyv/9rs2fvbP89KmBU8H0js6GLz246eE1pZWS/MDG+iKP+8Shww9uW99V4Tt48oQrHfrcg1tSk5Pnp+IazyRmBnn0R56ZuT/MR5h42jzi1lpfsdNqtdlptjXBbnkLdyvQZgeRjbkkISKQ6Y5itzAHQWEghWD2j2KFSDqCLEETlxHgrM8cOAJz8rYar65ilo5vXrv6lUPHI1CnTJFKV32S+uVH7hjq7999+lJvOPWrA8diIeWzD2zzqZEWr+WLn7rlwIlTvznU8+s3jn39Z49fmsB7sqAL9Q7Ln3xo7dmeE+fGgqcGxva+uvuBTZXlVv2Z114/c+6yy8c9e+Tcv/vfLzz+5oUfP717aMzw+Kp++srJv/rRk//5+78Oady6xlqyBqOmpFqQ4xIaDTEfBBxTViUxj+oIQSYaioBPbZKV461HBiZ/+OwrP3rihd8+s3d9navY5RwPxl7a98ZEMPXysRM/fvb5Ny/0GRbnnlN9P3z2tX/+1bO79/fd0lgF5R1yB/l2MkKkHlSMnsHJimKn29Cby/ywXR0eCz1zrNft5La3wc6eaqquOHX+YgpKscWx79Lwj5595fuPP/P4Uwdv7yorttkmpqefevH5VJzjLJ6/++WLX/2XV8+MRf5g5zZR0w8eOzEYjPzq2ee7Krg1dSUwKkIYt9nsTx489t9/+vRffusXl4eT2zs6nLpe77Z94cG1+04eOzowfHIi8r3fPee1SZ9/YOf01Ohjzz+vwCSZTmL3h6HJyV8+8YSa5hQF9km9rsJf7+HO9Rwenp5+ev/hM2MBp6j/2Yfv4SOBA8dOXZwIPv7Ms+vqrVuaa8imBVUXNMV8AqFF5TrKytWU0jcV6puc2nu0f9fmimoH5K0UEgTi6adf2q1onM3h/vufP/9X331jMBD/2PZNt7Svfnr3gedO9X/35SPPnBwNqCJskch4KJ7621+88F9+/MI///aN1jp7pd8fTgu/e2FPOMYlk8m0Zpw8d+7U5UuDIfVnL+757e/3VBW5P3tP28FD+4cnp9/sudBzrP8j27r8YuqRbWtuaa578uX9Lxw/94Pfv/7SiUB/KLXvBDiR+/2bJ37y0uvPHDr5wsuvQdPWlGRS1c4Pjv78yScTMHmi2ob2Wk/PmydOWJ3c670X/t23n/7Vy8e7aqoevb1pz8Fj/RPhAz3nLp4d+Fe3bbCRvgsiZI2XeWOHXH8gGIl0pDQRzjE1d3kjHUbIylRjaeiT6srIj27DNV+Fpd+kMrHuof+hICREy+7Tlx+cWP/+TatfOTtQUeSurfA+/cpouQsmPCSC0phurfU3lXCjo6Mp0arz0pSuHenp+eQHu2vc0vrmSpjW+iam0rITjDWppCOwA0MMU/SOEmedg6su9qzi3aqathQJcZ1z+YqTI6FAJNIf4I6NTk/IxVx82qPLoYQ+MDR5IWxoord3enIkxPlsduIpVkv2j9keZohkWi01hD3lNaWiuDgc50YCkbBqHDl4aFVLi9/t8Jc67Twnw1zNiWElpXJSzBACip4WuOH+fjkodLa1+112zu6CikdhJJTtLOcaSUE+1j/28PrSKllb3VT74mv7Qrp0fDw6MMzds7nrwPmRssqqsf1noMcno9ELZ3q62tt8NtldbMUGQBCqYQpMaQZMR0DMCyk5NBIp5fkNlb5Dg5Hujs6gavhkIahxrpJSjbuMUQT76fmpSMjiSyqpC+Ph2toyl6atqigvt3H9gVBKQq62kBK70D+4ZWu9xyHHNZjLiQx4V9Hg2VDgmWE3hKnpSFmF/a+/+KmDpy6e6h+5dOpIrdO7uooLjwtrO1eHNL2UiwVTnNNbxnF95Jc2G61rblj9b982Ph1Y07EKps3hUGSXk7uru61n7yVdhFWLD6XVUJI7danvclLo7Z+qEtXtq8oHR8JR+JoEG/TR3xzoTesW2HPhMznZPzymW3jJ3jsZQ1WdFltKj8ZUeCpAZtBaSGp6DGG6nBBSxXBKba+rKea4urIyDkqskk7y0FRFr1W+fXVd/1goBsOgKIRl++/eOK7yDq8uQf8PqcIk7vMyPAwZTqcYcDGSJlMx0zHBdVI4qU3GuFMjU+e0oqGzl75872afwNXVNwoJOMtiad5i8Vig1RApM2Iu47jssUMCAt1e9ujGaj93rUjJzmweY3jzj1m0Z/7MzpvpTjOUlYfHQRhVpJ8+d3Rdo+v2lpr7t3QfPdYTgHXCDAWABku2Ho4GMGRFMksTlg1NBsBM8Lg1lhYpCcAO3acHzIlPlmVdK2FvxUNTSjTEpWPHhgL/5dvP94zCpEIyJTgejlQOASTkiCBJFG5iDR4M6AocBcFgOqKZ1hyI1ByEZkFYZZxGgiqTW1mhpYK+qqXuxKXIZEptKyv66z95/+qa8vO9Z4/2nE1hzKGi5AVmujwBJK1o3NxU9dXPvr/KbT11+vSxcxcgZRBwUtXxMPMHp96xi0MQUdZWuKqK3UcuDnKCJWDYj5273FRh3dlSHogkQ3A/GEZ7SdFffuaD1R57b2/vvsNH4NhhwwJ2Lng/uLCixqGMI5RRlsqd8IakksFpPZmajiT/+v+8/MyBHqAwClbhRiAHDg+PjSLIVgFbCXFuGTIy+V4z7TaEqWjSLsKjA6EXeWd6Fw4HgSyaRBfQbGAi8o2fvgayf3xn699+YedffOz+Zq+12MbpqXgiNM2nEpNJ/b9//+Wn3+xl5CWbBl26uqrEWVkhjoyPuxxuv8s5hBlonNuxrr0SYjMrCkYDlEp+VUQaCzLQxOegKA1zosDPuCKqzGeCqqBFrIZw4FI5VliE4Y5C5A/9oltw28AXhHrDQgp/arHTadE4JRzXYtGUprxy6txffve5eFoD+8lIwvQUtDShGIpgRU3gqCCHDDCRJhdqAQEe0YoqR4IqfcdEBoOtlEzDrw0clCC8u90OKKvR4LQSCUPCfO5wz199/+k4ug01mx07lOPCP7MMRqob61pZkh31NOAbf2zSQZ+zvl9oPQXXsZu0MCGTlnx1CGvg7a+fGbg4vOrzd288EUjte+lAynCQB42Yi8I/xyOwAXP1ZT7x4qTGOyTN4rS4EWIyHkpOTUfvLuJq3faBKdL/ZJ4rsnJW+Lt4fTqWgA4Xl21vDI9wsoVxIcDQbtVjdoxhc5BBcSIO1vBc5JKijnAUWq/BcAxGbqwRYAzHWBD+OElAaBYcunCCIAP2SE3fu67R6eZ+/etDYZ371931RTr39N4Doym+vMSqIhKP1l+IEm+RgBGARoFzitqn71w/Pj79HOLANOsqzgNxGBF6jDj43yQT7snBRGxgPPWZD+z6xZt907wDI0cXXXuOX/j4zoZH71z3j69fgg2+mNc+d9edQiT++IFjiiQVOREVzKRQgk9SeOAkYCZSHp6RiWhK9BQfHQmFAenkIQUcuFxGGFGOlDoD7tQ0NBEuwtHpIL40+b1npwY1EdKHLtjkgSkuGlccDgveYeFgAiYHn91uh7PBgLdUs3hLXhwIPXbxlVqb5aMb2h+9vXX3XiGJuCGLeKS/P2ov5rD9JLWSTWEoGkKNbji09N3t1Y+/dvl3b16AIAlrgaRrdk79ow+v765wjfYjXkiyS7IN+33AA8tkM0xasQTXXuN2W/koay8LlUGnURQkSYygN4R1Fvsr4X+YhMk2QagD2ILZBXMASabwiQvSdCgoW6umVOuh4UmKaGcrGD2iJZgwKsp8LgHBOhi2BG3I08q6C7VHJSnIm/5MnyxmtXQZjA8i5kyTc1RJ0C1wYjOlPSWK49gsw+adTmoHxyI09+FNkFHEtG4ygckArICci+bMG+1iA34FXuYgI77LcxF7stvoMAqV0G28BVZ/wUhHNOPJ44NV1fLxswPT5KZXHNDAwADod4M7PRzZfVbbtKGrXEgLWrSIj6xZ2/n7I8OXUuLu8xNgsw9vX1eTGi1Rg3esrqnycsVFTjDc4fHw5QD3/h2b1lqiztioNznVVuK06bAF8i4MTGJNBeYqZlVUXBbRKdMAR3lAO2JqinBBoBiLnyApBp9pWeYxClFQUXLckxyt0yc/ub7hwbs7/u6xnr2DId7iKPEXy7ruVWI1gnLXuk54KiQtDbGB5yXZIlZYBW86BD+o3yEDzv3pSJMtuWtDM0qGqZPEPjaC6ZPkDwF7KpwdDVqKuX2nLumABjzixd6J0Mkxzu61HDx7EbRDAR63JCsJfyrSyCsPb9kE+QwhWYh+kFQVcOIS4Tkm9/iUYrx0cXLbKuH+1lJ/csKdDrY6Ob8NXs4U1hSgW5gjBjSHSCgh2CchGifHJy8jBKSzzm8kJCVWZGjV5TU/ePncaFJKpKGEcbfVFDWpYx2O1Kfu2+GBysjpdjWxuqyoxefSFXUinNx/pu9siDs0GnntwvSW7tpd9d7yxIQ/OdJeZGAuQEdTfB5C3JSoT1Za6opfOXwwhbIB/rxFEYUXj52ajnIf2b7GySfgEoUv1WXlbIZuT6PjlICivto72ljGfXJjc31qxJMYr+RjbjVuN1TqQZUiXcjRDDQF5TDmNN0qih4rZ0ecCQtjEkQwg1iiTdv1+JHzfZM695lbW5r5CX90qCwV6PBZUqq2r3egsVr4zKa26vSUPzlaLsYdRhysgx4qFVPe5LRdiweUNIyq21vKmtSRjR79E/fe6qD4JrAW6gl8A0HRp5i4KfAIvQlI/uTW1lY96I1OluqJ1mInXN3MMHLjYVmekb7w1srzxhoIyIjG4j3jkVfGEPJJcVWs49jQnYU5kwq64XHZd6zr6Gqqs/lL4qo+GYpPBGPVDY2/3H10QjGa66p3rOnweOwJyZWUHH0T00dO9pZV1Gxau7rYIXU2NwyHoo+9figs2Kei6fC0sm5t49bNaxsaW4dGhwWpSHJ7MbB7BsfPXRqub6i/e8faNe1dXWvWxRVtYGh40xqUW6vIom4vHg9HMBbu2ry+sconOjxjaW5oIsBrakdbm7vIM5EWhgOhDPsZmN5LN3a1AfZK61pbGxtvWbemq6M9oWo/e+Hg/svDumjHOi6EFHSvrmxetbakovpC/1BpWVnc6rs0Howkk7XlpRs3NfmrWvtGxiNJfcO66oa2dVane2h8wlfqD0vuvsmQBm2JKMbmdooN1EocVs1Z+tieYwke3g+Sg9KIp6Plac7fvtkLa2BaVRHJsXF1Y+uq7mJ/ydlLl31VNSHRmUgk4fErK3YrokO1uYcD4aTKnR8ac1iLb92+av2aNV2rVrm8vot9/es721prS3nJGrcW9U9OpzWtsbqyuMQxpVp6B8ePnBpsaa5vam4sK3J2r+440nvx2WPnYSBDsR6nd32Xv3tDt7+y6ff73qiork/Y3IFo0ipb79q6qcLrqassb2huffyVg+CKI71n4QK6c8e6NZ3dnau7rG7fmb6hNJbC0Syi15T6Htix2e9xJWTPaCiRRogtp9ts0qbOVeW+UpfHFhZdgcDU9vVrykvdiuCFwa9/IoAY4AuDg4ZiuWVzazcmwPb20oqqcDC4Zf0ai9OhSt7JhBIMRd0OeyvAUHIFonFkWF1apEkerIwbDUzzqrppdW1jaxcE3jfPXDzXH13X0bx9y9quVZ2dq1ePhqJ9U5ELfQMG59u6sbl77drOjtXF5ZU9F/qiSrq9unpVR6uvouHi+NR4NFbuKV23pmLDpnWu4rqXX3/dU9mcsrgDKbWhzLe+o1UXZcPhD6pCKBgaCwYHRxKb17Zt2bS2o72zs6traCo2GggjEJIJp8ztYM55s2OHDSUEga7yStvriv0OOGOxNpKlXPYXX1Nbn7eSA/2X895f1jehCKQ1eLhGxyd+3jP8128GdA5i/kw/5ArekCB0BMHFrYaC2F0MY2hH0PX8dgPMQZG9hupWEoKRhK6VEu0pyQ5JB5JFbZHNa5PHIolhCBWyDfoT7stq3C/rJW7HdCIVSCZlTYEFBcEKKcFBpRjxWo9VFuSBcDKCVayibNOSNh2rzyAlymkJ+yEKuGOF7IOlApI1LeIthLGmLFoiUzR0vQzPpR1a3KYrWG4BLoMyRDHuomTAeE8qIQlUnJaskRWnwzE8HcFSJRen6JI1JtrA6x4jVuW2TUaT04h7NvQGqF6SPDIdhWnJqiXjgkW1uGGVm+loJtPqarGQtthso1FE9cNjg1JwW3EhdMvCk3iAcnVNUBJ1DovdahkLAUURHZtMCVaIfFDnZQinWE3BW5KgITLXNTkdqoAVwG4JRGLjKejkFsh9oAD5DiVHUnZglrJoSUgradGW4FAo6Bir9joskjw8FZpGgJmENChXt2vJOjeUS3kI+rYhuoyUBnEL8ROGUGoT/W47AncGpkIguyGCH1SLkqiwiR6ndSKmjic1A2WZShzRLWFXY1ARVdER520cRZgjM9xER6QwqBOiFRMBQu3wR5SXbHDgcCIsYpo1nfBbtGK3PZJID8cpfFpCt0Bww5IS2alBFtcUF4RHCu2VIG/Jaho2xjDmAN4i6mqDEy0QLwSTqmDF7gF+IV3hsUGwHpyORgQbJ9rRWZKSKLfwxW4bgpGGo4qC+7zhN6KlHudEJDUFmgiCS4tXux1YxTwQSiAQSyKzpq6KVhSBymDmhzExIaAXCNGwbrCUS+F11HI4nIrCRgFFBtR4K/CCsh3/cKP9P9za0lbqKfL5BaS/EVTElQx2//XwFNiSwI6moyW9zKmMoCcnaxIkF940f5JRaf7FJM3sm++okqb8RbYjdpn/0sRszswM7bOqalaStFFWq/l1nvsO/r2CHYBY+0qPFuaWqdJMQZkqzvvHrMAsicwv9GmOHgr0X/ASVY81h1my2FN2x9QPKdZ1NjndzS3wbe6YNMmiD5GI/T/XszOZz9JwNt9MhVn/vsWV9eJczuY7rO/mE2eWRFkEma0w3sP3TD7sdfLLmZY4lqdZn7wkMdt7pdpmlQgDixb/UIPtP94GsCu6gcBuZTko5vcW9bs5LOb19JW6863vZzPiW6fO93Q+M83P7dpzptIY/2Zl9dYjjV6a95b5bnZl5lFvPrtnqPq2BSykQ3bmC5/Or0ymLSaYzo7eeekpsQl588Y25c9ema0XJWM/rlT0bKPmJzB7avYOoadJqCzknIcZhCkzl/m6+SurUXOJZr5dqWKs0lT33AS4Y/4hSd76Z/KehVrWifP7Km+/5RY0v7Z4ugAiMbAoF9p/7Ia6VizYUQ9Tl8z0bd4+fte66q2Z6Vqr8Y7a9vZVmpdtduJ3VOJbNDM7fyS9chHzuzWTZ77EefJcWIO8CXJvzt7JfZTbovlpFpM+N4fF31lU/vkos/giZlMim1m8I6xbomzfQU2u4ZUVC3YZmpiddKWuydtnsxPmfLLmTXkNdC+8WqDADUaBuUE0D+wWSHzLvUErDewy4py5dJn0C7jYrlLYzotreW8u984t1O/mo0DeqfoayZDN/LQVuKliZzajvjGcsStuuRiFk4P0iLnlObgysTUYs9Hm81HQpJRvYsru2mvklMLrBQq8ixS4Ele/8yosNPmxQWNFpKeBLWAQvY3Nccg1lm8gvfMir9ObK0uy4zlJErAbmFWWVhdbvtAoRuLJaBzxc9gMBcLeVYp414nkhWwLFLiRKeCw2xFDtbHM5oQcgd23sBsPLYe7Aa6VBXbMQ2WRZcSXYbHqB9fUhcOReBynjNH+hMzmcCXr3Q3QVYUqFiiwDCjA26w2r8dT6fN7nE4sdGY7DN0Yot1KAztwA0Q7u8Ne4iuySWLa41IURMED6bAMwFwivgwYplCFAgVuVApgZaXVbnfY7B6X02WxUPA5BtcNYbVbgWAHukvYrtrtsVuw2Ro2zafVTWzvOrbjR+EqUKBAgWugAOx0smyVJKvFApsRyXQ3BNKhxf8/BC6rMBbA4CcAAAAASUVORK5CYII=;" vertex="1" parent="1">
          <mxGeometry x="20" y="280" width="484.62" height="330" as="geometry" />
        </mxCell>
        <mxCell id="6NrCRAWB-HUcKBT-atEr-8" value="" style="shape=image;verticalLabelPosition=bottom;labelBackgroundColor=default;verticalAlign=top;aspect=fixed;imageAspect=0;image=data:image/png,iVBORw0KGgoAAAANSUhEUgAAAXwAAAECCAIAAAByrfssAAAAA3NCSVQICAjb4U/gAAAgAElEQVR4Xuy9d5Bkx33n+V698lVd7c207x5vMINxAOEtAZAgIC5JSaAo7knU7UXciQrpYjckbVzE/XEXF7qNuIu9UEg6LTfiVncBgiuREi0IECABwo4HZgZjMLb9zLS35c27zy+zqtpV91T3dPf0gPNQ6Kl6Jl/mL3/5zV/+XJqjI6OZTMY0Tdu2DcNIpVLJRNJ0yGGblmGbnOSGjG34vD7LsrjN5Kyc5pDvGTsTjycCAX86ldZn4/G4x+txmI5smelUPJFwOJ2W020YDorSz8rjFESBmZTDsA1TfuZrom+6+/cuBe5SYD1QQKMENTHVfxyWw4on4qWhUo/Ps6QaOinENB0y+Bn2hu1yup1OTzqdSmUywxPReCrDabfTZZrWWDRK0XYmU1ni8botHrhy9fLpUyfTmczWLVtaW1tBH4CLR9OZtMsFvgi6OBxWqDQE4nTfGMhYLsNycwoc48PNlLahuspvWqadoimqGvrvklpx9+a7FLhLgVWlgIxlETgYoVmBg+E962fxrwd0sgfQI4IJAARSWO5wZOqdkx2B6sa0jdCTQgbiIthgR8f2t1U31JRlUonJiQkQB8S6cvVKV3eXlmukLkposm2QhYetZ5/7Qsowp6KJirpq21QwZ6RBKMDpoxMnohvjOxobnA4LYUtg9O5xlwJ3KbDuKMDiZ3psquUIQz/D0gd5Z6mVzYKOKk9EDQUXJkLIxGTk2JmOqGPA6bKcZtw0ndFEJpNO37u1dW9bdi3m8/k3bKhT4lZOPFHPc3BrCpknJfKL0+lKsmpLpcGd8fBksCTkpZ62zaKsrq5+fGJKGmRmRMgR2JE/d4+7FFg6BTTjzJ23+H2Xo5ZOzDlPyMhk+CNPOJ1OJVVoOiOmLLlsAR2loMk+yj8gjkIyM552lFZWv/CFxwLOiOXwvXv09PuHjsVTCDBqMWbbyWQiHovzMLIQBUhNOKtqxCU+QI/X60OooduTyVQkFv/47LmSsortLU2WmYnHojQgEo+AmYYliCManiU34e4DdykABYT5coSYNQ6yZ0WKX/r4uEvaGRRwWCIsMJxZFanTQtrp5VbRtHIijgAZqIyzXUaJ4I3DSmXSsXjMFZ2aGh+xM6OG4ZkcGVXSS5JVE/8kYhHbyCDCWA6HUjTrVZWdTmdSyWRaQFH0ygg7PAWscCcwk2EN53TcGB3l8Uw6EfL77HTKdvBOkXTuHncMBXIi7U0qvEbjXCMOjMkBH80R+PVyXxhU85hSHcqRu6Cfu8uAmiqL/EUHC5GVbHAL1HKCDqig3S63JdpiAIz+y1imBYrEM8aNvsGOl39sJCZAmoyJ+thKJNJ84vGYx8XCyxJxRtQxrMjExgW6JLicQgckfCC6YsNMIPVk7CQGrHSqsaba8vpvXL+RTMawWLmdlotmoE7KpEW8WqS9d84lWJkeQbV151R5oZreAmfpIovEpoXeX8R5qpjjHD39Ttc51xGCLjn5XdhUzueYjQlX/8er9P13BaKFqS5mbaEfKmR4XKlVFr55wStOt8dtJkzUK0YiicnJRQ+gYMFebtupeDSVMeOGlU77Bd+Qqgw7kYibRsbv8zlsxBmxr6ccItHwXUs0svCT1wl4UUgymXS73Zbh4LKVTEQmJ0ev9wNLFIVBPhGntM/A4JxBX/hbLX31KQHdfL+IgK+Bdd03WVVwEZZa5NIcXhPwXc3mwvzoC0dGx6emppCqYbaKinIcOFxOp5hTZSIU8VyYMy2MqoaMgI54hVhoR00nJluXW6kIVFeJpC9QluvB6XGlL89p4G/WT7VIRbZwylJrtqhYNCFEp+NyuVitpVMZhBHAxeVC34JtKW6n48mkGcs40/SRyFO8yU4lEoAFuISiJpmgJ1NG2hTvniTSjPyXH29aBsu4tPcNKzIUQOGJ8dF4PI1UgyGMNRWlyfSkQVMB1R145PBFtZ5+gLnVelPOw9zZBbDQRf4XdqbfljNDrAVtVDWlovl+VG+d2zO5Vf3Nq7Q6oKPrI1Pt+Pj4yVOnxyfCScRrBSVut6u+vm5je5vH7Uwl4+lkChABg7w+L6wuhBfuFZEc9zFEdSNqeDwer8+HhlFJPYjg0kHSV4rx+Yc76TWP22VkeM1v4pFlWMW7aaU54ZjHJ0VRRhTRHIL6biX1sNZBJ5PGWw8MCkej8YQt/YSoQnki1KQSTgcdQa+bKSQWei2ZiicT+OYIZ+amdZGW1MDKuDifceATmIrFp9IOO+11Wbb46thIU5l4Ismt2cFZVI3X201KpoGH0U0J8sq8mpV0hBxc0701ewyvt0ZM10eNZhlzVDuHNOICOqfG9ODtawOV0fWhDmYsGme+RMaxHR6cOpBSphLpy93XB0fGN7Y0hAK+qkqOCq/XLYpLfehGwn6oGpPJMXUAQV6fH/RRLmYQwGFbLCWMifGJ69f7e3t7/X7//QcPup3ay+z2tf72vHl6moSTnS4XeKP0O3MZo5jaObN6l2yZpi39iOXdCrhdDWVej9dGKmFcCUagTHa67rt3c011JdM5yyX0PAqyxFXHsJxaapW3SmnymEwOHrwV5TdLsfGJUcug05yGw4kSGuSKRBPBoJ/ScmBVTJ3X3T3QUFwCkikPrO12CzVkQpAjP88L6MwYx+uuDbkK6Yrrv5qhQJwCoCMrEDXzzGzJGvWi5nVeJrNfU5Ozta313IXLFy93Tk1hS6XuFr7x+HxMToYP7t3j87mkljMrqr7LfUj4TqvOV1deXj48NDw2PoGQGgxYLpczlbE7u7p6evtGRkajkTiTitMaryi/smNLm0yY67b/Vr9iQjwZ3HnoX/IrTaXTTeJK43F7c3IKYJJBnzMwlTRcbl22UBlgsZxlJUFHPGzZCRhxKhzGw0+ErDzi5bsWUMHClUhUVFSWhEqQdkYnJxLAlIGlSrqaf2Fa0JKAiaDf48rYyD/CTfMZfMmNWusHUBsQ+cFbq6urXZ6FfaXuXFYVuMxB0CLUnYVAi9y3QpfyNbIN2HBodPLEiVMdnT1pxGoZFqmQ3/3i889UVYaEsWQ2XeC9ajkJO46Ojg0ODrtZaXkDFy5dOXXmrClTqX5MbB1lpYFnP/+YG1E9S40FCvwNOK0EHVlplpWWEcWwpBabxF4pjYy43yjbORZwFC588Jxx0ndilFLGedHEidJCzrqdciOk10K27hemDpF71PulozKZWDxOmQg7yhNHFSygIxMiJi3ghXlGXoFljKIAHdW/d9rYFC+BWCzKtFm3oTbrwVCwE+60hqlGMKmkWXJnQUccysWnXDpJa61yjVojKSdHWFSIHVc6NmzYUBLya55hBMTimStXuo5/dHoqGjPttMthP/HIA9u3t2cfmg86ucqL7xmsbBtTU9HBwZG+vv6z5y4kMjI9KoaWPxVlpfcd3IuS+jdb0MnSEtARVDDs0tJSNPG5binqX2Eg9GesY4EFwa4k4gkBn2jaNLUVBCilD0o4t6icRQ2kxRGBixzkKzuB3CvGr6zgbfq83kgkmnamGZAIqII3Aiwm+MVy2eXEeADUGFkD+x0o42T5UbBWL3EV0XOsXFQPrNubJIolbmTCRmQknQwzh2DmcfjKDGeJ4QgYBooPOdYYa/LUQm/2zrvver3+hx56pLm5nqg+IIVZD/UNzKb0iTJfjo6NMx87XAt0ykzEVN+9Xi864/PnL6RSzIgudU50CKWlJQfv219eFsJWtkBZ+ar9xnwxjUQMtW56GaCjaITWRmki0CV7PLKkAoPEiJjDFDGky0kxOXFzNB5n3YtftMspOugEK6lkklJQHzP6CBAlopz7WHRQaiYtMRoErXNJpFi4QayTjrRpoIOmPAfyzp14ZCdBgRu+itu1PqDUHY070tOpdGQwPHh+auiCkRzyOMV2w6TgcJe4Spp8FTvMki2G5bu9jlXE8fUOjLz5zgdtLa3btm+uqS1LJFIXL12aCk/JKl6JLlPhaCKexGolKESnzBd26DIBKLFKoU4eHBqeGJ8UdhX7uhLsTVbNVQcO7g+FgjJlAsV3D8F3oRqSoBj7lnhYf/kXf6nILkXI2kgVNjw8dOPG9aqqSpwAkYOQYWTVSx+oEK9YPPpP//SP4fDkufNnN9RvoHPR3aBAdbs9WO+5kZ/IMiygXG53T2/vtevX6DbOWOI6QcIME/ceppRLly50dnbydiQoQEpWZwvyxRKbtVa3C7ao0DcVZWaUhEJZ/0rFx9mPou+s72tVvWW9h36OGpNXBs6/Fuk/XWqNB6yo10y47KQzE7FS4VRkKDZx3etyGN6g4fCqhs1o4MyGr9T3Qs2AkTo6u4bHJrFaDY6MdHZ3x5MYx+3Tp88lUR2KxlDmx6ERtMOTlZVVXo9r7spXYxBQih9sLN3Xd72/fzAeS+C9gyJhYmLC7bGqKkvbW1t279oRCsqqSi2s9KdQnX6zzkm/M2ZZzYhkuZRjejE2PTeb5tjY+PDQEL1x8eJFzqONiUSjoNHmzVt27bpnampycKC/saF+fGzsrbfeHh8fw8uB1fVDDz+MSvXQoUMDAwNADCbG0tLQ9WvX29ramEDefOMNAAuswbiOaBD0B8JTU1VV1aixPzxyeNeOnTt27FCSkJpc7qBD2Fti4VCzS63nT6e51gi3qiWkyJQ5YWhdNVVVxs5MdF87/7Yn3uV3p1yMyLR4YKkO4a/pxMM8HRvuei9k266aew0zpB1XltSQgjdPc+Ds3p/DDvo2y2Nt27X7087rrNO9Lk8snv745FkC/eIJVlMyBoTOFt4eZkc3Ju/Xtm3dtGvXzpISsXhnD1WJRMIeGhwaGhyRjCzKWZlHt2/fsnv3PfFEDAZmLlWeO7qVcnV27X6jf4kuZemjVUBHyTcIMaLgpSMgPdJNb19fOBLRkI/5iSwWDQ0NZ8+cqa2pYT5va2+DEVmLMSEEgiXlZWVXr15tbW2tqKjA0EgJJcFgaSjU19snvj8OB26HWCXpP57q7u6hqImxMa/Hg525q2tgMgz+IBLLIbxyC/0ICfCXicaiAX9grcFL+HXBg2t4Xk5EMlORiGjTuVFUYuvoAA9djrQjPhTu+sA5eTXkTZBvTZysxBNMeUXIIS5aDlTLsd6hnmP+lCdstUeMgOo1jagFiZDt0jyDzudUNdoXOWZeFUbncAXLyquqhwaGWUyhE0BCiSGnZFW/Ah/wISeZNCOx1ImPz3R29R44sL+1uc7tzoL+6Gi0f6A/MhlGt6je7QgEvNXVlRWVZdS4p+daPBZBEYnAnqsZ1Vi8nos04TN5aTmDFevVmOodOxqNwTloiwEhYGJocDAYDEaikWAg+P4H709MTD700EOAA3gEZITDYTzHgSTMT+GpMF94hFVYXd0GZg2ZHAwTpxUKBpXQbwM9U5MCK2h7lEdL0u/18WBJSQkuoYAOHlwIQWQO4575HFl0d9kY40HGt99++6tf/WptbS0vQkte9ONLvFFPi9j1UICEw+i2mpqbZJYt1BEo2a/0Dl8bCeOBBg3lTQxjUcmvl0NAx0zFB45aA283+Sc9eOcK0DDGGMAz4ZGThMSkImZp1LczXf7wuFWv2ix3Kklu/iGP5M/Kj3nTo6hPFjzmDHVZN0E6iJiOx86ePt1xtUOcW4m2AXGUmQLTlTa2erwB7B+4ToEd6QyBPq6mhro9u3fDeMjjExPjyN0Yw0EmlviVVdUVleVuT7Z2wyzeJib9/sBd0FmgZ4QrQiUllmtpOlkxRbHcQahBI0MIJ1oVcdsxHSALUAJw0JF79+7DbsVyqaa6mt6jJ0LkxPF6uRP2CQZLYtGoz+eTmpnGhg2wIM5yRJ+jZBLTmPIDcuKPE41ESW4IwkkclukIBgKY6lHolJSWCs/mR6CIXqqs7KG/LMyUil9v9N/4+OOPq6uqT58+3d/ff/jIkbKysr7e3t/68peDwQCougDh1uQ0a5SM0X/jxrat28r9OCSIgVbLlWvy+qJeApXT0anuG122NYEeVXw46ZJpLMgTUNxaGMNuO+bKjFY1WBlvidylxOSFDv2w7gQFOgvduJTzaiG+uanm5KlPzp45HwlH4V2caJobau+5Zzco/86hY71DY55EptTtQEFjOq1kJnm1q+v6jX7yQJWVlSv0x4nZRElcV1cTLMmJQKp6SOKT5gSLAPlorfJSanf33oUogPHJJCxczOFutwx22wB6YjH0x66Ojo4rV69uqKsbHhlpbm5mJNfU1k5OTnR1dlVWVRFTxyPk8SL3cU93z/DwcFV1dX39BrTIgAuiDZEtNbU1x44dZ2318MMP9/b2HTl8+Kmnn+aGrs7O1pYWgAncGRoa2rFrl6zx5k2AOTa/OV6AYgP9A0ePHAUiWZrzOXnyYwoECjlTePZdiCSrch5kJy4xQQiIS/wMgFileFiRsbdSFbbtyYmh6Fh/yMFiSjwglBIn2zMzlxUgkZLnEvHwgBHpd3iayReQrcWiLRL/CNXqRe9aWntKAo4D++7ZsqlNPMxUjBX214TH6Jwwxhrcp8eu+jKxhtRYhR3zOTMkU2AujCRSV7t6/YMjVVVVzU1NNZVlNZVBwqo0/+crRxioyO+clQsrWOWlNfCzd7eEQaAE8fn9LMmhLv2GJCJmqkzm8pXL+PWNjo1OTU6eOfNJJByhA1SnAk/26VPX0C4DRqOjo7W1NYSocCc4xXoKrSrZcxB/EGJZfwUCgcHBwQ8/+ID7L126ePLkKZwp0PiQq/TevXtj+HERQoaUS2i7EDgLMaqTsz2d63A97ea7ny/qZvQ46TQBe0BnJBLhC/XB6XFicgJxjJUgvMhi8ObQtdTuzb5/Zk0XKAJbK3KE8K7+T/lH5tuxwENrfpr42ziBvpLXBNiW6qlVlQy6OXW1kSNsM5lJR410RN0mv7FXEnmG0xccRS/k65/CmJlJ0wUqenvlDkV/uBYdE1oXvASJa8Bx41rU+PXJ5D9/cOnsYDrpbSz3GzHHwERyqCw2WZpOBt0WaVzg8MlwLBzpQ+lTWVFGbKGO0FVWr2wNLQeyHm1fV5q3laPe7SvJ+rM//TPxShA1tJp6Reg3WfV4vZ6R4ZFAMHD50mUWVk1NTfX19Vwls1dNTS081NzUjMwyNj7eKAuxDEF1INHI6Cg3t29sR0eD7Frf0DA2NtrU1FxXV9fd3Q36gGYet7uxoREswIuHqYanmhqbBBFExSGjUaYW4SapikIKmVaV/oPuhyO01kT+isSgeKK3p/e1114D2vj+1FNPPfTwQ0xon356Abg8duwYrdvY3r4KRBb25H8AGopRX7RXC6FJImN2XxOp3iurK52KehVqdEtF2onJ0YlrRz3GFL68YlnA3VNmH1HK8jv/kW/iQ57KODyhDdsMf4tEBJsmkuYbb75J2DcLcCJCCM6jK7Gn/vCHP2Lli0jLFMX0QNdj04QZ0LtANNXPy623ehCdGnhn+X0TtvHRdeP/frPr5WMDl2NlE+7qiBWcdPhSvpK4hcYQ37AkuRGY3JwOVAiCMCOjI52dHTjElleGLIKTTXE3o96kPyCJAgYOki7AyVLJbEDEsuu63DbmntO0mvl3oRLVIL7ZoQf7QkUUdV5GJ3LJkk3mSCIadLQUQSmqsnRNcvfu3UAMy2N0vRgjIfrWbdvgPp5gImQk77rnHrhPtDappKxr0FvgdKO0pBQBb/kD/n379nEDqPblf/VlcE26zkbdS2YLwQvugQslLw8/JLbLYZCHADxxkCxV+TELC3DeIiCdCRV/aLFNqxB2nmLGQqeZiKdu3LgxMjIiRcIZDhPgU0NF6oNU1VBfv/JizuxeyRl3FuwrwUdDNUdcI/PHbePgghWVfNjkaYslMkJZOlGTTVdyesIXLFFj0OH2GU6iEBThDWNgYCgcjmKyJEnke+9+gKaW9fgTTzyGt9fzz3/pZz/96ZkzZ44fO97a2nr5ypWDBw8cPXr0hRdeaGxqpIDl4456PZB/Zdz4p+PDPzw10hMvTVlVhDCgeYrFI8ZY9JoRTJU2TVjBcDK0Ld1jRMbJx8J+SPAb3Mbsd+zUyWsjl9vaYdS02yq71puKjKOodm7e2ObHD0WIJV3HP1rdWJB6q32yAK+oubggbxe4eU79cr272tWeXz6AoK3mIlsITSXiwSS6XJyJZYXswpiNRk3JIHSQQg3lucNf+am8AbWFiGwkjD1GOxIQMAHiALjofaRQ1mXYxaT8bB3U9GaVlIQ4Ry7lD05eGBoZf+7xB99+/1h7e2tlTfUPfvSTLz77DCnEjp346Pnnnjlx5EQknkY39Ktf/hKXnrKg56evv/XVF56r9LuSyWhzS8tLL730gx/8YHxi/LXXXj986LD4CiVTSFLf/va3McCx3Jvf+Fs/A00E5sQPTf4WWeCtDbEiX7KM23Aw9Vv+5sjkdT+IL3OPOKpLyqQ5h7Q3g0jg9pYavmqRALSGyjQbGxsRacORKN3d3t6OKZMuR3nHGhzp+PTpT/qu9SEyI/F1dnRev34dHxnE3lvJkyEcZTrGopn/49Ujb9/wDrsaMy6/y3Qip0QjU0YsTDKWyUyiNNBkuSsjXteTD+4Y++Rwx6dnwBpPIOkPok8Io8YcmpocvzjmILtl0hMLB5Nhb8hXvdEdSjPfOUIWEKR6ei4pVuh3vtyCCLLQS/RgnH91cdFRpgjJZpUdy/MfX+0z086B+TfRiwJFLvKISoocpjXBEkUVPZ9rAum/CnqydlIGniw0sFJLVBWxneoWzqqis7Nm/jVySf8A2hzNDfUVZRVet7O1ubE0FPC4rJ1bN4d8nqTp2trewu4RbQ310ZTtdzq2tDVVlwfxL922pd2Hwc0B8RwDA/2otImaQWLHEs+ajhcyj+HY3tXVtW3b9pmvXenvijarxY0rXdnFyjNd3lBZ3a7uocuR1GDASV7axORUWC+vdG/BB+jpJOOMw0iawfLKjYazXEKAVW9u2bKlo7PzuWefQxDGsevERyfaWtuYurZu3drT3f3Yo4+FI2EAZ/PmzaSnYcZiQzSMpLeCOIrwooj0ed2GOxA1fXHiwlJGMo7nNPqmFDE4UrNIZHRg0LuhNBhyNddZjzY/dG1n1aGTb44nOlzeuGXJx7TiGTOWxsxoWm5XqTPAcmzi8KdDlSX19+18zu+qyDZzMQIu+ZoeIQjzfFGDS2kM8iOjiPIW8FEo+GQe0GQyUbKqrEhyA7TgI6tysgDoKP4RTpDVDVKMqpZCjkKCHKCpMiVzmalM0IqwQJkkhZ4CWLlW5Vs8vx0QoH1DFZo8005ub9+gKpB+eO9OCf0yzepNTWZiamNDlZp2p+7d3AiTUfbj9+0ibbwnEHrnxInv/+D7zz77XChUgjEC3yJ01S3NzQ8++GBHJx4cOBEs8vL51VnymdUtfcnVWe4DSJ5ur7+ixVexcbR/xBlIEZuC31MkMoHrHTiCFRK/CgaGfE87PNXtJY17DUeIGCg4gw7ftn3Ltm1b5PUO4+yZT8GgBz73ALS//77759SppblFzjBitP72liBbkiL4nMau1rpf9w6PIphNxgxWVazDYZNUghBAI50IX5vIlGzYsrWu0meUOIxNm6o6B9PR4U6HE8/ApBLQEd75kCaT+pNwMBNBlgu7wukb++yHbAORXHuj3FJd5/UNZMM7QbIAhzHUkJKPiqiBxmfOm7Iz/+wiCkJGoTspTxbIDCjUFZLtzLCZsqsqRBU7r1are6Iw6PBO8CIvS1KtWc3QCKQUqNyJaAMKcCDgCA8peuVbIuv/mx3qoRRdSnGSKlWtm7OSkU3Py6EqIDkWpGTJk2Gd/ujYD77//cam5o6uLjRQJ0+eJAaVKRQtMnL7Aw8+8OBDDz7y6CNEsCL+UL2b1+Nm9VzoutRW6jvXxrPQ/ev2vMNlecsqN2w60JsYHxv/tNSdJLcMBkG8yaH66OgInnL0BNt3WKH6hq2PGZ4GPApFGlY9Jl3Gv9L9xs5d23Zs36Ym70Wbm2eyRe9a7CKkdzi8Tuf+9qqSd66mxl1GSiUVxZE6ETdSccOOGpkY43rk6sjGp+qCao4npQKcS9QgWbypP3pxEgWq2jqTMurRMaYzDmeGxaUjLjC7WruVEEEKS6ej0cgnZ86geUdAz5FMja4ZRyEomR5oi9ypOoEGqBTRwqj0lEWLS4OBivIKVCTK6XztjgVBR0k3Yq9AuQOaKE9lqRb9AxjTVjWM5a9W6EARgZdb4KFFQUGkoOygFkxyRMWTyIpGoydOHGeCQn/e29uDf1BNTQ0i/b/9t/8Ok7xs06PBTw2H1T30YFv0HVKXxUfgoo+vxUXTcHqDJVVb6zanr348YUQvl3plbY17J/0LJ/jx5yRcxhts2PGUWbGRgE9FWHo91/Ead1Rds/saLdJkTY9FbiiuzQi+bEyyudTYX++/+MlQwlFhZBKCOyBOmuRq4E7Mb8c3ep37yz3ovUWKz4aEylckPNN2lvgaNzbvx4m1o+v8tcFP03ZMJjrVrSIXrGLXmZGoiDm4FcRN90jSF3P4U4akFtfwPU2DQg4HmsHn0Gk+PKmyUkqbw0jKWJlkpTsRkFmS90gL1/JYEHRoMilLkKhZL1FPlLKCQWrlKR+n0jPKBK9mttxRfOXlzhncNuNBgS8pcxYvKtRQ3SDWKdMxMjp24cIlMizTVVu2bsEkj9cPtjD8m3F9Rn/MTdrXpPgqLZPuCpzVMa/WhUpUdFv1ShV6c5HnHK5AeWnN5uq2+26c7fGyU5BJEHaU5DLKxmjH01ZD81539T0srHRCL0laMrNs/aNIKCnytkXqrniQdWCFM/OVg63vf/LWFaZt7AYsr8R6kHKnJ9tKEl976uALD23cUcVoVhgp/CXv1oK1y1GyZ9szyr8sc3D/kx8cyXQOncs4xLNKTXfyd5EqLO+SrgMwABPHiJG3zb7RqdfO941blSnLr70qNO7pqkqMyfxazGUluUN4cfahnlOSkyR5TVb77Ge2l5VJHi7seJzn+txHlteoYp6aYb2de7ugPG3G2d6cHbUAACAASURBVJcqsbpH3lHmdVY2ymadnQhUz6luXFKtVUdOf2a/nNK08/mMv0rU0WTDNv/GG2/+6Mc/mZicoiYvvPClLz3//N69e5mQO652/NVf/e+XLl3Sy7olVWkuAYr+nX3LvJ6eU4DcJsw7n3GKftMa3KgY0eUvL63dRuqcaMqBaCO+fbIGpgsQzIPBmm2GXaISsclSV4/I5bRKOGxlmoTt2+NI39ce/N37m8ri3UZs0EhNODPjVY6xL+/b8Hf/7qU/+62Nu6sN/D5y6SlUZ8ghuBL0lYd8jadOnTh+7INYNFVe2oYriIhqWn7P3rtCdZ3d4hyoGeT0l31xmerFMRN4kWWXbLqSXRJRW9U3cz7SAXM+ItDM+ahJkVIlP4cD5QSOG6zlZMWi7lzbY0FJh2oALl4nGf8ECAUJ85odaikwow71XeBDTSCrWn9dOERiVUUeDJzNCLPCFk6a55JgCbZYugyXs02bNhFdsbpVWXYn6WG21r188+riYgywgNqYt4URRbkQcPpxN++1o+xjnyQID0/ASMLlC9WlHKXh8Sm2MkPiZXnNVh/K2unKWjd525ojq3CjZZXa6d9/Ykf34MCPj/fapnv/lsY/fP7+p7f6a3AnUiwqvn/st5aFOsW2VNXGr7DMMnxOU3QIGfY/cZQ5LJ9thJlbldSwSnCjJl2ZrZWqEofbmtD/uOteb6jK4wsqBYY4qagcwcIxQtRiKgKgzGMw4bvcswAZbki9F09aKbUhjxzzHsieX5V/FgMd9ULQJSsNqWXBrMrJb9HkqLWmQHIxJFl+M/T7mV1ZYG3ctJGV1JmzZwm2+H/+y39h8z+s44hjgNG3//iPfX4fg2e167P0luSot1psvJwaQU/Jkc1CFZc+EV1kTpR8cJbHdteHra22r4GZMcYUJPu7WCFXa8ysQBiCtWFfpmfGDRukOdkZSoYJSU1R6OPvu/TKLPsJRVdlwzKby1x/+qX9fjvZ2tb2wmM7N5YZqJ1kVpRc7TKRKllHDvkiKwvb7S7dtvnBitDGxx78FjvZBEOlgcDoxf6Pb0xdtg3UykqWW51DDxgZYkq14rPM1mCaAGpPAFpbBEazCyavl2FIxxARV3Q1VAOnD4ZoAC9H5ZoDdE2aiRt2jATCAJrSn6/pcRPQmVP1PFpSTdCG2kqaR9PVdW3Y5/HXlAWwHBTC2ZVsEi8V92jbwC4O0LDiS8ZiuKuLYtu2u3u60XcSHbb+EAci5Jaga93LhemPgI3HubA1ptqsoJrlVOTuRNocjQeiVhtZLGSmpbvh0ExmfMS/IeYkzlf0CzRIUprLzCMJJVTAFuhF9j1O4mKK+4QM2LVpr/iLYQY2t24o/fffeJoI5rKArKeyb8fsoUeXGo0i4cgFgVfLdpf4a1xWoLZsCzNohu3d/E6vVYI9yzYSq1150VNgKJMVkrjsicqUmqKPtO1YJHr92gAbbut5XUXDFXUoTJ0FOuhgN7c301hZu/EOHATU8riQbrqoV9zKTTcBnYWK1j2mu67v+o3v/uB1fzD0rd9+oRInZAWlxUPyQq8odD5bOFSDqricff3rXyda/Qf//IOLFy5+9WtfI/SJYCu105ZiqEJF3MZzmmeoedHMs9KVhSKycpKddok2isdiIg/SW0onN5NcAiIZ2+Ur85AXWCXPl3EqObJT7FNmOf2MC/BGjV/tXSZtUjSX/8T/W3Y6zRDBp2JgEIBybVmNxufKpDrYogKEkmOEjo2nI4Sb+0iEK0NLmsn1LO7LL7FiyU+VbAdwxIzOjVJXLtA41RzV7llH9vTsk7f0S9VD3ihaHDyF0OrIproyrQshBWykhUrkKeqQfp7NZiLBMrNIMTJDqDdJ+JyIDWt+LBN0VO+p7nBYXo+P6N40+RwtSRUp7tXTeymubIMUj8Mtssegc9fOnffu2cPeWw8++BC53h5/7DFAh7BybSlXA0kO3QFLrYfmTRlaRRzZm4q6V7hBqFfczUW8fGm3oLUR6Ya9WtSMl39Yd+j0TyZEnFVS+HiLhZDlkjCq0DKT9um8yDwr7DuvIVKmAjHxt8OJgRGtNT6yXfW8u5dW+0XuVk2RvDd8IX2zl7BiZywWJ03XtYGRjW1NHhcLRrmKDlWgBpWPJJYnlaX46diOaNIcM2XXCNZcuHWNZYwI8Ruwst8btCTtqV4uFu62JXHLvEZkE/ao+Fo5sgpetMhyq4Z24Xzh5Jnvl3MFGFTQSk8HCjPVQe/RHcw0JNtjsIoFgDW14kR1de5RuJlz71ru7yzo8BItn8x/f8GSuU1tyinUri4P/dHvPj8WHpyIdPh9iHB+8sqtTg4bwRuZsGzW4XCVSDR+O/PYY48+/dRTBHlC2mzeyeykJnUX+gmTFWzHgifVE1nS5+XyQndTJXBW37nEdxQqbhXPqS2G1HqKHTikqvL/Qtxlypb2pMH2+/x///ffIaukBBM7za/99ld37doF5ZU7WX4cKk4odPAKBgDApaR6duxd5iRXqOxC51QtZL4RYJGE3IQ09E/0VUxFPURPAX+ydqFSMkeWlzR7Bqpimdh4ePiXh35kWm+rZ/kD4CZGoh2mI+Y0vI117ay8jDTKIO2RrP3o8k2GCCKC5BlGs42GoUJVnHtOSISnPTGrIoCq6GcMxqjzxe7PgXMsRON1yqY1i8X4PY3iUnH9qxCWKKlG9EZKKy1LSCwHKZGrsou2PJzlJN7CHTq39sv6nWUC1RbpqCW8ysRfE5sizYnU1fgqjca3Dx36+S+v3LfvwD1bWqxMRGRUEdqXUOTNm6DIOnPCRL+jIuCl+phR+Beai34Hzsn1CM1SrFbUIT054+bs+FQS+vw5QZ2UblKfYl9RVD1W9iZdNZYehOH6/SRpI65KJlVRHRSuNgBRVV3O9FhZVTbQTwpaZ6DE39raSrYTpVvNH9BAfwqUIxdyu6MpzdFqCjvSFTOqJfOPeI1aXjQ0XrcDj1xCIhh42MJZhXlbm/YMTV491zGWsqZ6hy4RWqweZhCCj2JMdmQ8FcG2Lc0POWyyTSH0SANnN1LmPxnOGn5nvJzbisEdKc0hoAVpJAAihztAj9ANWJBFkeItJJW5imSBVondULWSLpHpMQcaqi2qRlkYFCdseYB/mDHwYhLE0Rtc5Kq6okN1mhpzvy1/5hkYmXj1zXe2bmlqa3SmU5HJhP3hsdOXus2OnpGm//6b1X5NirnvW73fguBZlkCboPpMrWELDIUiKqEnFRWMk9W1qa6TRume0bObRLDIKStt4EK5jg9FCJEAVGuIZiCnIgOGiS+eiBPoMD1jzmqEXVlV8Sff/uNkEno62D22tEyyzc5sae67GhkLTDAyElgzCL6ptc1aHTLElD3fcrm9LtyKnWryEXCRfx3efTufTaWjF7oPG9YkHgDKyVH7rjCYvdVl2/ZuearU3YqByyYkQsQKup2bshiD6CDcgJlJzmtw4J0yhKXJMr61xw2X9SOz5rM8GTTtdHdoKlE9LYwi86gKyfQtO3HNPrRbprxbiJqdkHO3SM+yW5QI4gCo5XD1SUYZNUWa2HyjyYwxFe7suQZLSKfYGWRbtl2QHMNz37PCv5cJOtRzaHj0w8PHUnZ0Q+0mn9sR8ngqK8vIPV5a4VHJkGjqXPxfvO66qcvDCM3x+RImJydlFy4vu7OrK2q+1d24eB3yV2WUmK6ptDOcdpf7iHxN0EdjUaPE6/ThOWEYo7E0mYQqXGk6MpZyjaTNEkec80trc5G1WZHbhLOyQ15Gip6dLUNtLrQgm7nJ91dRrswdMhyYiZEihZ66SjJc1HSa1RQXLoe3quCZ2XO/7unCT6xEg6WR8hGkBXoswymp3POHYAf5Lh49+NteX/nJq++nMyMpR1SBDlmdghUVO7dsfrqmYpuVdCZt31jMLvG6Ao4kU9lgnP0LrICVwWtgKu1CGx/yuZ0ZrIDWSNwO+Vw+k0BCx0jCge0u4Eg77fRE2hlNZUp9lteW3bRnNU9oKCDDyaw2R9EahsUyW1dXizSigTKrqJHbsyXoJkpp2TOckEtAFMbE4x+d6B0ciBvOjOVhe1bjbK+4ciqRivvwbGAvwhOd7+MvAYk8RqLcZ/7rl75SFiIR3er1ilTW+ou/+AtFgun6q583P9Da7ti5bc+9u2urNpQEawBbryf+1KMHqspTNRU+tiIyZvXxzQtccg2mi5SpgB4ibyGDZGho+JXvvcJqmHwusLqaAGZ386J10dUgfWUkY738+uHvvXthy8Z28kGfvXr9/3zlLW+grKm2fDSc+g//8KMzA5HdW5tZavzX1z985def7tzS3FATyAo8aj6Z+R7JHNjXX19f68MDQ4GgurpqvYsJSfanF21xFmtm0ld/V5uvIuZkZcQZdVEDVQ5xP5eM5mpTaTn4l0x64phO7YEaXbwKopw+9JybbZ56vZwx2XEhl7GUVwqGSb/koXBmCSvwXYmmIGLv0ERtZYjsKHPmA6GLbSG91VS3VpQ3RKOJiUny6ZBGp2FLy2NnLpW/e3Rs+5b9FW7XR2dv/If/77XymvqWmrLRwbH/7eU3b0zGtmxscaQT//DzY//89uGtO7dhMjt8ruuvXv55VV1tY1VoZGj8r17+Rd/I5I7N7ewu8fIvjn3vl4ext5Z7qcYsboR1ETuAfqKUiXFkWImfE7HTshK00YXL9CerIpHQ8Aqh00j8UFYawsUPCtIKLiGcEJTLlIC7gppdxebe0dXdORo5eW3q8oSrc9LbMeXtko9HPmFPx4S7Y9LdOenumfJ0h93RpFHq99y/e5vfK6rS4g5pyHIyBxZX+ry7UOU6jc2tdTAPbb7SOfyPP/zp408/sKtte4/HcebMxc0b720oK4HzlzTgacQS4GG6UsLx5Cp95ZVXiLpCqhwcGDx1+hSJn7u7uw4evI98F8UXq1fAONsy7GpZ06ecPvDTyIQCzpZqd8BH3r+M20i2V/sDpTiFsK2FsaE82FYdw4Kn11yqDauGJvO6osAJFKGJBPnMqAnsS5w91YGRBUD0Nt+5Z1BZyuyqJk+AQUGMyNd8wfdSw4XYkHPgMt09hOahixTskJQmhOZJUQLxs9oulFCTMGNjlqSpflJJ3qVdHAq04tZP5WxOi5fkc5ZvaXjAZVfHRkrraqs3Nm+qCDWN9nf4MmOEpLvsTIXfaq4rK8ULLZ30ueyNNWX1IY8Lc63pqKsMRuPlXky2dqbc722vLq1iD2M74/M4WmtC1SUogwivtGvLvS01lWwSoBZoBQ7BRwk1QcRRq1DxCDdJRPfdl78Xj6eVeUR6Qy6JFcX93HPPHT9+HJziJxNcSUnw97/x+2fPnL0gAUDUhoUX3Wn53J6yEqPEjUnXnSLlc74bsvOMdBf9TYUCdjSdQs23FnxrkghZ0YCXLWFlwN34E8jG5cwWtvPQ8U//0z+88s3/5vee+tw914f7/5e/+uuAv/rf/8m3qsoDko+iiEOIKoTIKtN102cihT4ziyTqsqYSShzSlX7ve99js0ZlEVQDiXenU3/0rT8iZ3PRKKDfKZ1DOpZYxpl0sKEEUbmSAjkq6cjTPjVVsZRKOdxeKy470qWt4XDMZcdbm2rdzEdcntt39lTSfP/o6QP7d5e7JV1pbuE8974iSHXzW8h1T75HQEHfqpukferZO0g8J1X/cbAORamsMQXDts/rA6SExQuQe9H3Qo0UDrTK9oKEpUpXaMOg0AKRMDw7qUnUhDoYV5FIVDLhsgzGDL/ilFANpCofnOu9Z3NjyM3ySr859zf/RrXgIYS4t6+rrLSkxBdwOXxhCfUGcVKeDKsP9zjbuGOJt6W7R8kx7zTYmJDnwhnJ6+pzYntPpg3XZNoRcBp+/JhteywjGX69DoK4UjGbFGEeryPtNaJzcAeAIY0IMT3HTxxHzd/a1orGDQ97OgUg7+zsVqocJSnmlMRIoGSbZpZlr12pOi6Rbk97e9uvf/3OxUuXUb4J4gC4lqOuubFlxy6XJ+jzBFWkdK7NomVTUrCcYLcF1+hg39H3fvWtb/xOTUUpLdJT72x6zf8lo2w5+17NL6mYM6r7hAYiohrGvj07/9f/+S9ROhrsZ+bwVYSqTCO3ZZncyS034SlVFB9BMSlajwkRj+Wn5lN9z8zqaS6CxbEDd3V3IaNSAKnt2GGdHW8G+vvZm5RNR1klaBgqpmn6HqoBtqC+8RkRE08tmXiMoCRwVoZH20ZRLptZkZucV6YiJXYc4Ra9cq7ixb9qRe+UVVWSfTvyUSBUW5NelCqyy0NuDuBstrYia3AAOqKvuUlHzetM3QfkxHDD7MxCZI9Nio1clJciWGlxiX+Zw2fqKHW9uA0TPsNDpbXNkWIJ09+i1IMzcmWqUZu7Of+ifGeLXdrhxqhvuE223jNtTyZGheBDetthx0upEvWXvQHsoEXkvTA/Yy5giusIHMJ1y4iXYZWXh4SyQVN2rxT7u5HxGkkPd6oVk36nrov8UCeUeCPadrXqVL8MY3h45M03f4mlkR8yMOQZuRtaff7znz9+/ET/wABnoCxojqMsoqbcod8gD6ScqSiJVydHhnCg082Xiqs7xKagKoGSh91TSo24lRKVVnFwIw8u+1iyIjkLllJxmbCFjWzD60w3VxGMH+NURcD9P/3pf+tyetn2TIk50gE3BZ00Er2o+1MqvRAP8IgALtKUooushEHm7A95sQhaXBELQSpz+tSpV3/+KiMNNn/4kYc3bdxESqQf/eiHIyOjf/M3f/OlL32JvW6Ko5EwRZ451aQkcM7rlcCrYnWEdaRNXJUaSO/qv7oTb9rW4iqyrLvQ47ATAwtMns7OYpoF+Sn5rJ0ytvOHBJTIIdlLVD8WdcxBpZk/FZCg90HpozlbOeSpQ+gqQdszX6HJiISESoO3Zxd0RVViCTfpmsx6YE4T1DXGukjtZEQRFAE5xGDHs8p4zgVuUeM2q4HP8rS2hKnm8RFYwVClCAl3KnxXBchvMyGMolh4ziE9xZsU2miFva5zKBR64IEHRNJRIShZVoSOluyFyW88Y2WeyJCk3OkL+JlWxOtY7pSxJMIM3wmxQLknp7QAJLBGBZSNitvkjSp5mDK+Y4eVeVXx/KodywEd7G3ouqAU2wGjAlOuHyU0eHx8tLIiRNY2b1A2LpuMTARLSgB6rZOnCQpbNflmNQhbV1f/FNPz9vb6yz3X2DI0GCo5dfqje7a12Zano7t369ZN/d1XoxmjraWl48qV6uoqt9M6c7Xzns0tFW7xoSJ31/Zt28+cPYNsz8Zb9DBhWbKzqOXEHQ6xXzp+NscvRNJCDKnZJjsqVWdln85xS8GHFnrDap1nPYW8jaJEv0D4P3fQWYx/FJRzZBkXU/v0TStRMUWJQnuSzCORRBzICOQv8hfyDkNS89VK1GNms+a9utALstiU61ml9ICAAjNqkN704Cbh7zn35mQbBQQKXXRBc24DCFiaiqzDW0Um5S6bNfKpU6ficRSj0gQWyJqLLacDJc6FT88NDA5JNW18ILwtLU2UIRKuLRZGhZ/iDgqkUCI9IjUQYFX8K98EE3ETlFtU5IWCw6JodVNaLH7DkkEHYHz33XcP3ncfW31SxR//6EfPPPss2SS6ujrZkO/RRx6C9ckvAfnZ0relrY3dQZn6IA1NQ4Zn7TO/QlBtaOD64NDY1ra6ro4rdRvq2Djv0vnzm5vqSFzbc/Xq9o2tAzduhGOp5vr63p7uEvaZcLsufXJq64YqozwIllXX1JAR+cqVKxOTk6+//vpbb73F7ktUr7yi4s/+7M/Ky8vA/PnvvfUzdF5W9Lv1sm6xBPz22YQhGtU+2XMqBjOzoy79MnOBc4svvPXHNQLqqvIXrxLOMGnfesm3q4RlM9m0mKOWWDp/KGIimx0nEugTs+oYbuNgn1Ii4Jh6SaugJS4cZFk2cbOSzrTklOrvv6Z8C9FPs4AwiWeBLAr4CHLVAhcxILL/UyqdzKSSKJKRzhQs6nasFgAtuYNFwJma+vmrryKW3/+5z7ET1vZt265cuXzk6CHm2J+9+jMmMPYOp9Z8OXr8+OYtWw4dOlRXW4t9Y++99+7ctQuSzuEJ3FT3796GdGcZ6ScfuY9XAEN/8PWvoQjAHvKlzz/qMFP37d0jGkmH8fSjD6rZJ/MHL30N2RCa9vcPINdcv3aNrY2RuthrdHJySjbJYZuUZJL+mDv7rDBLimy8wkUusTgdL85eCzwncqUQf5pjhJ4qQASL9RILXtHbFZGEVLKOUFOwpB+ZPrB/Yb/HaxG9ppyVbl7RCixamHCsjMdFb1qNi1r4EZoAEGqJJVwtZGLnbnYNwwolcqqSCkWskflT/gV0FJXkl1IC2Vu2biaLpm5DMhl/441fIMIwZCoqSp0uosxoX1Y/IeKOhiax3NjsaDA6MgTvKJKvzvw8g3RLBh2aR27Q4aGhqfAUYgvVhXvIXxOLRfEUgK3lr8dNwgT2Hx4aHGSxw3Z3PIKVhO+QRmHKrFFKsy0MkEpQdM1QqgDTrJlVp0BJCMIqSegij6NeSUalLMv6yY9/3NnV9dWvfGXPnj2ss06eOnnl8pWDDz4YCAYHBweiMTZWL971YOlspSojdZcvS398JZ5IJJPYoYjqVrKzcOLMmmhqaweblXjbMstABEbZJN5DHBKkovpR9W3+4KrlSEyDzjJftbzHZldleWUs/SnpKjUcgBpGDXtzY4dlBCmUgcHRvSDmiAOHuk8NEqV4FtjQ/6t0IsyyAiO5Q8VvpVDh8VRJScDt8R06cvT6tRv6ur4T1dvDDz9YXsEmQmKwVxycH5iryMpLAx0qQmsP7N+PYRULBZPS3nv3UlWG+tdf+rqijJirdap21JaAsih3WbQzINR+e7qEwl2jyD/zUo6Is9ovxGbTkHT6pz/5yYVPP4VkFy5cYEeK115/DR1q3YYNe3bvwYL49Oc/X1lRgW4SM/CsQgu/e5lnpTn5Ot9smtT8ApEWctZYZiVkW6cIMh3ONdkSNMFyzea99AuW6UJKzGW+cxmP0ZtqmQB/qxEjA0ZN07lDLmNKSKdQw1HbZbxi3T6iWWOhcZwf7Yl4/No1XG9EdSwIIP8wJkRLzbOih8kWIe6CKGS4Z2RkCJBi128GI73McNMEBdZZa4svglJyY2CJRiKyg6YCJildQhTZfl6s+/Akb1PikgDdapNxaaAjvGKauKZSLbwrBEfcbtVIk71K5J881qoGyM1qY09JN6EOxW/zD2mrnM3RdP4dM89QBhm0uZfNJLGUw8TgWv+Nfii+ecvmJ5544ovPf1GZyZUBYvGybu1qvvDCzSpYuLBPwQtLP6nIJiE2ytdmpsig2Cd/iFEcaXTpL1jJJ9AjsNSF0dHdoNqfUUMoMs3oTFrcgAWAiW1mi5ZTFUUSrcZSw0mVUcB8JJe4QUSFGcLCct447xlVpJJRiiiZCqol5xz+gFS5JY+6okqSYqHVpctXBvoHaOSmTRvVYkrMVlwWNbKQVbiNx/lVVl4hVM/XkNgKwj18fh2DC1V07KjuiTk1mNesWzqxNNBZ+FVZppnRpmk2Wvip5VzRtGROYGmnoX3/vn0tra1vv/UWDpoXL15Ckfz000+XlZVB8SI6ejl1WD/PIEJOTU7BWHrNX7Bi7ApNDmnRHcJKq9UtBd88+ySvJhKCWQr5F4+q6arYiGlRkveQc0M9gUkYeYfFO8KyuFDnj9tY+SLat9gtRTCiEjTmqjuzZc7BACUhMo8jGdbVbiDKsKamFpjOLpE00gjOZZGOYQDNR0fHcEEEp/L1JLqFbeZL7GC+K1QXzcW8xdq1rGsrAzprUNE5nPeLN37xi9d/AbMyh+MoVVlZiZqJHYRxCPzZq68S5EI8tJoR7lw+LaI/TQMRGqUVg3MOqwifqRmAS4xekRo4bjsxGAWkMfV5RZxJSFofjA+i+J+aRFwVK2fuwEmXOuOqjNIQo5sHb17lWPJZPcDiiopyphDVwJu0VJQYaburq5tOr6mtqa2t5QkUpmzEShiQPK9SLIyNShyMjAJZSVlMw+wolRcLOO2VULo5toWbvHpF6L8yoJOtivI1EHaXiXe1MqeA2agwmLobm5pAGbgWzfHGjRvPnj2LOq2svPy/+zf/ZvuO7QL3a0HAFemFZRXCIjydkYWVOJLMcsmR4rJyuMmKZgXWKcuqYIGHdI+YBgoINim7fuM63ccCnAMV4eDgED9pC5M2NzBIIhnumsI6gWd5dXW1LNU/c30KCuMlEAwE77//fm1dgm4zW6nF05lCKgqagYGhV175HsBR30DafFkX4uvU0FD/hS98ASpxM2r7ocFhWZUJJwgGYWogmEvUZurgFcD49sjWsjL2L8seRQhk+XuX/2VlQCdPFxosLK68cuSYsdxafh1nPylktG0chdgq+z/+X/9xdGT0+//0fVRLTPlQn/dv2ryZSijL8WeOQ2eTgpBO7VOnyKyUi6rFeXUJehFybq2jRaZiFLCSuKHeHjItiP0X1Wlvb09fbx+GG4mfUE50CLB1tXXoR+vr66uqq0dHRwko21Bf71uNKK2VYs3llgPCYmBdbMBnISfLzwgsljXKChSwUYNMKMYXfM4rq4BmN6ZkHAuhtXJPgSvEkvPIww8bDz/Mbbqa8hSJIHAalC9reqwM6FBl0FcSH7hJRasGO0FACZJjR5XsI/FJMi5W4oC+hI/zrsuXLoE4zI2yeYpKMF5eXoFS7dLFiwcPHpQESyvxunVbBk1GzMnh6nRbNaU1I5YEye/L0n89NcI2UL319PSwYhobGz127FhXZ9fo2BjjhJ6Eb/SoYAWBG8SZc+dqqqva2lr37dtvlBk4oDY3NfuD7AysJvB11a5l01gyAShry6KHYLHAh0AT1nDpZT4MNv6qBZR8JAbFw5IJIkZMnLYEjDgJNl25cvnU6XPqDfpRBTR2GneWRx59hMAVTUt9v/6+esNneaAzu8NJQmk5SIWNiSqLOLQHl3aS8juDZPZWZCFkk2Eq+wAAIABJREFUVscfL0ra4i6K/tgwELmffOqpnTt3nvz445+/9vMXX3jxuS98YXJiorW1lUkgL6kWV+Q6u2tOh8/hAvUTcsr4nNEVwpfalip85kAVsirR27dAKvi9r68PZQQeIlevXjl8+EhfXy9if011zY7t20kGUFVVLVrkVOZa37XLVy53dnZ0dHT2D9wYGhp45OFHamo3dHV3E2AdAHc+G4ijwJNj8REOdLz3znscLa0tRB0xnHB4wkrLsBJTshZ0iYl3ufAjYQFFTANOJMQMhEpLVdlkyA+Pjg6hmsjJUwIvYJNoQeR5ydkjgqeashavzC30f/bR5YCObqN0uqow3E82SOwM0p6ZrCDB9ZKXX78qlXKENULfGr/oNwBvDfUNv/+NbyDmlJaSsCH0xOOPI4qn6uqohgbsW6fO7SlB+nwGlsyshGIHPbexnAR0FO9M38GiEkQWAlgOnLNvjdIr33oMKD3dPSyRcK1iCPX39zNOXnzxxUcfeRQNKJWXdBx0sG3t2b2fXwMD11997dVjx48QZzQ1MfrMs883NbaxLmtuaSrKA0BN/1r0m8ucK9+41SoRaCAYa2BwoLOzExk/GIyI9Go40HnpV+ZlW7qdwHRxEZBlq6T0EmdaGZV2Y1ODhF+JRll0OrCNXoxj2SR/NMFcXGLdpYNT1xfoUFVENdZQ4jOqUAfEYb0NFRYc6hokcAog+5ybbSDZ+OKWukc/DQWRdJjPeXVLc8umTZtFRFX5A+cokvIweGuvvaU6L+HhLOJkn8BIQVwMWkIkG7IvyIbdMA3O2OwkE5PI7OyIyll2NNqypGVMrrcgJkLJkVxgoJ6e3mNHj7HIQjf81a9+ddfOXfSdNtxk7foqzpnhsqGx4Zvf/Mamtvaf/uSHfd09Rz58z/94sLK6CtMvYdaFwkoLUfrO6PhCNZdzYuBDcwfwoOdiEEksi8w0ghv0fk7Kmf040g5pLkwTrd+FixcZruKpILeK6ke782i7VTwWJY8PADQ2PibMBEctVJGVO78USUeWUZYEc854CNUtQVhgkIbORSsmWz4i/eDrfesNE+dVZRcEdagA9M1ryObU4dbftWijVuOi4GQqmRgYOn+9/3w4Moi9DvBxWp7y0oa6mh0V5S0ksSRMbyGthnSTCOGrUbdllSncbpAuDlsU4HLs2NHunh42pfjWt761sX2j5ABQcy89yFILEd+F+jvILn9hMzZaa4890+AaCTrO94WvXroQCJY/8dTT5pSDoph1llWbO+ohRTqm9gMHD7S2tRGNJR72WWdB1cEadma3CTMyymYCs3FWRhGWnZxEhDSGcC0ZGgK5WlpamAAUbGW1RdqneQ2oUyzoSIVV5gFxtVeE0Ac/yfoh4t7NWFyQ2WGi56KRYhmV52/2TCEC6Gd4XFBGZEfhV10jBdOy4lPigF6hzsAcdW+hIlfgnNDn1ovRRWSMWDx5uevq+Uu/jsQ7U5kJ1IJMT3ghWOalDdWj7e1GWaBG5feRFs93C2Q8q42V19EBRMLuzNXnzp3Dj5x+Q8bZvGkzw4nJgwn56FFm3OMsuJBxSMLR2lT51MPbdjR57Knr/W+f3ZaI+ktKP4yEu65evLZ9W2tb+9jYuADTijjvQPYV6LyVp7ZmbkQSjyeFJ5r44OQkEVkcCeAUxBxCSUQQhg3IGi7ZZ9Uw0QflhEKl8AxXpQRViirGJl0hMtHKN2NeicW+gyUi7RTI0Da4GQXdHHFmdCq6GI/XrTYUW8D5cl4V55yYZo8cKfUZ/iKCCrJZ1sWLF/E92759O8QVDcgsnLzZC5Z3fUVQh0IyRjyeutTZd66n31+7aWqUjKL96TTOOBmXw1lZ0WCWNp/rGd3RXOFTa/dpcVioQBfJP4zt5TVitZ5Srmtk3oCzicUlS+k9u3Z97v7PMW1Qf85/9+XvHj58TOwuFhvFxNgq1gj3O8Nxb8SXHhjB3FWfDhLI0REJ944MX7l0sa1to0q0Gvf5P1MhWgVZHZEewa9Q18AuwgLzANNGzMFq89jjj7Gq4EFQR5hjBvTwUE4LkX2exGsoiZQDYVLP5YXeuDLnigUdNHysYiRUUQWd0VCkYuGRpR+S/dtpkcNDk2LpBRR+Arn98OHD7KfR2NT41ttvQ/e2tjbqDHVFuzG/awoXc/vPRuKx8Vjy1ROXPYFAZfUWp2tTsJQtTlzxdPLieHy8N+XMRBvqnD4mKjSFmpM04igWhLZi0Zie225/i5ioSOFIHQeHBpF3qCQJ8QiuAnHQ8f3Xf/zHM6fPBHxeM530ZCa3tzru39u4oz1Q6Y+44pPnLg3HI1aF4SmzzU3uwGA4PtBzjR3rAyUlJJD7bINOrud0X0K/YjoVomacLoutWVmIZdXGMj0J6qgCs/PU9HSlzqIhYbBI6th82PCqMc5NQEewlLqyKyKVQtunpBPGL8kDUaosD3RUW7ST/kzwvaUmAtdk5r1y+fLVjg6dK5MzP/vpz/CvR8381FNPzcL5W3rVqj/MEptUzMMpx9Rwyhwfxx3H63GWl4bQmyIesrFfjc+btoizJeQ1v7rIsiNTgpNdVXLhtate1+JewNowPDXF5MouHePjE6zHW9ta9aOolo8eOQw3IJtVeSOP7at+9GCwys+aa4i4iE+7p177qGuvs7HUTHszRqvHc5atAcfHCHbZGAzGozG9nl6wFjI9zhiqWiQoZuQuWOJtu5AVYme8X5+ZLebwS/mnGCZJO7lXVlbCIzdvs6yvsKCr9LKzy1z5Jt8EdERgV+YqUiNMs7JSyszKtrvEis0RCYuiSu4Viq6zDmiMoM4kik0HzXwinQYiWWqdPHUKeYcICfB+NXyjl9jo4m4XuwTCGUZSI+1wpm2nbfnIeJxg9wFWHmzHJVF99Akp42TBK4UqcmQHFJ6TPl/hQOri3r8ad9EXGPiZq0ZGRzDFkAYchQJVp19Q8dA1NNrrnHzpS/fsabYz8SEHufI8ztFJ5+sfdndOuTeVWiSjdtnpEsKFDGMsEpmamJRkZXiEsj5jUOkxBQnmDS4Zf+qsSLpZGq1GE1elzOnKS/3ne9iLKka5xrFDAFdnDQsZU0rnBzMVoEuh+hZ7X6Fnl3SuYJz/dAmwC6YQyTLACkXJJfluRQUo983r5umHZxFhRpmQQfli5x9VTFH0Z277RE68eOHid1955erVq9SKMIgvPf8lsAZdGhLj1q3beEIva+c+ui5/i3wMfRiL0En+YNaRfLayK5LEl8icJIkAZajCVsq6jH+FPCFhxxJcoym/AP3XvtFUF96RvJjqwADKEltrCdkZUaYEw64oc7Y1evq7P7l4vmNoaCxlBI+eHTrXa0dcFWHTnWJ3JjqRPP0GfmFpNv+AG9WKeQb/LcSKC51fe0Is9Y0qPpaAKZUHR8y1M3TCXCOcaoI0db19vdCWwSk3qJxWUDtBQEA6jU+T2okoywpQgkvqrxDudhHmJqCDOhbIydtHBBnUwVKLlcvUlLiKLHgUahPDSW+QImVK82cc+V+aHjKm5JMnT/bnbFpp+lIlJk8IzcV79+zZsnVrW3sb/I1Z5D9/5zvsDCFD8bYReUEKLXRBYEWhi7iF5ZKgiLuX/FaQJGAk1ykBr1KiJGUGUARU85vBDl2RRDafk3rLIv20UC1W8jw1F3aXUSFp3hTny8EA0VbIRCYpu3Y7PBnLG7etnqHMW8d6Ju2qpOGL2+6EiW7ZwV8WnoblZJmPhCPS621u1kqSqEBZeA1Mhf/27/72/ffeg14Ei+AiSK/jt0MA0MTEJO6CZ8+dwwgOGTkzPjHB/TeuXwfd/+Vffnjt2jU0aBAcZwVShvMg6nySeaJTZezeuHFDKH87jsWWV3A3swrtUbJp9hDcUQ7XPp9/dHQklSzxSsoyjZ3KdqLCzxSgyLCYfpDMWyqFohKRBLNziYn0fTyL1kJ4UeV3Us8qHuWPTPtmdscmiV5nJFK6XFCh1plMfUP9Y48+ikqSN5w8eZJXnD79iThuqsmfxeDtoO3y3wl1pFVQSKgv7kjKMEeBiqqyMw+LK6b/VMb0TWRcJ85d2tTauKFENsqzHM5o2vj4Ut/Q+Nizn9uZs+5kB/ny63QLT2qsoQDManQoA4PpAVcRGoJ/oFxlS+hx+2zn5L6Nm0J1Q46M972jg4Pj/qThDrA3peUkKCvsMKdMK0rCYPzf/cEMi03TCRvIXmO3s3G3QJebPmobZ8+dJUbk45Mfb9u+/e///u+3btmCC754rpjm0PDw/v37mZPOnT/H6pWtUMiZyUR74sSJHTt2sP8ntO3u6gJf8P8muTDxa++88+vqqmpyMFy8eKmxsfHJJ59QSpK1Jt+ioAOva2leocA0iZSuiuzrjAgsl2Oy74KkLp6eaQUxsnNx/ikU0agblJtsfp7LXkRovnR9eGQifO+OrZcuXw0S1FBaeuzY8YP797EFONE3e3dvv3rl4lQys2PblrNnz9RsqAt53cdPnfvcnp0VXsvl88O3bAVBygvcuvH3OHLkiJ5Od92z61t/+C1RcygolHas+4N6CtDgMsd+1mo2Zy83mqMUgqTrZ63Fbl/cw0Zh7uvx9JvHT3d199Y1tUjYicOTcjre/aTrH994695d2xmrKGjXmqfmUZgGMU4YD1hkSZGDCzs95S51g6S7dt3DfnKkRk7aJd9//fynmyvrKl19Pb1ne+JW7ZaG6rq6srIKvw+3k/6piRGHUebyuN3+ml1bx5zsgxtPT40Hfb5yjO3zXvoZOEHX/+qXv0I86e7pPnjgIDqORx977O/+9m/b2tu/+IUv/OQnPyFiFisVwSWjIx/t3buX5Bjf/e53SZ8Et2zevGnHju1nzpz59MKFAwf2IxN1XL1KGt899+7puNqxcWM7s/JDDz1IgOjaE2ox0GG+RRFLkij2tdJyh2ZfARSpqUmDma9kXGSDNkAm5d0oF0UE4T8FP+qEWnCqL2qyFhTLDgeGViQcnhgfJ/ZmYmIcX29SN01OjPN2QGd8bAzBBjYNJwhxJFHeRFlFWcppIlVC3Hgi9cMf/DPulSBLff0G8pKQWIdVIQl3QHe4mdmVGipt4x0Td66IpuJnlGoHismyCtqxL7bKnkN7UqZrcGz8Zx+dOd834jId7FSN4jlsu947dO61o6dGM54kulch/O0/EDnLy8qZjclWwS60rBGYIcgEQPc1Nzdt3ryZTbhthzecdh06E3ZaUdLzj1glGUfKZYUHDetGPOJKJaJGZMoyk372rEv1nXobIx2zvSiko4ln933u8W27PSygp3nq9rf61muAIxLyCFtFXrp0CdxBtPng/ffJmIPk8uGHH1ZUVrKpJOOipbm5ra3tyNEjkmfRaZX5ytjVtiXZgqKTcQH6HD92HAFz7759n54/j48hWdPQ/JSViovgrVdyGSUsCjrsiuxykvrEUVODGEYVNRNrFOEvOCJRV2oyzotCclWGBVO1bP2t78kCj6rgfGkDDfyeLRtlr+VMCuGFp3jX77z4HCUwrzc/ejCdih64Z5vkd0pFn/jcfk6jZ3r+iYcsM832wUePHUO2vO/gfUiSbDsRKg3xin/9zW9evHQJ8NJQl4XCZVDoNj3CgGR5hVOUKFzTCD5ZU6ioc1ATms6rQ6Ov//pQVzSRsvzQDSP6lOH81XvHTlzpDTu8SekqScR+28UcqYdp4k5Lyi7SOZLpDjf8t996m7UA/kSYaIOlpUmHlUabY7hSjtKMI7lj27bGptKfnnzn+sAle9DJBjtOnEecZsLSuf1No8vAuMFSEq1VleVtbWnaNVZfX8Fm1p+pg3n0977xDRp14OBBYusvX7r8uy+9RHpAwtaeeeYZdkNgqSViMVF5lqVdYQ8cOMhogmeAFa2qZ4Tu2XOvHnX79u1FEGDPKCTLJ598UoSF26HWWQx0aAye5iygUEehwVEqEjXdzu9ZvXjRYo7avTQn1PAVojAxz+IHSpgDPY6M7ATGkcVeaMFokp1oCUNiDzAJeFTqibSdTBO6H52M/sN//g6hJZQD2CMovfb660hG+/bvf/HF3wJrNpKoeuNGiQJVhxLH7oBDSzgi3ojeCo2attEA7ZIkheFLMxIZ+3RP/8mPTgyFkQn8pPO3LNdgxD568syZzv6EyWLTaaZjFmjF3UL+2409JltQ+ti4lQ1ICbbq7uzuuNLx0x/99MCDD1zp6TnyyafjVknaU5ryBJMWYXTO684qbyIVc7jwFXAz81mCL7TCbztcGM+FlfBlQneeTjjsFKkdWGhqKXYO6sj0J9EwPCAMOOfqumeH7OwuzbXZ2ekP/vAPGYMElHzxi19kDcVyVQaXYmyUmHznfgbatEygGqwjabNtzfrZYWjP7vs8kwYav9ZgnNwEdFDBlIZKsdiJCjiZFBuEzFsaSqYrrDQPqmuJg/Yo5zSFMkICuWvuukatdZanYREy8zoWUESRIECKY7TTTcg/S994ItHRcXX37nva29t1PUXaomKzIW8modfhd6GYYhwFQIqyckhN9YmxcPRXh06AsLbpMtOSoyuRMn714QmGdNL0iEiE1lk9J2C9BkxUBBHxLWWfVXQQJM25fPkSC4R/fvON//fIJ2OB+kzbFxMlLSlfyMa7yk477fRgSbLcuJzEIzXtqsh4KzI+N7IOKmQYCWmYcWRnYsl4xJG0yxCBpKvXwI+2iFau4i2MRBTDTEXwADpPzSEy6Arz9twRt1DNcqi10PVVOX8T0JFG4ReIfapw26brlMedHMJMTyt6wMypPmOCMwqel9IwWTFo0zlJqkrUblrGv/rKV5qaGl/92ato7E8cP/Hp+U///M//HKu56GKFIZdS/u2+V882wlmyvEJKlgbKUkvgPotDiDYsK1DOangSRbNhDk1G0iIOiI+B0EijLXesk+Y7jOrqGp3p8f7P3T8Wnhy6MZFuPRCt2TPka4g7Slx2bGNNKDzQXVVe4jOnSizZARkJzpeyKt1Bh/hCiI2U9kn3O2zkICM5kRHNjgNVn2an2917q/J+OlAPFV26nvAR7YQdFEusyltXs9ACmiRppHIAUc6O2SbpTtUzLeNgzoerOdJoKvBLPkoPwYFVJZ+nXV+SC7CLgJq6s+gP9ZLy3v71O6CMSnBpbGxvb2xoZJs9pB50T88//3xzS4u4twjhsq9bTRquQtlauNHkFvgBc7JAJF6ASu4RdY98+CIf8R6UJbpal6lkaXyj8evnIE6qta2VCrLx/AMPP9y2aUugoj7lLY+YPgx1VH9Pq6vNl36wvabSmQnggE1rxF1D1sYZfI7YGpTlJpY79fGSnYkEQ6L9c6A91YNw/TR2BWsyH1Tmn1nB161BUfMlHeFoglPJ+4mmSq+DqAf+SINDQwTX6wjmvPiQx1kyhKJhqSgvJ1MXRegZG1jBhDQwMMhTpaEQirEsvRQUMe/5/YElhlMw17EZWwz9/O49e86dO4s+5+WXX8ZPBzM5YwyhjGBCtkDILqzWgISr8wqwg/mceV0f8lMGFogj2WdkIMqEgDJDv16wVZT59Ef2r4hISuZZnfotq9TS0lKSHHf1dre2tD7pLguf6Y9NdZne5KirnBwW7kyNOxVxJ+OozZmRgBSHSHPopozq8orGunpFBHuSpDx2RjY2kKYhgn+WPXWWReb1/tB80BFzyc9+9jNG9cEDB4aHh8nFTwezwTIOjo8/8Tgd39vbU1paRhalutpatDyks8UM8fHHH6H2ueeee8gZSlxfWXnZ1FQYXe6v3/41dk200SzmMejJTududzole6d89PHHDz/0kIAO3FPspMzAE5MZevidO3b89V//NYnRcDg+deoUDmbY2lHsE2v+5S9/WYbfnXmIjVAGlzroDP5KMkndHAVEEvYgifUUwOhGZv9hDZL9raBHAGpdiXqmsaF+A0DR0d3RXlfyuz7X0XPdHWN9fc7SYYf38tnEyARhu6O49EyGx7BmStwDmJLJbNu6aWJ07MCB+5hLxsYnhkdG+wf6WW3BUeKajH0vqfQbNH4+I80/c2cyxmem1vNBR/KK7r33Xvx60fZ99NFH4MiJj048+eRTqJPJnIQFHYmmv/8IaQB/+3d+57333gVTrl28NjY6RlLezo7ODz74EL16eVlZa1tra2sL4PLCiy9gIv3kkzM4HRw9cgQtL1g2FQ7j5qMmYrglF7tYDF0l5TtOqk7CKfD7RobCVgUglpaU/daLL/LqHTt35oZoMcWts3sEPTROCNKwQlVqDIUp6q9KrZ1fFM8dT1BSnpcHkBbU+mruLbe/vRs21OGK0dvTUxOwX3xw91g4cb7vxoVrvQMXLwWStjnga6grTQcm0NZEWICLb5djYHi0tqrqo49P3ei/sWv37t5r11SIoxguIJHajKWAokC3Xa3f7x7riAIFQAebXCQaJTSeIc3ugURYoTFBTQCm0Hs4whBj1tbWhtcwokVVZRXbifATQQO/L7wwcCbGDYx1Vq3kSDe5/4033mQvFDQvABZ3ClKwA5y4JgMf+LWhmVgCW3CrzOHKfvziCy+w4mNJ9Z3v/CdKxo1KlvgOh3CkjNglFLsu+kRhi0pYIUOIFij0zK6YRJfPV0GUrBYxaxucUXU1EDU8qThQvsvPddG4mZWorqoKBUuQkfFOritxNe5ue3RHWzSZJl4smcb9L/nR4GX0NLbDKZ6RDseVjs6rV7rQDOJC8MGhQ3SxiEHinCFh1uLMMb+rVcPltLqkCSnfCqHTuiPQZ7pCc0EHmAAOduGdvmuXKHt1nykbFiIP8gUnmKnoTnoah2E28MUjBtd0Ajo4Sf9v3bKVdVaWD2zjwQcf5CfnGTNE3JB7kQWa5hAWDrxL4GMphxIFxEZKWpbHHnuMOROfwD/59p/goElMOa9Qygy5ZymlrqN71VBSSKGUNAoyVKS59h/Vah5p33wsUWKBehRUZhW2HkmgsIDD4/W0tLayfx52dHaYMZPJkNMq93pxg4wYzk/HxDEHhkJ9k8yk3FipZCVFm8n5IrCsnCQViVD+sJuBcjwRmqn/slRYR716tyrTFJgLOnphopN05O9SpilxGFbyBVYtcdmjg+l++hngQLIQgJJJWBhKrAmK8RUTSNoU/iqIkQ0bcmhAeSrCeFkHRZLSVU9kiGCtJa28RcFZgbG4rDfcjofUgJShxMsR/3TGHCgm+pvppVJWkaMGXf4QQzIoI+HX0g8QmT5Q8tLtaMji75R6SzUxabJDEUpDFIgpMmwmEjj+E2tuxeMSGorBUxyyYqOIPw6fE5dkzTuE+ZpGPJmIOZTnAIKtMukJPy3+3rtX1wcF5oIOtZrfd7ovszNIjonVSS0L6abM6vGcjDR9U/7y/DV2VjZZGkWmi9H2eIEblZI9uyhZWmlrc/cMGmSn43nvFQNV2ue1dtSWTKXFAQcw8TidAR+ipezGIbJPTn+hRbq8x63gjNAAN2ZM0N6NIf86DoOc5hYyhxPSQD5WAxdPP6Gd8SkVSM2Ot+lkOhowbZ8xYUr+djBH5DuQldkOrHF4bJftxN/ftCQ2TU9x8yh690SeAgUpVPDkqhKtAOis6vvWoHAZlTJU9ZBcgxcu/RXM1AtNygQ2WObGhrq/+IOvJ9UiAqFAtlbT4o/AfP51EpDFZQw6WBJpLx4Jbq9bjU27PFQadDtcys2FY6G3Lb3qK/0ElAAjdV9hqUJsdqWxUYgzTjxJBn8CQDJOI8VU4sgIOAktROWlFeY4X7P5EYnIEZrXcSNXmmjLLa8gG3ByjXHnMwg6IqmJYJ4VyTRNl9tNt+E5tjZyu9KVDpcyP2nFhYQ1aAs5opyuE+1j+11ah31wkn9lnZvyk9qDMBSn003MdQ5xbkMbinylIKrcOs30punx+hqC/uBZV0ugYlvtJtk4VlbnNMchqTtIFG0ncb1GsHFZbskZHUtVOb0VoVDBEVVkRdbtbTMblWXo5dZVE3kGU2TLvsVil1GdAqDDcBUpdh0LCnPbKTK3sC4px4g/qqyoxCZy5uzZPXt2q8197ihuZBZ3W2zlqAZizu0tNzhz+h5FAHT5SdLt4X3MIkxUQXjsRmMsTdwYBy02BCDBrKbU9JieS7nb/lvtgGbL/pMyU4i8IoyXMV989In7dt0TTcbpVTSMKG5kx0rbIq8cmiqn2yVh98pEiXxXXV7pVxGhcszubW7QnHwH6XtogfSYSMPqv2zvqzg8dXaZRw5dsrij9GGUhqr+FgpdTl0KgQ5tvoMQJ99q2zh9+jR+QHgkd3V3n/nkE6z1OAqx2hcb2Z3SIs1xucGzOIOlM8k4+8JGw7hoigRkG8kku2KkEjJWM4FgieVUBSxeynLYZsWeicVjDCZARxkisEGAOxLZWe7xBKo3sHKU1aJE5Aj+qs1I+F+MnoS8aJgSn1DdwPnYmhtm2equYzrMIaiYehMJ0uOxxwnAkKu4UqHmfs1p3E27RD3MAWireGBo7bBCZaVk11OmibWjTgHQoV7SNAW3umH56iylnfppXZK0lSav7MDPklBTyzTYJIzQDZzHfvyTH6tJwXj77bdwI8Km/txzz91JUciFeh/Zra+vr6W1Re+lizcLO+1grQN0lG1QhAGIzFBELmCsTkxO0IV4FawhL92U7XM3SOLadFdXF+6dOHYBlwwwktopLlHqK3FtzOAcySWBFHWGDxCKD7IuRfIYiDJIPaJkAGQ+wGjaSVBzcNGVWg83ZqsMMycTHx76kB2BYylUWR72HZKBhKukAlr1//TwVI4VWeIV0wpZqhsZfFWMVLyxvvbxxx6VqIBCXFdMacu4pzDoFCooDzi6dnPqmL+qTLdKJExrO5hSmqLlI9Gm0kasSuMmJ6dIGPjphU9ZYbnwN7Qs2PrSpcu4QZNVB19q8gEVatQdc+79D94n9xWrRfaNIrki21Q/++yzOHYjwZFzG5mOPNtTU1Nsy/vsM88yVom/JxUxeR2963IPzI8/+vjQ4UP414Ch+/btw9OK/F74CpLri4SQbCRL3hLqT0gdacYWFVgNAAAgAElEQVSHR0ZKS0PE4hBhQ7yeAKvlIJ6GDHhkOME7lOQyEOHdd97dvXs3cwyJe5oaG6cZLc+b6763dU3pU7YDJksvm16MmWVjdknC9MiI0lKfrEKzu1PJOZH9cqCzyKyewyloAEgxSAOZWAXycO91Yio3bNggM9fqjM35VC8MOjRmZk+p7/qcAK6ajPSZOQVKY8QnzbRGJyMdA2PMQOJGkcm4PN5NTRVewWqeVyrRWz7yRVD+5cuXf/7zV0Ec6L9jz57t27edP3eeEFAMr2Q8CpWE0H3c8gtvWwGYg/Wqm1a88sorJPoklq2jo4O/hH2899579fUNW7duga8YvcKairz4STIUGcAoX29b1Qu9mEHV2dVJ5sCKyop/+Zd/Qd7hC6tC0viijyOpHTB09OhREshVVVf96q1fHTx4H/F0ZDX9xS9+AariAtpQ34CYQ5wdyZ4i0QgEgQHY+ePylcukJcdh9aWXXsrnbytUhfV7TqTXWIJ9VrASpEznjWTgml0RcwTQvSgeYLXJjj0cqk9nDSPoKr/naBL0qkqQSo9hJRTwCaXD2712wJSdamCvNUMc3lQYdGb2ia4P25qpyGatss3WX7VQZD0kYXxCWdRoqtCMY6fOvXZmOGz6HB4P+x35XI7/4csPtJSxAwD7UirSzHxH/rsimHqj/CnuEOmyfsMGOPXQoUM8SbwFQczEglEYIR3vvvMOMyEJkIorbT3exdopEAwQT4+aHKEGAxXzPGqOLVu2sjkJnnWBANm5R7nEYoQtNxhvdArsi2EL3CG2O2/zWqvJ7CZkJLnvBx9+QLhMbW0tK0GqR9AMMgstQo7j6o9//OPf+71vcB6IGRqSLAWE10lL/QH2y+Wp/v4BHAVIiV1bU0sKYfq6oaGBt1IIiTvJGXaTGqzTyzYJHghLVBuKW4gwaTtdW+atqip32+Rsk8EmvqL5YagWk2q5JCNPvouzpJzMQ48GIs6kZamhDESmczwcv3ZN9lNgHcutRLitJWMUAToO88rVqx9d7RANHoxMckz8P6aXzhhu0+5M6qED+2qrq1RSF8kiPjwR6U94J12hVMxpJOMV7FyeYedzRY5CiKPgDMuN0CQrRwmFs/dnOUSyx6hD7smiFg8IbIdC7NShUsFn3n3vPdSTh48cJpEgggAprFlh3dGgQ4sf+NwDIIjb4yFChRbv278P0GEpXllZwbKLnP7sLMjii0y6kqVIdBzqQyKIySlGIPvbyVRXPJJnCb0q/1Cr5pZmwlYI4mPlC4LQEGrIuhFTFOzUd62vtbUN0Qb0/OIXn6dprI5JSYvEKqplSe5lEXUMPD3z+WdIiY18x50AE7ohDq/PqxVDq1L71SyUPqOZpBcXWVXlHsXL/t4tDQ/tbmkp+//Zew/4uK7rzn/6DHrvhQBBgp1iF5tEFYuybMtRsWXZchLb8Xr/qZvixPvfze4mnyT/f7zZf7KpTqLY61hyla1iWZIlUSIp0ZJYxU6KFY0ECRAdM5j+/t9z78xwAAx6IUi9RxCYee++W86993fPOffcc+xWhwWtcveAhdgXGdgPqBkQ44FRk4UtHdd6wWhIkZam+RuVQCXTi7j+3dUbOXSq4ZmWXgyclEdbSTVXOB0Nnv4B/76DR874ojW11VUFubQ24PN1dnYJWeTEpvtSf/+JQ4eK8gtKigpU1RlU1kAwVJybXZjuxpLCZc/su3YVrgNDWSVb6UaqxsYuo9vPYb9IXm5GZ19fusvjcbmZS3DdEcPe29efl5cz0N9DzOCc3Fwih2VnZWQ7lUcDCZ4FeIuHwH3794GIqFHPnT37wenToA99tnLFivvuuw+fXlKt5ALH9zkxSUd6N64cV3NclzDKxNYtl99yVlGqMEpiliH0Ml4fbmJZ3hlMop1RYwNMwXxOYwp3iHsByCrjAAspuS8bdtgvq+EG4wMrgYZVpuIcuKg8GDHgG0ARDm+iOTLqJWDhSUMVhUQMH/epRx8lATdxrpyWhlxuxQcYyZyGUxONVeSTn/xkRkYmJCSyDRRAkMQ2MkUTh/RiSprHlLNKPSAFpEw0KG+dYqSBkaIa47olJ5mlZ8XAGuwRL3e2aNAT7it05/ZFLD969eiOvSe+9OkHluQGc9Ncadm57b0DCFzFOW6W9H5/W05a3rXWa3kVFQinydKCNEn002G8iROhJi3idRgEg4tXPwY9Y7d6XI0YK9Fo0r6mPexCIIL767zCijq8a7s4mGeL5jks1XlZC4oLFleXFxWWBA07PgmkylrAYjPFsCzIc3xiecGv37fkdx/esKQ80xIlQgF9m6pEm/XAkWM/eekVbyj8szd2HTr5QUe//9++8/3LHV1nL1195qXXsAbbs/fAqzv3DIRtL7765vmmy5KV0NF68tSpb33r/xDIfMvmLcT9gbWGu9GbOLDfxPlEwsdibtKDY4x+EO5B4EYhsP5JTXKVQmWWSDhWnYKB4A9/8IP/9Vf/C4UFbA6K1YCfI0dskwdR7sAj9PX2Pfvcs3B5uJVh90dvYIlNC1pBmUUxUpOSyEjkkLpms3nXsKDtFnmKxUGdleNCnSxUUUfJxIGQckKel5934cKFd955l8rTobR6wDvA+idtV59hiOB3YILo6/Pnz+95e08KoBAiyCBR+Y/QP4l5h6VPDG70wNe/x6DOWH04xutDHss6IbXlL8wOFgK4nxf8UUu18cGFKz9948D5a5H27sC/f/up5599tre7/7U33n5t5x4iE4qDWvyF2+x5OTnevj4x247/kCOkk6NtPu9Af78SGDjMpwiuhYfpbcZYjR5DvIIIMgpUeKn+Xm9Zflp1RYUR9BHvCmUeXH2P12+J0mDtbCrG68l56Ggk3x6usIfygz1Wry0y4FM7uynZHInSvW4V59qXZLkcj26/N40p5HT9xpc+m52bxRZY1UP3ZdpC921dj7vxdEf0Uw98JDPdQyhslG0shoQTwzyHzXIs6HHRsnbdOthLTHXqF9W/++57ZaVljDm95o9FihTPR0ORFMmn+RaszYYNG/DfiJcyVDatV650dFwTOcLl5ibh0yAZKpuXX3kZwQTxBN9paF753HGtg2UfQ4HcnFyFhriCDHCfec79aa7luLNjlKPEYSVQhjWC1RoOOrs6d+/ajf4Y+QjmrqCwgFD0L774IptTmVmZ3/ve9+F32L3irW4ioCFu3LYKV9hVVdVtKJXT0vCagi559oPG6XkqeDbCRYJRno7w0vXbatqpS3GsfO25fO6uxfmt3eH3dzzfevqwv7vswWh4fmkBQV3Z/CZYHDMszePOykw/deqUx+1Elcn2pVAak8pQoLfHxyBhDGgmmwzVQqjNS8asznQmGAN0dFG0m/Uk5B8I+iNGZjYYgfI8DAaEI8FwIIrvAdGlqMMvqisYTHz3sqQN5Bbm5QK4tFnxOHFxZHAT0GJluR0ZLrstGs5Lc2IHhrRZkpsliGchSLnDGvKBRwLKEX9Rlgems6er6xv/8iQFNTc3YaDBtgXjmDoQXQwPZFVVVfAChPthilKTSRNMcduy+igmRZ9EoIflplokYtontY6isNKm3Kq0qQy3pOoy03QTUBITPbbtahuGLcuWLmOa4cmM9lZVVjU0NBIAg3EGf4BWNZ8NoGAICGZxs+bJgkZ+jC8kGqrF7GVuT1f1xktYNSqoQHdPt1BOVp/Yq/Qge3AwPkbIguC8fsOGtrarqOZamlsW1td3dnaALHCvXp939eo1eKfFedPhI0fYH+ju6sItBhteWCrBzIKz463MkHRq0EqPqk5VjIZULsaWqsSxJ6rTVVPoeHlBHT7hk04vH8U4RM8BlYvST6q/8WSJpyqbkS9FH8MIadZPFcqJfHuB01talr7/vQvYROTm0LuR3quXsTaoKilWhcgRIJR9aNMlhqoaIdBKZE+ni+FBF4Dj/rDYBjIwZNpe33AfuTLT/WQcoCN8XiTgD8Hth0ISYUgi0Ug/OSM2F3EmQ+ARUWFjKvRYBUUkdTqjzoygxZXmzgghoOnwQ6moTt9JiCvpHfLVQCx6MkVrNeXVh5i0IP2Okj+AzHvu/HlSsTuDiMHuBsz3C88/j2fCT3/607JlI3oN9D6pBLpx05HiARcZgqhhxGBcMEeNLQ5zCxjp0SlWnlJHhpkeouMuYNSEFZUV4vYhEqY5a9esxWcILc3Kyh7w+fhdM28e8Lo5GgWMln96BZYseIpgKWN4wVfC5gjxFGeu6GgwEBFUCLaJMxA1U2b+Ul2Hpqa/rw+glIrocqmYIhTDpqSkdOGChdynaYWFRXV189M8aRg6IBLi1InfKKTYpULgYqEGgJATmUv4kEOHs3jxokg4Qs41NTVTbAyjhB1YBRKql2OKWvlKztQ6QTA1GuTSfxMU5oPYTTOdZaDoJNqVtQxp5ZcjNlrGqqqGQBZRTvTGlkw6dHF9fVf7tZ6unuw0WzAz7b777ikuyv/4x7YDLoTGkGMiukzhd0STDHesw/NCaqRRkJ1+JzZxsJ94YkL5GK9D3eJQO1bFpuf5iKATq79oCDARiBAMD/eRaPU46Wtl28STbnW4QgYhQrIwjkHophWq6jGoCEUtXmfW1UgGgWAHWnt7wnJaT56OcKni9C/5Lf2TGJ/xlxT4yANle+pcsXzZ+XNnqeAjjz7KTsdPfvzjPXv2sPEBUwYbj3JRVUe3Y4RSU9zWhcVaT1CXMOHe1PKlBg7bmHLcQPnUcrCPYmeBlhHmCNs8BLiLj8YU+U7mlmHB1TQ/enISrFoZhckVjeRVVlUymGStMiyVlVV0U1aWREZkQjI5Y8Ul9Qh3GMEwQYgz7AGx4qmDlDN8GWIu1AvL6/OJ27/YtFBdCx+ruWOLhXhBzHdUyPSamvgWPGrr4VBeWR4bNUTsAystpddrnNxXU2uHgIHNSSBm1lGHQpyQxR0GRNhzZYuHw+wyfOW4O00IsR/Chf9mixGyodHHpUjIzqpqsRN51WnFljpMnX0copPVVGxEQlZQAR24IV7mR54F8UbIUJNlO6a0kC2FUCCYk5m16faNzU2NleVlpaUlRDRnkwGvQxj0WAJCTF5AA8sMwcCCtRbLSc3gkO2A3w+Hy2QBfWTMKCtueUOECT3T+Dvz40G1cETQkYc2m5wnxOQ+6PdebT2+v/3qSaeH/hEkRw2F8yQJAdJ4rT+K45OIWBmpiSnAORA2fr7/7LPvNeJnid4icFFsGzA1xYe2FgLEoUZyE7iJfZdPCB3EEd65axf44nDYCvLz2eJADAHw0Hf8hy9/GWfMQk+pjEKqiV2K+sKz2C9eam/qc6yur8TVQt9A4Oj5S4uqyouzXeGo7eCpi67s3JXV+QSIO9PcerEjsGphVbm4tJlYYaOkhjHhrMCSxUuUhMgGKlKqWPozvLCdY+uHZjY2NLJ53NzSjLUuPq3dbo/L5YQdaGpsYt5CHBHc45ea81ZYA5Qj4DJbgRxJn7mRxjrtRftN8AYMJtTZ/0RNhKPln7qBebFmSNlw0YjDU3mSSD50dCTaMwrxJvgIDfeAsWPfybr5NWuWLbBEg3tPNjZf67l785oCh6Xxas+eQyc3rV62oDQLWeWFd4+UlhatX1brDPv3nGi6fK1z++0rStzO862drx86dc/ta+ryMwZ8/S8cOl5ekr9hcY07Gtp55MKlq1c/vm1DCZyoMisZ5VJtFwUFfwWX6fuo4ff5xUm9w11fv5gbAz5/V0d3emY6Mb8grJyCsQF4TqjNwqPXGtlRsFmx59ZloXQnN84B44dIBERZOcUOSNZQNd5n7RpR9GBMEDrq0MGD3/72t5saznt87b3NZy+ePNrScLG/t8vn7e3r7mg4e7LpzIlgR3OWLbLvnV/865NPtly6JGMLQoRDvR19Xf2WDq+jy2sNYVwpCizIPZnGxURuxXVCY/YzsBMXeLNZ2dJ46qmnvvnNb3JWhW0r9neuEpxE+kA2IyZemExL6WarzR8K/3z3O994bs+lblxI2M82XvmHZ17fffqy1+ps7fV/66dvfm/X+72Gsz/qeH3/ySdf2dfstQRjb6fuvthD/WfUlPp9TGyOHjnKwrT3vfdefvll9mgwyUV3wxmInTt34SQfgffosaOnTp8CTWpqahhwCxcuYKuLsYY76qampmTEiddJJjR5EhoIjQm71wBZkiIidc0ndleGjhEYwI1/F3pu4YJlTAzpC1k8EtmyLLPlnzgBpLBx5DIn2KlaqyUZpsxW52a19AYGdu59/9DpC0GrPRi17jt9cfeRs20+I2B1nr7c+dwvTnzQ1h+2u9p7+1/df3L/B5f8hpVk+0+eef29Q51+w29xn7vSs2PfB2dbewI2R7fPt3vfsb3HL/SHLSEj8v7ZlvdOXOjFle4o7Yq3WFZZBTqs4vQUQ94FE5iR/ew7Zw809hquTExxjhw+tuPN3a7MXGd2vuhN83MzsrJFA2q1yYnfgDhilJfxPIBwrn7IXvWFWDnxWTgeolHGrpSkGbkLpvZkNE4HTQ2CNDoFdJZl0mMigqvzhBwpwHDCnZkppmjaexKs+qL6+uLSUqRZ9M7pjkhOpAMTgzAebI1wnseRhvO3uIA6oToPH2MQC9fLGL//6Ec/wgr57LmznLpipilfubYTJ47fsXUrCp0JlZKUWDqASeK02x756D1bfI66PEJo+1fUFv/xlx8pKcxNtwWd2c7/9Mu/5MzMyLIGEXEeuXfr2jXB8gwLXnwZVTJnhl1qIskDyVoSDUsx7IbOB36nqbmprKz87T172MdpaWlBYsexOb3Q198nsjqCgdPFgSNs5ziyBMfHhVAGO5MS4tWaJqsgejEupjosBhIZCqNhVRjfDTKMNwfWHR6KSyndBOA086IySoWBQhCrrkAsEzXQxkOfsSsnAzaWSpE+1Ru6OIulJC/n1z//cGlJkTPic9rCn7t/44BhL8i2OqOBLcvnLax+oiQ3zR7pLyvO+q9feSjN7UqzBBnZn//4HWgSK/OczqBv64r5tcR8LMh2WfylRTn/5T88xBZSniuEi4MvP7TNN+AvyeYIlehTRrm0pkXgBsCAGVEyEBcSw7snmwK2NGfwRJknSr939Pa9e6rx0PmrX35wfZZTtmhpLICC5kHkWGWaDAFw86qKMxC1yEcmrJi2SWxmPRL075RDZZR6TuXRaKDDHGZf/NFPPapqpxQAog0T2SpubqPGL0NLZpKV/Ut5KsBk/fj2u+tXrAlYnMqfuFGUk1WWh+PJmFZsKjXmXeYJwj/KAk73UeK86nks7GgTn/j8EyuWr0B1z6xT4vDky4GpwpCxojC7nLWDgWJE2HxcOy8nTBMiQbjW5VX54hg0ioVVlFNlOS5rKOrXq/l0TRnMcGnjsaPHmJPs6SDHo1XFKA4FIasUFFDmp47CgorWK609Pd1yBj0rCwNfwivDY9fU1Cj+YjgVBt1BCwA8wfJg7owZHpcw5eNU95CTDA1hbeCYBGtYZDk1pISCQZmknPAyqmwoIMC88SSOdecIWU2+s9WbGMtV5nuyPYYzKgtJSQZ7fAggPvjCLIclq8Bhs/hFWWO1YByMchydDgmKPTZHutMeHYAI6YZ/USHG+ujLmSDWedl4j2W0iJuRQgwVcEdmCYjyfHwXo5eppOJmy+SCbQlErPz0+/zeiESWRlfU0uU91tLT0ecPRAcyPeqYvuKlNNDrrtcxEeB12OYTtoE0yqRWsRCx6mj4GV+9piHVSKAjo4lxoGJyyiSSpXlQZwuUUr5I45JCEgt5aAWaTbu9tDCvpDAvvtAoezX0rJJSkk9t2IhTS/al4D/Z0AFx1qxdi45j166dGAey/aF9O0hVJnuJGCeNVjpiqbRIathC2CJAjFPYPCNqj/jZNxV3L8jFWElEfWznaWE1VcGp7o1VPRTDT3zuCRrCpWKZY6IQwdRYyE6dYEwMy8bbN8KKUlXESeCGO5/61KdRw7GXB/IKU60aMtKlOlHWCZZrTo1gy4POiO0CGB+2OWS8jnVYFFhUr8pvUeop5Y2+yFYPklFKFx4HradWkI9a1ZEymep9DQLUORqys4SEA1YHps+M5pAV3lyhi2qFYg8gJR42hKZqq5nQKRJXXdZZ4fetst8CBQQmDHkUsch9XiZqoLyjyxqjxtfXSoEFGYkS0J5eJxPgnQFgdzLJiLBixY80Wwm4EsiwGAR10uZP9IRwOjD+aDkZwCz6jB8kKXRs0g5OpcnoFvs7LqmT/hl5lIxR4Qk/Hgl0ZCzGqaQ/qOpdv6S++tJ/4/Ygck9ejjlIj7VEkS+WfroaB2VXrV6F7by3v3/z5k2bNm4EcbipqTn6cE9uyZDPUnmlyBTM0bUWcUgQFaUnPST/NXOnjoCJBzvZzWfbImbTOkrmE3sElLC+qktH4HDFv8bysVqKS4uT8hTSqqrY0SKj8cF6BZ1XTJqD/qlJLx0joTKlh/ABFurtDWEsL35C7U5ULexkD2d82AXjB+4SJZrSOyi0uU50NdMYA7FhnVRHTVhZmByYOsBYXc88dfUGvTv9XyiUdsORKDZczUJuiXZWD1g1EjTixArXM0HuC8WEa2DQyTNS2RT6qC+K3IwMySYx+GNZpP6j6sGld+l5S224g24gB16F3Laoy2apqKrOtvU1XrrkDAe2LiypzU/HbWKaka62dUhgtWemwz+KZMLyq/YNyNKF523VOIfNEZK9V3T74UjcDih1dWbs7kigM2MFTl/GiAN6VeXYMUGUxPhSelfhgdp2ncolc0ZWAzXiYmNGBpPwe2oEyX95pIeYmm+aF4zfmkrp0/IuxscYLnd1d/f19SqyqH+Dr+tLgR7uTBKCMKglAttP7RheGsZcSKIoQIv4xsYUcKPzg+KD492NPMtw7RwNs31LZGpPmpII5tYl8zy5RjHsuX5rKA2TEsfSKtjiGiVlyjbrQSeDWBQRyk2OOg8h3BKWOL/28P0FOVnzitkhzb98tduell9anFtegtG5pAxFLJh3hK1uWahgwCUzwUJbzGstbBfmHkTO4GiFnb7V0BnTJcsp80GtTlm/6bo5JujE5pBiMKXQ4VWLP0mqkmxUxxImCD/8xSm1QTHxWm3DmimhWXR2CeZ+SrmrlirpYHC1Bw2jpEdqjimLhzl12Z127AlQgbGRhKpFY2Qy+CRARyNmEvEERjxZucTE80UtGJyIhKnaBgPFthrqG9rMshqDX6XLI3+RBhQZBKr4MIhgkpZkcE/YOhLcdQ7RSli1IXUdqXapksV7Pg43QoCR3h/9vloYIBNDG0UyO1+O5s7wew2+E80+i815oaPz4EVhfSKWUiO77IfvXFFWqWzmiCfpkN9wtPUrysvSK9AjHaEXGyG90oGgGnAeu0ZEQwyRIqjfVA/O6tAdE3TUYFKjCU2K4KJyIknDRBOuZCjU60PoKPQWO2BeVbMxqQd0Vwzp4CmpfEfvw8k91Zwo78YaL+1PzilR/3j7rqec5FibXD3H8RbqkuycLDTEnNoHKWC8pc7SmlhXxPNQnaZaiYLU6U5Lz8rpCBn79x/HAH39bSvLsuweDN38we6Oa3BB8npcEwMjJO9pCsXpFPub+KNKY8Cw9Ya9I9JCvNyZ/KtZO1WUHsWqEsNKjNcl0ZtqngoIDep1eS91tXWyccPWsAok35CyyQ9kCQMtDqtj7+Ez771/Dn0icMEDVkJRAOumCabQo/AvyhhFKY6Sq6EPaujstSdXMkcpiRGjW4Qs2ZdP0cpRKzj1h2OADjRmoLS1t58/dw41AUd7AAjghsa1K/eRtJS9Kuqum8ojjbM0RmLgxUlAd6KUFIvCqVd5hnOQfpWuSy5m2NgbVoexUwx7ZTZvoFQuLi5B+cUuO6yKrCHqKJyaV6ruMo7lR+DE4+m3OPcdu3C45VqzNxCxOfZefndFaf7K2qrCdHhKtxNGXl7QjR6hS5ORTbI20nFOIdtjMaF41po/TizQy2NidVFDF4CetWomCoKwyFawpYIkOdYBjKQDFjfRvtXIlHrJqS+pmHxTLA21lu0FLj379AdJoZbP+CVwyw3SwEQ5o15ruJftHRRRarjPXlPHAB0ZnRYrLsEPHjqIdoBjTZx8Ye+NLQeWTdwSo2VkpwO39UjpnIW51nFtxYqV8PNEZRAvTW1t4uzW6wWqiooK2eDAll9P6BGGaoJAN9kH6bQbMULHSya0ig4b/q7Ey3JvDxoZVk22QTAsYAir0Swcq2Fzd4UsHzS3nWxubx9gJ8YRsHpwUtQdsLxzoeN4U1d9RfHKeWXFLofHGrSLJzp5TyOV7lZdHyGFAJoSOa14/3Fz6kI248faCxtvc2Ygna7vDGQ8dpaJucBcQwMsRy5sLhhORyRUau0osfehn0aUTYj6kFcNNv2e+h0TneRjIjfdraL3VCNT1DYKn6TPCONjC9rDIVgBGCpKZTwIOiuEFskj0YNjV3/CKcYAHWohzTPEsghLkCNHjrA5ioXIpeAldARIW2yyNre0lBQXc8gQNGLXA28SgA4Ge7bz59nNxXnKlStXOSSN9wnGOpAkDKES0CZcWfOFKVIAL2ouB52CJaF40hoY4KAunRvFAs7p7glGTzW0nWppa+sP+eU0r9pblWWXyAx2DhwR3+bAhcsXW9sWlecvn1dcgAlxNOiIYC9yfaiTWbyOsj/FOoQrVSfh/3QUrsRqanZ+nExMBIiBPX1XVzeGw+L2iAjufj/biBzUwmUe2/DqkJRCFvVWfO5YcegB78gNJlQ8v+t/Oe0ptjl6oskshoMQIJJOiEtnYM2Bgwc5QAPQkDmPUAJu2bJFaU5m6hoDdCgYeOCsM2ZpixYtvnKlFRswdovADTm2Qwxcl5PTelhPYgcplAqHcPdHi1auWAk8gUfr163j9DMmJNi2cXZB1Fio103EmakOHTtftIn0ndudj+cADIf7vANdAdsHzR1HLl5q7hkIiucAD5tYenDqFS/KtqsyPY9YHa3eUPuZ5g8uta6oLV9UXpTvcqdbcD5wXXtA/tjnYYwAACAASURBVPBQ+DaEu3FxfFIN8RQXYyvl/RRJb9lbGnH43Xq59fCRwxLeS21fxNZkLUSJUnkQAug0QITTYautqcYefbhNA4qOC+cvBANy3krhjZLMYvkAPoqpEm8wxtkzZzWmQWXMefATcue2O4craqexD8YAHVkGLQbRoz5y70doOqEqKJs2K14POyVinrHQiWkMyvPEKKINmzZvwn7/tlW3sTMKV19aUgpdFnJkUY5QCFRro1X9eRrbY2Y1Lgqo2e72OF1pzoutna++f+FC10CvYQ9Y0tAOiLpHdm2lo+O5wfDK7rgcaZcT2K4mb6T1yMXjDa1rasvWV+Z5bFGUCiJiC565kKcSa2lMXTAMX/QsSI07uthhr4yraTdVImVOKdOBqY4vuhi7IfvkiqkRTNKqsxgtEv2he6a7p/fEydMo7OJpr5OMrDCViO0bKLSRw4jDyM0LsvnLaUlZNgjRHKqvr1dnmxLHsqafoKOBDshy+swHV69cxS4ZBU1ZGV4FWMQQOO3sYOGsAI9KMEEoCEXQCmMiKTI+vM/58xewNEXNDFuErfCa1as5WX/pUguRUkiImIb8VVRYFKOpjGPzmnUKKKr7A8b+oydPXeoLeHICGJehVESFqSQkpe5h8KXoHa2wCdhdF3t8wbMNG+qr8jPtRELGqSFOnTn4npGZCWOLFom3sR7UTDHzBxRD1s7Pz+PgBapAvoorX+2BSNZh3JL7ENjhi+Ps/3WyxJd3decWwSMjFAzSZEjN/MLX5bmz52RVvr56xyUpxftcp4X6BEHk4G5/v76vAGpYmrgeiMRxdobcdZ9qiUw0yzo3+FPiAuGOMmF+NaTE6fo6IuhQS38wiO9hDgpT2Ftv7cYlXW9PD/ZmDBeUyhjLE41o6dJlixcvbmlp5nAzfpXAHrwrQMctmzeDMr/4xTswbFjlc0yRwbR61eoPznxw2223MTQFdG6JK8EOCBN7E10SEzXMMa6a8nx7QcnJNu/FK53La6vL0lEQB1nqcEhlxQ+6MPtyqWYyOmWjtds7cLj5Goc+1i6pWVyQUZqXkRX3kPHBB6f37d2Hym7psmV4EcMDzs9+9uJd27axkhI5D5aZ8GTr1q1/7bVX161dh1Ybd/G1tbWsXjxiFwIMIlrZypW3FRYUXGy4WDe/jklI0SgQCcXHPkbLpRYiXoizpHGeDlOTM8axpdB73PgOE+cxasG+4447WKfF925fXxxW9YgSUBgKJ6riTsuEnM8mxmcCd6RD+eF/ekbGhvXrN27cqPp6ZskyIugo8Q9rIhv+sQ4eOgTWcLpHHLU0N7PtCsOyoK6O+ERoChsbGlB6za+dz/LFyT0QB10URzExk0eJyELX3NTMKZ6KikpMRdj7wmeiOjI6sw27AbmP1lV6xt6ASo1SJGMN6/iVixfUOjJ79p7ELclt88vWVeW6rP72zqZgRM5h5WZXOOxiVq9mLhoHzCOM85eunmhqybS77l23bEG2BbPiRGcyf6qqq4qLi06fOs1EIvpYH76O+3obGppwyvHZz32OLYVf/OIXgMvp06dX3rZy9+7dqPzOnz/PWGeysYAxYHbseJ2veCY7c+YMow4I47hjV1cnuxMkxgvt3ffcNUq7hj5SCo1xXDdgREJht8cT8RJ2RgK64zsJnEUxKiKXHJQeo956nRvOFY7VWNlSVEgcY3ZoOUeFC4uKlDlMTF09ViaTfz4i6NBmjjWxpOCJ9uHqas4ZACKI60uWLqE0mB22P+bX1YmLr3BETtCoHT0QB0sMjhozqiAo3lsxBsOKh4GD5MiBZjwJ4QqX+8hoU/FePPkWm2/GKYBKrjA/n/4L9gY5Wm0N+zNdRkWeOxzo3rH3hebWk+XlNQ9/8tcz0/McVhykCSPHQO3u9bs5GBkKEA0m0yEnGuWKMxHsJxw8eAB7rkWLFx85chgVD47WwRe2OrUTVWKQ7dq1e/v27QcO7AeGsKLA/0tNTQ0endE9V1dVY43huIIzqn7OrM6bVw0HzVpFqA8sxVBekAbO6LoAcpP3JosxUwmkZtdFYEDZMWjfCTPcxli3aViDOaCnEElkg0sUzDN7jQg6FAvs4YNWDo8p4GWMQhZ2W4UDsogPFDnKYeDNMyY48pWqkwaeWVMQI51Y9cFWNk1cblghfPSS0kScme3Y8eSuRhfqRSyNjTBOsP1q2OMQx9fR0dbRedWOn0gYDTkvfZ2XsXP0gdUQVSdblvBKOMLTeyMsl4Zl+bKlxcUSXJy5BNuCKSB3mVSwKuj+yB/u+D9/7WucLF+3di2ZMtlIzNBnUx1Zj+MRfGYlY02CcQaw8JoEW824IsogT/XN8TTuZkgjWmJWa1x8I0XyT9QuwhMrUnKNwehMsImDOLkY6FA6m184SNHskvyeeYZvVNCJH25ONI4qqi0NIYaW82N1VKK/eqJ2+7Wh0WCqcVPnAwckOUja6SXqBPvATK46SE4j0zcsAnLSmp8I++il5XU2d1ppWRUhaHmW7NYWb/e4ffBEu3MxGwy194a9YUsQH1LYs7mcWU5XBjoXBi6ohC5ZPuBLWBQwIqAxWljGC4oKKJAVSIaTjCT1E7WUslMhU45apfE7I0s8PUuMQHUTf3J8zczOvKX6TZGGQ5mJHajk1s3YBIGgeupp0g+aibMwJ0cDnUT7pdOTAGI4GMZGTzxN7Guq0THKo1TJb5l7evlQsKzPLd3AlumJTQXU+FK/pHuBhIGw9+ipM/3djVW1ZRvvuONya+OJ02+V5NfUVK0Ujz1WWF3ShzIzjI+sL7Ha2w4ffDLq7+DUOC7HnXaEbKKql1SUrSgqqEtLy1PLDGK6OuYsO16aCLHP1wc3nxJfVMrYlainvhl/ewKUi+fGxE4UPoHXZympNCwZX/SSPOHCFX0njlPX+2HCJU72hXGBziS6e7L1uUXfkxNqnFlyEDEAI1MB5/g5gdlssJ7FwnXIMI+VrP4K6CAB9Xr7Xnrv2YG+xvr65fmF1S++9BO/7+qG1ffMr15CLAPlZsFKvDy8fUX6zwUiDb3RNsPiJwc7Z+5wjGnxWKLp1zq6FsyP1tasdDnxzillKvCRYuJlCgUEe5MGFp9j3xI3k4fdxIegVofKMTOpmyp74pnMWu9oygyBDF3fIRVP0FDoKRKGdJ/uwoQxeIpqQ/FBuHsjaTEG6EwcOFO0d/gtTTi99Mmw/BBcmLEQ6/3M+cbOvFx1ZElGQXyUMAJmbhBAX8qR/ULldMwoL8orSBepKvlCuMLLqNeLx/vevq7Ogvxub5/P1y/hQr0+2cG1EUTFYhC86nxTS3e/r6ikorWt51pXD0bo6FxoDI73czLTSwqqPDllFy63F5b6C10eykT/QxyDlraeUFD8LCJLaFd4KfqcWTEdo0GPKzk9bbPgf54NVrxozBx9UzRkmm7pSNDos9o7OtggJuIZmjJaFyeSmjli9WdramxEQMOnWm1N7RBnUtisoK3Hn28VYu/cuMYCnblRy5u1FjFwFUhhoMyrKHJ3cjqtHxWsHi0cLlBNYy7O3KRQoMNON+OTALQ2G8Z/HCmk1EG7FLAxEs/Hs3XrfQ5jY3FheW5WybY7PmGzBqsrF5I4ZPTDMnhDoYtdvlf3nllQW1mUf1dpHgeeA3bl1RXpC42NP+w60BwY6O5aepsjzzAc6rQPYEJARhWSSYIUKdCZ/BYJGY5nU1e2fm227LS0qpJ8EH/m6DtzgxNLAkLX3n//R7/33e+uXbsWgxUgnA0vepF9ZI5WoafnRCOo9ObOnVWVlXRucVEx8ITRDb/pL+5glLBq1SrsIYhZhM0dtlEcY8KMAcU1innhL2dd8hwDdGaOoB+KnNUM0xfLE+H4qosyrIUZIuDwKOGVEkhKRY4prvpDxpLMVVWKKnnIJKR2sg9AIDmfr8Ma7UxPQxFT1dffQTjiomBpe8+lN3e+FIn0l1cut9jzL/cazYcvo6vh7A+IkyE+ldPEVbhE/rNHIvZcuz1i4WiENIxq4IhnYWWh8uArl6BgyganIsLU7wFvUu5NiDqo5F997bUL589jV+lVQdD27tt3++0bMCO47yP3vfizn22/775du3ezjtE+/NISixnDlDd2vHHXXXfB3WCpgFOHl195hY3m9mvtr+94nRNeYDHnOV979VXWmE99+tOETps6hSeagwk6E6XYBNPHxzpm7Orcrhaq+ISkE3dlxbeUUyLlzQmWH0+eAJzr0BN7JDKPciwdJcZ1+OixQ32dF5ctXllbWX/4/X0+ToP6o8VFFbv3vGJEvBs3OdNKNxPdNOTwoD+O+sWfF5+y8Erv8Mj5GE6kW21BoteLJaG0S2MfW7KJi48x7y+TbMv4XqOYWYS28dVpYqngRIg19Prrrz/08EPHjx+Hu8lIT+/o6EToxUMA1gNX265yxOTcubOlpWXsuMPIFBUVc0Cypqbm7T1vY4LATnFd3fzyioqGhgZsLx977LFnfvwMLy5btowOJ0zjDQGdyXO5E6OfmVrPOqag/MRW3+tcB9Njhn5ilKf42Ly//kk9EsThViRkBHz+vt7gQLSv29/X4xvw9g/0BXq6fH29Phwie73EigiF/ERpMyLBoNthmVeal5fhcFpCJfmZpQXZDiOc5XZ64HECQTHMAXLA1SSsGTwEVGsF7mbsh/J0U4c0+KYaimvXrUWzQ8R6hCKf1wd70tBwkQBnz/z4x0hPHGRDWUNUe+LbY1vAAa433ngDKDl85AiCGeHqOIaC1SWeKzCMAl+ISSlW5rlyPIU7ep9+9ulhxT5YlUrPmAA0YfoLf8DhskiYrkUXW1NbI45NRpxpw9beUVJOuC6TfAGG5VpP/8Ur3X3BaE6m2+hr8DgijEmPJ+vKlSs43nK5MzxpOc3NjVmZzrT0vANnO7/580N3b7k9FOxraG4qKi3Py87GwKyro5NQKJ19Aw2tndmu6P/9a48tyrMjUg3RWE+yljP/GuFI265eZTYSbkw8S8iF7mnmCx65BEYHOw5gDfpjXOOgD+/p6QVfuImbakz/UZHD9aDTQc/PPw5qqg2BMHbbiFdgChocDi3JkQoVlq7j2jXxTu10Ei5cLX88mArTKRsh1AdX3CM3IsUTU7xKQZQZvDUHUGZI6xh7HqdjYUWR0423gLCrNMfjEkM+QsvkZJV7PIROF8V3flYZAITjr+iZThxl9wUGqvLy2ptb6srKd/1iT3Zm9qK6+aBvbwTXUxgYqhgGsozNvQbPYO9Oc9YK8azgIMIv+AJG5LH1CRRGo3Ar2iYnOycnUSpKNj5rP2qYG5IeEEpPFxtLdd+AFeIDuaGM5mnixVn+YILOLBN8zhWHIiY7Q8x8ZV2VeIEqSIOMchmUWplt5TCzngHRAGCC4cu5C43u6vKamvlen7+ytCTd5QmAR4aVrLLSB6LBfjHwV1rkoZfmHYbfH5rO/J6gAFRMcFyi7489GAE2tBlWPA1/5xytTZHKHNwiAQlPkhitjOo4WqBllhGvx7ky9VHfbHkFZX6r693jH7z6zl6bJ72kosoXsVzzBaxuT05eHmtpDMRUevOaKgW0KlBxK2NTVCeOvTLnEAdSmJzOVMfDLfJ+8uAcNFDjG920kxhLII7VHghF3z95QaIsKznq2vFzpS2d2H94fQPhy9fCVluhOKTFRkQtaUOG/VycBTdTH17ndG6mWg+qqwk6N23XzWbFQQrFsGBvJ2cerLYADmeJe8X5zSgWgDY8EIbCch4CjNHnOolJTFI54jmb9TTLuhkoYILOzdBLc6OOWBNztgBpy45LUzn8KdY9WDgGsVeWIx2yGQLkoIWW85+gVAqNztxoiVmLG0oBU6dzQ8l/UxUuspURLS3Km1eYmR71u6JER0GvHMSjDvskBM7G0ak9Esq0BlbUluWmCYtjsjk3VQ/PUmVNTmeWCH0LFIMW2WG11lUU/eZnP3nkXMOxcxcud3T0D/iddluGI+xyWDPTPGWFuWuX1G5avjCPcEwikpmwcwv0/DQ3wQSdqRI0sXE5wg7mVPOfK+8TqM9myc3Kcjr8ac7QwqKlD6yq9eLvOhAgfIHE1XM4c7Mys7F0TfcQeDiVDnmuNMWsx42lgAk6N5b+N1Xp7Kk7LMQHTk93YzGYk45FT7Y9HpYB+3q2q2bewe5NRTGzsqkoYIJOKqqY90ahAO5N8ZNsx7euSFCpzXC0bY4pWo1Cxg/xIxN0PsSdPy1Nj++mxzIzgWZaqHpLZ2KCzi3dvbPTOBNoZofOt0op5pb5rdKTZjumSgGRCbUxY/zcx1RzNN9PSQGT00lJlonclF0rc62fCMXmclqRFjFrnJuLsRx9m/I1so+jKWc9zgxM0BknoVInE8CRMSoXyKOdkKZOelPfHT7Yb12YJeKdcqk851qoT5lMehzxusYbTMZvbNtM0Jl0J5ovmhS4ARRI4H/M68i48UP8Q8rBFNglvI6MFq5mpltlgs5MU/imzX84d3PTNuWWqThMtQRxjocPGSzXg0Ij9lnsFUliYFYux3VHTDvj1DJBZ8ZJfFMWoBZChqWso7aQOEaWyMM6cBVSJG5InbjystmUx6/ENe5Vd9Bb5pdxUADS4vK+J2h/e9/xy1ev4ZhR+7jAU3Lsg2QyEpBoBgdFFSd1LcsX1W1dUSPRy2Ny1khvjaNak0pigs6kyHZrvyQ+uHB0GQqG+n2+VgJ/BkL9eIIOhThPLtGFiRScnpbrdmW73TlOR7bNmhNztRtDqVubOjesdQHD/vJbB042tC9ZUJOZZldeHYXX0VAvuDJi1cSJI9FHDGuIsNGXOvpwiqRizXLdAP2OCTojdtSH9IHgTSQY6rnafrqz+1S/rylidBuWAItobIyL2pwh7LJZidpWlJ9bV1y4zu0sdjpcpmv/mRsz+EVuaL12+EzL2jvuW1KR6baGCLknChp8xCrtDogjkWOvXxqCxNeglq2ioXA00n/pUjOBlnX6UXFq5ppieg6cGm3ptoSfKu1KcuTVZmolzcrbjOBQKBwM+nr7GxuaXw9bzkgQYAkKKKMZVzlqbIM5Uf6zCdLd19jV9QERi0uLNlksBU6XuYbNTD8ZBiGDcUfd6w//dNfe1xwc9yfKofRKwn+pfFa9o2qge0o9V7et0UiRx7h/Y30gHE1TNxwKoJJRamaqniJXc5SkIMr4b4lKjriY2lKHqanWlFi/jz+XOZIyavEPBFqvXElP89gdmS5HRcDX7Qv5BghkRVw9hakq0oC01uUgxJXT40jLySBiRGkwyEaz3+kSB+/mNe0UQNYFcrAeilodfQFrX4AhJnARX+Fif2N/lMCkRqLdsOJ2TQWUjoYdEfWagVMA1gxUyaqaST7fp73aI2Vogs5IlPnw3bdaCK7U2tq6f9++u+/ZOn/eHQPBuivtLdd6O/oD/VFiKilWXRZJhzPN5cnPzCsrKsvOKPT7Mw4eO7pw4ZKsbBN0ZmrYCIgI7LN7RQ/Y5EcCwosVI/6oFZvDjxa0AB2BJIl3KLFbEcGiRIkW7JGg8zxJAizeiUPXTFV9WL4m6AwjyYf4hvBthmXfvv2H3j+8eNGidetW1i1cO6/KY3WI/liNaMXOi07SZoQiHVc7Dp+81NMf9Hr9dfPrP8SUm4WmC5QIsynIAnbQJ4YjGoR/QZWj+BqEYxBGEEXkX27aHEGLK2LYQB96SzpOXlbYFeeS5NOsXybozDrJ53aBIipaLMFA4PCRw8ePHSMsJFEi+e92ubKysoiBzVOC20ZCIYILs5/FgGbrnHGsXxzUOMNCEhcevcZ3BSUecYQ4lg5n0rBUc8i8oICCC4AlpjG2Rvwf3bLitupcQm+wIojQK30n/KjWKLd29nzv9QOtvRGLzYNUxd66rBtx0LmBJDVB5wYSf84VLdihMIWaifLRMAYGcA44EL5yJRyJZGZmFBYV4qwLdp2AezEuXWm0CK4sa/Dgq6+v79+e/LdPffpTVdVVwUBIEuKLx2Zn3uDuC3zhN5sy3CRPPnznO0/19vYQ9/aBjz5QUlrCHWpx4fz56nnzQCJqRZTLGQSgodWfc71DhcLo1mTHio+Gx+VYv7K2PjtCfyhkNuwqHLKAjuJlKvI9r+yxXekcMBxOlDrcoUMVaMmlU+rPs/zbBJ1ZJvicL06NWhmUaozyQaR+ifMgjDtAoFfKZP0jI1kY+yGW9Ybl/fff7+7ufuuttzZv3vzzn/+cTCoqKlYsX3Hk6JGCgoID+w/cvvH2s2fPBgLBxx//TGZmZn9/32OPPXb4/cPPP//8kqVLzpw5s379+m9/+9uPPPII8bmPHj360EMPz6+rnSEKDgNN4RxEcJngpdgy3tKk49s08mlKrSOQLxfYw+x1GUF7NKQ6TJsZS08Rgx22ccDrgxWleLUkhHWQO+lcYYom2KppTT43T9NOaxNnMjM9JPX4mslyZi9vNc8Y18lXjCnnFtHKuYAY1la1bArXzj1ZawdPT78/sHvX7qLiol27dsHIEHu7urr68qXLnV2dJ0+ebGhoZHI0NTU1NjaeO3v26tWrop9mzywzMyc31+/3UxC/29rali9fvnDBQp7CcZ09c2ZGCKEgghaEZLNH7+qgB4ELMzjBq6Ynv+QjHIRN7d/JvFV3+aTVKLFU6oHar5YtIl1b9Ue2qad8afFI95BgDyxp2LAjPkUtVNgattj5CUWtgYjR7w8OBELwlAqdZKnQ7GlEmFQ1YCeOp1OufywDk9OZEiXVyqOuYcLFlPK9cS/LLpVcgju6FjK1kIMUxITCYZGRxC45tlzptjMT1Ui+fnV2dkCTO++8MxAIvPjii+++8+4Tn38iKzt773t7Ozo6FixYUFZaVlZeduYDYWeKi4tJjCnKc889d+3ata1bt+54fQfo43Q6QZ8TJ0/s27ePcu2OGRmuVBxOIGhYvVG7x+a2RqN2hz1oSXPYImhqAZoQOhFEQLS2hp9HfotHjGTCfvxDBy3OiIq9g+IqYndEDbvLiNiNICjQF7F5sN0W8JGDJJSCZ3t7VETXSV+MM7pF9q8Mqy8QOfxBS/qCfLIVrlRwjXMqtmg43N/XFw6FL7d3dHR7DQsKHSRlCyWHw5YwQBSTjCddi6m+OCO9ONVKme/fSAqIVjiq1DoJGOG7wBA3NcDG9T6xNAbRhUWhnHiBuZGTk/ulL32prKysoryi9UoryJKRnnH7htsbm5ru/ci9eXn5nKvIy81DgwMflOZJI+NHH320t7e3vKwczRGvg3oVFeWL6hcFQ8GqyirKKi0rnQnCCOhYLReudH/vp28++MBd9ZUFPq//33ccqKgoemDjsuxo4GcHms80Xvns/RsrMq1HGq/++J1zD25bvbwyp8sX+s4bx8uLMrevq8+yGa/sPXmiqfOJj91RlmY/2dD8o/0Nv7Rl9W3luQM+/3d2n8jPcX9807JcizdZMp10cyTGYdT6/JsH3twjjJXituQXC4N/wB8OBVkV0PX3A4B2OdwpjI4WgmMr5OAlYtL1mNSLJuhMimy36EuMRLFwZGGU9ZS/jGMO6Sh1gRKq4IMMw55g6xQEcSFzyDZuAnTghTLS0zMy0rmD+qagsEAecdew5OXnyfyIfTNWrlypvsriXTe/TtOVr0uXLNGf8/IkfewaIqFwn58hGgKd9UQ6iAzgU/y9XVeaL/q9a232Yn/Qf6W1NdNtQ2ihiK621pamC+HQaqvh8Pb1tzadH/DWRY2sSCjY1nIhwyh0Weo5ut3edu1S48VIYLXhtvd2d7U2XPStrDOMLLs1cqXpgq28EK7NYp9IzYal1eQW0U2AxuYNWwbQ58g/+ClirEaCYQw5Q/qolYHRuJUjWnqliPeV7DMOy3d2b5igM7v0nsOlqSksSg1/GGUBm7BifIbI4PSkB/xBGwbHqG9EOWANgTvC4UcAG2W9I4qOsEYODRBWOPlIW9tV5CY7gSOUFQlzsq+vd/78OpHXoIOSEYAxFDqIVGh8YIX0Zrlg3bgvrKgvXDhPtRYtWgTTFFOdJEGPt9/b0NCQn5ePNDeSYoXDHssXzPvD//irRUX5rki4LD/7a1/+jNthzbBFbJHIIx+5/WN3b8h1o9MJrl5S8yc187LS7AQ4Lcxy/v6vPEiUwTRbiJY8un3zx+66PS+do/ehDSuX1NYvy/HY7IbfnWb7vS/8ElM9yxFRtnmTvwT3I2FloiAUBOrFVlC3StwAsDTwhVhAylxQNrqE8lLe1MqdfI1TvWmCTiqqfHjvGc60TEd2YVdHD2iCPwt3dmHR/Pr2tvbupnNokLsjNkvYMWB1GbDvRtBlhFyCHa6IJeK3OhHJYuPJsPh83n/913/9vd/7veysbK8XzYLlzAcfsCFVWVnJrrk/4Acg3G43cPP1v/z6xk2bsAd64+gbH//4J5hXoVAoPSMdvoBNK8oJBAPgEYxWMBjEhsfpcvp8A263iw901Pe/9z3yz8/PLy0pRQ+N1iktzcPeDcdWeQt19eXLrSdOnDh37vxXv/oHLrdrpL5Nd9iK020Z1rAThzORQIkNFgIhBjgycuzeXKuc0ebdNKtRma7ykMfWMo/6qx7l0/j4fCKocnUa9nhy8WqJKwRcq2QTwNPhVVUikqhv6B0YNH5QHqntKNkLR6Wv60UKXYxwOUo3p1TJXPJneLazfMcEnVkm+NwtTk0II+J0Z81fMlCEAgcwcVgyM1rsTmtFQVZOiTXQe9lVELa7gnYPq60DxDGCbsNwRt0Ba7jbmoZmJH6MUEY22IFchqXPq6+9iiJ585bNHOx64YUXSktLT506zeh/4onPedye3DxRGGdmZOzevbu2pnb/gQMwRzXz5gFRxcVFpaVl+/fvW7hwIZvrOdk5LZda1q5dC3hhsPiFL36hu6v7atvVX/3VL5w4cRyN9U+e/UnAH1i2fNlbb72NtmjVqtvuvuvumpp5rPzwU+J/g3qNMOtjs1LPSX4LxsStB8RkgAbx5qAZK7NY5jxXypks6YXREOFzhFInMhyUdIuqWOynFIIJpEj+GWT+nQAAIABJREFUSsUGRIMpMdEpuTqSSlBH3o5tYyGdTUN9JlL3QWmHCMSTzsd88RaggGhr2Cr221xGToGRX2pkFYasnnDUHjScofT8aEF1ly3Ta/MEDGEDcO/Sb/F02TLaDadP3EMNmnkyT5XtX/u1dhglBByUxAcPHsjOzj5//rzX2w8QQLLs3Ozf//3f7+np2btv7/Jly9H45Obm3H333WfPnWWJvuOOOy5dagGSQBxYlXvuvYdNmQMHDnIUnmmGxpRSmG1Yphw/fvzIkSMNFxvI3+fzYUS9Zs3qixcukuzKlSvf/e53QR+HQ/k+HvlSzEhK+BCtlrwnp5yG/IycnXpBsSP88GHUskfPJvZUtutVJfkuTIsACWADugdD4JFGFQUvyZdulQBVbGdSg9a4SpyRRCboTJWsagDIinMLXNjTM5ZZMQOyhYzFB9bDdjTHmA3zNRi1h+Qgj9i7IjRgHhKy2ANRS8hqQwvEHnLyrEJ6QrD60Y9+hIkg82LpsqWFhYXsT3Vc60Ctk5WZVTOvxuPxdHZ0YgoIBiF2QUKMCfv6+nft2qn30TFB5nQ1e1t1dQtWrlixY8eO7p6eLVs2gymLlyzOyMhARb1q1aof/+QnzEPu1M6fj4+f6qpqRC0ObRSXlLDDffHiRSDj9AenMR1KzZHQcyMDQgwt4v07BHTG6nTNI+k8poo7WpWPJh+/OJhHycVngRyNOPId6AF8Bv2ANIJHMcARo6o4fzRW5WfquZVeV3lrSJ6pYm7hfOlNeh0hggE9Tzj50UbwnKaDYenv6t9/sfVvnt9xLZph2LTqQuYpxn9oLZ22aEFutuiFWW+BJ2mMaCkQRGyBjq98YtvdS6rcMeMeIQJkIQXog2oGPQ53ZLijjOAMRChss9uwBuQmTykDFbIks4NxsgGP7oavDpcjHEJPIXf27z9w+dKlzs7OL37piyAjCh0ARdMzFET1gxWPPRISNRCqImAOYYqukUMbYtsiM23Qka7knlAt6ensamtvz8rMBOmACvg0MQZUxn7Xtb/iWugGXDS/o6PrzLXgX31/91UjX8gvWnxR60AfAIU6KUupGDQOhTdBynBVnvOzd688ePRoWVXlVz55R4awTWLmMAVvyVJudlaW3TmxPTlTp3MDxtCcLVIbtorqk20sYcK15S2DWQao/IvJH3p3XNCHYc5gVz5blLyUdDHhRXeAO2WHUxY1kukUuB1EoasniFjdySAkZ/kgJaIuEgZc8CJqIBPxCMyqmz+/tLSES0BhcFEJ52GMfkEi2b+RPG2AGhlikqe1OYOrN55vqp1DmjWe92YqjchWAhXKfMGQvTDZr9J9E/8tpBRpML5vpRog5E++Ysy56upZv0zQmTLJb0CvTbnOI2TAXk0Yq7NwGAaGca3xRK2f3GCMW+DqkaNgImRDXW3ZYPWB6b0nzCbtYCRg5OvpGgeX62UOoZj6GgOwwRWTHCQf8MNaVlE2Qq2HvjPoewIxRoEO9UibGSVXTSOrAsu5ooUQtYyhDvaLkYIy+lM1Vn/5EQBSlFQqZf1MoY/sW8XAR/eKGGSRMhmbBtNxBr+ZoDNV4rKoSOcOmUhTzfVGvM+oNKz5WZl5blt/X28U8Ur2bLBnVf6fBF5kl0Tai7BliNSjGh61G5FcZ7QoK/1GrJo3glA3sExhbYD9KIyoHIgQ/zmKGROAjCEQq4GcNo8hjtzniSwSogJSbJHihIAbSSVvz/bYNUFnyiNIJqH05U1/yfiNluZmf+7j9738zvtnL3X62RPBpJXIAfxWF14vY9s4UQxPItxNd9hrS/I/sXVdfWWOVvPc9HSYqw2Q/pE4QJj/cIwK2SomGzH4BENkP0sslbmAlwTbqRBFtFNaKHNgVc1hMWRYxcgpbnW2LxN0poHiMR53GnK6oVlYLWlp7mB0YFllcfWnPn7xatfpc+cvNLVc7ujuxaVOJGyPWN0BlCxY/BvZHk9Odva8ygoULavmVxZnWjxzRwiZKBVne6WfaP1i6UGWSCgQwk5AlPeIfBr/Y081vyPxgYR1Ee5GszBo2EmheB8Bmge331VQkAejyiYk92/I0DVBZ5IjYMhr0uXTk9MNykU1wOl25jsc6cEg3iUqqjM2Va3wR5Z2ewNef2jAP8C4VfGtrGluT3Z6Wmaam9NVHpcdE0JR/xAfQtf9piNEUoVFmSWCR8y05gZ1RupiZYfOCDgxO1buusTDkdZ3KXSJHbcVCQoeKJn1xiQSMSrC6ZWy4vzbFpa78YSBC57466kLm8m7JuhMmbpqi3fKudzoDNTEYxzaOXDkdGeku1Ecc+7A5w9kOdkTz0KPwFY320AKemxut8fplHdk60qNfbWTrhdX9eEmujRPoBqSfOkbcwZCo2W5advX1p9pvobAK3iTEI3USavEJTxNTKEjt/WGOutB3bzqlYtr7VYCd0R4X0AnphEa0u4Z/2qCzvSQWAnVt9Alg9oOtGTyIyNYdAJqaVTNlMEc29sRVbP6GGs/f65/uZkIIrUe3Im6HbqtN7YlEBU2J90S+dRHNoZxx65qozYHherD9TJyN9YfPGZdiHo8aZlZ+Rn2AAdTRQITWLphQ9YEnekZTvC6atdyenK7YbkkRqqugTpxpIdvbP87dv96BfUbQ967YfWfdMGqeTByw3Fn0llO44s2ux1PIRgCZiqkELdGgjVqtGmTgmGFaYsedVvSetxRh9WrXIhpLL2RPWaCzrDumugNEUnwK862gjjudGkz2ZsdfSDCpIflpF+cKOXHk15PsdFTUmFcf4r5shPJUeHOnGqDsGCc/LAbHHGXmmkNWmKIDTEiiu+VJ9qsOFVpVYiMZBdL1D4y8W/UImmCzujjcTxPkUNYiuxRW6Srs5PBIfzBLQA6zDyZgRp+9FAfmxo3ZDdkxGqpXZwRn8YfMB85oY4PZk6WSjQX+m/YxB0zkxlNAFVjnKYCQ3Rs2jFPSnQcIjWp+M9q40p4I2WiI+aC6muS1fKM1n9I5iboTJna2GKpzQSghy2e/v7+uBsEulUuCtBrp4ybMVfQEWbJcPk79bxIfXfcbWREJtVQV3jcWY49vcddj2lKOM4a0U4rYUvF95W+RuiEaarVuLOhLxTxlfMiZQGuvsUF3qTuYXlQ0r0kV8uE+qXS6vEnJ+DY7hBGR90Yd6eOu7ITSGiCzgSIlTqp2s1RA8DKsWlWS9XpibkrS6c6UiADYNCcju8s6IGuMx+JUxjyIolTpkx5M3W1U92VNgw9QTViQckYmih3SD3j9wffVgxIqpQpkgkxB4N1HMcH8ZPcTJWhNHI893UaOd4xHN1TEWp27oEM1IftpxPHT9QtqMOJB6sa3l/pEoYX4jweyzxut64MzkCKiopyc3KFFKrVQij+SIuMw0eO5OTmzKueR26yo66slnlREGjWLxN0pkpy3cF6YnDOUB9THJQpSh8D85bYqpP8yIp9qHy/vrIyUFKOAz1Ekt9N0hTGbk99wkgOw8ofXtBUSTbH3k9aH4aoR+ZERYlZ+Hd/93e/9Eu/hD/WCxcvbNm8Be9CHHxtbGrEI+JnPvOZlpZLhQUFZ8+cbW9vJ8ZG3YIFjQ0NvIXnM0CqsaERtyHHjh2rqKzkCH5GRuallpb6RYsI3Dq8r2enwaZri2mgc2ztnYacJIuUsDMcUBS7MKxIJSkMuzveG2qRHPr6SDg43kxvrnQiLNs5MSBknAIlp7HR+Bj6l3/5Z4Jk1NTWevv7L1y4UFJa2tjYMG/evDNnzi5aVH/p0iU8UpcUF+PKtaura/26dfgzwx8j3lqbW1qKi4qutrXhJx/fieARubmczgceeACP9/Ts1FYU2bufhGuLuQjt09hhs5aVzFQ9TKf8W9S3w36GZy6C0LBkKW4NTzTqnaEFqXZ9aC6lCJljFwiITebGTRtfeOF5vC/ig3Hjxo10NEE2iPADlBCu57aVKxHtFy9eVFhY0NzcTIzD9evW4zKxr7d327Zt4tfLMLg/r7p627Y7AanLra03sJUmpzMNxFcMggKdKV9aWBuSjQhmw6SelCmnWH5MFTnFXG6+1weJt0opq7wIT0eHTp0YRM7bs2fP9vu379q5C8fPA34/gVGLi0uWLl2yY8cby5YuPXf+3Pz581kYmhqbYNPu3759566dbMatXbdW8OXSZWSxtDSJLIaP6oL8/MuXL2/ZurWqspK63RBOxwSdqY8KQYTpAh1qMx71DclSgk5KeJqGFn5ospCuTCi25gboMLzYGaViYpaBL4t49TReMAzE3aKcIZdQolow1K1Q+13qKR84KiHndWCa1IFz5fqLrG4I6JiK5Dk3n2Kq5XHUa6hSZ+j3cWRhJhlMgRizyp/h+rIbRSvZwBL4kCN+dLFa30QHrH7JMoO/V70ZIVZ/ciZLfFwoww1hXQlIxqWCswIz4hyW9wWDUrDPs9NEE3Smgc6y+EzfJYNjHJckGlfCceRlJklQINaVw/XpN5hG17s78Sne+/G/sTrzVSOOqnHSWVDdNPV7fENspppsKpJnirJmviYFTAqkpIAJOinJYt40KWBSYKYoYILOTFHWzNekgEmBlBQwQSclWcybJgVMCswUBUzQmSnKmvmaFDApkJICJuikJIt506SASYGZooAJOjNFWTNfkwImBVJSwASdlGQxb5oUMCkwUxQwQWemKGvma1LApEBKCpigk5Is5k2TAiYFZooCJujMFGXNfE0KmBRISQETdFKSxbxpUsCkwExRwASdmaKsma9JAZMCKSlggk5Kspg3Z5QCg8LgzmhJZuZzkAKma4s52Cm3YJW07w8cuqiIS1zKLYz6PHNegMhd/DzEXYDE6zB3yZuosCLLhC9poPg7jEV8Hul9TZPrRQzzczGJokcqK+V9k9NJSRbz5vRSgOnAVLAajvSgPTNg8VgsEgfDahDWTkPB9BZ3PTdyjwftlA9cM1XSVPMluJXV4XQ47HYdBWhiPpoUcOBo9cqVqydPnhoYGBjJ1yrpEg6bgKdwKHT23Dmfz5dwgz3Si1NtX9L7JqczjcQ0sxqJAuK0zrC6d5/teftka21lycdXFhZY+hM8yEivTfE+EOP3+3EwfPz4ca/XW1hUeNe2uxYsXDhKtqNWKcEijJLBJB8RcgtfyC+++CJeRx988MHMrKyJsDriElC8mlqtr7z88uuvv/7//fVfe9LSUsI5N/ErGI5aBN0slkPvH/rbv/3bhx566LHHPhNz7SX4lczrpMxmks3Ur5mgMyXymS+PkwL40ewNRb/12sF3GnzzK7pXLCnMcttcRkQHQdHLLFklLcJ8Gzrcecql5pdajwUE5E+yfCDBMPWyb7UEg8F/ffLJ3bt2VVVXZ2dn79u7Lz+/YGF9fXKdKTr5/XiRkrX4G1ZuPXVJulBd1cQr8kHXKomHUk+pp/Z2LVmqJEnhAGMNuF4R2rF79+7v/+AHJCVQzOZNmyQgp2qfvKlcGSfYNMUEXa+2+AlURVI3wu/huV0XJ3fUTQ0h5ALFAN8f/vCHJaUlD37iQZJVVlZt2LChfmF9nJxWXa4qWjNb4n1ZfdHFDu2UZGKO87MJOuMklJlsKhQg9rbzSMO1U02d8+pWtFw6d6DZv3CRxx4eCNucfRFnyGbXCMOIdlstblvUF4w47dZ0a8huhAcM10DE4nE6Mq3BnqgzaLE6XPaA33DZwmn2aMRi7w1Yg1G7y2HJdlg80QEbDoHVLGxrb3/v3XcXLV70X//Lf2XlJ2iUP+CPRMI8crmceiYzoyLhsNvjQdDgs8vthjkKhUJul4u4idzBKTqTLsCL4QjhW91E1FRAE46EdSRin3cA3iHNkyYBs2A3bNZgMBwMBMAIwsIwU/WEBQuADsp1Opwy+wUlYqBCir6+/p2AY2UloECdN268XaGAAAVx1qkVGDPg81GZ9LR0hTAiTAWDgXAoTLlSkBQtcZF5RAKawJdEvFlazT8qTNyrl19++aMf/Sgel8mtorz8N379NwiYFUMW9a5/YIB83B63vG5YAoB3MIjgJ0VPZRTE3zVBZzqoaOYxMgUMi41JZfO43znbYbW5Pv2RpU9//9QvTjQ+WL/IYXU0t/c8+cLuTktOyGqPWN2OaGTT4qJVi6q/+9Md92xev31Zqc2I7DnRvPPAyccffnBZtvOHu46eaetete72na/t2Lhi3vZtq949eO7FnYe8gUhpSfkXPnHnitK0tMiA1SLR8mSihcMOu4NolsyljIwMp8tJtEz8nP+n3/kdFCjMqNdfe23/gf2/9Vu//dbu3adOnbpz253PP/d8V3fXsqXLfu3Lv5adld3v7X/mR88cOHAA1CgrK/3iF74IJ9LR3v7P//Iva1avBkdefuklZuw999zz0MMPuZyuzq6up5966uixY+hnPv3Yp++9917Qbdfu3c89+2xvX191ddWv/PKvLFi4gPB4mmYapxobG8+dPfu5z30OUHjnnXe6u7pzc3Op3qXWS9/85je337f9zNkzb731FiGuPv/5z69etYoS333vvVdfffXqlStOl2vbnXc+/MgjYJNmrmj297///StXWr/0xS8RAwsc2r9v/44dO7besZXf1PngwYNEp/nM44+73a6nnnrqo/d/9PaNtxMo4uLFi8/8+JnTp0/TYw9+4hMIenz+7ne/S+Ks7Kw/+IM/kMDEGi5H7vExn8xZvdqYNTcT3BQU0FHeHW0+y7sXOxcuqNxQZ9m0qOr0mctn24JBK6pTe0FhQV5Rgbus7ug1y6HWQFZJxbWIe/f5vmNt0RDhmA1LU4/jrbP9zUFrv9VxqsP2ysnAv+244Mud5/eU/Oidq//40jFX9eqVt99+vtf4++ffag5awkqqYMkuLCy8bdWq4yeO/83f/M25c+dgBOBTiAX+7jvvnDl7lpzBkddef62/vz83J6epqem9vXtf+tlLS5YuJXgmws6rP38VRGhpbiGo5pYtW7bfd1/r5VYgAFaI+8ePHXv22WePHz+2adMmmvDU00+/9NLL8A5Pfec777777tatWzdt3oymhlJ+9tJL//bkk+UV5eTQ0dH5jW98o6Ojgxmu2RIYFpIdOniQ7ly9ZvUdd94Bs/P2nrcBTO74fANEBH76u98FjMiTAJ7//M/faGtrg085dOhQQUE+PMv82logBkiKiUhwix43LMyB/QcOHjpEVUHeN95849LlywhT+fn5UAbOqLikmDjoPq/vyOEjbe1t8F9Hjh75b//tvzU0NNLYNWtWE9iv5dKlv/27v4PTeeBjD9TVLSBwzbRsNZqczk0xdW/KSjIHJMaSxeK3OA5fvHqhy/vFraty0y2b1q5+9ejr711oW1JaWZHn+d1PbQ07XS9dMA4eOPDAHRvuWZZzotHntDrYzOFdETFQWcAuGRYCwsueV9D30OZFj6x2DfRb/uCffl5aveD/+pWFmRZLee38J//PD99v8NXU2Qm44rBaMzMzf/M3fuPJJ5984403mH6PPPwwGlO4BuQLcGfJ4sWXL18iQN3nnngC8QoRCe3FI48+svH2jS2XWhouNpw8dZJbNbU1/+NP/oSwvCKaRaOvvPJKR8c1l8uNxiY7J+e3fvO3UPrCbnz1D7/6zi9+QcRxAmkSsZeCgDyELMDipy+8UFNb+0d/9EdA3vLly//8L/7i5ImTd27bBhbQQKAH2W3/gQOEKq+ZV4NEU1Ze9uYbb959193pGRki7RiW2pqa3/6t305LTyew53PPP9fR2VlaWvofvvxlFFVUicjlcC4XL1xglIg8BosXiRJpL/sH2WDZ/fffD8adOH7i7nvuqa9f+Pjjn3377T2rVq360q99CWbwyJGj/JbAsDYbIAsK//Ef//HyFcuhNtgKm3OtvR0F02cf/ywdAXc2ZS5HRrIJOjflfL55Kh0BL3rDtp+9fdRrZJxvG3jmTaOrPxJy5e88ceWTGyrTmSKh4LnW3qd/sHvpvMLH7qrOiISdoiy2Rw0bcTYV3IimQvbWrRHDamRnuFbVuQoMy9me/rYeXzjS9Rd/vdsd7u4zsgIDvp7OdkttsdZsoBMlpPdv//Zvb7vrrh8/88zTTz/N1HrkkUeWLl36/vvvoys5euQoag6RkljEowYCV2VFJfvNRAHPyMz0D/ihc09Pz89e/NnZs2e57/V5wZFgIOgGdCzWJUuWZOdko+9A9CDkJqwBc37NmjVwQP/jv//3zVu2fPxjH+vr6+vt66WsP/zqH1IGmiOvt58Ym8hH0UiEhtE4NtcIAUxuL738EgiAPEgCBK4VK1bAsVFn8Ih6osEhVidKnICoh6J79+17663dCGJUCOZowD+gtUQKegyAb+WKlTSzt6eHygdDwU0bNypcjfCflBKwJklD062S1c2fD8gSHVSU4DZbRUUFdXjhpy9cuHjxox+9f+3adTBoSvsm/yd9maAzadKZL45JAXanImGrveHawIHTrQ5Pxfv7DhyLBMIWl92adeay5VRrpKg6PRq2fOv1Q9d6g//xibvKPRZ7WKAmAkNjtfltlgzDFTHszExAx7DJX5s16rSBSSy7UViFwsKSDbfNy4x0RQxn+sYla+Zl21VaJpaEuIxE4S9u37ChuKjoq3/4h+hBYEaQU77xT984dfoUDMK69etrampELasXfGJpUo66mKEACozS8WPH4Qvq6xeR/kc//KFWAjNh2XVGMlJsAoptPyoVtEiPP/44QX5f+OlPv/v0012dnYg/oWAIeQ3ORdRMKKUtRt38OhAH8inFU5hNbrCssbHh4sULoqSORuEy4H2WLVum5UTYHwohQCclKR2Q7fz58//4j/+wceOmRx/9FF//7M/+TCEJlwA2qIO49JH77kPQO3ny5IEDBxcurAe5hGtSzCMJKFs+x1kXvggOkotQDQJKsFD0Sl/96ldhDF977bWvf/3rfN68abO8MiXMMTmdMSeOmWCyFBDhyGoEHWkHzjUORF1feWD9vSuy3QY6F8uBc+3/87mDew6fX1xRv3Pn6XeaI49/8hPzSywhv8Vvc6Zl2G0ua0NHZ3u0yAjYTzRcCVudapyTH5MFEcIStUQy012FmWnpEe89KzwL0suYxb4eb1GW0xIN6PnHnD9//tzKlStRYQRDIdgQ9qSYMKtXry4uLn7xpy+i5nj00UfVFIrPRikFKNA71QbcTWNjU01tzT1338OE/MGZM1qNqufrmTNn2tvbiwoLT5w8ceXqVVgJdLqoXbZs3QLb8qd/+qeIJ2BcfkFBMBjacPvtCFwwGu1t7eiAKBAcoSB4HBiuVatX/eZv/CZgwB14qa//5V/u37cPaZAkGh1UvQQthCWzGM3NLQDcnXfeiaCEDAU4ihgqamQJB0raUDi0cOGC+vr6l195BR3QY4895nK5QBTyBzWwBtR8lkIeuQh2XltbixCKUAl9ENB6urs9aR7KAkbr6ur+/M//HKTbsmVrNBwW+kzhMjmdKRDPfHUMCsA+sNttP3LqbG66/Y66jEUZEZfhN6z23EVZzxU6D504/2r1gh/tPtXhyN95tGnfkYG0qG9FXdn9WxbWlhcdPH7u/41YsgL9p6+yHeUWDsHiFDbHGmH7A9VFcabtExvqvv/m8f/n2/aFFdk+rzcr0vGfPrvNbVUz0GJht+jv/+Ef4HGY7ey/MBtRkdpt9qLCok2bNz337HMwIJjtyPKuon2LzXRc4hBmwLCAVlVVlYDC3/393zOxL1y8IJNWuIEo/EVjU9Nf/dX/LCkuAXSY0nfffTfvoOj1eNJAN/Bo8+bNhUVF7AE9/fRTTNqFCxcykyPRyO/97u+h61UijvXY8WNseK1du7a0rAzhixyQpND4/OD732fLjBoKjdUsV9WTesGT0ShKfOqp7+x97z1U4KiHqL8AmVyCoMiLHrcHno5dtpKS4vXr1gniWKyogcpKyxDNwv/7fz/4STHV0WwLzYEpO3HixD/94z8tXrzYHwigpV6zZu0zzzwD4rRdvQpLByrBl00RcWiN/Wtf+5oaOapR5mVSYPoooOeJPxjp7+vauLx2U21eltWvICPqsdsKstKL0mw59nBVgWdldW5NZrQq01qaaa8pzFxdlVdfVeqJeG2+jtW1BffdvmReRnh9TUm5M2QJBWqLMtfML822BD22yLLa0trivHDvtUhfR2l69K5VdbWFGa5oAD0QoIP2Nz8vnxnI/gsiDxvS7DTZ5ZwBQorl7T17gIkN69fraQqmlJWVLV2yBG6FGRgKhVFwLFnMvyW80tvbs2zp0u3btxcWFCL1MIHRKG/ZvPm2Vbc1NTXDU3zhC19csnQJVjgocdirZjJvu3MbbA6GOYsXLaqtqe3v70OpnJeft3nzlorKCoQyEALzmbarbZWVlXehNk5Lo6qqbtHiomK90VZeXg7/snTpElgz8gQe0SKhZ6mqqsLAr7+v3+V2sbVdXl6GgR8IxZ5XQX4BzB0SGeDF0507d6Jm2rZtm4YktFHgLOohWL/ly5dhE+B0ukiPJFVWXr5u3VoQDSVUVlYm9ZxXXU1z0CXn5OZ+5jOPr1u3TpAPdIthhSA09QSPJjRqrJ0dneoFMprYmxMqxkz8IaSAGlLWsM2BBSCqjDQDBiSk1AloiO0hq8vgPgik11pRbAozgwDljvhDFnvI4QxGMBRkf0cYGwd6irA3Iq9ggxd1RIMOI2SzgUPuAYszYrV4MDCMBKzRIFnq9ZNZanc4WflZn7Gg06Ncd8S///u/v75jx5//2Z/V1NSQjNkDsvAIFIBHUMAkeYhBndMBYyMMjmhAooAFfBEr/+/8zu/ct/2+r3zlK+xewz2RB3prkYZ0K5i7drtwLkpiEtWPzcruD2og7ii1tWjG+S0P0M4KoAjDpasnaiLFecEW8TrpyYAEVIzUIIs0TdkiQjHVNHlR7P1scriBjJCeSAAyfutb3/raf/7Pa9esITGZSFsUrsmLfFDbZ/ymquRAVsIoSRrhqsieCpOtNN8QyU4aKGXqC+7Tkp2VZXcK6cZ/meLV+GlR4LF8AAAgAElEQVRlppwwBRi19mjIHgVuBFOiCmFk0BoRt8VrjVqVuldLD5K5Zt2577aE3NEBUeLAGMUkAEvEajijfqXpVFMGcIkEXZawU94MOcIgGxaG9qhaPtVul7ASutLMHPXBePedd9HFYJ5z770fqayqVDNL/gNM8phPaoKxySPJORIZt+LT+aBLImNeAWK08SFfwqLRlkvrU+STmqLqnohspKV8XkQOkofqAb8FUETbHTMU5Lt6ItWI6ArEqyRFClyhYtf71rIvrhOLkiWep0JAQb4jR46gKd/x+o6Vt61csXw5gCXtUuoe4C32ovqgy9aoKgWryumUusLxe7pi+tUp/TZBZ0rkM18ehQICLlal8xWmnNmlFROCBgxsO6Nd0ER2jdQN9aOgwq6ZbvVZJoAqQ4BGqZDVTeECeBeOSVCMeW1l9SafWHkpayUzPBrFLPDgoYN33nHnww8/LBwNLzK/9VRLlJXyfXVTKmSxsDe0qL6+qKiIz7p6I79x/clIKUe6nzLPRFWTn5KDcCgqI8AO9qSlpQV4RTvzy7/8ywiMNBwiQT3hn1JdECf1A5V41Iepshv1nilejUoe8+EUKKAwI44msdl6PTv1SMGOulQ6DTOsyFpKkQwUJxS7eKzEA/1VSQUCT3w3InBHGhFgK+Lph/xV8gqcC7JJFH2HlueYTnGW5Hry0ecYBSGGoBZBqlJSz4RAY4TKjXWbylNPuBg4o5RpE6DDU8AUlicUDKKuhmD6Fd2okUAnZZ6Jm5oZHJZGlgBTvBpGFvPGDaWAyCqCJykW0QTcxCuo4YlvcC5oHGILb/IMUyijhB/JTwQh+a7ej2uENASlnpbcBaKUKkSgKnW14rUZ/a9Sr3B0K1nyGP2N2XsKQbQREHZDutTRMXQ8NRO0VoQeAX3Gk8f1NKZ4NTF6manHT4H41Ne4o4es/E6BQOqhup/8MMWaLkCjEEfSxj4pKIrxSur2WNdogsRY7/JcytNVi2eUzGWMI4OZTaLBNC6FKaCevgvqi9Q8tcsEnanRz3x7LAqIzmUozoh+JjZv469rLFHf1KSOMzLDs1fzXWMTn3TiOAqp1COAmiBFkmwSezHGNg0pJgXcDa+I3NEJx508dSbjuau052I0PFLi5Dpo3EnJiI0knY2U7Wj3J8sscixOsauC2SN21mgFm89MCkyQAopTUXN+jMmq587QYSlIM/TeBGtgJp8OCiStExPLDusHLZfGFo2JvW2mNikwGQoAGixz4xu06iBQ8mUCzmRIPiPvjMh2jV4aR3xDcTZneG8OvzN6buZTkwJjU4BRpQfWOHUrwhSZI3Fsus52CmFUlcHhRHtHZKvUlR3hdurE5l2TAiYFPmwUmOxKYB59+LCNFLO9JgWmgwKTRRzKHnn3agqZTkebzDxMCpgUuDUpYHI6t2a/mq0yKTBnKWCCzpztGrNiJgVuTQqYoHNr9qvZKpMCc5YCJujM2a4xK2ZS4NakgAk6t2a/mq0yKTBnKTDy7tWsVTl2UGQmyzNtjmaSumbes0SB4RvKwwf28DSzVLkJFDOyceAEMplAUqFSsg+V+InV4dRLypSHoz4ftXx8sIz63HxoUuCmoUDyNBgBXmKnRuTpCClueGtnm9MR761ENcN+WnuEhS7C6YyOKaM/HZOG4u/SvEwK3PQUGDpNtB+0WLOYSeL8mKMluFHWA36ugs5scTqKCnh99RsWXxifsoCOnDSOo8FoqKAwe/L0G+mYx00/BM0GfMgoMPokYIY4bRG3TSIRujgQJSdqx3ekdtbJOHucDq5AvEHjwPnWVw6cCuAWl3CNcl5MgzKgMxruTIkso/fVlLI2XzYpMIsUSL1+CoujfsKO6MBt1UUP3blORSaU1II6k1+vZ6ppswI6yschMZj7BiJNfeH3u6x9+IvED67iYXCpPVON0/nOGJrNbLXN3E0KDKFASviQ4S0ziBCGLnw/dxjbvFFPmjXNpW6K66E5hzuzAjqCukTkiPgHCB7fQ7wOi9UBMST0joTowZH2DOOOOXxNCtwCFEi9fAJFiqcRF/a2gWCwr8+bZ3O6HMTAI6q7anZKtLpxBJkl0BGKRCJEdPb6A0HDErKJKlkxQErAEtLMMcLcuC4xSzYpkJICw2dIHIUST6wDUcMX8IfCABCsjvKLP/euWQIdvVsVioRDkSigA2kU0sRwR/F/qWFcU0zD0kSod53WOoiS8j4Ha0VsE72nqJ2eKSl5eMlDWVL19nAfmVPsULU+Db0U/uqiJEqbXCSCMZTAKvE7w2uclM2wPOMmCorTlqz1SCRyyjDnxUNrI8RR+elM49TSGSRqN/ytIXdi9SVMlYSaoxrJK3BSY4ZV/Xo+11NJoljRfIzTSAsSsnkjYbBiKRIvqYzVN3jqpAKH1FMoLLfirR1CH3k2RK/CLS29JM3ukVsxWsnDqjLsxvB8JT+hgfSqXr7D4WgoHDAsLr4rVfL1lsdaNSzb2b8xW6ATm93WUNQIRoyBWPxE7bQbwqTwexij1yRJojx/q+FlJ248AdUkfFLYYuATmvBsMclOhhBfrg8F6aG4zj/proo8r8dWcnUGvTrBesaHtR4z11+WOSMDm+Ik+3j8FnsM9sQ79xjFJj9WpcRV9TZU98w59lO5QxhMoc+YaE5xOIbjLZLH43PyIhnrH/K/TqhkGiRmCI8lqbxjhG3EmSQv3R/yon5ZWidhYeSbfExBTBkqdA2dJxsQEpeSLOUVela/Bc1061jmVR4xGiYyU6MtUWaKMhKt0pM1ImEuk+oSezvRMqmraoOO0qVzTlF9qYoqLenNFKVP5RZF8GNjWhmMd7UxnCiQUvX0mrniJ1j1WQKdeK3g+OzhqC3Mjp7cEq2OTLKkZSKp/hL9KKnPx9sylbPmFdSQkNiGYZeDSNdWlgF/OGQQd1UqQEKJwZw0sLgTm9RJkEePSW1Tdpnu7ETNdKl6cA6pLq8PbYu6pafaoEfCB0gIWBWRmxhQIZcjwsafU0JG64ro0NHJhev7EvYtlpWqroSq1nApsa3DHodRXpgfHgg1dweZKXHsiNc0jnDxLHhZ8Q2RSJrT/v+3951Bcl1Xei92DhN68mByjhjEAREJgCRICqTEsBSlddleeU3ZKu2WXF7Z6/1hln/ZJdd6q7zLHxu0ElmyVhRVSxHMASQIEsAQeQaYweScU09Pp5f9nftmBpMIQgSIZXn92Bx0v77v3HNPuie9fjqe3Ybl0VO3bUqspOE2IczqFJ2NDyhI2mAKEtVyOQUWjLk7NhJsRoLDVrxka5fRsv+l51Pikb5pDikvI6unf1iTXezXoMgBtB/IJxq6KEuKphk8zi+XJ5igreIISMSosuqwaWefWPUVHt+3bmns481zGIuX/WOd9tl142n48qDlS9fNvRqP3/39asxxNWhqkJ28q3P87lh94RX3yOjYpAcLoEh4UDsiLLtjj6jGGLf6wEkaz7wQpni/2wGZsl0nBtwIGfHHDu4rK0pTTM7p4K73Tr957vKEJuMB9xjJNkqSQvYMerp0yQayzRdqaDc0M+7C+ixtGct7po0Y+Qs0lNaElZC9ABhbtGHwAIc5KgScAjwazC5ZUnp8oKsAy16rTSuRAODBu5YUj/3w8aMvfnBmXlc1QbZ1hi2NZl+mD0NwWZ0wG3tiCRRSYmhY6JDKC7i/d3T3jlLxV2939s+N63h4L8ONqE8I4BN9xGX4TzA1yTQSgssSpFxJ/9N/sb+rY+JvP72m8vDbl9hhT7nMGzYNkQwrE0DMFT1fxhBfmrKlP1Rfke73/fzUeUN2YF9mSMN/oQeQEwhyw4iUSyQi5MjM4YHAoqk/umfrU9tCUzHu+e5OVXaL9DwWoiRhzFk7cr1PH9/zwi8+7owAmCBamiTyeBA5wBMIeqYuhRzs+Z827jArNA9RH7bddmUxwjIcvB6H3wALS88UXbrAXuDyem0gbMk2RYCjZRId2TLsF8OMxIaeoLx8chWEO3oLChP1lkmNCTTUiInwOP21Pu6R0VkhAyxOnOMV5mDbmxC+sp/WvopOxDeSEYgSY/ntHza3oa54I5tWuoP70TOPDU0v/uQX7yYt3u9xPPfMwYzO4MCkCshYPLN92B1sr8rWQvrIzBHjHvwigkaKTOgwA8I8NKgKnBHbDNEwcjN45kCRGJv4FldDxHGGCQL9wYuMDqchVDFpM2Y+ix3wMH8PMOwVQ4CgIrJhbi3MO9bgm43WvnTqfFIO0MRse2fSRmNIcZcuJLQBHxZHF4iAGADTgjM6L4wsqq+/9+GO4qNKNJy0DA3fsJlWWIM3iFxghN1G/EhTrRGNvt4zC/WNCuJQjBtXzDie3Us8I9W1kcQ/QAP0IZ+UbAX5I7QqGsHGkPnDefoGaHh05VBNQVaQe+ucMKSaOgIiogsNZMaU6ApFB3HISpCBwFUYQ+TnOen1losN/vqswlzNUJOmweI+IhiMD8z8jCb3zXOzqoEnDTg4fW9FTlp6+mvn2rBSJmtEN6IMFsFiTGINWRxiE5waGCCgLRlmgdf5zeamv/nkctjAEiT8b8d0Fhxl6m8Fy3AJCRi8NwwhUUE1lkytJZGJJdcaXxIz2LpIIJbk2CYYkf3OD0KAYWPPg7/4qJFirbD0zif5SiDcI6MD3ElamRImTUsBG9gms3R+iSVLK6SRy5L4JRZNbCcXnuSpJDujvpj72euf9aiCKTn5Rf18fzycNFC/x07ONN5WIUEydUKPF8mppkfNszCAnpFtGYQroUsySu1FSBpoECqdE3WmNHjANqpxuLuD9A6+CXk6SJoKuBDrFS0DezJ7yBn0R9AFySClQn6DKTDas6E7vGTCCjAS3TQiluUTrIf27hyd5h7YnvfWxdY5hCXAgccUMHKQbXiO+BfqxxRAlA00wjPioUMBrgFvaZjR5EVVEDRenorHoyqpgw4MDRWI0Yy8qPMSHrUrmlAkQxN5H69+a1/R5TNdCMmw8PmE9uc/O4FtXHUE2PoAwZRMhS0Wyxch6AKn2xkQDAMNDZ48Mns59uZB1DHNolCqqWhpfnl7QeZAx5Quycy2wN6Y8K2Y0SENMgUDIRLxwjJlWgXIzOuCGNGF2cVkOrA2dM5IsHANc0lghsTLbUOz1372Op5SDifIyZnH99aEw8nfmobKkBFMXbTAYkoqmaA2R2iTmSAWI70N6hsG5wAbqvPzHmkI/vRjDQIC5MBCMAaEJeSWB5MtxKrJ1dIBm5kVA5IDR4O2BACE6iONALFi3xKtiLlk1O/WAekhi28DphiCGR1M8HW3Obf4jeS7RZu1cEB1uzOHXGvGDZsZm8zGHIMvd9ichpDBwQZjnG7JnImA4wYvvPJhi6kpW7IyS+D2WEaM49oGhkWnrykvF7Iyn1T6Judygt70jNy+/v4dTQ2pTqltcLhtcEwRyKY4jXh9aX5lYS5SJOeudA1GFLDaI5kFqd6M7IJrHZ076msKUn3zc4sfX++e0XQ4PCkOq76syu/zioIw1D/YOjYNI+HlzYaSklBaDnTkfGvbVFRTWe8SU2pSa/wVDaMkN5XXkn9z8up//e7uuoK8zutjBnrdYSA0PUUWy7fkjC2Esaym6ioEKS3XuvvQfylJvKZkOuRd1ZU5manj0zPnrncpCBZ4mDcDigUGAHpjcX6Qh6vBTcT1tpGxstzcfK/L4rXWiWk+HBVxgZZ0Gqph6l6Jz8nI9Afdnw3NwLJwuubi9Z1lecVbcmCU2roHOsbmvaJZW1Pl9XtkU+voH+qbjuhoVSNe2/4hpjedlnWkeferH3zEy4cf2V77evtU0hQ0aK9lOnUt5BBLigoGhwbLigpT04JvX2iN6rqHs+oKi0rzM5AJ6hgY/ax/DKovG5zHMpsaKrJTAr1Doxd7hxXRDdS9TkdFZXVbX/+CYrhMVYIBSMbMZBJRFuIbn6A3lBempKV5eP5Ce8dQZFETEN8ZLs5oKCkqyc12Wer5vvGhwUEjMS9qnKQlJUPEvOluV0l+7rneERSiPaKV45FKiosvdQ1EkprHIeSmeIOpoemx8eYdO873DPQOD7kkrqa0OCcjQ1DNsx03pmIJXYSNY6JO8nzXTAIAgY/014YNrwwbJFyxr/0hPv/88/cASexJ6Eiejyttk5ELk7EE7yBxZHEVud/2Dmcr3M2/cLO/5It8dQvKSdx4sLpgV+GWHEHLduppIp9U9Zimpfqd393b+PuHModHFq6NTlqy9GBVzv5dpaNjM/VVVT86Ut6QlZLrl6ty0vbkeZ/cmzU8FemcCkNBvr23riQ/W1KjB0tzv9VYeO76UFK3jt+37UcPVNdmBmGhtpcXNGa4nm4MlhcUt964YSiLP36gKaGYba2tIZ98oK6ipb1zi8N49sg+xC/Xb/TUpUtPHdrR29k9qpOvTmEXVk3+uOXXFg/vbLhw5cr5odkjNZUpgZSzl9tjvBfBTG5q+h8+eN8fHclMtcSdMHN+x+HqwN7SLWc7uqOakuOTvv/oQSRaQ4LyVHN+bWbK2Z6xhMGlC8YDu8uvd49fnUk05Kb/8BtVjZkZZ/omhuYXCoLu7x1vCDrFG2MzR+oqD9eEvKI7mFfodrrvryn9o8fL0jnuvfZ+sKs4ID/ZXC9zZnx2rio3qyInvXtg4D88/VB4aqz1eltZpr+5oeFyR1ccWRLGYmzAiDwlQ63LDjRUF7x6+rJmcE/syroyEhuai2gIUnWzsrDoRw9vf2pnmj8WObq7ZtsW76mWGylu9+/t3YaoJTo/VZeXtm9r/nsXe/cXpBdmp7oc7pri4oZs37N7sy1NbhuYriws/v7RbcfvC1643D2t6seaKo9WpwZcHl96rtvt5meGnj26j1dil7p6qlLlp+/f1t/VM5EwqvzSN+7bKXNWZH62IS+jqrpQnZ07vqupNlvSXZnlxQVlGb4/eKjpcGH62+euqJx8oLH2B480HW1I++Bsh+HwPrZv958eK6tKDdSF3A9sz+gdmdanx5596LAeWbh+vbchJ/jN/Vt7enomNcEggSQTAZOwXszZNvMlXqQ+cMEoTqQX3guWlu/h9hamZfqcbqdTRHMgs0nM2N1Fc3enBuPehVe0amblEduwMOuLKHEnWwLbAgxL7JmN//jFj545fN+BQ/XHvbRJjs9zf/GPp8+MTP3jp+f3VuyamZuJaJYWXpwJR7o+jb7T1uvgB3b7dueVZb558cpgxMh0CD957hs7q0rfbR1QZNeMLr7+5kkusXjJy//vH3y3sTRn4GLnWydP35e6v7widL6r/+en27yc9cT2yn/1WOX+iuwzN/qbywp+9c7LY4sqohtDwiZtPXVwd2Eo8OsT783z3rdOfXJgW8VDO2qvnu6mDAxlmZiYWEamR85KSz3RP7QgBU589Ml3nthXk5VycpZyxCMz8yfe/+hY7aGwIf3tP5yAJa1N9/33f3OsIi97rHtEl7wfXLlx9Xq7V0/EZhqefrQp45R7Zj5qIIxBPGBySYP74FL7ji3ph6pSh8eHMenExOSCwv3DyfN9YUsOtz+6p/KjthsvtiO04vquR/dWPCmaCq7MENV/9+Sxj89eebN1wDLF84PTzY0VBfnpu8q5l19pnZxPvnPu8l4xkKAkCyJUieIJLAXr0ZMHavI/PH95zjAvd/dNLdYcbyq90DMYY77u1YGBN+J92/79AzO6+Sd/fwKeh6nHv//4I1c/u/paxzAi3Z6xyWOHDqDJC5BkL9fSPXj9sxtwXv7b00caigvFU21X+vsC850/zH9YT6qqKnx27cb09pL+/qFX3r+aNOXv7W3ckup+6ZVPF9ypb39y/khjxTd3N46dvPTH3zh44nLP+629iDF7xue3Ne++Njxe3NVTk133q5OfjCJtbiZDfs/9JaGkZSV46dNLV7f69JL9xbJlRePJE++892jWIWdKyosvtyTOtMd553cP7fE6pb9vuai4gu+1tDy4u/BoY3Xnp52maIfydyLTG1X9pgYxW4aomVKTpGh3MYrbOO0dn7mnRofZc1sMl2MnRqLNXc47IRxdS2Bhdz6bSLb/4q2QR8rwuXcW5HznaDVs0IUX37g8Ots5zjXW1Z1ofd2XEqqor/6r33yYkPwJNRmOxfk5o3sqvODJWkgo3f3j6SlZDt1IcPr5M58U5OSEMipDSFHomkMWNNNUBCGS0EamzM7xmRk+OM8L77YPfutIZUF2xgetvQsG9yf/9vdarg90DY93XbnoF8TtJdmaYtZUVs5ookcLzCQ5d0a2xfeQl2OntmGedfVgc53TSFaVlsZF93w87DC543u3n/3tuTjnUHluQUnGLe7G+OyYKui8ByOScS4rGECFe356amxxsrq8KC0Q9GcGkZNA2gKet4GAjQkqqL/Iuz662vnQzuYdJTnvtg1VVFe29892oULGuWJaHJAXTT5sIBtixCkzhCiJjEdZKFifz/1ycjYh+ZAr74sZE+euFWX4FYP7499/5lx7V/fQyOWzZ3RV5GSJkiTEXlyspzlEBHvtvSMNpWV+3hyaTjaXevODDph8sk2cMBddnIpwF7oHB1X34I3h5pC/voB7962pJOrfvNi5oI6/9RGKnnCe5qJc2/DYrD97ThU6hiYaaivQnwKjENVodZSfEeSYpiBXnzCFsMZ7nOLBpqKZ+cT2poZZXZYNJaJzgZRQSSi4rcDx0/fmEoITSF4PJ3o/PIP81qJpxUxuTuWjlhO5syRSEKhzIkHL80ndiCoqwmzIsWrycUyhGhOT8a4FbV5WU13cwaYt13vmt9bWRizJL6hzCc4VTCNhXIp6bDNxx1q7BIAJuc1PRmjk1Sif/7U/7qnRuUkN4sMKyRCTQtm+ioMynCbnWbRciyrXP2u0TnQF3cKe3ZU+kRuLm6+duvjtx7YXOc3CsoIbgwtj4QTn8FK2l3BBapUCNAWZRENwcALysmkO/offfETlxNc+OtM5OfEv6/NViB7St1SwEFUOyo/UJDKpfEQzINnzCWNWk/7nKyef2LP1+K6i4OGikSnuf/z8/aDMTSzEFsNznOiLWvxfvfrBZExBLxF1wQBfMpZmtkfaXpt/4bNrfn/Ai2StkdbZHdtVGawIuq7MYyqBrAjQg3eNSeFZs84i3F6MrEpZTvqPnzr0zoXuc63trnDg/uZsDGZJTKIzpbbgbsnujvG5ngnuwZrCc+evFuVmvf7+R4rlZ9sk2WvaFpjdh+VAvQcRH85mBP1ennOJDs6kjDTysHFD7BmN/uSvTz+1v+nb+yucnoprY9x/+tlbo/CmKEGOtK0ua8kH9m+bngr7HD4H70Rdr6VzYGdp1YGtlW0nLxrIT5NOYo3QYUyLHnLe5xRSHRzy2yzcFJCtnUsyi8w6FygXxQlIV4MQZFJpVciogmUUrcNVRNqKsENaDDV/ifN7uKmJeHR+Vhc8YOgLr55eDIeL8tI9PFp3QRlEP5SATyi6hLQ6C4KQaQZKVMinnD1awmF+dSap7FsqscOtQPwix1UYJofFyU6HHHBiGYqysADyRjjjf738Pjxc3ZTtfO9XIeIUmRFGjLE2w4gAX8lUdwvoP4HRYe726oN85ru1HgYHJGfJNUPbVpKlCu7W3gEYDTBF4UTV6e6b1qLo3xDdJ9t7Hn9o++M7qgx/8P+0XDMEt80ujwRpX6qkoBhFcoYSlR7fXVG3r9T7gxfeuDarZtL2KFNNBYUNSDvmJKln3NbVUIprUeDOtvebDl9ngv/xb1rSHdKhosz/+FhjVW5mIqZzbk/79NwM1Y+wNWMG5n7TNk36gzeHirOuD8z9sqU9JsMQcE7dSsxHnq/Zd6g0s62lHyUb/GyKCA20LSSLXGly3nJp8af3P6yOTp74FAkgs4x3gr4oVuE7DKLhKAbBMpoGYpk3znY8t796W6YPzfPjCeqet+uKEAsD2k5VbNw0KJHymQ5471MLMXzVXJB9erjHEEEBfOJT/d5LC/rHv/w45OQeriv818dqC4K+0WSMFoIpLWuL13l0R94LL37YNhPX6F5o08+pWwsyju0seuPcxV5yYESX5HRgLMpSRHkumVQBuqkw593RYaQtmITYhSfKiFOYSKtCPZsepS2gPQVfatpS/Y9sAQ/6IFmDBHY0ri3EOMmXfm10fhpWmXY4QTbEFGR4LW5XefH50SsJmFFy5VC7ZPVJxgaWJ6GinEzFSIS9VN1L93nR9qFRAINTBtqWJAEpc5kzZCVuqDHO5Q20Dk3NuVJIDCF1vJNJ47KEM9B3+VhtY+6uJt1lRJfAUV3znh1E8BVrvHpWUOpuvuwdnZycXLdzb64vXZmRtQWnGq7xGNVVBb89dSECaeHEiSTf2jHx+MPbFw1rJAK/A0KmyWZSciEEp7I0i3eAsSRDiC09Iy0VlRC/oWRb0SONRaFsNxoAeEslcbSMUi9X6VZDiclsM3x4d92rpwc7x8MIK/ZXFAqagmLHmc6+1jB3aXrh7dbeojzx2caiTG0iLTZR7jZzXCwwoKQ62Uq/oNzfWH3qs8sxyctJLk50ogx8aXC8a4D71p7qXIcp60mXKMgc5zBRvcYOTNs1LKMMxA0zPcXjlrigHimRzftrKxGXUXuaabgEwevgPC4XK2IZuiB/eLUrZnB/+AfPdPf1mLKH2CCgdI2NnQvJViAxi15oWU9gH3fwKPWYNybD10a4Jw6UP5DL5yrj6epUnhSpzZC2FyHcVOeT6qcdXV0xbiYJP8gWLdS8k7uqC8Mz2o25sIrOZtZBsGgZ71xoywlwB6pKBVXl9HjALQI3N4wvdNri2mYWLw5aT95ff2yLNzU5EVBnct2mYKlwnqg/AFaGrA6WIME7lLE6Ixnwyh6J86CAbiQQZyB1FXCYfnVGU2KvfnKteAv3nR0l+dpsID5X5LbyQ96u6dmLo8ozhwsezPelxyczkuEMD6qTQFB0SlyGNe8zENImYvFYdgq3P89dok08VJq9uzoPMSczeaAhClOCy4HaOWRAn1O1X58bqCr3PDbZYz8AAAsZSURBVLGjONOYT1Vnq1KEglQYHeZM3eWdlenPBhPD/N2v+3Gvq1et4wvnJ6I6D31hBGM74c194G6Ri2362NMyg+5j+8pqy6pLcjKaqirLK6teO3W5pXfUlDzMORCExOKB5qKX3u0YiaBpkRcl8cDW+oot2aYsxkVP9/g0wFQV5ARCXhRauocnivOKGrZW5xeUDoyM+fyphj9jYjERiyzsLc+rK/UXlNZV1NYVl5Seu979cVtv3BL9Huex/dty00M5oZTKmsqWjr6zfaNdw2McHzzQXNlQ31BfXZmVl9c5NB5VsVmTxKSm+B9u3lqSEwxb7olFJZFAVxMp2M66irysNBHdsv4sVU2iaIVYx3SkzSna1FwYzQG1FaWGO2VsPjo9M7ejqay8utGXFhoZG0/NzlowPXPR+L7tDVnpPkVKnTHE2fACumCSyURhik8Mprz84bkoogDa7S1NSeRm5O5sKkvNLZ1biDTUVBbkpCqmnHSlDoxPt3f352ZnN++qqaqsqa6uVpDdNc2j+2sz/IHs9GB5TdXJyz2twzMmsZiYsKumck9DeVI1p3VhbHqWtelxBfk5DSUFXn9ACmSHFUN2u/fXV6LirjnTY7w8vbCoGFZ3/1Bm+pb7mkuryhvqamt0wwylZ9SWbhGcku4M9c9EDV0vzs0KZQYU0+PyufY0VPkCHs4VmojE5xdjWQFfXX1+dmH1lMK3tHYYlv/g3pqmurrqyur84uKOwdGpWLJ3eDQtdcueXWV1VXUN1VXI0QyPT+uquq22uKK6QfSn9YxOjc/O1hSW7tpVXlffFNXk7tF5d0pwkQssxBLba6tK87KSkqA5A8Ozcwh3bwyOWULwwL6qrQ319ZXV6Vk5HYMj0STsqG0LmJd/F19rrA6Aq8Vefn8RqleuNdUrW62+NuZoKW6/W8q+ORw0wOl6Ip5A+8ZLlwZfuDKVwAZOmwXkj+2HFIjjWBt43ZHNZkYHboMWSWMFCEmSYqo5ntAV5GdEmSOPgDb/2hTHc08f/S9//UYUZzCjrjtNzaVHsTWpkhv3AQBDtxlDxdcQJIV3pAkG8hrzscR8QvUIuJ9XUiWPyzL+8/E9W0K+P3/pNwlvaDwSj1hwT5jW6Yk02cjy+1G/HJqZi8APF10wIg4jkePivW4prupji4oqujkZfhPhjLY9nxFDh2FSkJO8izwdnDYUp5lw6UmQTBHhFwEQ7irAbivEBAeaYrDre42YIDiScAV0dYtfdsqO4YU4uhJpqaIctyQPr8kG7qWQkJmG94TpRD359NbSiUTy4xuDpuRn85PPFeSUPL9zOq7OK/iJBBRxVDS/KZI/zqFuoweteJbXITudE+EEGvZAojQH7Dt4yg/OhiOWg9Zic9YyJF1xguoCH+cdaHzhkGJhawxoMSCGkrnKO9EWE9Tj7KOUEF0atgQ2xqXG8oIup8MxHY2HFfQwOhxGHDGfJrgpk40mZT3hQvcf+Ia4Eg4FOpEEOSHKmuD0WvHcgCuWVMeSmNQha/EMSQ/5nRHVGo/qoCEHZMBrNZLjd3pcSGknZjQe5UVUCPJcOpR2YFFLQlosPZNLZPo8i0lzPAqGowCpKpaAdJLMmy5DQXitCLKGLmgJ4TmivBg84HSfM540hhfRJeTGQJaNsoV8g+rTiQ0nmT7c9mFfjjxT4v5s6c8OVdRmp6b6/bIDDjr76g7B3zYetznwnuV0lki+hBaFuHgtEWu9p0O5sc+h00ps/AXrW4Jgyb5ZyzebxFSsRka/44ivcDFmhx+uVZZWv/He+Sj16LP7E3hBkZx4rQafEALLTZT8NM9NR3G1Bx2HSQJE7olEnfdCUvQN6r75RWQN0bnLuigwqeSa4/i5KEYanBRYBosWYe8gcgJxyhRwTjTB2RlTtmpBjvJBerNEBPvubkmRAopI+R37wJrWHKIYIzvCDsnThwZEhCAO+omDFfLGOdiaZbBwBk3LzUsZoYwTH541SYcxmGWyeGmBdy/E4SrCFFI7MIpZSwfRX17gPQt0Bx26oKG6BH+S4ycjDHkpjU2Ha5dQ0UWEVDAiy8fSvVhihIzszSMMO7hy0LXI3DiTblevxu7Wg9+EGA9zCmRrGHD8w+uiN7oMHCmpJTaxATE+2I0lcLDa+ELQ5MAYZ42B4DicyzQRxKTbjQwZhyZRwUNTUOuzNYgzCSCARA8gyFO8ZyrB6Ob1gmgLNp6UIuQUJKJWyyrJUWDc5MYjDEHXqoXbKC/TZWWtjFxLxLp58nbe3bxo+R3jNdEFL/StE2S8Z5L/dTruodGxiUGLX1EDODvLB2VPVh2gF+U811FrrSu05oJbfiAw9rWMPeieN/SadKcraRZmhv7uk3OcE0rOUoxfwB4AwQgGhP6whUA4DdPndTtQ24X8UY4TJykZdFOWVuSSicUSrnTSnm9FaNatgn27ZsZ1Az7/I7W0LB8rMy6dICRzfc4Ap9dXVM7GYjEMRj6L7k5Zlv9ljEij1nKGobQ8bPUUK5fYA25Ov/bd6mGfN+Ym2A0TrQa+DtQK71bOb8R845l1a7GvXTm57uNqhFdPd5O/q0ZsnGu1eVoSDpvFn0OUNeM3I9ba68BnNHHZx03Z2+y6f9pz98zoUD+mTQg4/MzV/BxC2xpC2ruJzbmpsbcm2625ZXE5aSl/9ty+eJz76W8vRSTUqpHqYxCXAr1bQ1/5lm7jQVhWW16alu1PDXL1laWfdA8b7NbmLwaxZFg3DCRMbGxuA8iGqzc5QcRepjZAEmGtxw42H2oKdA9wf/nrN6kIRZlORoTlgctw1u7km0D//6dAgQ2cWm/oGZXIDGHk2sG3kNVNgaym9zoxw3hiH/a+Dfh8nbh0D40OWzYzw7YO2NLNtoPVWmFTxyb3RqLjDNmj9ZqxCUk3HWOrnGXOhBf+4u9OTkUSAwtxBPxM36hlf71AbAJ39Sk7iBAWFf0vX/kYHR3o5oVXSzcnM95/4dW3GmALEMG4vfXeEtZNUwLEiAjmW6dOt5x3D07MzfHIv1DrMFEA4zZiviklNxinW83///h3m9nlTYm2xhYsiwdR/jbkeXMa2hJri/WSdtkW50tD3Hyeu3r2nhmdJayJ0tRVwSqIKzzYaHRo+Oco7e1w6PPGLLHCUgyzZWSBZkC6l5VsmMrRXbu/C3kJHO7qQCnk5nKowY/lpG/nuBWetjwxi/x5pLidKTBm3SwMIG5VHYyolCu5aWios3H94PVT21bpNif+ZzNsE25vcorxcsUaLPOX6L/RRGxmyDYhJy60JdaGwHKTS3mJTRHYBMS9P3VPjQ4ogoIBykMqjz4OkAl7+OrqFVs+KT++YSxZR7eNrPk8gtGFtyY65WLYEGonphQMYWL7KJgbX6yWj02moesJSZaBpoXYhkZb7si49ezLAGlFG1ZlGywSxFVANpFLm0obcNs4cv0MbGkYthTkUjMeFZtoXkaWNcdGM7Rhxn/uJ9ZyaoUaGzcekm32CzxE+mXxpo/rOUQwNjm3njdMQmx3m/7FvfVO/GIZ++0x9pNHG8d/LVh1T4wO+TTUAuOW+caQ9Gwh7huK4KkQ7EYgkIx+cu0rJcZK5Et3ta9WZJstthTAfix9uTJiE7av4GmPZb8SQePRxcpkBwuxf5J5jcyQaGwUQcogrZmCAC2PWycyBHzd4M0gbhy2ApKJ56pjmeY2/gx5WsVGRtwC5rrB6zBctZr1UDeO3HzwZuM2WzfB3zh205Ebh20+9WYAb38kpt6ElJD1tUwEMjRy7dhNMfy8qZdEmOfRWBDwuCpzPD7cyoH7y2/X2V7Pmnvw+f8CbvBVox39RCcAAAAASUVORK5CYII=;" vertex="1" parent="1">
          <mxGeometry x="18.58" y="640" width="486.04" height="330" as="geometry" />
        </mxCell>
        <mxCell id="6NrCRAWB-HUcKBT-atEr-4" value="" style="sketch=0;points=[[0,0,0],[0.25,0,0],[0.5,0,0],[0.75,0,0],[1,0,0],[0,1,0],[0.25,1,0],[0.5,1,0],[0.75,1,0],[1,1,0],[0,0.25,0],[0,0.5,0],[0,0.75,0],[1,0.25,0],[1,0.5,0],[1,0.75,0]];outlineConnect=0;fontColor=#232F3E;gradientColor=#945DF2;gradientDirection=north;fillColor=#5A30B5;strokeColor=#ffffff;dashed=0;verticalLabelPosition=bottom;verticalAlign=top;align=center;html=1;fontSize=12;fontStyle=0;aspect=fixed;shape=mxgraph.aws4.resourceIcon;resIcon=mxgraph.aws4.managed_streaming_for_kafka;" vertex="1" parent="1">
          <mxGeometry x="200" y="350" width="50" height="50" as="geometry" />
        </mxCell>
      </root>
    </mxGraphModel>
  </diagram>
</mxfile>
